%TF.GenerationSoftware,KiCad,Pcbnew,6.0.2+dfsg-1*%
%TF.CreationDate,2022-06-19T17:26:26+02:00*%
%TF.ProjectId,PlantSensor,506c616e-7453-4656-9e73-6f722e6b6963,3*%
%TF.SameCoordinates,PX5f5e100PY623a7c0*%
%TF.FileFunction,Soldermask,Top*%
%TF.FilePolarity,Negative*%
%FSLAX46Y46*%
G04 Gerber Fmt 4.6, Leading zero omitted, Abs format (unit mm)*
G04 Created by KiCad (PCBNEW 6.0.2+dfsg-1) date 2022-06-19 17:26:26*
%MOMM*%
%LPD*%
G01*
G04 APERTURE LIST*
G04 Aperture macros list*
%AMRoundRect*
0 Rectangle with rounded corners*
0 $1 Rounding radius*
0 $2 $3 $4 $5 $6 $7 $8 $9 X,Y pos of 4 corners*
0 Add a 4 corners polygon primitive as box body*
4,1,4,$2,$3,$4,$5,$6,$7,$8,$9,$2,$3,0*
0 Add four circle primitives for the rounded corners*
1,1,$1+$1,$2,$3*
1,1,$1+$1,$4,$5*
1,1,$1+$1,$6,$7*
1,1,$1+$1,$8,$9*
0 Add four rect primitives between the rounded corners*
20,1,$1+$1,$2,$3,$4,$5,0*
20,1,$1+$1,$4,$5,$6,$7,0*
20,1,$1+$1,$6,$7,$8,$9,0*
20,1,$1+$1,$8,$9,$2,$3,0*%
G04 Aperture macros list end*
%ADD10RoundRect,0.250000X0.312500X0.625000X-0.312500X0.625000X-0.312500X-0.625000X0.312500X-0.625000X0*%
%ADD11RoundRect,0.250000X0.325000X0.650000X-0.325000X0.650000X-0.325000X-0.650000X0.325000X-0.650000X0*%
%ADD12R,1.651000X1.651000*%
%ADD13C,1.651000*%
%ADD14R,2.000000X2.000000*%
%ADD15C,2.000000*%
%ADD16RoundRect,0.250000X0.625000X-0.312500X0.625000X0.312500X-0.625000X0.312500X-0.625000X-0.312500X0*%
%ADD17R,0.900000X1.200000*%
%ADD18C,1.600000*%
%ADD19O,1.600000X1.600000*%
%ADD20RoundRect,0.250000X0.650000X-0.325000X0.650000X0.325000X-0.650000X0.325000X-0.650000X-0.325000X0*%
%ADD21R,2.032000X2.032000*%
%ADD22C,2.032000*%
%ADD23RoundRect,0.250000X-0.625000X0.312500X-0.625000X-0.312500X0.625000X-0.312500X0.625000X0.312500X0*%
%ADD24R,2.200000X1.200000*%
%ADD25R,6.400000X5.800000*%
%ADD26C,1.524000*%
%ADD27RoundRect,0.250000X-0.325000X-0.650000X0.325000X-0.650000X0.325000X0.650000X-0.325000X0.650000X0*%
%ADD28C,6.400000*%
%ADD29RoundRect,0.250000X-0.650000X0.325000X-0.650000X-0.325000X0.650000X-0.325000X0.650000X0.325000X0*%
%ADD30R,2.000000X0.900000*%
%ADD31R,0.900000X2.000000*%
%ADD32R,5.000000X5.000000*%
%ADD33RoundRect,0.150000X0.150000X-0.512500X0.150000X0.512500X-0.150000X0.512500X-0.150000X-0.512500X0*%
%ADD34RoundRect,0.225000X-0.225000X0.975000X-0.225000X-0.975000X0.225000X-0.975000X0.225000X0.975000X0*%
%ADD35C,0.800000*%
%ADD36RoundRect,0.225000X-0.975000X-0.225000X0.975000X-0.225000X0.975000X0.225000X-0.975000X0.225000X0*%
%ADD37RoundRect,0.225000X0.225000X-0.975000X0.225000X0.975000X-0.225000X0.975000X-0.225000X-0.975000X0*%
G04 APERTURE END LIST*
D10*
%TO.C,R2*%
X60462500Y47000000D03*
X57537500Y47000000D03*
%TD*%
D11*
%TO.C,C14*%
X8475000Y64000000D03*
X5525000Y64000000D03*
%TD*%
D12*
%TO.C,J6*%
X50690000Y68000000D03*
D13*
X53230000Y68000000D03*
X55770000Y68000000D03*
X58310000Y68000000D03*
%TD*%
D10*
%TO.C,R8*%
X55462500Y25000000D03*
X52537500Y25000000D03*
%TD*%
D14*
%TO.C,BZ1*%
X63500000Y10300000D03*
D15*
X63500000Y2700000D03*
%TD*%
D16*
%TO.C,R13*%
X19500000Y50537500D03*
X19500000Y53462500D03*
%TD*%
D12*
%TO.C,U1*%
X50460000Y60000000D03*
D13*
X53000000Y60000000D03*
X55540000Y60000000D03*
%TD*%
D17*
%TO.C,D3*%
X64350000Y15500000D03*
X67650000Y15500000D03*
%TD*%
%TO.C,D1*%
X64350000Y46000000D03*
X67650000Y46000000D03*
%TD*%
D18*
%TO.C,SW1*%
X27000000Y35920000D03*
D19*
X27000000Y46080000D03*
%TD*%
D20*
%TO.C,C1*%
X47500000Y64025000D03*
X47500000Y66975000D03*
%TD*%
D11*
%TO.C,C12*%
X38975000Y39000000D03*
X36025000Y39000000D03*
%TD*%
D20*
%TO.C,C9*%
X18000000Y2525000D03*
X18000000Y5475000D03*
%TD*%
D21*
%TO.C,J3*%
X65950000Y35500000D03*
D22*
X65950000Y40500000D03*
%TD*%
D20*
%TO.C,C2*%
X16515000Y60525000D03*
X16515000Y63475000D03*
%TD*%
%TO.C,C3*%
X19500000Y60525000D03*
X19500000Y63475000D03*
%TD*%
D12*
%TO.C,U6*%
X15350000Y19920000D03*
D13*
X15350000Y22460000D03*
X15350000Y25000000D03*
X15350000Y27540000D03*
%TD*%
D23*
%TO.C,R12*%
X60000000Y60462500D03*
X60000000Y57537500D03*
%TD*%
D12*
%TO.C,U5*%
X38797500Y33490000D03*
D13*
X36257500Y33490000D03*
X33717500Y33490000D03*
X31177500Y33490000D03*
%TD*%
D24*
%TO.C,Q2*%
X60200000Y38720000D03*
D25*
X53900000Y41000000D03*
D24*
X60200000Y43280000D03*
%TD*%
D10*
%TO.C,R6*%
X55462500Y47000000D03*
X52537500Y47000000D03*
%TD*%
D12*
%TO.C,U8*%
X13715000Y2920000D03*
D13*
X13715000Y5460000D03*
X13715000Y8000000D03*
X13715000Y10540000D03*
D26*
X13715000Y13080000D03*
%TD*%
D16*
%TO.C,R1*%
X55000000Y6037500D03*
X55000000Y8962500D03*
%TD*%
D27*
%TO.C,C8*%
X21525000Y36000000D03*
X24475000Y36000000D03*
%TD*%
D24*
%TO.C,Q4*%
X60200000Y16720000D03*
D25*
X53900000Y19000000D03*
D24*
X60200000Y21280000D03*
%TD*%
D28*
%TO.C,REF\u002A\u002A*%
X5000000Y5000000D03*
%TD*%
D24*
%TO.C,Q3*%
X60200000Y27720000D03*
D25*
X53900000Y30000000D03*
D24*
X60200000Y32280000D03*
%TD*%
D29*
%TO.C,C5*%
X24000000Y42975000D03*
X24000000Y40025000D03*
%TD*%
D28*
%TO.C,REF\u002A\u002A*%
X5000000Y35000000D03*
%TD*%
D10*
%TO.C,R5*%
X60462500Y14000000D03*
X57537500Y14000000D03*
%TD*%
D30*
%TO.C,U3*%
X26500000Y68005000D03*
X26500000Y66735000D03*
X26500000Y65465000D03*
X26500000Y64195000D03*
X26500000Y62925000D03*
X26500000Y61655000D03*
X26500000Y60385000D03*
X26500000Y59115000D03*
X26500000Y57845000D03*
X26500000Y56575000D03*
X26500000Y55305000D03*
X26500000Y54035000D03*
X26500000Y52765000D03*
X26500000Y51495000D03*
D31*
X29285000Y50495000D03*
X30555000Y50495000D03*
X31825000Y50495000D03*
X33095000Y50495000D03*
X34365000Y50495000D03*
X35635000Y50495000D03*
X36905000Y50495000D03*
X38175000Y50495000D03*
X39445000Y50495000D03*
X40715000Y50495000D03*
D30*
X43500000Y51495000D03*
X43500000Y52765000D03*
X43500000Y54035000D03*
X43500000Y55305000D03*
X43500000Y56575000D03*
X43500000Y57845000D03*
X43500000Y59115000D03*
X43500000Y60385000D03*
X43500000Y61655000D03*
X43500000Y62925000D03*
X43500000Y64195000D03*
X43500000Y65465000D03*
X43500000Y66735000D03*
X43500000Y68005000D03*
D32*
X34000000Y60505000D03*
%TD*%
D24*
%TO.C,Q1*%
X60300000Y50100000D03*
D25*
X54000000Y52380000D03*
D24*
X60300000Y54660000D03*
%TD*%
D18*
%TO.C,SW2*%
X43000000Y35920000D03*
D19*
X43000000Y46080000D03*
%TD*%
D20*
%TO.C,C4*%
X16500000Y55525000D03*
X16500000Y58475000D03*
%TD*%
D27*
%TO.C,C11*%
X34525000Y5500000D03*
X37475000Y5500000D03*
%TD*%
D12*
%TO.C,U11*%
X19367520Y36190000D03*
D13*
X19367520Y38730000D03*
X19367520Y41270000D03*
X19367520Y43810000D03*
%TD*%
D23*
%TO.C,R10*%
X19500000Y58462500D03*
X19500000Y55537500D03*
%TD*%
D12*
%TO.C,U7*%
X14080000Y67840000D03*
D13*
X11540000Y67840000D03*
X9000000Y67840000D03*
X6460000Y67840000D03*
X3920000Y67840000D03*
%TD*%
D21*
%TO.C,J4*%
X65950000Y20500000D03*
D22*
X65950000Y25500000D03*
%TD*%
D21*
%TO.C,J2*%
X65950000Y50500000D03*
D22*
X65950000Y55500000D03*
%TD*%
D27*
%TO.C,C10*%
X5525000Y49500000D03*
X8475000Y49500000D03*
%TD*%
%TO.C,C7*%
X41525000Y32000000D03*
X44475000Y32000000D03*
%TD*%
D12*
%TO.C,U10*%
X32460000Y2000000D03*
D13*
X35000000Y2000000D03*
X37540000Y2000000D03*
%TD*%
D12*
%TO.C,U9*%
X2500000Y49650000D03*
D13*
X2500000Y52190000D03*
X2500000Y54730000D03*
X2500000Y57270000D03*
X2500000Y59810000D03*
X2500000Y62350000D03*
%TD*%
D28*
%TO.C,REF\u002A\u002A*%
X45000000Y5000000D03*
%TD*%
D33*
%TO.C,U2*%
X8550000Y56362500D03*
X9500000Y56362500D03*
X10450000Y56362500D03*
X10450000Y58637500D03*
X8550000Y58637500D03*
%TD*%
D21*
%TO.C,J1*%
X65950000Y62000000D03*
D22*
X65950000Y67000000D03*
%TD*%
D20*
%TO.C,C6*%
X16500000Y50525000D03*
X16500000Y53475000D03*
%TD*%
%TO.C,C13*%
X19500000Y19525000D03*
X19500000Y22475000D03*
%TD*%
D23*
%TO.C,R11*%
X24000000Y48462500D03*
X24000000Y45537500D03*
%TD*%
D17*
%TO.C,D2*%
X64350000Y31000000D03*
X67650000Y31000000D03*
%TD*%
D10*
%TO.C,R3*%
X60462500Y36000000D03*
X57537500Y36000000D03*
%TD*%
%TO.C,R7*%
X55462500Y36000000D03*
X52537500Y36000000D03*
%TD*%
%TO.C,R9*%
X55462500Y14000000D03*
X52537500Y14000000D03*
%TD*%
D34*
%TO.C,U4*%
X43490000Y27651000D03*
D35*
X43490000Y26851000D03*
D34*
X42220000Y27651000D03*
D35*
X42220000Y26851000D03*
X40950000Y26851000D03*
D34*
X40950000Y27651000D03*
X39680000Y27651000D03*
D35*
X39680000Y26851000D03*
D34*
X38410000Y27651000D03*
D35*
X38410000Y26851000D03*
D34*
X37140000Y27651000D03*
D35*
X37140000Y26851000D03*
D34*
X35870000Y27651000D03*
D35*
X35870000Y26851000D03*
X34600000Y26851000D03*
D34*
X34600000Y27651000D03*
D35*
X33330000Y26851000D03*
D34*
X33330000Y27651000D03*
D35*
X32060000Y26851000D03*
D34*
X32060000Y27651000D03*
D35*
X30790000Y26851000D03*
D34*
X30790000Y27651000D03*
X29520000Y27651000D03*
D35*
X29520000Y26851000D03*
X28261000Y26481000D03*
D36*
X27461000Y26481000D03*
D35*
X28261000Y25211000D03*
D36*
X27461000Y25211000D03*
D35*
X42220000Y12881000D03*
D37*
X42220000Y12103000D03*
D35*
X43490000Y12881000D03*
D37*
X43490000Y12103000D03*
%TD*%
D10*
%TO.C,R4*%
X60462500Y25000000D03*
X57537500Y25000000D03*
%TD*%
D12*
%TO.C,J5*%
X50730000Y64500000D03*
D13*
X53270000Y64500000D03*
%TD*%
M02*
