%TF.GenerationSoftware,KiCad,Pcbnew,6.0.2+dfsg-1*%
%TF.CreationDate,2022-06-19T17:26:25+02:00*%
%TF.ProjectId,PlantSensor,506c616e-7453-4656-9e73-6f722e6b6963,3*%
%TF.SameCoordinates,PX5f5e100PY623a7c0*%
%TF.FileFunction,Copper,L2,Bot*%
%TF.FilePolarity,Positive*%
%FSLAX46Y46*%
G04 Gerber Fmt 4.6, Leading zero omitted, Abs format (unit mm)*
G04 Created by KiCad (PCBNEW 6.0.2+dfsg-1) date 2022-06-19 17:26:25*
%MOMM*%
%LPD*%
G01*
G04 APERTURE LIST*
%TA.AperFunction,ComponentPad*%
%ADD10R,1.651000X1.651000*%
%TD*%
%TA.AperFunction,ComponentPad*%
%ADD11C,1.651000*%
%TD*%
%TA.AperFunction,ComponentPad*%
%ADD12R,2.000000X2.000000*%
%TD*%
%TA.AperFunction,ComponentPad*%
%ADD13C,2.000000*%
%TD*%
%TA.AperFunction,ComponentPad*%
%ADD14C,1.600000*%
%TD*%
%TA.AperFunction,ComponentPad*%
%ADD15O,1.600000X1.600000*%
%TD*%
%TA.AperFunction,ComponentPad*%
%ADD16R,2.032000X2.032000*%
%TD*%
%TA.AperFunction,ComponentPad*%
%ADD17C,2.032000*%
%TD*%
%TA.AperFunction,ComponentPad*%
%ADD18C,1.524000*%
%TD*%
%TA.AperFunction,ComponentPad*%
%ADD19C,6.400000*%
%TD*%
%TA.AperFunction,ComponentPad*%
%ADD20C,0.800000*%
%TD*%
%TA.AperFunction,ViaPad*%
%ADD21C,0.800000*%
%TD*%
%TA.AperFunction,Conductor*%
%ADD22C,0.250000*%
%TD*%
%TA.AperFunction,Conductor*%
%ADD23C,2.000000*%
%TD*%
G04 APERTURE END LIST*
D10*
%TO.P,J6,1,P$1*%
%TO.N,+3V3*%
X50690000Y68000000D03*
D11*
%TO.P,J6,2,P$2*%
%TO.N,GND*%
X53230000Y68000000D03*
%TO.P,J6,3,P$3*%
%TO.N,Net-(J6-Pad3)*%
X55770000Y68000000D03*
%TO.P,J6,4,P$4*%
%TO.N,Net-(J6-Pad4)*%
X58310000Y68000000D03*
%TD*%
D12*
%TO.P,BZ1,1,-*%
%TO.N,Net-(BZ1-Pad1)*%
X63500000Y10300000D03*
D13*
%TO.P,BZ1,2,+*%
%TO.N,+12V*%
X63500000Y2700000D03*
%TD*%
D10*
%TO.P,U1,1,VCC_OUT*%
%TO.N,+3V3*%
X50460000Y60000000D03*
D11*
%TO.P,U1,2,GND*%
%TO.N,GND*%
X53000000Y60000000D03*
%TO.P,U1,3,VCC_IN*%
%TO.N,+12V*%
X55540000Y60000000D03*
%TD*%
D14*
%TO.P,SW1,1,1*%
%TO.N,GND*%
X27000000Y35920000D03*
D15*
%TO.P,SW1,2,2*%
%TO.N,SWITCH_SIG*%
X27000000Y46080000D03*
%TD*%
D16*
%TO.P,J3,1,1*%
%TO.N,Net-(D2-Pad1)*%
X65950000Y35500000D03*
D17*
%TO.P,J3,2,2*%
%TO.N,+12V*%
X65950000Y40500000D03*
%TD*%
D10*
%TO.P,U6,1,VIN*%
%TO.N,+3.3VP*%
X15350000Y19920000D03*
D11*
%TO.P,U6,2,GND*%
%TO.N,GND*%
X15350000Y22460000D03*
%TO.P,U6,3,SCL*%
%TO.N,DISPLAY_SCL*%
X15350000Y25000000D03*
%TO.P,U6,4,SDA*%
%TO.N,DISPLAY_SDA*%
X15350000Y27540000D03*
%TD*%
D10*
%TO.P,U5,1,GND*%
%TO.N,GND*%
X38797500Y33490000D03*
D11*
%TO.P,U5,2,VCC*%
%TO.N,+3.3VP*%
X36257500Y33490000D03*
%TO.P,U5,3,SCL*%
%TO.N,DISPLAY_SCL*%
X33717500Y33490000D03*
%TO.P,U5,4,SDA*%
%TO.N,DISPLAY_SDA*%
X31177500Y33490000D03*
%TD*%
D10*
%TO.P,U8,1,VCC*%
%TO.N,+3.3VP*%
X13715000Y2920000D03*
D11*
%TO.P,U8,2,GND*%
%TO.N,GND*%
X13715000Y5460000D03*
%TO.P,U8,3,TX*%
%TO.N,Net-(U3-Pad27)*%
X13715000Y8000000D03*
%TO.P,U8,4,RX*%
%TO.N,Net-(U3-Pad28)*%
X13715000Y10540000D03*
D18*
%TO.P,U8,5,PPS*%
%TO.N,GPS_PPS_CLOCK_REF*%
X13715000Y13080000D03*
%TD*%
D19*
%TO.P,REF\u002A\u002A,1*%
%TO.N,N/C*%
X5000000Y5000000D03*
%TD*%
%TO.P,REF\u002A\u002A,1*%
%TO.N,N/C*%
X5000000Y35000000D03*
%TD*%
D14*
%TO.P,SW2,1,1*%
%TO.N,GND*%
X43000000Y35920000D03*
D15*
%TO.P,SW2,2,2*%
%TO.N,Net-(C4-Pad1)*%
X43000000Y46080000D03*
%TD*%
D10*
%TO.P,U11,1,VDD*%
%TO.N,+3.3VP*%
X19367520Y36190000D03*
D11*
%TO.P,U11,2,DATA*%
%TO.N,DHT11HUMIDITY_DATA*%
X19367520Y38730000D03*
%TO.P,U11,3,NC*%
%TO.N,unconnected-(U11-Pad3)*%
X19367520Y41270000D03*
%TO.P,U11,4,GND*%
%TO.N,GND*%
X19367520Y43810000D03*
%TD*%
D10*
%TO.P,U7,1,VCC*%
%TO.N,+3.3VP*%
X14080000Y67840000D03*
D11*
%TO.P,U7,2,GND*%
%TO.N,GND*%
X11540000Y67840000D03*
%TO.P,U7,3,SCL*%
%TO.N,DISPLAY_SCL*%
X9000000Y67840000D03*
%TO.P,U7,4,SDA*%
%TO.N,DISPLAY_SDA*%
X6460000Y67840000D03*
%TO.P,U7,5,ADDR*%
%TO.N,GND*%
X3920000Y67840000D03*
%TD*%
D16*
%TO.P,J4,1,1*%
%TO.N,Net-(D3-Pad1)*%
X65950000Y20500000D03*
D17*
%TO.P,J4,2,2*%
%TO.N,+12V*%
X65950000Y25500000D03*
%TD*%
D16*
%TO.P,J2,1,1*%
%TO.N,Net-(D1-Pad1)*%
X65950000Y50500000D03*
D17*
%TO.P,J2,2,2*%
%TO.N,+12V*%
X65950000Y55500000D03*
%TD*%
D10*
%TO.P,U10,1,AOUT*%
%TO.N,SOIL_AOUT*%
X32460000Y2000000D03*
D11*
%TO.P,U10,2,VCC*%
%TO.N,+3.3VP*%
X35000000Y2000000D03*
%TO.P,U10,3,GND*%
%TO.N,GND*%
X37540000Y2000000D03*
%TD*%
D10*
%TO.P,U9,1,3V3*%
%TO.N,+3.3VP*%
X2500000Y49650000D03*
D11*
%TO.P,U9,2,GND*%
%TO.N,GND*%
X2500000Y52190000D03*
%TO.P,U9,3,BCLK*%
%TO.N,MIC_BCLK*%
X2500000Y54730000D03*
%TO.P,U9,4,DOUT*%
%TO.N,MIC_DOUT*%
X2500000Y57270000D03*
%TO.P,U9,5,LRCL*%
%TO.N,MIC_LRCL*%
X2500000Y59810000D03*
%TO.P,U9,6,SEL*%
%TO.N,GND*%
X2500000Y62350000D03*
%TD*%
D19*
%TO.P,REF\u002A\u002A,1*%
%TO.N,N/C*%
X45000000Y5000000D03*
%TD*%
D16*
%TO.P,J1,1,1*%
%TO.N,GND*%
X65950000Y62000000D03*
D17*
%TO.P,J1,2,2*%
%TO.N,+12V*%
X65950000Y67000000D03*
%TD*%
D20*
%TO.P,U4,1,GND*%
%TO.N,GND*%
X43490000Y26851000D03*
%TO.P,U4,2,DIO1*%
%TO.N,LORA_DIO1*%
X42220000Y26851000D03*
%TO.P,U4,3,DIO2*%
%TO.N,LORA_DIO2*%
X40950000Y26851000D03*
%TO.P,U4,4,DIO3*%
%TO.N,LORA_DIO3*%
X39680000Y26851000D03*
%TO.P,U4,5,VCC*%
%TO.N,+3V3*%
X38410000Y26851000D03*
%TO.P,U4,6,MISO*%
%TO.N,LORA_MISO*%
X37140000Y26851000D03*
%TO.P,U4,7,MOSI*%
%TO.N,LORA_MOSI*%
X35870000Y26851000D03*
%TO.P,U4,8,SCK*%
%TO.N,LORA_SCK*%
X34600000Y26851000D03*
%TO.P,U4,9,NSS*%
%TO.N,LORA_NSS*%
X33330000Y26851000D03*
%TO.P,U4,10,DIO0*%
%TO.N,LORA_DIO0*%
X32060000Y26851000D03*
%TO.P,U4,11,REST*%
%TO.N,LORA_RST*%
X30790000Y26851000D03*
%TO.P,U4,12,GND*%
%TO.N,GND*%
X29520000Y26851000D03*
%TO.P,U4,13,DIO4*%
%TO.N,LORA_DIO4*%
X28261000Y26481000D03*
%TO.P,U4,14,DIO5*%
%TO.N,LORA_DIO5*%
X28261000Y25211000D03*
%TO.P,U4,15,GND*%
%TO.N,GND*%
X42220000Y12881000D03*
%TO.P,U4,16,ANT*%
%TO.N,unconnected-(U4-Pad16)*%
X43490000Y12881000D03*
%TD*%
D10*
%TO.P,J5,1,1*%
%TO.N,Net-(J5-Pad1)*%
X50730000Y64500000D03*
D11*
%TO.P,J5,2,2*%
%TO.N,GND*%
X53270000Y64500000D03*
%TD*%
D21*
%TO.N,Net-(J5-Pad1)*%
X42000000Y51500000D03*
%TO.N,GND*%
X16500000Y68000000D03*
X38500000Y67500000D03*
X54000000Y19000000D03*
X53900000Y41000000D03*
X54000000Y52000000D03*
X7000000Y56000000D03*
X16500000Y65500000D03*
X16500000Y57000000D03*
X54000000Y30000000D03*
X42500000Y49000000D03*
%TO.N,Net-(J6-Pad3)*%
X50500000Y62500000D03*
X46000000Y62500000D03*
%TO.N,PWR_CMD_SENSOR*%
X32500000Y65500000D03*
X12000000Y56500000D03*
%TO.N,Net-(C4-Pad1)*%
X21262299Y44762299D03*
X21000000Y56000000D03*
X29500000Y44500000D03*
X21500000Y63500000D03*
%TO.N,SWITCH_SIG*%
X28099502Y62500000D03*
%TO.N,GPS_PPS_CLOCK_REF*%
X23500000Y62500000D03*
%TO.N,DISPLAY_SDA*%
X14000000Y63500000D03*
X21500000Y32500000D03*
%TO.N,DISPLAY_SCL*%
X13987701Y61987701D03*
X21500000Y30500000D03*
%TO.N,SOIL_AOUT*%
X24383243Y58858645D03*
%TO.N,EXT_PWR_VOLT*%
X32000000Y4500000D03*
X14000000Y54500000D03*
X15500000Y47500000D03*
X61500000Y57500000D03*
X26500000Y3000000D03*
%TO.N,MIC_LRCL*%
X29000000Y68000000D03*
%TO.N,MIC_BCLK*%
X6500000Y54500000D03*
%TO.N,LORA_NSS*%
X28000000Y47500000D03*
%TO.N,PWR_CMD_PUMP*%
X32982612Y46275500D03*
X28500000Y53500000D03*
%TO.N,PWR_CMD_LED1*%
X26500000Y49500000D03*
X32000000Y48000000D03*
%TO.N,PWR_CMD_BUZZER*%
X49000000Y48000000D03*
X49000000Y14000000D03*
%TO.N,LORA_DIO0*%
X47000000Y20000000D03*
X47017388Y49724500D03*
%TO.N,DHT11HUMIDITY_DATA*%
X30500000Y64500000D03*
%TO.N,Net-(U3-Pad27)*%
X33000000Y54000000D03*
%TO.N,Net-(U3-Pad28)*%
X33500000Y55500000D03*
%TO.N,LORA_SCK*%
X46000000Y58000000D03*
X46000000Y21500000D03*
%TO.N,LORA_MISO*%
X41500000Y59000000D03*
%TO.N,LORA_RST*%
X47407978Y60512424D03*
X48000000Y19000000D03*
%TO.N,MIC_DOUT*%
X34000000Y66500000D03*
%TO.N,LORA_MOSI*%
X45500000Y66500000D03*
X45000000Y22500000D03*
%TD*%
D22*
%TO.N,Net-(J5-Pad1)*%
X50730000Y65000000D02*
X50500000Y65000000D01*
X42500000Y68000000D02*
X40500000Y66000000D01*
X47500000Y68000000D02*
X42500000Y68000000D01*
X40500000Y53000000D02*
X42000000Y51500000D01*
X47500000Y68000000D02*
X50500000Y65000000D01*
X40500000Y66000000D02*
X40500000Y53000000D01*
%TO.N,GND*%
X16500000Y57000000D02*
X15000000Y55500000D01*
X7500000Y55500000D02*
X7000000Y56000000D01*
D23*
X54000000Y30000000D02*
X54000000Y19000000D01*
D22*
X15000000Y55500000D02*
X13000000Y55500000D01*
X38500000Y67500000D02*
X38500000Y52500000D01*
X40570000Y33490000D02*
X43000000Y35920000D01*
D23*
X53900000Y30100000D02*
X54000000Y30000000D01*
X53000000Y60000000D02*
X53000000Y53000000D01*
D22*
X38500000Y52500000D02*
X42000000Y49000000D01*
X13000000Y55500000D02*
X7500000Y55500000D01*
D23*
X65424989Y62025011D02*
X53025011Y62025011D01*
D22*
X38797500Y33490000D02*
X40570000Y33490000D01*
D23*
X54000000Y52000000D02*
X54000000Y41100000D01*
D22*
X42000000Y49000000D02*
X42500000Y49000000D01*
D23*
X65950000Y61500000D02*
X65424989Y62025011D01*
D22*
X16500000Y65500000D02*
X16500000Y68000000D01*
D23*
X53000000Y62000000D02*
X53000000Y60000000D01*
X53900000Y41000000D02*
X53900000Y30100000D01*
X53000000Y53000000D02*
X54000000Y52000000D01*
X53025011Y62025011D02*
X53000000Y62000000D01*
X54000000Y41100000D02*
X53900000Y41000000D01*
D22*
%TO.N,Net-(J6-Pad3)*%
X50500000Y62500000D02*
X46000000Y62500000D01*
%TO.N,PWR_CMD_SENSOR*%
X12000000Y56500000D02*
X13475400Y56500000D01*
X13475400Y56500000D02*
X21199901Y64224501D01*
X21224501Y64224501D02*
X22500000Y65500000D01*
X22500000Y65500000D02*
X32500000Y65500000D01*
X21199901Y64224501D02*
X21224501Y64224501D01*
%TO.N,Net-(C4-Pad1)*%
X29500000Y44500000D02*
X41420000Y44500000D01*
X41420000Y44500000D02*
X43000000Y46080000D01*
X21000000Y45024598D02*
X21262299Y44762299D01*
X21000000Y56000000D02*
X21000000Y63000000D01*
X21000000Y56000000D02*
X21000000Y45024598D01*
X21000000Y63000000D02*
X21500000Y63500000D01*
%TO.N,SWITCH_SIG*%
X25500000Y53000000D02*
X28000000Y55500000D01*
X31500000Y52500000D02*
X34000000Y52500000D01*
X34000000Y52500000D02*
X35500000Y54000000D01*
X28000000Y62500000D02*
X28099502Y62500000D01*
X27000000Y47500000D02*
X25500000Y49000000D01*
X28000000Y55500000D02*
X28500000Y55500000D01*
X27000000Y46080000D02*
X27000000Y47500000D01*
X25500000Y49000000D02*
X25500000Y53000000D01*
X28500000Y55500000D02*
X31500000Y52500000D01*
X35500000Y54000000D02*
X35500000Y55000000D01*
X35500000Y55000000D02*
X28000000Y62500000D01*
%TO.N,GPS_PPS_CLOCK_REF*%
X22500000Y60000000D02*
X22500000Y16000000D01*
X22500000Y16000000D02*
X19580000Y13080000D01*
X23500000Y61000000D02*
X22500000Y60000000D01*
X23500000Y62500000D02*
X23500000Y61000000D01*
X19580000Y13080000D02*
X13715000Y13080000D01*
%TO.N,DISPLAY_SDA*%
X6460000Y67840000D02*
X10800000Y63500000D01*
X16540000Y27540000D02*
X21500000Y32500000D01*
X15350000Y27540000D02*
X16540000Y27540000D01*
X10800000Y63500000D02*
X14000000Y63500000D01*
%TO.N,DISPLAY_SCL*%
X15350000Y25000000D02*
X20850000Y30500000D01*
X11840000Y65000000D02*
X14500000Y65000000D01*
X15000000Y64500000D02*
X15000000Y63000000D01*
X14500000Y65000000D02*
X15000000Y64500000D01*
X20850000Y30500000D02*
X21500000Y30500000D01*
X15000000Y63000000D02*
X13987701Y61987701D01*
X9000000Y67840000D02*
X11840000Y65000000D01*
%TO.N,SOIL_AOUT*%
X32460000Y2000000D02*
X31384500Y2000000D01*
X24383243Y9001257D02*
X24383243Y58858645D01*
X31384500Y2000000D02*
X24383243Y9001257D01*
%TO.N,EXT_PWR_VOLT*%
X61500000Y12000000D02*
X59500000Y10000000D01*
X24500000Y1000000D02*
X12000000Y1000000D01*
X59500000Y10000000D02*
X37500000Y10000000D01*
X12000000Y1000000D02*
X10500000Y2500000D01*
X10500000Y42500000D02*
X15500000Y47500000D01*
X26500000Y3000000D02*
X24500000Y1000000D01*
X37500000Y10000000D02*
X32000000Y4500000D01*
X14000000Y49000000D02*
X15500000Y47500000D01*
X14000000Y54500000D02*
X14000000Y49000000D01*
X61500000Y57500000D02*
X61500000Y12000000D01*
X10500000Y2500000D02*
X10500000Y42500000D01*
%TO.N,MIC_LRCL*%
X12834600Y59810000D02*
X21024600Y68000000D01*
X2500000Y59810000D02*
X12834600Y59810000D01*
X21024600Y68000000D02*
X29000000Y68000000D01*
%TO.N,MIC_BCLK*%
X6270000Y54730000D02*
X6500000Y54500000D01*
X2500000Y54730000D02*
X6270000Y54730000D01*
%TO.N,LORA_NSS*%
X28000000Y47500000D02*
X28500000Y47000000D01*
X33330000Y26851000D02*
X33330000Y29170000D01*
X28500000Y34000000D02*
X28500000Y47000000D01*
X28500000Y34000000D02*
X33330000Y29170000D01*
%TO.N,PWR_CMD_PUMP*%
X32982612Y49017388D02*
X32982612Y46275500D01*
X28500000Y53500000D02*
X32982612Y49017388D01*
%TO.N,PWR_CMD_LED1*%
X30500000Y49500000D02*
X32000000Y48000000D01*
X26500000Y49500000D02*
X30500000Y49500000D01*
%TO.N,PWR_CMD_BUZZER*%
X49000000Y14000000D02*
X49000000Y48000000D01*
%TO.N,LORA_DIO0*%
X47000000Y49500000D02*
X47017388Y49517388D01*
X47000000Y20000000D02*
X47000000Y49500000D01*
X47017388Y49517388D02*
X47017388Y49724500D01*
%TO.N,DHT11HUMIDITY_DATA*%
X22000000Y62975400D02*
X23524600Y64500000D01*
X19367520Y38730000D02*
X22000000Y41362480D01*
X23524600Y64500000D02*
X30500000Y64500000D01*
X22000000Y41362480D02*
X22000000Y62975400D01*
%TO.N,Net-(U3-Pad27)*%
X27000000Y60000000D02*
X33000000Y54000000D01*
X23500000Y11500000D02*
X23500000Y59500000D01*
X20000000Y8000000D02*
X23500000Y11500000D01*
X24000000Y60000000D02*
X27000000Y60000000D01*
X13715000Y8000000D02*
X20000000Y8000000D01*
X23500000Y59500000D02*
X24000000Y60000000D01*
%TO.N,Net-(U3-Pad28)*%
X23050490Y59686194D02*
X23813806Y60449510D01*
X23813806Y60449510D02*
X28550490Y60449510D01*
X23050490Y13550490D02*
X23050490Y59686194D01*
X13715000Y10540000D02*
X20040000Y10540000D01*
X20040000Y10540000D02*
X23050490Y13550490D01*
X28550490Y60449510D02*
X33500000Y55500000D01*
%TO.N,LORA_SCK*%
X46000000Y21500000D02*
X46000000Y58000000D01*
%TO.N,LORA_MISO*%
X44124511Y56375489D02*
X41500000Y59000000D01*
X40000000Y31500000D02*
X42000000Y31500000D01*
X44124511Y33624511D02*
X44124511Y56375489D01*
X37140000Y26851000D02*
X37140000Y28640000D01*
X37140000Y28640000D02*
X40000000Y31500000D01*
X42000000Y31500000D02*
X44124511Y33624511D01*
%TO.N,LORA_RST*%
X48000000Y19000000D02*
X48000000Y59920402D01*
X48000000Y59920402D02*
X47407978Y60512424D01*
%TO.N,MIC_DOUT*%
X12270000Y57270000D02*
X21500000Y66500000D01*
X2500000Y57270000D02*
X12270000Y57270000D01*
X21500000Y66500000D02*
X34000000Y66500000D01*
%TO.N,LORA_MOSI*%
X45500000Y63024600D02*
X45500000Y66500000D01*
X45000000Y62524600D02*
X45500000Y63024600D01*
X45000000Y22500000D02*
X45000000Y62524600D01*
%TD*%
%TA.AperFunction,Conductor*%
%TO.N,GND*%
G36*
X52774045Y69471998D02*
G01*
X52820538Y69418342D01*
X52830642Y69348068D01*
X52801148Y69283488D01*
X52759174Y69251805D01*
X52565684Y69161579D01*
X52556198Y69156101D01*
X52498642Y69115801D01*
X52490267Y69105323D01*
X52497335Y69091875D01*
X53217188Y68372022D01*
X53231132Y68364408D01*
X53232965Y68364539D01*
X53239580Y68368790D01*
X53963387Y69092597D01*
X53969817Y69104371D01*
X53960520Y69116387D01*
X53903802Y69156101D01*
X53894316Y69161579D01*
X53700826Y69251805D01*
X53647541Y69298723D01*
X53628080Y69367000D01*
X53648622Y69434960D01*
X53702645Y69481025D01*
X53754076Y69492000D01*
X55244740Y69492000D01*
X55312861Y69471998D01*
X55359354Y69418342D01*
X55369458Y69348068D01*
X55339964Y69283488D01*
X55297990Y69251805D01*
X55105439Y69162017D01*
X55105434Y69162014D01*
X55100452Y69159691D01*
X55095945Y69156535D01*
X55095943Y69156534D01*
X54913757Y69028966D01*
X54913754Y69028964D01*
X54909246Y69025807D01*
X54744193Y68860754D01*
X54741036Y68856246D01*
X54741034Y68856243D01*
X54684719Y68775816D01*
X54610309Y68669548D01*
X54608537Y68665747D01*
X54557447Y68617033D01*
X54487733Y68603597D01*
X54421822Y68629983D01*
X54390592Y68666023D01*
X54386095Y68673811D01*
X54345801Y68731358D01*
X54335323Y68739733D01*
X54321875Y68732665D01*
X53602022Y68012812D01*
X53594408Y67998868D01*
X53594539Y67997035D01*
X53598790Y67990420D01*
X54322597Y67266613D01*
X54334371Y67260183D01*
X54346387Y67269480D01*
X54386095Y67326189D01*
X54390592Y67333977D01*
X54441976Y67382969D01*
X54511690Y67396403D01*
X54577601Y67370015D01*
X54608477Y67334380D01*
X54610309Y67330452D01*
X54647434Y67277432D01*
X54732329Y67156190D01*
X54744193Y67139246D01*
X54909246Y66974193D01*
X54913754Y66971036D01*
X54913757Y66971034D01*
X55095325Y66843899D01*
X55100452Y66840309D01*
X55105434Y66837986D01*
X55105439Y66837983D01*
X55271368Y66760609D01*
X55312002Y66741661D01*
X55317310Y66740239D01*
X55317312Y66740238D01*
X55532153Y66682672D01*
X55532155Y66682672D01*
X55537468Y66681248D01*
X55770000Y66660904D01*
X56002532Y66681248D01*
X56007845Y66682672D01*
X56007847Y66682672D01*
X56222688Y66740238D01*
X56222690Y66740239D01*
X56227998Y66741661D01*
X56268632Y66760609D01*
X56434561Y66837983D01*
X56434566Y66837986D01*
X56439548Y66840309D01*
X56444675Y66843899D01*
X56626243Y66971034D01*
X56626246Y66971036D01*
X56630754Y66974193D01*
X56795807Y67139246D01*
X56807672Y67156190D01*
X56892566Y67277432D01*
X56929691Y67330452D01*
X56931274Y67333847D01*
X56982266Y67382466D01*
X57051980Y67395900D01*
X57117890Y67369512D01*
X57148647Y67334017D01*
X57150309Y67330452D01*
X57187434Y67277432D01*
X57272329Y67156190D01*
X57284193Y67139246D01*
X57449246Y66974193D01*
X57453754Y66971036D01*
X57453757Y66971034D01*
X57635325Y66843899D01*
X57640452Y66840309D01*
X57645434Y66837986D01*
X57645439Y66837983D01*
X57811368Y66760609D01*
X57852002Y66741661D01*
X57857310Y66740239D01*
X57857312Y66740238D01*
X58072153Y66682672D01*
X58072155Y66682672D01*
X58077468Y66681248D01*
X58310000Y66660904D01*
X58542532Y66681248D01*
X58547845Y66682672D01*
X58547847Y66682672D01*
X58762688Y66740238D01*
X58762690Y66740239D01*
X58767998Y66741661D01*
X58808632Y66760609D01*
X58974561Y66837983D01*
X58974566Y66837986D01*
X58979548Y66840309D01*
X58984675Y66843899D01*
X59166243Y66971034D01*
X59166246Y66971036D01*
X59170754Y66974193D01*
X59196561Y67000000D01*
X64420786Y67000000D01*
X64439613Y66760778D01*
X64440767Y66755971D01*
X64440768Y66755965D01*
X64462367Y66666000D01*
X64495631Y66527447D01*
X64497524Y66522876D01*
X64497525Y66522874D01*
X64582952Y66316635D01*
X64587460Y66305751D01*
X64712840Y66101151D01*
X64868682Y65918682D01*
X64872444Y65915469D01*
X65037498Y65774501D01*
X65051151Y65762840D01*
X65255751Y65637460D01*
X65260321Y65635567D01*
X65260323Y65635566D01*
X65460231Y65552762D01*
X65477447Y65545631D01*
X65557766Y65526348D01*
X65705965Y65490768D01*
X65705971Y65490767D01*
X65710778Y65489613D01*
X65950000Y65470786D01*
X66189222Y65489613D01*
X66194029Y65490767D01*
X66194035Y65490768D01*
X66342234Y65526348D01*
X66422553Y65545631D01*
X66439769Y65552762D01*
X66639677Y65635566D01*
X66639679Y65635567D01*
X66644249Y65637460D01*
X66848849Y65762840D01*
X66862503Y65774501D01*
X67027556Y65915469D01*
X67031318Y65918682D01*
X67187160Y66101151D01*
X67312540Y66305751D01*
X67317049Y66316635D01*
X67402475Y66522874D01*
X67402476Y66522876D01*
X67404369Y66527447D01*
X67437633Y66666000D01*
X67459232Y66755965D01*
X67459233Y66755971D01*
X67460387Y66760778D01*
X67479214Y67000000D01*
X67460387Y67239222D01*
X67459233Y67244029D01*
X67459232Y67244035D01*
X67405524Y67467741D01*
X67404369Y67472553D01*
X67377666Y67537020D01*
X67314434Y67689677D01*
X67314433Y67689679D01*
X67312540Y67694249D01*
X67187160Y67898849D01*
X67031318Y68081318D01*
X66848849Y68237160D01*
X66644249Y68362540D01*
X66639679Y68364433D01*
X66639677Y68364434D01*
X66427126Y68452475D01*
X66427124Y68452476D01*
X66422553Y68454369D01*
X66340963Y68473957D01*
X66194035Y68509232D01*
X66194029Y68509233D01*
X66189222Y68510387D01*
X65950000Y68529214D01*
X65710778Y68510387D01*
X65705971Y68509233D01*
X65705965Y68509232D01*
X65559037Y68473957D01*
X65477447Y68454369D01*
X65472876Y68452476D01*
X65472874Y68452475D01*
X65260323Y68364434D01*
X65260321Y68364433D01*
X65255751Y68362540D01*
X65051151Y68237160D01*
X64868682Y68081318D01*
X64712840Y67898849D01*
X64587460Y67694249D01*
X64585567Y67689679D01*
X64585566Y67689677D01*
X64522334Y67537020D01*
X64495631Y67472553D01*
X64494476Y67467741D01*
X64440768Y67244035D01*
X64440767Y67244029D01*
X64439613Y67239222D01*
X64420786Y67000000D01*
X59196561Y67000000D01*
X59335807Y67139246D01*
X59345790Y67153502D01*
X59466534Y67325943D01*
X59466537Y67325948D01*
X59469691Y67330452D01*
X59472014Y67335434D01*
X59472017Y67335439D01*
X59566016Y67537020D01*
X59566017Y67537022D01*
X59568339Y67542002D01*
X59585881Y67607468D01*
X59627328Y67762153D01*
X59627328Y67762155D01*
X59628752Y67767468D01*
X59649096Y68000000D01*
X59628752Y68232532D01*
X59622872Y68254478D01*
X59569762Y68452688D01*
X59569761Y68452690D01*
X59568339Y68457998D01*
X59562750Y68469983D01*
X59472017Y68664561D01*
X59472014Y68664566D01*
X59469691Y68669548D01*
X59466534Y68674057D01*
X59338966Y68856243D01*
X59338964Y68856246D01*
X59335807Y68860754D01*
X59170754Y69025807D01*
X59166246Y69028964D01*
X59166243Y69028966D01*
X58984057Y69156534D01*
X58984055Y69156535D01*
X58979548Y69159691D01*
X58974566Y69162014D01*
X58974561Y69162017D01*
X58782010Y69251805D01*
X58728725Y69298723D01*
X58709264Y69367000D01*
X58729806Y69434960D01*
X58783829Y69481025D01*
X58835260Y69492000D01*
X69366000Y69492000D01*
X69434121Y69471998D01*
X69480614Y69418342D01*
X69492000Y69366000D01*
X69492000Y634000D01*
X69471998Y565879D01*
X69418342Y519386D01*
X69366000Y508000D01*
X38064076Y508000D01*
X37995955Y528002D01*
X37949462Y581658D01*
X37939358Y651932D01*
X37968852Y716512D01*
X38010826Y748195D01*
X38204316Y838421D01*
X38213802Y843899D01*
X38271358Y884199D01*
X38279733Y894677D01*
X38272665Y908125D01*
X37552812Y1627978D01*
X37538868Y1635592D01*
X37537035Y1635461D01*
X37530420Y1631210D01*
X36806613Y907403D01*
X36800183Y895629D01*
X36809480Y883613D01*
X36866198Y843899D01*
X36875684Y838421D01*
X37069174Y748195D01*
X37122459Y701277D01*
X37141920Y633000D01*
X37121378Y565040D01*
X37067355Y518975D01*
X37015924Y508000D01*
X35525260Y508000D01*
X35457139Y528002D01*
X35410646Y581658D01*
X35400542Y651932D01*
X35430036Y716512D01*
X35472010Y748195D01*
X35664561Y837983D01*
X35664566Y837986D01*
X35669548Y840309D01*
X35674675Y843899D01*
X35856243Y971034D01*
X35856246Y971036D01*
X35860754Y974193D01*
X36025807Y1139246D01*
X36071903Y1205077D01*
X36156537Y1325948D01*
X36159691Y1330452D01*
X36161463Y1334253D01*
X36212553Y1382967D01*
X36282267Y1396403D01*
X36348178Y1370017D01*
X36379408Y1333977D01*
X36383905Y1326189D01*
X36424199Y1268642D01*
X36434677Y1260267D01*
X36448125Y1267335D01*
X37167978Y1987188D01*
X37174356Y1998868D01*
X37904408Y1998868D01*
X37904539Y1997035D01*
X37908790Y1990420D01*
X38632597Y1266613D01*
X38644371Y1260183D01*
X38656387Y1269480D01*
X38696101Y1326198D01*
X38701579Y1335684D01*
X38795544Y1537192D01*
X38799290Y1547484D01*
X38856834Y1762241D01*
X38858737Y1773036D01*
X38878115Y1994525D01*
X38878115Y2005475D01*
X38858737Y2226964D01*
X38856834Y2237759D01*
X38799290Y2452516D01*
X38795544Y2462808D01*
X38701579Y2664316D01*
X38696101Y2673802D01*
X38655801Y2731358D01*
X38645323Y2739733D01*
X38631875Y2732665D01*
X37912022Y2012812D01*
X37904408Y1998868D01*
X37174356Y1998868D01*
X37175592Y2001132D01*
X37175461Y2002965D01*
X37171210Y2009580D01*
X36447403Y2733387D01*
X36435629Y2739817D01*
X36423613Y2730520D01*
X36383905Y2673811D01*
X36379408Y2666023D01*
X36328024Y2617031D01*
X36258310Y2603597D01*
X36192399Y2629985D01*
X36161523Y2665620D01*
X36159691Y2669548D01*
X36058093Y2814645D01*
X36028966Y2856243D01*
X36028964Y2856246D01*
X36025807Y2860754D01*
X35860754Y3025807D01*
X35856246Y3028964D01*
X35856243Y3028966D01*
X35747194Y3105323D01*
X36800267Y3105323D01*
X36807335Y3091875D01*
X37527188Y2372022D01*
X37541132Y2364408D01*
X37542965Y2364539D01*
X37549580Y2368790D01*
X38273387Y3092597D01*
X38279817Y3104371D01*
X38270520Y3116387D01*
X38213802Y3156101D01*
X38204316Y3161579D01*
X38002808Y3255544D01*
X37992516Y3259290D01*
X37777759Y3316834D01*
X37766964Y3318737D01*
X37545475Y3338115D01*
X37534525Y3338115D01*
X37313036Y3318737D01*
X37302241Y3316834D01*
X37087484Y3259290D01*
X37077192Y3255544D01*
X36875684Y3161579D01*
X36866198Y3156101D01*
X36808642Y3115801D01*
X36800267Y3105323D01*
X35747194Y3105323D01*
X35674057Y3156534D01*
X35674055Y3156535D01*
X35669548Y3159691D01*
X35664566Y3162014D01*
X35664561Y3162017D01*
X35462980Y3256016D01*
X35462978Y3256017D01*
X35457998Y3258339D01*
X35452690Y3259761D01*
X35452688Y3259762D01*
X35237847Y3317328D01*
X35237845Y3317328D01*
X35232532Y3318752D01*
X35000000Y3339096D01*
X34767468Y3318752D01*
X34762155Y3317328D01*
X34762153Y3317328D01*
X34547312Y3259762D01*
X34547310Y3259761D01*
X34542002Y3258339D01*
X34537022Y3256017D01*
X34537020Y3256016D01*
X34335439Y3162017D01*
X34335434Y3162014D01*
X34330452Y3159691D01*
X34325945Y3156535D01*
X34325943Y3156534D01*
X34143757Y3028966D01*
X34143754Y3028964D01*
X34139246Y3025807D01*
X33996256Y2882817D01*
X33933944Y2848791D01*
X33863129Y2853856D01*
X33806293Y2896403D01*
X33787745Y2936004D01*
X33787245Y2935816D01*
X33784886Y2942108D01*
X33736115Y3072205D01*
X33648761Y3188761D01*
X33532205Y3276115D01*
X33395816Y3327245D01*
X33333634Y3334000D01*
X31586366Y3334000D01*
X31524184Y3327245D01*
X31387795Y3276115D01*
X31271239Y3188761D01*
X31269070Y3185867D01*
X31209124Y3153133D01*
X31138309Y3158198D01*
X31093246Y3187159D01*
X29780405Y4500000D01*
X31086496Y4500000D01*
X31087186Y4493435D01*
X31100357Y4368124D01*
X31106458Y4310072D01*
X31165473Y4128444D01*
X31260960Y3963056D01*
X31388747Y3821134D01*
X31543248Y3708882D01*
X31549276Y3706198D01*
X31549278Y3706197D01*
X31711681Y3633891D01*
X31717712Y3631206D01*
X31811113Y3611353D01*
X31898056Y3592872D01*
X31898061Y3592872D01*
X31904513Y3591500D01*
X32095487Y3591500D01*
X32101939Y3592872D01*
X32101944Y3592872D01*
X32188887Y3611353D01*
X32282288Y3631206D01*
X32288319Y3633891D01*
X32450722Y3706197D01*
X32450724Y3706198D01*
X32456752Y3708882D01*
X32611253Y3821134D01*
X32739040Y3963056D01*
X32834527Y4128444D01*
X32893542Y4310072D01*
X32899644Y4368124D01*
X32910907Y4475293D01*
X32937920Y4540950D01*
X32947122Y4551218D01*
X33395904Y5000000D01*
X41286411Y5000000D01*
X41306754Y4611824D01*
X41307267Y4608584D01*
X41307268Y4608576D01*
X41335268Y4431793D01*
X41367562Y4227901D01*
X41468167Y3852438D01*
X41469352Y3849350D01*
X41469353Y3849348D01*
X41492051Y3790217D01*
X41607468Y3489547D01*
X41608966Y3486607D01*
X41778880Y3153133D01*
X41783938Y3143206D01*
X41785734Y3140440D01*
X41785736Y3140437D01*
X41914532Y2942108D01*
X41995643Y2817207D01*
X42090556Y2700000D01*
X42195635Y2570239D01*
X42240266Y2515124D01*
X42515124Y2240266D01*
X42517682Y2238194D01*
X42517686Y2238191D01*
X42646486Y2133891D01*
X42817207Y1995643D01*
X42819970Y1993848D01*
X42819971Y1993848D01*
X43102174Y1810584D01*
X43143205Y1783938D01*
X43146139Y1782443D01*
X43146146Y1782439D01*
X43449294Y1627978D01*
X43489547Y1607468D01*
X43660092Y1542002D01*
X43839220Y1473241D01*
X43852438Y1468167D01*
X44227901Y1367562D01*
X44399899Y1340320D01*
X44608576Y1307268D01*
X44608584Y1307267D01*
X44611824Y1306754D01*
X45000000Y1286411D01*
X45388176Y1306754D01*
X45391416Y1307267D01*
X45391424Y1307268D01*
X45600101Y1340320D01*
X45772099Y1367562D01*
X46147562Y1468167D01*
X46160781Y1473241D01*
X46339908Y1542002D01*
X46510453Y1607468D01*
X46550706Y1627978D01*
X46853854Y1782439D01*
X46853861Y1782443D01*
X46856795Y1783938D01*
X46897827Y1810584D01*
X47180029Y1993848D01*
X47180030Y1993848D01*
X47182793Y1995643D01*
X47353514Y2133891D01*
X47482314Y2238191D01*
X47482318Y2238194D01*
X47484876Y2240266D01*
X47759734Y2515124D01*
X47804366Y2570239D01*
X47909444Y2700000D01*
X61986835Y2700000D01*
X62005465Y2463289D01*
X62006619Y2458482D01*
X62006620Y2458476D01*
X62034775Y2341203D01*
X62060895Y2232406D01*
X62062788Y2227835D01*
X62062789Y2227833D01*
X62146096Y2026712D01*
X62151760Y2013037D01*
X62154346Y2008817D01*
X62273241Y1814798D01*
X62273245Y1814792D01*
X62275824Y1810584D01*
X62430031Y1630031D01*
X62610584Y1475824D01*
X62614792Y1473245D01*
X62614798Y1473241D01*
X62808817Y1354346D01*
X62813037Y1351760D01*
X62817607Y1349867D01*
X62817611Y1349865D01*
X63016858Y1267335D01*
X63032406Y1260895D01*
X63112609Y1241640D01*
X63258476Y1206620D01*
X63258482Y1206619D01*
X63263289Y1205465D01*
X63500000Y1186835D01*
X63736711Y1205465D01*
X63741518Y1206619D01*
X63741524Y1206620D01*
X63887391Y1241640D01*
X63967594Y1260895D01*
X63983142Y1267335D01*
X64182389Y1349865D01*
X64182393Y1349867D01*
X64186963Y1351760D01*
X64191183Y1354346D01*
X64385202Y1473241D01*
X64385208Y1473245D01*
X64389416Y1475824D01*
X64569969Y1630031D01*
X64724176Y1810584D01*
X64726755Y1814792D01*
X64726759Y1814798D01*
X64845654Y2008817D01*
X64848240Y2013037D01*
X64853905Y2026712D01*
X64937211Y2227833D01*
X64937212Y2227835D01*
X64939105Y2232406D01*
X64965225Y2341203D01*
X64993380Y2458476D01*
X64993381Y2458482D01*
X64994535Y2463289D01*
X65013165Y2700000D01*
X64994535Y2936711D01*
X64993240Y2942108D01*
X64940260Y3162782D01*
X64939105Y3167594D01*
X64937211Y3172167D01*
X64850135Y3382389D01*
X64850133Y3382393D01*
X64848240Y3386963D01*
X64783486Y3492632D01*
X64726759Y3585202D01*
X64726755Y3585208D01*
X64724176Y3589416D01*
X64569969Y3769969D01*
X64389416Y3924176D01*
X64385208Y3926755D01*
X64385202Y3926759D01*
X64191183Y4045654D01*
X64186963Y4048240D01*
X64182393Y4050133D01*
X64182389Y4050135D01*
X63972167Y4137211D01*
X63972165Y4137212D01*
X63967594Y4139105D01*
X63887391Y4158360D01*
X63741524Y4193380D01*
X63741518Y4193381D01*
X63736711Y4194535D01*
X63500000Y4213165D01*
X63263289Y4194535D01*
X63258482Y4193381D01*
X63258476Y4193380D01*
X63112609Y4158360D01*
X63032406Y4139105D01*
X63027835Y4137212D01*
X63027833Y4137211D01*
X62817611Y4050135D01*
X62817607Y4050133D01*
X62813037Y4048240D01*
X62808817Y4045654D01*
X62614798Y3926759D01*
X62614792Y3926755D01*
X62610584Y3924176D01*
X62430031Y3769969D01*
X62275824Y3589416D01*
X62273245Y3585208D01*
X62273241Y3585202D01*
X62216514Y3492632D01*
X62151760Y3386963D01*
X62149867Y3382393D01*
X62149865Y3382389D01*
X62062789Y3172167D01*
X62060895Y3167594D01*
X62059740Y3162782D01*
X62006761Y2942108D01*
X62005465Y2936711D01*
X61986835Y2700000D01*
X47909444Y2700000D01*
X48004357Y2817207D01*
X48085468Y2942108D01*
X48214264Y3140437D01*
X48214266Y3140440D01*
X48216062Y3143206D01*
X48221121Y3153133D01*
X48391034Y3486607D01*
X48392532Y3489547D01*
X48507949Y3790217D01*
X48530647Y3849348D01*
X48530648Y3849350D01*
X48531833Y3852438D01*
X48632438Y4227901D01*
X48664732Y4431793D01*
X48692732Y4608576D01*
X48692733Y4608584D01*
X48693246Y4611824D01*
X48713589Y5000000D01*
X48693246Y5388176D01*
X48690245Y5407128D01*
X48632954Y5768838D01*
X48632438Y5772099D01*
X48531833Y6147562D01*
X48514243Y6193387D01*
X48393716Y6507368D01*
X48392532Y6510453D01*
X48364574Y6565323D01*
X48217561Y6853853D01*
X48217557Y6853860D01*
X48216062Y6856794D01*
X48004357Y7182793D01*
X47855191Y7366997D01*
X47761809Y7482314D01*
X47761806Y7482318D01*
X47759734Y7484876D01*
X47484876Y7759734D01*
X47475326Y7767468D01*
X47185355Y8002282D01*
X47182793Y8004357D01*
X46856795Y8216062D01*
X46853861Y8217557D01*
X46853854Y8217561D01*
X46513393Y8391034D01*
X46510453Y8392532D01*
X46147562Y8531833D01*
X45772099Y8632438D01*
X45537798Y8669548D01*
X45391424Y8692732D01*
X45391416Y8692733D01*
X45388176Y8693246D01*
X45000000Y8713589D01*
X44611824Y8693246D01*
X44608584Y8692733D01*
X44608576Y8692732D01*
X44462202Y8669548D01*
X44227901Y8632438D01*
X43852438Y8531833D01*
X43489547Y8392532D01*
X43486607Y8391034D01*
X43146147Y8217561D01*
X43146140Y8217557D01*
X43143206Y8216062D01*
X42817207Y8004357D01*
X42814645Y8002282D01*
X42524675Y7767468D01*
X42515124Y7759734D01*
X42240266Y7484876D01*
X42238194Y7482318D01*
X42238191Y7482314D01*
X42144809Y7366997D01*
X41995643Y7182793D01*
X41783938Y6856794D01*
X41782443Y6853860D01*
X41782439Y6853853D01*
X41635426Y6565323D01*
X41607468Y6510453D01*
X41606284Y6507368D01*
X41485758Y6193387D01*
X41468167Y6147562D01*
X41367562Y5772099D01*
X41367046Y5768838D01*
X41309756Y5407128D01*
X41306754Y5388176D01*
X41286411Y5000000D01*
X33395904Y5000000D01*
X37725499Y9329595D01*
X37787811Y9363621D01*
X37814594Y9366500D01*
X59421233Y9366500D01*
X59432416Y9365973D01*
X59439909Y9364298D01*
X59447835Y9364547D01*
X59447836Y9364547D01*
X59507986Y9366438D01*
X59511945Y9366500D01*
X59539856Y9366500D01*
X59543791Y9366997D01*
X59543856Y9367005D01*
X59555693Y9367938D01*
X59587951Y9368952D01*
X59591970Y9369078D01*
X59599889Y9369327D01*
X59619343Y9374979D01*
X59638700Y9378987D01*
X59650930Y9380532D01*
X59650931Y9380532D01*
X59658797Y9381526D01*
X59666168Y9384445D01*
X59666170Y9384445D01*
X59699912Y9397804D01*
X59711142Y9401649D01*
X59745983Y9411771D01*
X59745984Y9411771D01*
X59753593Y9413982D01*
X59760412Y9418015D01*
X59760417Y9418017D01*
X59771028Y9424293D01*
X59788776Y9432988D01*
X59807617Y9440448D01*
X59843387Y9466436D01*
X59853307Y9472952D01*
X59884535Y9491420D01*
X59884538Y9491422D01*
X59891362Y9495458D01*
X59905683Y9509779D01*
X59920717Y9522620D01*
X59930694Y9529869D01*
X59937107Y9534528D01*
X59965298Y9568605D01*
X59973288Y9577384D01*
X61776405Y11380500D01*
X61838717Y11414526D01*
X61909533Y11409461D01*
X61966368Y11366914D01*
X61991179Y11300394D01*
X61991500Y11291405D01*
X61991500Y9251866D01*
X61998255Y9189684D01*
X62049385Y9053295D01*
X62136739Y8936739D01*
X62253295Y8849385D01*
X62389684Y8798255D01*
X62451866Y8791500D01*
X64548134Y8791500D01*
X64610316Y8798255D01*
X64746705Y8849385D01*
X64863261Y8936739D01*
X64950615Y9053295D01*
X65001745Y9189684D01*
X65008500Y9251866D01*
X65008500Y11348134D01*
X65001745Y11410316D01*
X64950615Y11546705D01*
X64863261Y11663261D01*
X64746705Y11750615D01*
X64610316Y11801745D01*
X64548134Y11808500D01*
X62451866Y11808500D01*
X62389684Y11801745D01*
X62382288Y11798973D01*
X62382282Y11798971D01*
X62299028Y11767760D01*
X62228221Y11762577D01*
X62165852Y11796498D01*
X62131723Y11858753D01*
X62132528Y11904174D01*
X62130535Y11904426D01*
X62131528Y11912291D01*
X62133500Y11919970D01*
X62133500Y11940224D01*
X62135051Y11959935D01*
X62136980Y11972114D01*
X62138220Y11979943D01*
X62134059Y12023962D01*
X62133500Y12035819D01*
X62133500Y19435866D01*
X64425500Y19435866D01*
X64432255Y19373684D01*
X64483385Y19237295D01*
X64570739Y19120739D01*
X64687295Y19033385D01*
X64823684Y18982255D01*
X64885866Y18975500D01*
X67014134Y18975500D01*
X67076316Y18982255D01*
X67212705Y19033385D01*
X67329261Y19120739D01*
X67416615Y19237295D01*
X67467745Y19373684D01*
X67474500Y19435866D01*
X67474500Y21564134D01*
X67467745Y21626316D01*
X67416615Y21762705D01*
X67329261Y21879261D01*
X67212705Y21966615D01*
X67076316Y22017745D01*
X67014134Y22024500D01*
X64885866Y22024500D01*
X64823684Y22017745D01*
X64687295Y21966615D01*
X64570739Y21879261D01*
X64483385Y21762705D01*
X64432255Y21626316D01*
X64425500Y21564134D01*
X64425500Y19435866D01*
X62133500Y19435866D01*
X62133500Y25500000D01*
X64420786Y25500000D01*
X64439613Y25260778D01*
X64440767Y25255971D01*
X64440768Y25255965D01*
X64476043Y25109037D01*
X64495631Y25027447D01*
X64497524Y25022876D01*
X64497525Y25022874D01*
X64575875Y24833721D01*
X64587460Y24805751D01*
X64712840Y24601151D01*
X64868682Y24418682D01*
X65051151Y24262840D01*
X65255751Y24137460D01*
X65260321Y24135567D01*
X65260323Y24135566D01*
X65260847Y24135349D01*
X65477447Y24045631D01*
X65559037Y24026043D01*
X65705965Y23990768D01*
X65705971Y23990767D01*
X65710778Y23989613D01*
X65950000Y23970786D01*
X66189222Y23989613D01*
X66194029Y23990767D01*
X66194035Y23990768D01*
X66340963Y24026043D01*
X66422553Y24045631D01*
X66639153Y24135349D01*
X66639677Y24135566D01*
X66639679Y24135567D01*
X66644249Y24137460D01*
X66848849Y24262840D01*
X67031318Y24418682D01*
X67187160Y24601151D01*
X67312540Y24805751D01*
X67324126Y24833721D01*
X67402475Y25022874D01*
X67402476Y25022876D01*
X67404369Y25027447D01*
X67423957Y25109037D01*
X67459232Y25255965D01*
X67459233Y25255971D01*
X67460387Y25260778D01*
X67479214Y25500000D01*
X67460387Y25739222D01*
X67459233Y25744029D01*
X67459232Y25744035D01*
X67414510Y25930311D01*
X67404369Y25972553D01*
X67400939Y25980834D01*
X67314434Y26189677D01*
X67314433Y26189679D01*
X67312540Y26194249D01*
X67187160Y26398849D01*
X67031318Y26581318D01*
X66848849Y26737160D01*
X66644249Y26862540D01*
X66639679Y26864433D01*
X66639677Y26864434D01*
X66427126Y26952475D01*
X66427124Y26952476D01*
X66422553Y26954369D01*
X66340963Y26973957D01*
X66194035Y27009232D01*
X66194029Y27009233D01*
X66189222Y27010387D01*
X65950000Y27029214D01*
X65710778Y27010387D01*
X65705971Y27009233D01*
X65705965Y27009232D01*
X65559037Y26973957D01*
X65477447Y26954369D01*
X65472876Y26952476D01*
X65472874Y26952475D01*
X65260323Y26864434D01*
X65260321Y26864433D01*
X65255751Y26862540D01*
X65051151Y26737160D01*
X64868682Y26581318D01*
X64712840Y26398849D01*
X64587460Y26194249D01*
X64585567Y26189679D01*
X64585566Y26189677D01*
X64499061Y25980834D01*
X64495631Y25972553D01*
X64485490Y25930311D01*
X64440768Y25744035D01*
X64440767Y25744029D01*
X64439613Y25739222D01*
X64420786Y25500000D01*
X62133500Y25500000D01*
X62133500Y34435866D01*
X64425500Y34435866D01*
X64432255Y34373684D01*
X64483385Y34237295D01*
X64570739Y34120739D01*
X64687295Y34033385D01*
X64823684Y33982255D01*
X64885866Y33975500D01*
X67014134Y33975500D01*
X67076316Y33982255D01*
X67212705Y34033385D01*
X67329261Y34120739D01*
X67416615Y34237295D01*
X67467745Y34373684D01*
X67474500Y34435866D01*
X67474500Y36564134D01*
X67467745Y36626316D01*
X67416615Y36762705D01*
X67329261Y36879261D01*
X67212705Y36966615D01*
X67076316Y37017745D01*
X67014134Y37024500D01*
X64885866Y37024500D01*
X64823684Y37017745D01*
X64687295Y36966615D01*
X64570739Y36879261D01*
X64483385Y36762705D01*
X64432255Y36626316D01*
X64425500Y36564134D01*
X64425500Y34435866D01*
X62133500Y34435866D01*
X62133500Y40500000D01*
X64420786Y40500000D01*
X64439613Y40260778D01*
X64440767Y40255971D01*
X64440768Y40255965D01*
X64444353Y40241034D01*
X64495631Y40027447D01*
X64497524Y40022876D01*
X64497525Y40022874D01*
X64553998Y39886537D01*
X64587460Y39805751D01*
X64712840Y39601151D01*
X64716057Y39597384D01*
X64716058Y39597383D01*
X64843574Y39448080D01*
X64868682Y39418682D01*
X65051151Y39262840D01*
X65255751Y39137460D01*
X65260321Y39135567D01*
X65260323Y39135566D01*
X65472874Y39047525D01*
X65477447Y39045631D01*
X65559037Y39026043D01*
X65705965Y38990768D01*
X65705971Y38990767D01*
X65710778Y38989613D01*
X65950000Y38970786D01*
X66189222Y38989613D01*
X66194029Y38990767D01*
X66194035Y38990768D01*
X66340963Y39026043D01*
X66422553Y39045631D01*
X66427126Y39047525D01*
X66639677Y39135566D01*
X66639679Y39135567D01*
X66644249Y39137460D01*
X66848849Y39262840D01*
X67031318Y39418682D01*
X67056426Y39448080D01*
X67183942Y39597383D01*
X67183943Y39597384D01*
X67187160Y39601151D01*
X67312540Y39805751D01*
X67346003Y39886537D01*
X67402475Y40022874D01*
X67402476Y40022876D01*
X67404369Y40027447D01*
X67455647Y40241034D01*
X67459232Y40255965D01*
X67459233Y40255971D01*
X67460387Y40260778D01*
X67479214Y40500000D01*
X67460387Y40739222D01*
X67459233Y40744029D01*
X67459232Y40744035D01*
X67405524Y40967741D01*
X67404369Y40972553D01*
X67379682Y41032153D01*
X67314434Y41189677D01*
X67314433Y41189679D01*
X67312540Y41194249D01*
X67187160Y41398849D01*
X67031318Y41581318D01*
X66865794Y41722688D01*
X66852617Y41733942D01*
X66852616Y41733943D01*
X66848849Y41737160D01*
X66644249Y41862540D01*
X66639679Y41864433D01*
X66639677Y41864434D01*
X66427126Y41952475D01*
X66427124Y41952476D01*
X66422553Y41954369D01*
X66340963Y41973957D01*
X66194035Y42009232D01*
X66194029Y42009233D01*
X66189222Y42010387D01*
X65950000Y42029214D01*
X65710778Y42010387D01*
X65705971Y42009233D01*
X65705965Y42009232D01*
X65559037Y41973957D01*
X65477447Y41954369D01*
X65472876Y41952476D01*
X65472874Y41952475D01*
X65260323Y41864434D01*
X65260321Y41864433D01*
X65255751Y41862540D01*
X65051151Y41737160D01*
X65047384Y41733943D01*
X65047383Y41733942D01*
X65034206Y41722688D01*
X64868682Y41581318D01*
X64712840Y41398849D01*
X64587460Y41194249D01*
X64585567Y41189679D01*
X64585566Y41189677D01*
X64520318Y41032153D01*
X64495631Y40972553D01*
X64494476Y40967741D01*
X64440768Y40744035D01*
X64440767Y40744029D01*
X64439613Y40739222D01*
X64420786Y40500000D01*
X62133500Y40500000D01*
X62133500Y49435866D01*
X64425500Y49435866D01*
X64432255Y49373684D01*
X64483385Y49237295D01*
X64570739Y49120739D01*
X64687295Y49033385D01*
X64823684Y48982255D01*
X64885866Y48975500D01*
X67014134Y48975500D01*
X67076316Y48982255D01*
X67212705Y49033385D01*
X67329261Y49120739D01*
X67416615Y49237295D01*
X67467745Y49373684D01*
X67474500Y49435866D01*
X67474500Y51564134D01*
X67467745Y51626316D01*
X67416615Y51762705D01*
X67329261Y51879261D01*
X67212705Y51966615D01*
X67076316Y52017745D01*
X67014134Y52024500D01*
X64885866Y52024500D01*
X64823684Y52017745D01*
X64687295Y51966615D01*
X64570739Y51879261D01*
X64483385Y51762705D01*
X64432255Y51626316D01*
X64425500Y51564134D01*
X64425500Y49435866D01*
X62133500Y49435866D01*
X62133500Y55500000D01*
X64420786Y55500000D01*
X64439613Y55260778D01*
X64440767Y55255971D01*
X64440768Y55255965D01*
X64465984Y55150936D01*
X64495631Y55027447D01*
X64497524Y55022876D01*
X64497525Y55022874D01*
X64582697Y54817251D01*
X64587460Y54805751D01*
X64712840Y54601151D01*
X64716057Y54597384D01*
X64716058Y54597383D01*
X64793623Y54506565D01*
X64868682Y54418682D01*
X64872444Y54415469D01*
X65040424Y54272002D01*
X65051151Y54262840D01*
X65255751Y54137460D01*
X65260321Y54135567D01*
X65260323Y54135566D01*
X65472874Y54047525D01*
X65477447Y54045631D01*
X65559037Y54026043D01*
X65705965Y53990768D01*
X65705971Y53990767D01*
X65710778Y53989613D01*
X65950000Y53970786D01*
X66189222Y53989613D01*
X66194029Y53990767D01*
X66194035Y53990768D01*
X66340963Y54026043D01*
X66422553Y54045631D01*
X66427126Y54047525D01*
X66639677Y54135566D01*
X66639679Y54135567D01*
X66644249Y54137460D01*
X66848849Y54262840D01*
X66859577Y54272002D01*
X67027556Y54415469D01*
X67031318Y54418682D01*
X67106377Y54506565D01*
X67183942Y54597383D01*
X67183943Y54597384D01*
X67187160Y54601151D01*
X67312540Y54805751D01*
X67317304Y54817251D01*
X67402475Y55022874D01*
X67402476Y55022876D01*
X67404369Y55027447D01*
X67434016Y55150936D01*
X67459232Y55255965D01*
X67459233Y55255971D01*
X67460387Y55260778D01*
X67479214Y55500000D01*
X67460387Y55739222D01*
X67459233Y55744029D01*
X67459232Y55744035D01*
X67420103Y55907018D01*
X67404369Y55972553D01*
X67401861Y55978608D01*
X67314434Y56189677D01*
X67314433Y56189679D01*
X67312540Y56194249D01*
X67187160Y56398849D01*
X67174428Y56413757D01*
X67034531Y56577556D01*
X67031318Y56581318D01*
X66848849Y56737160D01*
X66644249Y56862540D01*
X66639679Y56864433D01*
X66639677Y56864434D01*
X66427126Y56952475D01*
X66427124Y56952476D01*
X66422553Y56954369D01*
X66340963Y56973957D01*
X66194035Y57009232D01*
X66194029Y57009233D01*
X66189222Y57010387D01*
X65950000Y57029214D01*
X65710778Y57010387D01*
X65705971Y57009233D01*
X65705965Y57009232D01*
X65559037Y56973957D01*
X65477447Y56954369D01*
X65472876Y56952476D01*
X65472874Y56952475D01*
X65260323Y56864434D01*
X65260321Y56864433D01*
X65255751Y56862540D01*
X65051151Y56737160D01*
X64868682Y56581318D01*
X64865469Y56577556D01*
X64725573Y56413757D01*
X64712840Y56398849D01*
X64587460Y56194249D01*
X64585567Y56189679D01*
X64585566Y56189677D01*
X64498139Y55978608D01*
X64495631Y55972553D01*
X64479897Y55907018D01*
X64440768Y55744035D01*
X64440767Y55744029D01*
X64439613Y55739222D01*
X64420786Y55500000D01*
X62133500Y55500000D01*
X62133500Y56797476D01*
X62153502Y56865597D01*
X62165858Y56881779D01*
X62239040Y56963056D01*
X62334527Y57128444D01*
X62393542Y57310072D01*
X62401080Y57381787D01*
X62412814Y57493435D01*
X62413504Y57500000D01*
X62393542Y57689928D01*
X62334527Y57871556D01*
X62239040Y58036944D01*
X62207928Y58071498D01*
X62115675Y58173955D01*
X62115674Y58173956D01*
X62111253Y58178866D01*
X61956752Y58291118D01*
X61950724Y58293802D01*
X61950722Y58293803D01*
X61788319Y58366109D01*
X61788318Y58366109D01*
X61782288Y58368794D01*
X61688888Y58388647D01*
X61601944Y58407128D01*
X61601939Y58407128D01*
X61595487Y58408500D01*
X61404513Y58408500D01*
X61398061Y58407128D01*
X61398056Y58407128D01*
X61311112Y58388647D01*
X61217712Y58368794D01*
X61211682Y58366109D01*
X61211681Y58366109D01*
X61049278Y58293803D01*
X61049276Y58293802D01*
X61043248Y58291118D01*
X60888747Y58178866D01*
X60884326Y58173956D01*
X60884325Y58173955D01*
X60792073Y58071498D01*
X60760960Y58036944D01*
X60665473Y57871556D01*
X60606458Y57689928D01*
X60586496Y57500000D01*
X60587186Y57493435D01*
X60598921Y57381787D01*
X60606458Y57310072D01*
X60665473Y57128444D01*
X60760960Y56963056D01*
X60834137Y56881785D01*
X60864853Y56817779D01*
X60866500Y56797476D01*
X60866500Y12314594D01*
X60846498Y12246473D01*
X60829595Y12225499D01*
X59274500Y10670405D01*
X59212188Y10636379D01*
X59185405Y10633500D01*
X37578768Y10633500D01*
X37567585Y10634027D01*
X37560092Y10635702D01*
X37552166Y10635453D01*
X37552165Y10635453D01*
X37492002Y10633562D01*
X37488044Y10633500D01*
X37460144Y10633500D01*
X37456154Y10632996D01*
X37444320Y10632064D01*
X37400111Y10630674D01*
X37392495Y10628461D01*
X37392493Y10628461D01*
X37380652Y10625021D01*
X37361293Y10621012D01*
X37359983Y10620846D01*
X37341203Y10618474D01*
X37333837Y10615558D01*
X37333831Y10615556D01*
X37300098Y10602200D01*
X37288868Y10598355D01*
X37254017Y10588230D01*
X37246407Y10586019D01*
X37239584Y10581984D01*
X37228966Y10575705D01*
X37211213Y10567008D01*
X37203568Y10563981D01*
X37192383Y10559552D01*
X37185968Y10554891D01*
X37156612Y10533563D01*
X37146695Y10527049D01*
X37108638Y10504542D01*
X37094317Y10490221D01*
X37079284Y10477381D01*
X37062893Y10465472D01*
X37057842Y10459366D01*
X37034702Y10431395D01*
X37026712Y10422616D01*
X32049500Y5445405D01*
X31987188Y5411379D01*
X31960405Y5408500D01*
X31904513Y5408500D01*
X31898061Y5407128D01*
X31898056Y5407128D01*
X31824177Y5391424D01*
X31717712Y5368794D01*
X31711682Y5366109D01*
X31711681Y5366109D01*
X31549278Y5293803D01*
X31549276Y5293802D01*
X31543248Y5291118D01*
X31388747Y5178866D01*
X31260960Y5036944D01*
X31165473Y4871556D01*
X31106458Y4689928D01*
X31086496Y4500000D01*
X29780405Y4500000D01*
X25053648Y9226757D01*
X25019622Y9289069D01*
X25016743Y9315852D01*
X25016743Y12874435D01*
X41307688Y12874435D01*
X41326259Y12697739D01*
X41328989Y12684898D01*
X41383892Y12515925D01*
X41389230Y12503936D01*
X41414761Y12459715D01*
X41424965Y12449985D01*
X41432986Y12453196D01*
X41847978Y12868188D01*
X41855592Y12882132D01*
X41855461Y12883965D01*
X41851210Y12890580D01*
X41436630Y13305160D01*
X41424250Y13311920D01*
X41417335Y13306744D01*
X41389230Y13258064D01*
X41383892Y13246075D01*
X41328989Y13077102D01*
X41326259Y13064261D01*
X41307688Y12887565D01*
X41307688Y12874435D01*
X25016743Y12874435D01*
X25016743Y13677628D01*
X41786622Y13677628D01*
X41788219Y13671991D01*
X42490115Y12970095D01*
X42524141Y12907783D01*
X42519076Y12836968D01*
X42490115Y12791905D01*
X41793629Y12095419D01*
X41786869Y12083039D01*
X41790380Y12078349D01*
X41931841Y12015366D01*
X41944320Y12011311D01*
X42118107Y11974373D01*
X42131168Y11973000D01*
X42308832Y11973000D01*
X42321893Y11974373D01*
X42495680Y12011311D01*
X42508159Y12015366D01*
X42670471Y12087632D01*
X42681843Y12094198D01*
X42780515Y12165887D01*
X42847383Y12189746D01*
X42916535Y12173665D01*
X42928637Y12165887D01*
X43027308Y12094198D01*
X43033248Y12089882D01*
X43039276Y12087198D01*
X43039278Y12087197D01*
X43200614Y12015366D01*
X43207712Y12012206D01*
X43301113Y11992353D01*
X43388056Y11973872D01*
X43388061Y11973872D01*
X43394513Y11972500D01*
X43585487Y11972500D01*
X43591939Y11973872D01*
X43591944Y11973872D01*
X43678887Y11992353D01*
X43772288Y12012206D01*
X43779386Y12015366D01*
X43940722Y12087197D01*
X43940724Y12087198D01*
X43946752Y12089882D01*
X43952693Y12094198D01*
X44062069Y12173665D01*
X44101253Y12202134D01*
X44157615Y12264730D01*
X44224621Y12339148D01*
X44224622Y12339149D01*
X44229040Y12344056D01*
X44296288Y12460532D01*
X44321223Y12503721D01*
X44321224Y12503722D01*
X44324527Y12509444D01*
X44383542Y12691072D01*
X44403504Y12881000D01*
X44383542Y13070928D01*
X44324527Y13252556D01*
X44296291Y13301463D01*
X44232341Y13412226D01*
X44229040Y13417944D01*
X44101253Y13559866D01*
X43998213Y13634729D01*
X43952094Y13668237D01*
X43952093Y13668238D01*
X43946752Y13672118D01*
X43940724Y13674802D01*
X43940722Y13674803D01*
X43778319Y13747109D01*
X43778318Y13747109D01*
X43772288Y13749794D01*
X43678887Y13769647D01*
X43591944Y13788128D01*
X43591939Y13788128D01*
X43585487Y13789500D01*
X43394513Y13789500D01*
X43388061Y13788128D01*
X43388056Y13788128D01*
X43301112Y13769647D01*
X43207712Y13749794D01*
X43201682Y13747109D01*
X43201681Y13747109D01*
X43039278Y13674803D01*
X43039276Y13674802D01*
X43033248Y13672118D01*
X43027907Y13668238D01*
X43027906Y13668237D01*
X42928637Y13596113D01*
X42861770Y13572255D01*
X42792618Y13588335D01*
X42780515Y13596113D01*
X42681843Y13667802D01*
X42670471Y13674368D01*
X42508159Y13746634D01*
X42495680Y13750689D01*
X42321893Y13787627D01*
X42308832Y13789000D01*
X42131168Y13789000D01*
X42118107Y13787627D01*
X41944320Y13750689D01*
X41931841Y13746634D01*
X41797367Y13686761D01*
X41786622Y13677628D01*
X25016743Y13677628D01*
X25016743Y35914525D01*
X25687483Y35914525D01*
X25706472Y35697481D01*
X25708375Y35686688D01*
X25764764Y35476239D01*
X25768510Y35465947D01*
X25860586Y35268489D01*
X25866069Y35258994D01*
X25902509Y35206952D01*
X25912988Y35198576D01*
X25926434Y35205644D01*
X26627978Y35907188D01*
X26635592Y35921132D01*
X26635461Y35922965D01*
X26631210Y35929580D01*
X25925713Y36635077D01*
X25913938Y36641507D01*
X25901923Y36632211D01*
X25866069Y36581006D01*
X25860586Y36571511D01*
X25768510Y36374053D01*
X25764764Y36363761D01*
X25708375Y36153312D01*
X25706472Y36142519D01*
X25687483Y35925475D01*
X25687483Y35914525D01*
X25016743Y35914525D01*
X25016743Y48283163D01*
X25036745Y48351284D01*
X25090401Y48397777D01*
X25160675Y48407881D01*
X25225255Y48378387D01*
X25231838Y48372258D01*
X26262552Y47341544D01*
X26296578Y47279232D01*
X26291513Y47208417D01*
X26245727Y47149236D01*
X26160216Y47089361D01*
X26160210Y47089356D01*
X26155700Y47086198D01*
X25993802Y46924300D01*
X25990645Y46919792D01*
X25990643Y46919789D01*
X25935902Y46841611D01*
X25862477Y46736749D01*
X25860154Y46731767D01*
X25860151Y46731762D01*
X25793404Y46588621D01*
X25765716Y46529243D01*
X25706457Y46308087D01*
X25686502Y46080000D01*
X25706457Y45851913D01*
X25707880Y45846602D01*
X25707881Y45846598D01*
X25723460Y45788459D01*
X25765716Y45630757D01*
X25768039Y45625776D01*
X25768039Y45625775D01*
X25860151Y45428238D01*
X25860154Y45428233D01*
X25862477Y45423251D01*
X25993802Y45235700D01*
X26155700Y45073802D01*
X26160208Y45070645D01*
X26160211Y45070643D01*
X26237376Y45016612D01*
X26343251Y44942477D01*
X26348233Y44940154D01*
X26348238Y44940151D01*
X26545775Y44848039D01*
X26550757Y44845716D01*
X26556065Y44844294D01*
X26556067Y44844293D01*
X26766598Y44787881D01*
X26766600Y44787881D01*
X26771913Y44786457D01*
X27000000Y44766502D01*
X27228087Y44786457D01*
X27233400Y44787881D01*
X27233402Y44787881D01*
X27443933Y44844293D01*
X27443935Y44844294D01*
X27449243Y44845716D01*
X27454225Y44848039D01*
X27651762Y44940151D01*
X27651767Y44940154D01*
X27656749Y44942477D01*
X27661258Y44945634D01*
X27661260Y44945635D01*
X27668232Y44950517D01*
X27735506Y44973203D01*
X27804366Y44955917D01*
X27852949Y44904146D01*
X27866500Y44847302D01*
X27866500Y37152087D01*
X27846498Y37083966D01*
X27792842Y37037473D01*
X27722568Y37027369D01*
X27668230Y37048873D01*
X27661005Y37053932D01*
X27651511Y37059414D01*
X27454053Y37151490D01*
X27443761Y37155236D01*
X27233312Y37211625D01*
X27222519Y37213528D01*
X27005475Y37232517D01*
X26994525Y37232517D01*
X26777481Y37213528D01*
X26766688Y37211625D01*
X26556239Y37155236D01*
X26545947Y37151490D01*
X26348489Y37059414D01*
X26338994Y37053931D01*
X26286952Y37017491D01*
X26278576Y37007012D01*
X26285644Y36993566D01*
X27270115Y36009095D01*
X27304141Y35946783D01*
X27299076Y35875968D01*
X27270115Y35830905D01*
X26284923Y34845713D01*
X26278493Y34833938D01*
X26287789Y34821923D01*
X26338994Y34786069D01*
X26348489Y34780586D01*
X26545947Y34688510D01*
X26556239Y34684764D01*
X26766688Y34628375D01*
X26777481Y34626472D01*
X26994525Y34607483D01*
X27005475Y34607483D01*
X27222519Y34626472D01*
X27233312Y34628375D01*
X27443761Y34684764D01*
X27454053Y34688510D01*
X27651511Y34780586D01*
X27661005Y34786068D01*
X27668230Y34791127D01*
X27735504Y34813814D01*
X27804365Y34796528D01*
X27852948Y34744758D01*
X27866500Y34687913D01*
X27866500Y34078767D01*
X27865973Y34067584D01*
X27864298Y34060091D01*
X27864547Y34052165D01*
X27864547Y34052164D01*
X27866438Y33992014D01*
X27866500Y33988055D01*
X27866500Y33960144D01*
X27866997Y33956210D01*
X27866997Y33956209D01*
X27867005Y33956144D01*
X27867938Y33944307D01*
X27869327Y33900111D01*
X27874978Y33880661D01*
X27878987Y33861300D01*
X27881526Y33841203D01*
X27884445Y33833832D01*
X27884445Y33833830D01*
X27897804Y33800088D01*
X27901649Y33788858D01*
X27910745Y33757548D01*
X27913982Y33746407D01*
X27918015Y33739588D01*
X27918017Y33739583D01*
X27924293Y33728972D01*
X27932988Y33711224D01*
X27940448Y33692383D01*
X27945110Y33685967D01*
X27945110Y33685966D01*
X27966436Y33656613D01*
X27972952Y33646693D01*
X27995458Y33608638D01*
X28009779Y33594317D01*
X28022619Y33579284D01*
X28034528Y33562893D01*
X28040634Y33557842D01*
X28068605Y33534702D01*
X28077384Y33526712D01*
X32659595Y28944501D01*
X32693621Y28882189D01*
X32696500Y28855406D01*
X32696500Y27755782D01*
X32676498Y27687661D01*
X32622842Y27641168D01*
X32552568Y27631064D01*
X32517270Y27643282D01*
X32516752Y27642118D01*
X32348319Y27717109D01*
X32348318Y27717109D01*
X32342288Y27719794D01*
X32248887Y27739647D01*
X32161944Y27758128D01*
X32161939Y27758128D01*
X32155487Y27759500D01*
X31964513Y27759500D01*
X31958061Y27758128D01*
X31958056Y27758128D01*
X31871113Y27739647D01*
X31777712Y27719794D01*
X31771682Y27717109D01*
X31771681Y27717109D01*
X31609278Y27644803D01*
X31609276Y27644802D01*
X31603248Y27642118D01*
X31597907Y27638238D01*
X31597906Y27638237D01*
X31586464Y27629924D01*
X31499060Y27566421D01*
X31432194Y27542563D01*
X31363042Y27558643D01*
X31350944Y27566418D01*
X31263536Y27629924D01*
X31252094Y27638237D01*
X31252093Y27638238D01*
X31246752Y27642118D01*
X31240724Y27644802D01*
X31240722Y27644803D01*
X31078319Y27717109D01*
X31078318Y27717109D01*
X31072288Y27719794D01*
X30978887Y27739647D01*
X30891944Y27758128D01*
X30891939Y27758128D01*
X30885487Y27759500D01*
X30694513Y27759500D01*
X30688061Y27758128D01*
X30688056Y27758128D01*
X30601113Y27739647D01*
X30507712Y27719794D01*
X30501682Y27717109D01*
X30501681Y27717109D01*
X30339278Y27644803D01*
X30339276Y27644802D01*
X30333248Y27642118D01*
X30327907Y27638238D01*
X30327906Y27638237D01*
X30316464Y27629924D01*
X30229061Y27566421D01*
X30228637Y27566113D01*
X30161770Y27542255D01*
X30092618Y27558335D01*
X30080515Y27566113D01*
X29981843Y27637802D01*
X29970471Y27644368D01*
X29808159Y27716634D01*
X29795680Y27720689D01*
X29621893Y27757627D01*
X29608832Y27759000D01*
X29431168Y27759000D01*
X29418107Y27757627D01*
X29244320Y27720689D01*
X29231841Y27716634D01*
X29097367Y27656761D01*
X29086622Y27647628D01*
X29088219Y27641991D01*
X29790115Y26940095D01*
X29824141Y26877783D01*
X29819076Y26806968D01*
X29790115Y26761905D01*
X29609095Y26580885D01*
X29546783Y26546859D01*
X29475968Y26551924D01*
X29430905Y26580885D01*
X29020232Y26991558D01*
X29008026Y27007465D01*
X29007224Y27006882D01*
X29003341Y27012226D01*
X29000040Y27017944D01*
X28989893Y27029214D01*
X28876675Y27154955D01*
X28876674Y27154956D01*
X28872253Y27159866D01*
X28805930Y27208052D01*
X28790898Y27220892D01*
X28736630Y27275160D01*
X28718307Y27285166D01*
X28669017Y27293816D01*
X28549319Y27347109D01*
X28549318Y27347109D01*
X28543288Y27349794D01*
X28449887Y27369647D01*
X28362944Y27388128D01*
X28362939Y27388128D01*
X28356487Y27389500D01*
X28165513Y27389500D01*
X28159061Y27388128D01*
X28159056Y27388128D01*
X28072113Y27369647D01*
X27978712Y27349794D01*
X27972682Y27347109D01*
X27972681Y27347109D01*
X27810278Y27274803D01*
X27810276Y27274802D01*
X27804248Y27272118D01*
X27649747Y27159866D01*
X27645326Y27154956D01*
X27645325Y27154955D01*
X27532108Y27029214D01*
X27521960Y27017944D01*
X27506726Y26991558D01*
X27439685Y26875439D01*
X27426473Y26852556D01*
X27367458Y26670928D01*
X27347496Y26481000D01*
X27348186Y26474435D01*
X27366391Y26301227D01*
X27367458Y26291072D01*
X27426473Y26109444D01*
X27521960Y25944056D01*
X27534338Y25930309D01*
X27565054Y25866303D01*
X27556290Y25795850D01*
X27534339Y25761693D01*
X27521960Y25747944D01*
X27426473Y25582556D01*
X27367458Y25400928D01*
X27366768Y25394367D01*
X27366768Y25394365D01*
X27365535Y25382630D01*
X27347496Y25211000D01*
X27367458Y25021072D01*
X27426473Y24839444D01*
X27521960Y24674056D01*
X27526378Y24669149D01*
X27526379Y24669148D01*
X27636081Y24547312D01*
X27649747Y24532134D01*
X27804248Y24419882D01*
X27810276Y24417198D01*
X27810278Y24417197D01*
X27972681Y24344891D01*
X27978712Y24342206D01*
X28055223Y24325943D01*
X28159056Y24303872D01*
X28159061Y24303872D01*
X28165513Y24302500D01*
X28356487Y24302500D01*
X28362939Y24303872D01*
X28362944Y24303872D01*
X28466777Y24325943D01*
X28543288Y24342206D01*
X28549319Y24344891D01*
X28711722Y24417197D01*
X28711724Y24417198D01*
X28717752Y24419882D01*
X28872253Y24532134D01*
X28885919Y24547312D01*
X28995621Y24669148D01*
X28995622Y24669149D01*
X29000040Y24674056D01*
X29095527Y24839444D01*
X29154542Y25021072D01*
X29174504Y25211000D01*
X29156465Y25382630D01*
X29155232Y25394365D01*
X29155232Y25394367D01*
X29154542Y25400928D01*
X29095527Y25582556D01*
X29000040Y25747944D01*
X28987662Y25761691D01*
X28956946Y25825697D01*
X28965710Y25896150D01*
X28987661Y25930307D01*
X29000040Y25944056D01*
X29009688Y25960767D01*
X29061070Y26009760D01*
X29130783Y26023197D01*
X29170055Y26012874D01*
X29231837Y25985367D01*
X29244320Y25981311D01*
X29418107Y25944373D01*
X29431168Y25943000D01*
X29608832Y25943000D01*
X29621893Y25944373D01*
X29795680Y25981311D01*
X29808159Y25985366D01*
X29970471Y26057632D01*
X29981843Y26064198D01*
X30080515Y26135887D01*
X30147383Y26159746D01*
X30216535Y26143665D01*
X30228633Y26135890D01*
X30256382Y26115729D01*
X30327308Y26064198D01*
X30333248Y26059882D01*
X30339276Y26057198D01*
X30339278Y26057197D01*
X30438830Y26012874D01*
X30507712Y25982206D01*
X30601112Y25962353D01*
X30688056Y25943872D01*
X30688061Y25943872D01*
X30694513Y25942500D01*
X30885487Y25942500D01*
X30891939Y25943872D01*
X30891944Y25943872D01*
X30978888Y25962353D01*
X31072288Y25982206D01*
X31141170Y26012874D01*
X31240722Y26057197D01*
X31240724Y26057198D01*
X31246752Y26059882D01*
X31252693Y26064198D01*
X31323618Y26115729D01*
X31350940Y26135579D01*
X31417806Y26159437D01*
X31486958Y26143357D01*
X31499056Y26135582D01*
X31526382Y26115729D01*
X31597308Y26064198D01*
X31603248Y26059882D01*
X31609276Y26057198D01*
X31609278Y26057197D01*
X31708830Y26012874D01*
X31777712Y25982206D01*
X31871112Y25962353D01*
X31958056Y25943872D01*
X31958061Y25943872D01*
X31964513Y25942500D01*
X32155487Y25942500D01*
X32161939Y25943872D01*
X32161944Y25943872D01*
X32248888Y25962353D01*
X32342288Y25982206D01*
X32411170Y26012874D01*
X32510722Y26057197D01*
X32510724Y26057198D01*
X32516752Y26059882D01*
X32522693Y26064198D01*
X32593618Y26115729D01*
X32620940Y26135579D01*
X32687806Y26159437D01*
X32756958Y26143357D01*
X32769056Y26135582D01*
X32796382Y26115729D01*
X32867308Y26064198D01*
X32873248Y26059882D01*
X32879276Y26057198D01*
X32879278Y26057197D01*
X32978830Y26012874D01*
X33047712Y25982206D01*
X33141112Y25962353D01*
X33228056Y25943872D01*
X33228061Y25943872D01*
X33234513Y25942500D01*
X33425487Y25942500D01*
X33431939Y25943872D01*
X33431944Y25943872D01*
X33518888Y25962353D01*
X33612288Y25982206D01*
X33681170Y26012874D01*
X33780722Y26057197D01*
X33780724Y26057198D01*
X33786752Y26059882D01*
X33792693Y26064198D01*
X33863618Y26115729D01*
X33890940Y26135579D01*
X33957806Y26159437D01*
X34026958Y26143357D01*
X34039056Y26135582D01*
X34066382Y26115729D01*
X34137308Y26064198D01*
X34143248Y26059882D01*
X34149276Y26057198D01*
X34149278Y26057197D01*
X34248830Y26012874D01*
X34317712Y25982206D01*
X34411112Y25962353D01*
X34498056Y25943872D01*
X34498061Y25943872D01*
X34504513Y25942500D01*
X34695487Y25942500D01*
X34701939Y25943872D01*
X34701944Y25943872D01*
X34788888Y25962353D01*
X34882288Y25982206D01*
X34951170Y26012874D01*
X35050722Y26057197D01*
X35050724Y26057198D01*
X35056752Y26059882D01*
X35062693Y26064198D01*
X35133618Y26115729D01*
X35160940Y26135579D01*
X35227806Y26159437D01*
X35296958Y26143357D01*
X35309056Y26135582D01*
X35336382Y26115729D01*
X35407308Y26064198D01*
X35413248Y26059882D01*
X35419276Y26057198D01*
X35419278Y26057197D01*
X35518830Y26012874D01*
X35587712Y25982206D01*
X35681112Y25962353D01*
X35768056Y25943872D01*
X35768061Y25943872D01*
X35774513Y25942500D01*
X35965487Y25942500D01*
X35971939Y25943872D01*
X35971944Y25943872D01*
X36058888Y25962353D01*
X36152288Y25982206D01*
X36221170Y26012874D01*
X36320722Y26057197D01*
X36320724Y26057198D01*
X36326752Y26059882D01*
X36332693Y26064198D01*
X36403618Y26115729D01*
X36430940Y26135579D01*
X36497806Y26159437D01*
X36566958Y26143357D01*
X36579056Y26135582D01*
X36606382Y26115729D01*
X36677308Y26064198D01*
X36683248Y26059882D01*
X36689276Y26057198D01*
X36689278Y26057197D01*
X36788830Y26012874D01*
X36857712Y25982206D01*
X36951112Y25962353D01*
X37038056Y25943872D01*
X37038061Y25943872D01*
X37044513Y25942500D01*
X37235487Y25942500D01*
X37241939Y25943872D01*
X37241944Y25943872D01*
X37328888Y25962353D01*
X37422288Y25982206D01*
X37491170Y26012874D01*
X37590722Y26057197D01*
X37590724Y26057198D01*
X37596752Y26059882D01*
X37602693Y26064198D01*
X37673618Y26115729D01*
X37700940Y26135579D01*
X37767806Y26159437D01*
X37836958Y26143357D01*
X37849056Y26135582D01*
X37876382Y26115729D01*
X37947308Y26064198D01*
X37953248Y26059882D01*
X37959276Y26057198D01*
X37959278Y26057197D01*
X38058830Y26012874D01*
X38127712Y25982206D01*
X38221112Y25962353D01*
X38308056Y25943872D01*
X38308061Y25943872D01*
X38314513Y25942500D01*
X38505487Y25942500D01*
X38511939Y25943872D01*
X38511944Y25943872D01*
X38598888Y25962353D01*
X38692288Y25982206D01*
X38761170Y26012874D01*
X38860722Y26057197D01*
X38860724Y26057198D01*
X38866752Y26059882D01*
X38872693Y26064198D01*
X38943618Y26115729D01*
X38970940Y26135579D01*
X39037806Y26159437D01*
X39106958Y26143357D01*
X39119056Y26135582D01*
X39146382Y26115729D01*
X39217308Y26064198D01*
X39223248Y26059882D01*
X39229276Y26057198D01*
X39229278Y26057197D01*
X39328830Y26012874D01*
X39397712Y25982206D01*
X39491112Y25962353D01*
X39578056Y25943872D01*
X39578061Y25943872D01*
X39584513Y25942500D01*
X39775487Y25942500D01*
X39781939Y25943872D01*
X39781944Y25943872D01*
X39868888Y25962353D01*
X39962288Y25982206D01*
X40031170Y26012874D01*
X40130722Y26057197D01*
X40130724Y26057198D01*
X40136752Y26059882D01*
X40142693Y26064198D01*
X40213618Y26115729D01*
X40240940Y26135579D01*
X40307806Y26159437D01*
X40376958Y26143357D01*
X40389056Y26135582D01*
X40416382Y26115729D01*
X40487308Y26064198D01*
X40493248Y26059882D01*
X40499276Y26057198D01*
X40499278Y26057197D01*
X40598830Y26012874D01*
X40667712Y25982206D01*
X40761112Y25962353D01*
X40848056Y25943872D01*
X40848061Y25943872D01*
X40854513Y25942500D01*
X41045487Y25942500D01*
X41051939Y25943872D01*
X41051944Y25943872D01*
X41138888Y25962353D01*
X41232288Y25982206D01*
X41301170Y26012874D01*
X41400722Y26057197D01*
X41400724Y26057198D01*
X41406752Y26059882D01*
X41412693Y26064198D01*
X41483618Y26115729D01*
X41510940Y26135579D01*
X41577806Y26159437D01*
X41646958Y26143357D01*
X41659056Y26135582D01*
X41686382Y26115729D01*
X41757308Y26064198D01*
X41763248Y26059882D01*
X41769276Y26057198D01*
X41769278Y26057197D01*
X41868830Y26012874D01*
X41937712Y25982206D01*
X42031112Y25962353D01*
X42118056Y25943872D01*
X42118061Y25943872D01*
X42124513Y25942500D01*
X42315487Y25942500D01*
X42321939Y25943872D01*
X42321944Y25943872D01*
X42408888Y25962353D01*
X42502288Y25982206D01*
X42571170Y26012874D01*
X42670722Y26057197D01*
X42670724Y26057198D01*
X42676752Y26059882D01*
X42682693Y26064198D01*
X42753618Y26115729D01*
X42781364Y26135887D01*
X42848230Y26159745D01*
X42917382Y26143665D01*
X42929485Y26135887D01*
X43028157Y26064198D01*
X43039529Y26057632D01*
X43201841Y25985366D01*
X43214320Y25981311D01*
X43388107Y25944373D01*
X43401168Y25943000D01*
X43578832Y25943000D01*
X43591893Y25944373D01*
X43765680Y25981311D01*
X43778159Y25985366D01*
X43912633Y26045239D01*
X43923378Y26054372D01*
X43921781Y26060009D01*
X43219885Y26761905D01*
X43185859Y26824217D01*
X43190924Y26895032D01*
X43219885Y26940095D01*
X43916371Y27636581D01*
X43923131Y27648961D01*
X43919620Y27653651D01*
X43778159Y27716634D01*
X43765680Y27720689D01*
X43591893Y27757627D01*
X43578832Y27759000D01*
X43401168Y27759000D01*
X43388107Y27757627D01*
X43214320Y27720689D01*
X43201841Y27716634D01*
X43039529Y27644368D01*
X43028157Y27637802D01*
X42929485Y27566113D01*
X42862617Y27542254D01*
X42793465Y27558335D01*
X42781363Y27566113D01*
X42780940Y27566421D01*
X42693536Y27629924D01*
X42682094Y27638237D01*
X42682093Y27638238D01*
X42676752Y27642118D01*
X42670724Y27644802D01*
X42670722Y27644803D01*
X42508319Y27717109D01*
X42508318Y27717109D01*
X42502288Y27719794D01*
X42408887Y27739647D01*
X42321944Y27758128D01*
X42321939Y27758128D01*
X42315487Y27759500D01*
X42124513Y27759500D01*
X42118061Y27758128D01*
X42118056Y27758128D01*
X42031113Y27739647D01*
X41937712Y27719794D01*
X41931682Y27717109D01*
X41931681Y27717109D01*
X41769278Y27644803D01*
X41769276Y27644802D01*
X41763248Y27642118D01*
X41757907Y27638238D01*
X41757906Y27638237D01*
X41746464Y27629924D01*
X41659060Y27566421D01*
X41592194Y27542563D01*
X41523042Y27558643D01*
X41510944Y27566418D01*
X41423536Y27629924D01*
X41412094Y27638237D01*
X41412093Y27638238D01*
X41406752Y27642118D01*
X41400724Y27644802D01*
X41400722Y27644803D01*
X41238319Y27717109D01*
X41238318Y27717109D01*
X41232288Y27719794D01*
X41138887Y27739647D01*
X41051944Y27758128D01*
X41051939Y27758128D01*
X41045487Y27759500D01*
X40854513Y27759500D01*
X40848061Y27758128D01*
X40848056Y27758128D01*
X40761113Y27739647D01*
X40667712Y27719794D01*
X40661682Y27717109D01*
X40661681Y27717109D01*
X40499278Y27644803D01*
X40499276Y27644802D01*
X40493248Y27642118D01*
X40487907Y27638238D01*
X40487906Y27638237D01*
X40476464Y27629924D01*
X40389060Y27566421D01*
X40322194Y27542563D01*
X40253042Y27558643D01*
X40240944Y27566418D01*
X40153536Y27629924D01*
X40142094Y27638237D01*
X40142093Y27638238D01*
X40136752Y27642118D01*
X40130724Y27644802D01*
X40130722Y27644803D01*
X39968319Y27717109D01*
X39968318Y27717109D01*
X39962288Y27719794D01*
X39868887Y27739647D01*
X39781944Y27758128D01*
X39781939Y27758128D01*
X39775487Y27759500D01*
X39584513Y27759500D01*
X39578061Y27758128D01*
X39578056Y27758128D01*
X39491113Y27739647D01*
X39397712Y27719794D01*
X39391682Y27717109D01*
X39391681Y27717109D01*
X39229278Y27644803D01*
X39229276Y27644802D01*
X39223248Y27642118D01*
X39217907Y27638238D01*
X39217906Y27638237D01*
X39206464Y27629924D01*
X39119060Y27566421D01*
X39052194Y27542563D01*
X38983042Y27558643D01*
X38970944Y27566418D01*
X38883536Y27629924D01*
X38872094Y27638237D01*
X38872093Y27638238D01*
X38866752Y27642118D01*
X38860724Y27644802D01*
X38860722Y27644803D01*
X38698319Y27717109D01*
X38698318Y27717109D01*
X38692288Y27719794D01*
X38598887Y27739647D01*
X38511944Y27758128D01*
X38511939Y27758128D01*
X38505487Y27759500D01*
X38314513Y27759500D01*
X38308061Y27758128D01*
X38308056Y27758128D01*
X38221113Y27739647D01*
X38127712Y27719794D01*
X38121682Y27717109D01*
X38121681Y27717109D01*
X38055540Y27687661D01*
X37953248Y27642118D01*
X37952323Y27644196D01*
X37893512Y27629924D01*
X37826419Y27653141D01*
X37782528Y27708945D01*
X37773500Y27755782D01*
X37773500Y28325406D01*
X37793502Y28393527D01*
X37810405Y28414501D01*
X40225500Y30829595D01*
X40287812Y30863621D01*
X40314595Y30866500D01*
X41921233Y30866500D01*
X41932416Y30865973D01*
X41939909Y30864298D01*
X41947835Y30864547D01*
X41947836Y30864547D01*
X42007986Y30866438D01*
X42011945Y30866500D01*
X42039856Y30866500D01*
X42043791Y30866997D01*
X42043856Y30867005D01*
X42055693Y30867938D01*
X42087951Y30868952D01*
X42091970Y30869078D01*
X42099889Y30869327D01*
X42119343Y30874979D01*
X42138700Y30878987D01*
X42150930Y30880532D01*
X42150931Y30880532D01*
X42158797Y30881526D01*
X42166168Y30884445D01*
X42166170Y30884445D01*
X42199912Y30897804D01*
X42211142Y30901649D01*
X42245983Y30911771D01*
X42245984Y30911771D01*
X42253593Y30913982D01*
X42260412Y30918015D01*
X42260417Y30918017D01*
X42271028Y30924293D01*
X42288776Y30932988D01*
X42307617Y30940448D01*
X42343387Y30966436D01*
X42353307Y30972952D01*
X42384535Y30991420D01*
X42384538Y30991422D01*
X42391362Y30995458D01*
X42405683Y31009779D01*
X42420717Y31022620D01*
X42430694Y31029869D01*
X42437107Y31034528D01*
X42465298Y31068605D01*
X42473288Y31077384D01*
X44151405Y32755501D01*
X44213717Y32789527D01*
X44284532Y32784462D01*
X44341368Y32741915D01*
X44366179Y32675395D01*
X44366500Y32666406D01*
X44366500Y27399908D01*
X44346498Y27331787D01*
X44287330Y27282934D01*
X44277014Y27278804D01*
X43862022Y26863812D01*
X43854408Y26849868D01*
X43854539Y26848035D01*
X43858790Y26841420D01*
X44273370Y26426840D01*
X44300887Y26411814D01*
X44351088Y26361611D01*
X44366500Y26301227D01*
X44366500Y23202524D01*
X44346498Y23134403D01*
X44334142Y23118221D01*
X44260960Y23036944D01*
X44165473Y22871556D01*
X44106458Y22689928D01*
X44086496Y22500000D01*
X44106458Y22310072D01*
X44165473Y22128444D01*
X44260960Y21963056D01*
X44388747Y21821134D01*
X44423776Y21795684D01*
X44527694Y21720183D01*
X44543248Y21708882D01*
X44549276Y21706198D01*
X44549278Y21706197D01*
X44711681Y21633891D01*
X44717712Y21631206D01*
X44811113Y21611353D01*
X44898056Y21592872D01*
X44898061Y21592872D01*
X44904513Y21591500D01*
X44963428Y21591500D01*
X45031549Y21571498D01*
X45078042Y21517842D01*
X45088738Y21478670D01*
X45100357Y21368124D01*
X45106458Y21310072D01*
X45165473Y21128444D01*
X45260960Y20963056D01*
X45388747Y20821134D01*
X45543248Y20708882D01*
X45549276Y20706198D01*
X45549278Y20706197D01*
X45711681Y20633891D01*
X45717712Y20631206D01*
X45811113Y20611353D01*
X45898056Y20592872D01*
X45898061Y20592872D01*
X45904513Y20591500D01*
X46074220Y20591500D01*
X46142341Y20571498D01*
X46188834Y20517842D01*
X46198938Y20447568D01*
X46183338Y20402499D01*
X46165473Y20371556D01*
X46106458Y20189928D01*
X46086496Y20000000D01*
X46106458Y19810072D01*
X46165473Y19628444D01*
X46260960Y19463056D01*
X46265378Y19458149D01*
X46265379Y19458148D01*
X46334357Y19381540D01*
X46388747Y19321134D01*
X46543248Y19208882D01*
X46549276Y19206198D01*
X46549278Y19206197D01*
X46711681Y19133891D01*
X46717712Y19131206D01*
X46792271Y19115358D01*
X46898056Y19092872D01*
X46898061Y19092872D01*
X46904513Y19091500D01*
X46963428Y19091500D01*
X47031549Y19071498D01*
X47078042Y19017842D01*
X47088738Y18978671D01*
X47106458Y18810072D01*
X47165473Y18628444D01*
X47168776Y18622722D01*
X47168777Y18622721D01*
X47189765Y18586369D01*
X47260960Y18463056D01*
X47388747Y18321134D01*
X47543248Y18208882D01*
X47549276Y18206198D01*
X47549278Y18206197D01*
X47711681Y18133891D01*
X47717712Y18131206D01*
X47811112Y18111353D01*
X47898056Y18092872D01*
X47898061Y18092872D01*
X47904513Y18091500D01*
X48095487Y18091500D01*
X48101939Y18092872D01*
X48101944Y18092872D01*
X48214303Y18116755D01*
X48285094Y18111353D01*
X48341727Y18068536D01*
X48366220Y18001898D01*
X48366500Y17993508D01*
X48366500Y14702524D01*
X48346498Y14634403D01*
X48334142Y14618221D01*
X48260960Y14536944D01*
X48165473Y14371556D01*
X48106458Y14189928D01*
X48086496Y14000000D01*
X48106458Y13810072D01*
X48165473Y13628444D01*
X48260960Y13463056D01*
X48388747Y13321134D01*
X48543248Y13208882D01*
X48549276Y13206198D01*
X48549278Y13206197D01*
X48711681Y13133891D01*
X48717712Y13131206D01*
X48811113Y13111353D01*
X48898056Y13092872D01*
X48898061Y13092872D01*
X48904513Y13091500D01*
X49095487Y13091500D01*
X49101939Y13092872D01*
X49101944Y13092872D01*
X49188888Y13111353D01*
X49282288Y13131206D01*
X49288319Y13133891D01*
X49450722Y13206197D01*
X49450724Y13206198D01*
X49456752Y13208882D01*
X49611253Y13321134D01*
X49739040Y13463056D01*
X49834527Y13628444D01*
X49893542Y13810072D01*
X49913504Y14000000D01*
X49893542Y14189928D01*
X49834527Y14371556D01*
X49739040Y14536944D01*
X49665863Y14618215D01*
X49635147Y14682221D01*
X49633500Y14702524D01*
X49633500Y47297476D01*
X49653502Y47365597D01*
X49665858Y47381779D01*
X49739040Y47463056D01*
X49834527Y47628444D01*
X49893542Y47810072D01*
X49913504Y48000000D01*
X49894705Y48178866D01*
X49894232Y48183365D01*
X49894232Y48183367D01*
X49893542Y48189928D01*
X49834527Y48371556D01*
X49813990Y48407128D01*
X49742341Y48531226D01*
X49739040Y48536944D01*
X49720224Y48557842D01*
X49615675Y48673955D01*
X49615674Y48673956D01*
X49611253Y48678866D01*
X49481732Y48772969D01*
X49462094Y48787237D01*
X49462093Y48787238D01*
X49456752Y48791118D01*
X49450724Y48793802D01*
X49450722Y48793803D01*
X49288319Y48866109D01*
X49288318Y48866109D01*
X49282288Y48868794D01*
X49188888Y48888647D01*
X49101944Y48907128D01*
X49101939Y48907128D01*
X49095487Y48908500D01*
X48904513Y48908500D01*
X48898061Y48907128D01*
X48898056Y48907128D01*
X48785697Y48883245D01*
X48714906Y48888647D01*
X48658273Y48931464D01*
X48633780Y48998102D01*
X48633500Y49006492D01*
X48633500Y59126366D01*
X49126000Y59126366D01*
X49132755Y59064184D01*
X49183885Y58927795D01*
X49271239Y58811239D01*
X49387795Y58723885D01*
X49524184Y58672755D01*
X49586366Y58666000D01*
X51333634Y58666000D01*
X51395816Y58672755D01*
X51532205Y58723885D01*
X51648761Y58811239D01*
X51712008Y58895629D01*
X52260183Y58895629D01*
X52269480Y58883613D01*
X52326198Y58843899D01*
X52335684Y58838421D01*
X52537192Y58744456D01*
X52547484Y58740710D01*
X52762241Y58683166D01*
X52773036Y58681263D01*
X52994525Y58661885D01*
X53005475Y58661885D01*
X53226964Y58681263D01*
X53237759Y58683166D01*
X53452516Y58740710D01*
X53462808Y58744456D01*
X53664316Y58838421D01*
X53673802Y58843899D01*
X53731358Y58884199D01*
X53739733Y58894677D01*
X53732665Y58908125D01*
X53012812Y59627978D01*
X52998868Y59635592D01*
X52997035Y59635461D01*
X52990420Y59631210D01*
X52266613Y58907403D01*
X52260183Y58895629D01*
X51712008Y58895629D01*
X51736115Y58927795D01*
X51787245Y59064184D01*
X51794000Y59126366D01*
X51794000Y59131231D01*
X51794096Y59131559D01*
X51794184Y59133180D01*
X51794566Y59133159D01*
X51814002Y59199352D01*
X51861376Y59242762D01*
X51908124Y59267334D01*
X52627978Y59987188D01*
X52634356Y59998868D01*
X53364408Y59998868D01*
X53364539Y59997035D01*
X53368790Y59990420D01*
X54092597Y59266613D01*
X54104371Y59260183D01*
X54116387Y59269480D01*
X54156095Y59326189D01*
X54160592Y59333977D01*
X54211976Y59382969D01*
X54281690Y59396403D01*
X54347601Y59370015D01*
X54378477Y59334380D01*
X54380309Y59330452D01*
X54397810Y59305458D01*
X54509857Y59145439D01*
X54514193Y59139246D01*
X54679246Y58974193D01*
X54683754Y58971036D01*
X54683757Y58971034D01*
X54853641Y58852080D01*
X54870452Y58840309D01*
X54875434Y58837986D01*
X54875439Y58837983D01*
X55076008Y58744456D01*
X55082002Y58741661D01*
X55087310Y58740239D01*
X55087312Y58740238D01*
X55302153Y58682672D01*
X55302155Y58682672D01*
X55307468Y58681248D01*
X55540000Y58660904D01*
X55772532Y58681248D01*
X55777845Y58682672D01*
X55777847Y58682672D01*
X55992688Y58740238D01*
X55992690Y58740239D01*
X55997998Y58741661D01*
X56003992Y58744456D01*
X56204561Y58837983D01*
X56204566Y58837986D01*
X56209548Y58840309D01*
X56226359Y58852080D01*
X56396243Y58971034D01*
X56396246Y58971036D01*
X56400754Y58974193D01*
X56565807Y59139246D01*
X56570144Y59145439D01*
X56696534Y59325943D01*
X56696537Y59325948D01*
X56699691Y59330452D01*
X56702014Y59335434D01*
X56702017Y59335439D01*
X56796016Y59537020D01*
X56796017Y59537022D01*
X56798339Y59542002D01*
X56809311Y59582948D01*
X56857328Y59762153D01*
X56857328Y59762155D01*
X56858752Y59767468D01*
X56879096Y60000000D01*
X56858752Y60232532D01*
X56847914Y60272980D01*
X56799762Y60452688D01*
X56799761Y60452690D01*
X56798339Y60457998D01*
X56796016Y60462980D01*
X56702017Y60664561D01*
X56702014Y60664566D01*
X56699691Y60669548D01*
X56681317Y60695789D01*
X56568966Y60856243D01*
X56568964Y60856246D01*
X56565807Y60860754D01*
X56487230Y60939331D01*
X64426001Y60939331D01*
X64426371Y60932510D01*
X64431895Y60881648D01*
X64435521Y60866396D01*
X64480676Y60745946D01*
X64489214Y60730351D01*
X64565715Y60628276D01*
X64578276Y60615715D01*
X64680351Y60539214D01*
X64695946Y60530676D01*
X64816394Y60485522D01*
X64831649Y60481895D01*
X64882514Y60476369D01*
X64889328Y60476000D01*
X65677885Y60476000D01*
X65693124Y60480475D01*
X65694329Y60481865D01*
X65696000Y60489548D01*
X65696000Y60494116D01*
X66204000Y60494116D01*
X66208475Y60478877D01*
X66209865Y60477672D01*
X66217548Y60476001D01*
X67010669Y60476001D01*
X67017490Y60476371D01*
X67068352Y60481895D01*
X67083604Y60485521D01*
X67204054Y60530676D01*
X67219649Y60539214D01*
X67321724Y60615715D01*
X67334285Y60628276D01*
X67410786Y60730351D01*
X67419324Y60745946D01*
X67464478Y60866394D01*
X67468105Y60881649D01*
X67473631Y60932514D01*
X67474000Y60939328D01*
X67474000Y61727885D01*
X67469525Y61743124D01*
X67468135Y61744329D01*
X67460452Y61746000D01*
X66222115Y61746000D01*
X66206876Y61741525D01*
X66205671Y61740135D01*
X66204000Y61732452D01*
X66204000Y60494116D01*
X65696000Y60494116D01*
X65696000Y61727885D01*
X65691525Y61743124D01*
X65690135Y61744329D01*
X65682452Y61746000D01*
X64444116Y61746000D01*
X64428877Y61741525D01*
X64427672Y61740135D01*
X64426001Y61732452D01*
X64426001Y60939331D01*
X56487230Y60939331D01*
X56400754Y61025807D01*
X56396246Y61028964D01*
X56396243Y61028966D01*
X56214057Y61156534D01*
X56214055Y61156535D01*
X56209548Y61159691D01*
X56204566Y61162014D01*
X56204561Y61162017D01*
X56002980Y61256016D01*
X56002978Y61256017D01*
X55997998Y61258339D01*
X55992690Y61259761D01*
X55992688Y61259762D01*
X55777847Y61317328D01*
X55777845Y61317328D01*
X55772532Y61318752D01*
X55540000Y61339096D01*
X55307468Y61318752D01*
X55302155Y61317328D01*
X55302153Y61317328D01*
X55087312Y61259762D01*
X55087310Y61259761D01*
X55082002Y61258339D01*
X55077022Y61256017D01*
X55077020Y61256016D01*
X54875439Y61162017D01*
X54875434Y61162014D01*
X54870452Y61159691D01*
X54865945Y61156535D01*
X54865943Y61156534D01*
X54683757Y61028966D01*
X54683754Y61028964D01*
X54679246Y61025807D01*
X54514193Y60860754D01*
X54380309Y60669548D01*
X54378537Y60665747D01*
X54327447Y60617033D01*
X54257733Y60603597D01*
X54191822Y60629983D01*
X54160592Y60666023D01*
X54156095Y60673811D01*
X54115801Y60731358D01*
X54105323Y60739733D01*
X54091875Y60732665D01*
X53372022Y60012812D01*
X53364408Y59998868D01*
X52634356Y59998868D01*
X52635592Y60001132D01*
X52635461Y60002965D01*
X52631210Y60009580D01*
X51907403Y60733387D01*
X51862177Y60758083D01*
X51859593Y60758646D01*
X51809401Y60808858D01*
X51794607Y60866843D01*
X51794184Y60866820D01*
X51794068Y60868954D01*
X51794000Y60869222D01*
X51794000Y60873634D01*
X51787245Y60935816D01*
X51736115Y61072205D01*
X51711294Y61105323D01*
X52260267Y61105323D01*
X52267335Y61091875D01*
X52987188Y60372022D01*
X53001132Y60364408D01*
X53002965Y60364539D01*
X53009580Y60368790D01*
X53733387Y61092597D01*
X53739817Y61104371D01*
X53730520Y61116387D01*
X53673802Y61156101D01*
X53664316Y61161579D01*
X53462808Y61255544D01*
X53452516Y61259290D01*
X53237759Y61316834D01*
X53226964Y61318737D01*
X53005475Y61338115D01*
X52994525Y61338115D01*
X52773036Y61318737D01*
X52762241Y61316834D01*
X52547484Y61259290D01*
X52537192Y61255544D01*
X52335684Y61161579D01*
X52326198Y61156101D01*
X52268642Y61115801D01*
X52260267Y61105323D01*
X51711294Y61105323D01*
X51648761Y61188761D01*
X51532205Y61276115D01*
X51395816Y61327245D01*
X51333634Y61334000D01*
X49586366Y61334000D01*
X49524184Y61327245D01*
X49387795Y61276115D01*
X49271239Y61188761D01*
X49183885Y61072205D01*
X49132755Y60935816D01*
X49126000Y60873634D01*
X49126000Y59126366D01*
X48633500Y59126366D01*
X48633500Y59841634D01*
X48634027Y59852817D01*
X48635702Y59860310D01*
X48633562Y59928401D01*
X48633500Y59932358D01*
X48633500Y59960258D01*
X48632996Y59964249D01*
X48632063Y59976091D01*
X48631715Y59987188D01*
X48630674Y60020291D01*
X48628461Y60027909D01*
X48625021Y60039750D01*
X48621012Y60059109D01*
X48620846Y60060419D01*
X48618474Y60079199D01*
X48615558Y60086565D01*
X48615556Y60086571D01*
X48602200Y60120304D01*
X48598355Y60131534D01*
X48588230Y60166385D01*
X48588230Y60166386D01*
X48586019Y60173995D01*
X48575705Y60191436D01*
X48567008Y60209189D01*
X48562472Y60220644D01*
X48559552Y60228019D01*
X48533563Y60263790D01*
X48527047Y60273710D01*
X48508578Y60304939D01*
X48504542Y60311764D01*
X48490221Y60326085D01*
X48477380Y60341119D01*
X48470132Y60351095D01*
X48465472Y60357509D01*
X48431401Y60385695D01*
X48422622Y60393684D01*
X48355100Y60461206D01*
X48321074Y60523518D01*
X48318885Y60537131D01*
X48302210Y60695789D01*
X48302210Y60695791D01*
X48301520Y60702352D01*
X48242505Y60883980D01*
X48147018Y61049368D01*
X48129937Y61068339D01*
X48023653Y61186379D01*
X48023652Y61186380D01*
X48019231Y61191290D01*
X47892823Y61283131D01*
X47870072Y61299661D01*
X47870071Y61299662D01*
X47864730Y61303542D01*
X47858702Y61306226D01*
X47858700Y61306227D01*
X47696297Y61378533D01*
X47696296Y61378533D01*
X47690266Y61381218D01*
X47596865Y61401071D01*
X47509922Y61419552D01*
X47509917Y61419552D01*
X47503465Y61420924D01*
X47312491Y61420924D01*
X47306039Y61419552D01*
X47306034Y61419552D01*
X47219091Y61401071D01*
X47125690Y61381218D01*
X47119660Y61378533D01*
X47119659Y61378533D01*
X46957256Y61306227D01*
X46957254Y61306226D01*
X46951226Y61303542D01*
X46945885Y61299662D01*
X46945884Y61299661D01*
X46923133Y61283131D01*
X46796725Y61191290D01*
X46792304Y61186380D01*
X46792303Y61186379D01*
X46686020Y61068339D01*
X46668938Y61049368D01*
X46573451Y60883980D01*
X46514436Y60702352D01*
X46513746Y60695791D01*
X46513746Y60695789D01*
X46497290Y60539214D01*
X46494474Y60512424D01*
X46495164Y60505859D01*
X46513322Y60333099D01*
X46514436Y60322496D01*
X46573451Y60140868D01*
X46668938Y59975480D01*
X46673356Y59970573D01*
X46673357Y59970572D01*
X46781507Y59850459D01*
X46796725Y59833558D01*
X46951226Y59721306D01*
X46957254Y59718622D01*
X46957256Y59718621D01*
X47119659Y59646315D01*
X47125690Y59643630D01*
X47266697Y59613658D01*
X47329170Y59579930D01*
X47363492Y59517780D01*
X47366500Y59490411D01*
X47366500Y50734688D01*
X47346498Y50666567D01*
X47292842Y50620074D01*
X47222568Y50609970D01*
X47214303Y50611441D01*
X47119332Y50631628D01*
X47119327Y50631628D01*
X47112875Y50633000D01*
X46921901Y50633000D01*
X46915449Y50631628D01*
X46915444Y50631628D01*
X46785697Y50604049D01*
X46714906Y50609451D01*
X46658273Y50652268D01*
X46633780Y50718906D01*
X46633500Y50727296D01*
X46633500Y57297476D01*
X46653502Y57365597D01*
X46665858Y57381779D01*
X46739040Y57463056D01*
X46834527Y57628444D01*
X46893542Y57810072D01*
X46913504Y58000000D01*
X46901078Y58118226D01*
X46894232Y58183365D01*
X46894232Y58183367D01*
X46893542Y58189928D01*
X46834527Y58371556D01*
X46813990Y58407128D01*
X46797314Y58436010D01*
X46739040Y58536944D01*
X46684305Y58597734D01*
X46615675Y58673955D01*
X46615674Y58673956D01*
X46611253Y58678866D01*
X46512157Y58750864D01*
X46462094Y58787237D01*
X46462093Y58787238D01*
X46456752Y58791118D01*
X46450724Y58793802D01*
X46450722Y58793803D01*
X46288319Y58866109D01*
X46288318Y58866109D01*
X46282288Y58868794D01*
X46188887Y58888647D01*
X46101944Y58907128D01*
X46101939Y58907128D01*
X46095487Y58908500D01*
X45904513Y58908500D01*
X45898061Y58907128D01*
X45898056Y58907128D01*
X45785697Y58883245D01*
X45714906Y58888647D01*
X45658273Y58931464D01*
X45633780Y58998102D01*
X45633500Y59006492D01*
X45633500Y61493508D01*
X45653502Y61561629D01*
X45707158Y61608122D01*
X45777432Y61618226D01*
X45785697Y61616755D01*
X45898056Y61592872D01*
X45898061Y61592872D01*
X45904513Y61591500D01*
X46095487Y61591500D01*
X46101939Y61592872D01*
X46101944Y61592872D01*
X46188887Y61611353D01*
X46282288Y61631206D01*
X46288319Y61633891D01*
X46450722Y61706197D01*
X46450724Y61706198D01*
X46456752Y61708882D01*
X46482908Y61727885D01*
X46589671Y61805454D01*
X46611253Y61821134D01*
X46615668Y61826037D01*
X46620580Y61830460D01*
X46621705Y61829211D01*
X46675014Y61862051D01*
X46708200Y61866500D01*
X49791800Y61866500D01*
X49859921Y61846498D01*
X49879147Y61830157D01*
X49879420Y61830460D01*
X49884332Y61826037D01*
X49888747Y61821134D01*
X49910329Y61805454D01*
X50017093Y61727885D01*
X50043248Y61708882D01*
X50049276Y61706198D01*
X50049278Y61706197D01*
X50211681Y61633891D01*
X50217712Y61631206D01*
X50311112Y61611353D01*
X50398056Y61592872D01*
X50398061Y61592872D01*
X50404513Y61591500D01*
X50595487Y61591500D01*
X50601939Y61592872D01*
X50601944Y61592872D01*
X50688887Y61611353D01*
X50782288Y61631206D01*
X50788319Y61633891D01*
X50950722Y61706197D01*
X50950724Y61706198D01*
X50956752Y61708882D01*
X51111253Y61821134D01*
X51239040Y61963056D01*
X51334527Y62128444D01*
X51381209Y62272115D01*
X64426000Y62272115D01*
X64430475Y62256876D01*
X64431865Y62255671D01*
X64439548Y62254000D01*
X65677885Y62254000D01*
X65693124Y62258475D01*
X65694329Y62259865D01*
X65696000Y62267548D01*
X65696000Y62272115D01*
X66204000Y62272115D01*
X66208475Y62256876D01*
X66209865Y62255671D01*
X66217548Y62254000D01*
X67455884Y62254000D01*
X67471123Y62258475D01*
X67472328Y62259865D01*
X67473999Y62267548D01*
X67473999Y63060669D01*
X67473629Y63067490D01*
X67468105Y63118352D01*
X67464479Y63133604D01*
X67419324Y63254054D01*
X67410786Y63269649D01*
X67334285Y63371724D01*
X67321724Y63384285D01*
X67219649Y63460786D01*
X67204054Y63469324D01*
X67083606Y63514478D01*
X67068351Y63518105D01*
X67017486Y63523631D01*
X67010672Y63524000D01*
X66222115Y63524000D01*
X66206876Y63519525D01*
X66205671Y63518135D01*
X66204000Y63510452D01*
X66204000Y62272115D01*
X65696000Y62272115D01*
X65696000Y63505884D01*
X65691525Y63521123D01*
X65690135Y63522328D01*
X65682452Y63523999D01*
X64889331Y63523999D01*
X64882510Y63523629D01*
X64831648Y63518105D01*
X64816396Y63514479D01*
X64695946Y63469324D01*
X64680351Y63460786D01*
X64578276Y63384285D01*
X64565715Y63371724D01*
X64489214Y63269649D01*
X64480676Y63254054D01*
X64435522Y63133606D01*
X64431895Y63118351D01*
X64426369Y63067486D01*
X64426000Y63060672D01*
X64426000Y62272115D01*
X51381209Y62272115D01*
X51393542Y62310072D01*
X51398712Y62359257D01*
X51412814Y62493435D01*
X51413504Y62500000D01*
X51404280Y62587759D01*
X51394232Y62683365D01*
X51394232Y62683367D01*
X51393542Y62689928D01*
X51334527Y62871556D01*
X51325715Y62886819D01*
X51273649Y62977000D01*
X51256911Y63045995D01*
X51280131Y63113087D01*
X51335939Y63156974D01*
X51382768Y63166000D01*
X51603634Y63166000D01*
X51665816Y63172755D01*
X51802205Y63223885D01*
X51918761Y63311239D01*
X51982008Y63395629D01*
X52530183Y63395629D01*
X52539480Y63383613D01*
X52596198Y63343899D01*
X52605684Y63338421D01*
X52807192Y63244456D01*
X52817484Y63240710D01*
X53032241Y63183166D01*
X53043036Y63181263D01*
X53264525Y63161885D01*
X53275475Y63161885D01*
X53496964Y63181263D01*
X53507759Y63183166D01*
X53722516Y63240710D01*
X53732808Y63244456D01*
X53934316Y63338421D01*
X53943802Y63343899D01*
X54001358Y63384199D01*
X54009733Y63394677D01*
X54002665Y63408125D01*
X53282812Y64127978D01*
X53268868Y64135592D01*
X53267035Y64135461D01*
X53260420Y64131210D01*
X52536613Y63407403D01*
X52530183Y63395629D01*
X51982008Y63395629D01*
X52006115Y63427795D01*
X52057245Y63564184D01*
X52064000Y63626366D01*
X52064000Y63631231D01*
X52064096Y63631559D01*
X52064184Y63633180D01*
X52064566Y63633159D01*
X52084002Y63699352D01*
X52131376Y63742762D01*
X52178124Y63767334D01*
X52897978Y64487188D01*
X52904356Y64498868D01*
X53634408Y64498868D01*
X53634539Y64497035D01*
X53638790Y64490420D01*
X54362597Y63766613D01*
X54374371Y63760183D01*
X54386387Y63769480D01*
X54426101Y63826198D01*
X54431579Y63835684D01*
X54525544Y64037192D01*
X54529290Y64047484D01*
X54586834Y64262241D01*
X54588737Y64273036D01*
X54608115Y64494525D01*
X54608115Y64505475D01*
X54588737Y64726964D01*
X54586834Y64737759D01*
X54529290Y64952516D01*
X54525544Y64962808D01*
X54431579Y65164316D01*
X54426101Y65173802D01*
X54385801Y65231358D01*
X54375323Y65239733D01*
X54361875Y65232665D01*
X53642022Y64512812D01*
X53634408Y64498868D01*
X52904356Y64498868D01*
X52905592Y64501132D01*
X52905461Y64502965D01*
X52901210Y64509580D01*
X52177403Y65233387D01*
X52132177Y65258083D01*
X52129593Y65258646D01*
X52079401Y65308858D01*
X52064607Y65366843D01*
X52064184Y65366820D01*
X52064068Y65368954D01*
X52064000Y65369222D01*
X52064000Y65373634D01*
X52057245Y65435816D01*
X52006115Y65572205D01*
X51981294Y65605323D01*
X52530267Y65605323D01*
X52537335Y65591875D01*
X53257188Y64872022D01*
X53271132Y64864408D01*
X53272965Y64864539D01*
X53279580Y64868790D01*
X54003387Y65592597D01*
X54009817Y65604371D01*
X54000520Y65616387D01*
X53943802Y65656101D01*
X53934316Y65661579D01*
X53732808Y65755544D01*
X53722516Y65759290D01*
X53507759Y65816834D01*
X53496964Y65818737D01*
X53275475Y65838115D01*
X53264525Y65838115D01*
X53043036Y65818737D01*
X53032241Y65816834D01*
X52817484Y65759290D01*
X52807192Y65755544D01*
X52605684Y65661579D01*
X52596198Y65656101D01*
X52538642Y65615801D01*
X52530267Y65605323D01*
X51981294Y65605323D01*
X51918761Y65688761D01*
X51802205Y65776115D01*
X51665816Y65827245D01*
X51603634Y65834000D01*
X50614095Y65834000D01*
X50545974Y65854002D01*
X50524999Y65870905D01*
X49945000Y66450905D01*
X49910975Y66513217D01*
X49916040Y66584033D01*
X49958587Y66640868D01*
X50025107Y66665679D01*
X50034096Y66666000D01*
X51563634Y66666000D01*
X51625816Y66672755D01*
X51762205Y66723885D01*
X51878761Y66811239D01*
X51942008Y66895629D01*
X52490183Y66895629D01*
X52499480Y66883613D01*
X52556198Y66843899D01*
X52565684Y66838421D01*
X52767192Y66744456D01*
X52777484Y66740710D01*
X52992241Y66683166D01*
X53003036Y66681263D01*
X53224525Y66661885D01*
X53235475Y66661885D01*
X53456964Y66681263D01*
X53467759Y66683166D01*
X53682516Y66740710D01*
X53692808Y66744456D01*
X53894316Y66838421D01*
X53903802Y66843899D01*
X53961358Y66884199D01*
X53969733Y66894677D01*
X53962665Y66908125D01*
X53242812Y67627978D01*
X53228868Y67635592D01*
X53227035Y67635461D01*
X53220420Y67631210D01*
X52496613Y66907403D01*
X52490183Y66895629D01*
X51942008Y66895629D01*
X51966115Y66927795D01*
X52017245Y67064184D01*
X52024000Y67126366D01*
X52024000Y67131231D01*
X52024096Y67131559D01*
X52024184Y67133180D01*
X52024566Y67133159D01*
X52044002Y67199352D01*
X52091376Y67242762D01*
X52138124Y67267334D01*
X52857978Y67987188D01*
X52865592Y68001132D01*
X52865461Y68002965D01*
X52861210Y68009580D01*
X52137403Y68733387D01*
X52092177Y68758083D01*
X52089593Y68758646D01*
X52039401Y68808858D01*
X52024607Y68866843D01*
X52024184Y68866820D01*
X52024068Y68868954D01*
X52024000Y68869222D01*
X52024000Y68873634D01*
X52017245Y68935816D01*
X51966115Y69072205D01*
X51878761Y69188761D01*
X51794642Y69251805D01*
X51776804Y69265174D01*
X51734289Y69322033D01*
X51729263Y69392852D01*
X51763323Y69455145D01*
X51825655Y69489135D01*
X51852369Y69492000D01*
X52705924Y69492000D01*
X52774045Y69471998D01*
G37*
%TD.AperFunction*%
%TA.AperFunction,Conductor*%
G36*
X49595752Y69471998D02*
G01*
X49642245Y69418342D01*
X49652349Y69348068D01*
X49622855Y69283488D01*
X49603196Y69265174D01*
X49585358Y69251805D01*
X49501239Y69188761D01*
X49413885Y69072205D01*
X49362755Y68935816D01*
X49356000Y68873634D01*
X49356000Y67344094D01*
X49335998Y67275973D01*
X49282342Y67229480D01*
X49212068Y67219376D01*
X49147488Y67248870D01*
X49140905Y67254999D01*
X48633752Y67762153D01*
X48003652Y68392253D01*
X47996112Y68400539D01*
X47992000Y68407018D01*
X47942348Y68453644D01*
X47939507Y68456398D01*
X47919770Y68476135D01*
X47916573Y68478615D01*
X47907551Y68486320D01*
X47888387Y68504316D01*
X47875321Y68516586D01*
X47868375Y68520405D01*
X47868372Y68520407D01*
X47857566Y68526348D01*
X47841047Y68537199D01*
X47835048Y68541852D01*
X47825041Y68549614D01*
X47817772Y68552759D01*
X47817768Y68552762D01*
X47784463Y68567174D01*
X47773813Y68572391D01*
X47735060Y68593695D01*
X47715437Y68598733D01*
X47696734Y68605137D01*
X47685420Y68610033D01*
X47685419Y68610033D01*
X47678145Y68613181D01*
X47670322Y68614420D01*
X47670312Y68614423D01*
X47634476Y68620099D01*
X47622856Y68622505D01*
X47587711Y68631528D01*
X47587710Y68631528D01*
X47580030Y68633500D01*
X47559776Y68633500D01*
X47540065Y68635051D01*
X47527886Y68636980D01*
X47520057Y68638220D01*
X47490786Y68635453D01*
X47476039Y68634059D01*
X47464181Y68633500D01*
X42578767Y68633500D01*
X42567584Y68634027D01*
X42560091Y68635702D01*
X42552165Y68635453D01*
X42552164Y68635453D01*
X42492014Y68633562D01*
X42488055Y68633500D01*
X42460144Y68633500D01*
X42456210Y68633003D01*
X42456209Y68633003D01*
X42456144Y68632995D01*
X42444307Y68632062D01*
X42412490Y68631062D01*
X42408029Y68630922D01*
X42400110Y68630673D01*
X42382454Y68625544D01*
X42380658Y68625022D01*
X42361306Y68621014D01*
X42354235Y68620120D01*
X42341203Y68618474D01*
X42333834Y68615557D01*
X42333832Y68615556D01*
X42300097Y68602200D01*
X42288869Y68598355D01*
X42246407Y68586018D01*
X42239584Y68581983D01*
X42239582Y68581982D01*
X42228972Y68575707D01*
X42211224Y68567012D01*
X42192383Y68559552D01*
X42185967Y68554890D01*
X42185966Y68554890D01*
X42156613Y68533564D01*
X42146693Y68527048D01*
X42115465Y68508580D01*
X42115462Y68508578D01*
X42108638Y68504542D01*
X42094317Y68490221D01*
X42079284Y68477381D01*
X42062893Y68465472D01*
X42034702Y68431395D01*
X42026712Y68422616D01*
X40107747Y66503652D01*
X40099461Y66496112D01*
X40092982Y66492000D01*
X40087557Y66486223D01*
X40046357Y66442349D01*
X40043602Y66439507D01*
X40023865Y66419770D01*
X40021385Y66416573D01*
X40013682Y66407553D01*
X39983414Y66375321D01*
X39979595Y66368375D01*
X39979593Y66368372D01*
X39973652Y66357566D01*
X39962801Y66341047D01*
X39950386Y66325041D01*
X39947241Y66317772D01*
X39947238Y66317768D01*
X39932826Y66284463D01*
X39927609Y66273813D01*
X39906305Y66235060D01*
X39904334Y66227385D01*
X39904334Y66227384D01*
X39901267Y66215438D01*
X39894863Y66196734D01*
X39886819Y66178145D01*
X39885580Y66170322D01*
X39885577Y66170312D01*
X39879901Y66134476D01*
X39877495Y66122856D01*
X39873007Y66105376D01*
X39866500Y66080030D01*
X39866500Y66059776D01*
X39864949Y66040066D01*
X39861780Y66020057D01*
X39862526Y66012165D01*
X39865941Y65976039D01*
X39866500Y65964181D01*
X39866500Y53078767D01*
X39865973Y53067584D01*
X39864298Y53060091D01*
X39864547Y53052165D01*
X39864547Y53052164D01*
X39866438Y52992014D01*
X39866500Y52988055D01*
X39866500Y52960144D01*
X39866997Y52956210D01*
X39866997Y52956209D01*
X39867005Y52956144D01*
X39867938Y52944307D01*
X39869327Y52900111D01*
X39874978Y52880661D01*
X39878987Y52861300D01*
X39881526Y52841203D01*
X39884445Y52833832D01*
X39884445Y52833830D01*
X39897804Y52800088D01*
X39901649Y52788858D01*
X39913982Y52746407D01*
X39918015Y52739588D01*
X39918017Y52739583D01*
X39924293Y52728972D01*
X39932988Y52711224D01*
X39940448Y52692383D01*
X39945110Y52685967D01*
X39945110Y52685966D01*
X39966436Y52656613D01*
X39972952Y52646693D01*
X39982923Y52629834D01*
X39995458Y52608638D01*
X40009779Y52594317D01*
X40022619Y52579284D01*
X40034528Y52562893D01*
X40044785Y52554408D01*
X40068605Y52534702D01*
X40077384Y52526712D01*
X41052878Y51551218D01*
X41086904Y51488906D01*
X41089092Y51475297D01*
X41106458Y51310072D01*
X41165473Y51128444D01*
X41168776Y51122722D01*
X41168777Y51122721D01*
X41202686Y51063990D01*
X41260960Y50963056D01*
X41265378Y50958149D01*
X41265379Y50958148D01*
X41379340Y50831581D01*
X41388747Y50821134D01*
X41487843Y50749136D01*
X41524911Y50722205D01*
X41543248Y50708882D01*
X41549276Y50706198D01*
X41549278Y50706197D01*
X41711681Y50633891D01*
X41717712Y50631206D01*
X41811112Y50611353D01*
X41898056Y50592872D01*
X41898061Y50592872D01*
X41904513Y50591500D01*
X42095487Y50591500D01*
X42101939Y50592872D01*
X42101944Y50592872D01*
X42188888Y50611353D01*
X42282288Y50631206D01*
X42288319Y50633891D01*
X42450722Y50706197D01*
X42450724Y50706198D01*
X42456752Y50708882D01*
X42475090Y50722205D01*
X42512157Y50749136D01*
X42611253Y50821134D01*
X42620660Y50831581D01*
X42734621Y50958148D01*
X42734622Y50958149D01*
X42739040Y50963056D01*
X42797314Y51063990D01*
X42831223Y51122721D01*
X42831224Y51122722D01*
X42834527Y51128444D01*
X42893542Y51310072D01*
X42913504Y51500000D01*
X42908121Y51551218D01*
X42894232Y51683365D01*
X42894232Y51683367D01*
X42893542Y51689928D01*
X42834527Y51871556D01*
X42830955Y51877744D01*
X42779748Y51966436D01*
X42739040Y52036944D01*
X42731786Y52045001D01*
X42615675Y52173955D01*
X42615674Y52173956D01*
X42611253Y52178866D01*
X42456752Y52291118D01*
X42450724Y52293802D01*
X42450722Y52293803D01*
X42288319Y52366109D01*
X42288318Y52366109D01*
X42282288Y52368794D01*
X42188887Y52388647D01*
X42101944Y52407128D01*
X42101939Y52407128D01*
X42095487Y52408500D01*
X42039595Y52408500D01*
X41971474Y52428502D01*
X41950500Y52445405D01*
X41170405Y53225500D01*
X41136379Y53287812D01*
X41133500Y53314595D01*
X41133500Y57993508D01*
X41153502Y58061629D01*
X41207158Y58108122D01*
X41277432Y58118226D01*
X41285697Y58116755D01*
X41398056Y58092872D01*
X41398061Y58092872D01*
X41404513Y58091500D01*
X41460406Y58091500D01*
X41528527Y58071498D01*
X41549501Y58054595D01*
X43454106Y56149989D01*
X43488132Y56087677D01*
X43491011Y56060894D01*
X43491011Y47467299D01*
X43471009Y47399178D01*
X43417353Y47352685D01*
X43347079Y47342581D01*
X43332407Y47345590D01*
X43228087Y47373543D01*
X43000000Y47393498D01*
X42771913Y47373543D01*
X42766600Y47372119D01*
X42766598Y47372119D01*
X42556067Y47315707D01*
X42556065Y47315706D01*
X42550757Y47314284D01*
X42545776Y47311961D01*
X42545775Y47311961D01*
X42348238Y47219849D01*
X42348233Y47219846D01*
X42343251Y47217523D01*
X42269910Y47166169D01*
X42160211Y47089357D01*
X42160208Y47089355D01*
X42155700Y47086198D01*
X41993802Y46924300D01*
X41990645Y46919792D01*
X41990643Y46919789D01*
X41935902Y46841611D01*
X41862477Y46736749D01*
X41860154Y46731767D01*
X41860151Y46731762D01*
X41793404Y46588621D01*
X41765716Y46529243D01*
X41706457Y46308087D01*
X41686502Y46080000D01*
X41706457Y45851913D01*
X41723460Y45788459D01*
X41721770Y45717482D01*
X41690848Y45666753D01*
X41194500Y45170405D01*
X41132188Y45136379D01*
X41105405Y45133500D01*
X33178379Y45133500D01*
X33110258Y45153502D01*
X33063765Y45207158D01*
X33053661Y45277432D01*
X33083155Y45342012D01*
X33142881Y45380396D01*
X33152182Y45382747D01*
X33154525Y45383245D01*
X33264900Y45406706D01*
X33320508Y45431464D01*
X33433334Y45481697D01*
X33433336Y45481698D01*
X33439364Y45484382D01*
X33593865Y45596634D01*
X33620104Y45625775D01*
X33717233Y45733648D01*
X33717234Y45733649D01*
X33721652Y45738556D01*
X33817139Y45903944D01*
X33876154Y46085572D01*
X33896116Y46275500D01*
X33876154Y46465428D01*
X33817139Y46647056D01*
X33721652Y46812444D01*
X33648475Y46893715D01*
X33617759Y46957721D01*
X33616112Y46978024D01*
X33616112Y48938620D01*
X33616639Y48949803D01*
X33618314Y48957296D01*
X33616174Y49025387D01*
X33616112Y49029344D01*
X33616112Y49057244D01*
X33615608Y49061235D01*
X33614675Y49073077D01*
X33614497Y49078767D01*
X33613286Y49117277D01*
X33607633Y49136736D01*
X33603624Y49156095D01*
X33603458Y49157405D01*
X33601086Y49176185D01*
X33598170Y49183551D01*
X33598168Y49183557D01*
X33584812Y49217290D01*
X33580967Y49228520D01*
X33570842Y49263371D01*
X33570842Y49263372D01*
X33568631Y49270981D01*
X33558317Y49288422D01*
X33549620Y49306175D01*
X33545084Y49317630D01*
X33542164Y49325005D01*
X33516175Y49360776D01*
X33509659Y49370696D01*
X33491190Y49401925D01*
X33487154Y49408750D01*
X33472833Y49423071D01*
X33459992Y49438105D01*
X33452743Y49448082D01*
X33448084Y49454495D01*
X33414007Y49482686D01*
X33405228Y49490676D01*
X31224433Y51671472D01*
X31190407Y51733784D01*
X31195472Y51804600D01*
X31238019Y51861435D01*
X31304539Y51886246D01*
X31333242Y51885015D01*
X31365525Y51879901D01*
X31377144Y51877495D01*
X31408959Y51869327D01*
X31419970Y51866500D01*
X31440224Y51866500D01*
X31459934Y51864949D01*
X31479943Y51861780D01*
X31487835Y51862526D01*
X31506580Y51864298D01*
X31523962Y51865941D01*
X31535819Y51866500D01*
X33921233Y51866500D01*
X33932416Y51865973D01*
X33939909Y51864298D01*
X33947835Y51864547D01*
X33947836Y51864547D01*
X34007986Y51866438D01*
X34011945Y51866500D01*
X34039856Y51866500D01*
X34043791Y51866997D01*
X34043856Y51867005D01*
X34055693Y51867938D01*
X34087951Y51868952D01*
X34091970Y51869078D01*
X34099889Y51869327D01*
X34119343Y51874979D01*
X34138700Y51878987D01*
X34150930Y51880532D01*
X34150931Y51880532D01*
X34158797Y51881526D01*
X34166168Y51884445D01*
X34166170Y51884445D01*
X34199912Y51897804D01*
X34211142Y51901649D01*
X34245983Y51911771D01*
X34245984Y51911771D01*
X34253593Y51913982D01*
X34260412Y51918015D01*
X34260417Y51918017D01*
X34271028Y51924293D01*
X34288776Y51932988D01*
X34307617Y51940448D01*
X34343387Y51966436D01*
X34353307Y51972952D01*
X34384535Y51991420D01*
X34384538Y51991422D01*
X34391362Y51995458D01*
X34405683Y52009779D01*
X34420717Y52022620D01*
X34422797Y52024131D01*
X34437107Y52034528D01*
X34465298Y52068605D01*
X34473288Y52077384D01*
X35892247Y53496343D01*
X35900537Y53503887D01*
X35907018Y53508000D01*
X35953659Y53557668D01*
X35956413Y53560509D01*
X35976134Y53580230D01*
X35978612Y53583425D01*
X35986318Y53592447D01*
X36011158Y53618899D01*
X36016586Y53624679D01*
X36022732Y53635858D01*
X36026346Y53642432D01*
X36037199Y53658955D01*
X36044753Y53668694D01*
X36049613Y53674959D01*
X36067176Y53715543D01*
X36072383Y53726173D01*
X36093695Y53764940D01*
X36095666Y53772617D01*
X36095668Y53772622D01*
X36098732Y53784558D01*
X36105138Y53803270D01*
X36110034Y53814583D01*
X36113181Y53821855D01*
X36120058Y53865271D01*
X36120097Y53865519D01*
X36122504Y53877140D01*
X36131528Y53912289D01*
X36131528Y53912290D01*
X36133500Y53919970D01*
X36133500Y53940231D01*
X36135051Y53959942D01*
X36136979Y53972115D01*
X36138219Y53979943D01*
X36134059Y54023954D01*
X36133500Y54035811D01*
X36133500Y54921232D01*
X36134027Y54932415D01*
X36135702Y54939908D01*
X36134975Y54963056D01*
X36133562Y55007998D01*
X36133500Y55011956D01*
X36133500Y55039856D01*
X36132996Y55043847D01*
X36132063Y55055689D01*
X36130923Y55091964D01*
X36130674Y55099889D01*
X36128462Y55107503D01*
X36128461Y55107508D01*
X36125023Y55119341D01*
X36121012Y55138705D01*
X36119467Y55150936D01*
X36118474Y55158797D01*
X36115557Y55166164D01*
X36115556Y55166169D01*
X36102198Y55199908D01*
X36098354Y55211135D01*
X36096232Y55218439D01*
X36086018Y55253593D01*
X36075707Y55271028D01*
X36067012Y55288776D01*
X36059552Y55307617D01*
X36033564Y55343387D01*
X36027048Y55353307D01*
X36008580Y55384535D01*
X36008578Y55384538D01*
X36004542Y55391362D01*
X35990221Y55405683D01*
X35977380Y55420717D01*
X35970131Y55430694D01*
X35965472Y55437107D01*
X35931395Y55465298D01*
X35922616Y55473288D01*
X29044366Y62351539D01*
X29010340Y62413851D01*
X29008151Y62453804D01*
X29012316Y62493435D01*
X29013006Y62500000D01*
X29003782Y62587759D01*
X28993734Y62683365D01*
X28993734Y62683367D01*
X28993044Y62689928D01*
X28934029Y62871556D01*
X28923400Y62889967D01*
X28885713Y62955242D01*
X28838542Y63036944D01*
X28830393Y63045995D01*
X28715177Y63173955D01*
X28715176Y63173956D01*
X28710755Y63178866D01*
X28587305Y63268558D01*
X28561596Y63287237D01*
X28561595Y63287238D01*
X28556254Y63291118D01*
X28550226Y63293802D01*
X28550224Y63293803D01*
X28387821Y63366109D01*
X28387820Y63366109D01*
X28381790Y63368794D01*
X28260021Y63394677D01*
X28201446Y63407128D01*
X28201441Y63407128D01*
X28194989Y63408500D01*
X28004015Y63408500D01*
X27997563Y63407128D01*
X27997558Y63407128D01*
X27938983Y63394677D01*
X27817214Y63368794D01*
X27811184Y63366109D01*
X27811183Y63366109D01*
X27648780Y63293803D01*
X27648778Y63293802D01*
X27642750Y63291118D01*
X27637409Y63287238D01*
X27637408Y63287237D01*
X27611699Y63268558D01*
X27488249Y63178866D01*
X27483828Y63173956D01*
X27483827Y63173955D01*
X27368612Y63045995D01*
X27360462Y63036944D01*
X27313291Y62955242D01*
X27275605Y62889967D01*
X27264975Y62871556D01*
X27205960Y62689928D01*
X27205270Y62683367D01*
X27205270Y62683365D01*
X27195222Y62587759D01*
X27185998Y62500000D01*
X27186688Y62493435D01*
X27200791Y62359257D01*
X27205960Y62310072D01*
X27264975Y62128444D01*
X27360462Y61963056D01*
X27488249Y61821134D01*
X27642750Y61708882D01*
X27648778Y61706198D01*
X27648780Y61706197D01*
X27811183Y61633891D01*
X27817214Y61631206D01*
X27915724Y61610267D01*
X27978407Y61596943D01*
X28041305Y61562791D01*
X28305991Y61298105D01*
X28340017Y61235793D01*
X28334952Y61164978D01*
X28292405Y61108142D01*
X28225885Y61083331D01*
X28216896Y61083010D01*
X24259500Y61083010D01*
X24191379Y61103012D01*
X24144886Y61156668D01*
X24133500Y61209010D01*
X24133500Y61797476D01*
X24153502Y61865597D01*
X24165858Y61881779D01*
X24239040Y61963056D01*
X24334527Y62128444D01*
X24393542Y62310072D01*
X24398712Y62359257D01*
X24412814Y62493435D01*
X24413504Y62500000D01*
X24404280Y62587759D01*
X24394232Y62683365D01*
X24394232Y62683367D01*
X24393542Y62689928D01*
X24334527Y62871556D01*
X24323898Y62889967D01*
X24286211Y62955242D01*
X24239040Y63036944D01*
X24230891Y63045995D01*
X24115675Y63173955D01*
X24115674Y63173956D01*
X24111253Y63178866D01*
X23987803Y63268558D01*
X23962094Y63287237D01*
X23962093Y63287238D01*
X23956752Y63291118D01*
X23950724Y63293802D01*
X23950722Y63293803D01*
X23788319Y63366109D01*
X23788318Y63366109D01*
X23782288Y63368794D01*
X23656040Y63395629D01*
X23602710Y63406965D01*
X23540236Y63440694D01*
X23505915Y63502843D01*
X23510643Y63573682D01*
X23539812Y63619308D01*
X23550288Y63629783D01*
X23750101Y63829596D01*
X23812413Y63863621D01*
X23839196Y63866500D01*
X29791800Y63866500D01*
X29859921Y63846498D01*
X29879147Y63830157D01*
X29879420Y63830460D01*
X29884332Y63826037D01*
X29888747Y63821134D01*
X29905455Y63808995D01*
X30009384Y63733486D01*
X30043248Y63708882D01*
X30049276Y63706198D01*
X30049278Y63706197D01*
X30211681Y63633891D01*
X30217712Y63631206D01*
X30311112Y63611353D01*
X30398056Y63592872D01*
X30398061Y63592872D01*
X30404513Y63591500D01*
X30595487Y63591500D01*
X30601939Y63592872D01*
X30601944Y63592872D01*
X30688888Y63611353D01*
X30782288Y63631206D01*
X30788319Y63633891D01*
X30950722Y63706197D01*
X30950724Y63706198D01*
X30956752Y63708882D01*
X31111253Y63821134D01*
X31134091Y63846498D01*
X31234621Y63958148D01*
X31234622Y63958149D01*
X31239040Y63963056D01*
X31334527Y64128444D01*
X31393542Y64310072D01*
X31405896Y64427609D01*
X31412814Y64493435D01*
X31413504Y64500000D01*
X31407651Y64555689D01*
X31394232Y64683365D01*
X31394232Y64683367D01*
X31393542Y64689928D01*
X31391503Y64696203D01*
X31391502Y64696208D01*
X31389762Y64701562D01*
X31387733Y64772529D01*
X31424394Y64833328D01*
X31488106Y64864654D01*
X31509594Y64866500D01*
X31791800Y64866500D01*
X31859921Y64846498D01*
X31879147Y64830157D01*
X31879420Y64830460D01*
X31884332Y64826037D01*
X31888747Y64821134D01*
X31898519Y64814034D01*
X31980359Y64754574D01*
X32043248Y64708882D01*
X32049276Y64706198D01*
X32049278Y64706197D01*
X32100560Y64683365D01*
X32217712Y64631206D01*
X32311112Y64611353D01*
X32398056Y64592872D01*
X32398061Y64592872D01*
X32404513Y64591500D01*
X32595487Y64591500D01*
X32601939Y64592872D01*
X32601944Y64592872D01*
X32688888Y64611353D01*
X32782288Y64631206D01*
X32899440Y64683365D01*
X32950722Y64706197D01*
X32950724Y64706198D01*
X32956752Y64708882D01*
X33111253Y64821134D01*
X33157073Y64872022D01*
X33234621Y64958148D01*
X33234622Y64958149D01*
X33239040Y64963056D01*
X33334527Y65128444D01*
X33393542Y65310072D01*
X33399507Y65366820D01*
X33412814Y65493435D01*
X33413504Y65500000D01*
X33410233Y65531121D01*
X33406915Y65562697D01*
X33419688Y65632535D01*
X33468190Y65684381D01*
X33537023Y65701775D01*
X33583471Y65690974D01*
X33717712Y65631206D01*
X33811112Y65611353D01*
X33898056Y65592872D01*
X33898061Y65592872D01*
X33904513Y65591500D01*
X34095487Y65591500D01*
X34101939Y65592872D01*
X34101944Y65592872D01*
X34188887Y65611353D01*
X34282288Y65631206D01*
X34296335Y65637460D01*
X34450722Y65706197D01*
X34450724Y65706198D01*
X34456752Y65708882D01*
X34611253Y65821134D01*
X34616755Y65827245D01*
X34734621Y65958148D01*
X34734625Y65958153D01*
X34739040Y65963056D01*
X34834527Y66128444D01*
X34893542Y66310072D01*
X34897592Y66348600D01*
X34912814Y66493435D01*
X34913504Y66500000D01*
X34910619Y66527447D01*
X34894232Y66683365D01*
X34894232Y66683367D01*
X34893542Y66689928D01*
X34834527Y66871556D01*
X34820629Y66895629D01*
X34797203Y66936203D01*
X34739040Y67036944D01*
X34707440Y67072040D01*
X34615675Y67173955D01*
X34615674Y67173956D01*
X34611253Y67178866D01*
X34456752Y67291118D01*
X34450724Y67293802D01*
X34450722Y67293803D01*
X34288319Y67366109D01*
X34288318Y67366109D01*
X34282288Y67368794D01*
X34188887Y67388647D01*
X34101944Y67407128D01*
X34101939Y67407128D01*
X34095487Y67408500D01*
X33904513Y67408500D01*
X33898061Y67407128D01*
X33898056Y67407128D01*
X33811112Y67388647D01*
X33717712Y67368794D01*
X33711682Y67366109D01*
X33711681Y67366109D01*
X33549278Y67293803D01*
X33549276Y67293802D01*
X33543248Y67291118D01*
X33537907Y67287238D01*
X33537906Y67287237D01*
X33458411Y67229480D01*
X33388747Y67178866D01*
X33384332Y67173963D01*
X33379420Y67169540D01*
X33378295Y67170789D01*
X33324986Y67137949D01*
X33291800Y67133500D01*
X29725307Y67133500D01*
X29657186Y67153502D01*
X29610693Y67207158D01*
X29600589Y67277432D01*
X29631671Y67343810D01*
X29734621Y67458148D01*
X29734622Y67458149D01*
X29739040Y67463056D01*
X29819399Y67602241D01*
X29831223Y67622721D01*
X29831224Y67622722D01*
X29834527Y67628444D01*
X29893542Y67810072D01*
X29896807Y67841132D01*
X29912814Y67993435D01*
X29913504Y68000000D01*
X29893542Y68189928D01*
X29834527Y68371556D01*
X29739040Y68536944D01*
X29724798Y68552762D01*
X29615675Y68673955D01*
X29615674Y68673956D01*
X29611253Y68678866D01*
X29488626Y68767960D01*
X29462094Y68787237D01*
X29462093Y68787238D01*
X29456752Y68791118D01*
X29450724Y68793802D01*
X29450722Y68793803D01*
X29288319Y68866109D01*
X29288318Y68866109D01*
X29282288Y68868794D01*
X29188888Y68888647D01*
X29101944Y68907128D01*
X29101939Y68907128D01*
X29095487Y68908500D01*
X28904513Y68908500D01*
X28898061Y68907128D01*
X28898056Y68907128D01*
X28811113Y68888647D01*
X28717712Y68868794D01*
X28711682Y68866109D01*
X28711681Y68866109D01*
X28549278Y68793803D01*
X28549276Y68793802D01*
X28543248Y68791118D01*
X28537907Y68787238D01*
X28537906Y68787237D01*
X28511374Y68767960D01*
X28388747Y68678866D01*
X28384332Y68673963D01*
X28379420Y68669540D01*
X28378295Y68670789D01*
X28324986Y68637949D01*
X28291800Y68633500D01*
X21103367Y68633500D01*
X21092184Y68634027D01*
X21084691Y68635702D01*
X21076765Y68635453D01*
X21076764Y68635453D01*
X21016614Y68633562D01*
X21012655Y68633500D01*
X20984744Y68633500D01*
X20980810Y68633003D01*
X20980809Y68633003D01*
X20980744Y68632995D01*
X20968907Y68632062D01*
X20936649Y68631048D01*
X20932630Y68630922D01*
X20924711Y68630673D01*
X20905257Y68625021D01*
X20885900Y68621013D01*
X20873670Y68619468D01*
X20873669Y68619468D01*
X20865803Y68618474D01*
X20858432Y68615555D01*
X20858430Y68615555D01*
X20824688Y68602196D01*
X20813458Y68598351D01*
X20778617Y68588229D01*
X20778616Y68588229D01*
X20771007Y68586018D01*
X20764188Y68581985D01*
X20764183Y68581983D01*
X20753572Y68575707D01*
X20735824Y68567012D01*
X20716983Y68559552D01*
X20710567Y68554890D01*
X20710566Y68554890D01*
X20681213Y68533564D01*
X20671293Y68527048D01*
X20640065Y68508580D01*
X20640062Y68508578D01*
X20633238Y68504542D01*
X20618917Y68490221D01*
X20603884Y68477381D01*
X20587493Y68465472D01*
X20559302Y68431395D01*
X20551312Y68422616D01*
X15848595Y63719900D01*
X15786283Y63685874D01*
X15715468Y63690939D01*
X15658632Y63733486D01*
X15633821Y63800006D01*
X15633500Y63808995D01*
X15633500Y64421232D01*
X15634027Y64432415D01*
X15635702Y64439908D01*
X15633562Y64507999D01*
X15633500Y64511956D01*
X15633500Y64539856D01*
X15632996Y64543847D01*
X15632063Y64555689D01*
X15631062Y64587557D01*
X15630674Y64599889D01*
X15628462Y64607503D01*
X15628461Y64607508D01*
X15625023Y64619341D01*
X15621012Y64638705D01*
X15619467Y64650936D01*
X15618474Y64658797D01*
X15615557Y64666164D01*
X15615556Y64666169D01*
X15602198Y64699908D01*
X15598354Y64711135D01*
X15588230Y64745978D01*
X15586018Y64753593D01*
X15575707Y64771028D01*
X15567012Y64788776D01*
X15559552Y64807617D01*
X15549732Y64821134D01*
X15533564Y64843387D01*
X15527048Y64853307D01*
X15508580Y64884535D01*
X15508578Y64884538D01*
X15504542Y64891362D01*
X15490221Y64905683D01*
X15477380Y64920717D01*
X15470132Y64930693D01*
X15465472Y64937107D01*
X15431407Y64965288D01*
X15422626Y64973278D01*
X15003647Y65392258D01*
X14996113Y65400537D01*
X14992000Y65407018D01*
X14942348Y65453644D01*
X14939507Y65456398D01*
X14919770Y65476135D01*
X14916573Y65478615D01*
X14907551Y65486320D01*
X14875321Y65516586D01*
X14868375Y65520405D01*
X14868372Y65520407D01*
X14857566Y65526348D01*
X14841047Y65537199D01*
X14831665Y65544476D01*
X14825041Y65549614D01*
X14817772Y65552759D01*
X14817768Y65552762D01*
X14784463Y65567174D01*
X14773813Y65572391D01*
X14735060Y65593695D01*
X14715437Y65598733D01*
X14696734Y65605137D01*
X14685420Y65610033D01*
X14685419Y65610033D01*
X14678145Y65613181D01*
X14670322Y65614420D01*
X14670312Y65614423D01*
X14634476Y65620099D01*
X14622856Y65622505D01*
X14587711Y65631528D01*
X14587710Y65631528D01*
X14580030Y65633500D01*
X14559776Y65633500D01*
X14540065Y65635051D01*
X14536814Y65635566D01*
X14520057Y65638220D01*
X14512165Y65637474D01*
X14476039Y65634059D01*
X14464181Y65633500D01*
X12154594Y65633500D01*
X12086473Y65653502D01*
X12065499Y65670405D01*
X11449114Y66286790D01*
X11415088Y66349102D01*
X11420153Y66419917D01*
X11462700Y66476753D01*
X11529220Y66501564D01*
X11538209Y66501885D01*
X11545475Y66501885D01*
X11766964Y66521263D01*
X11777759Y66523166D01*
X11992516Y66580710D01*
X12002808Y66584456D01*
X12204316Y66678421D01*
X12213802Y66683899D01*
X12271358Y66724199D01*
X12279733Y66734677D01*
X12272665Y66748125D01*
X11181922Y67838868D01*
X11904408Y67838868D01*
X11904539Y67837035D01*
X11908790Y67830420D01*
X12632597Y67106613D01*
X12677823Y67081917D01*
X12680407Y67081354D01*
X12730599Y67031142D01*
X12745393Y66973157D01*
X12745816Y66973180D01*
X12745932Y66971046D01*
X12746000Y66970778D01*
X12746000Y66966366D01*
X12752755Y66904184D01*
X12803885Y66767795D01*
X12891239Y66651239D01*
X13007795Y66563885D01*
X13144184Y66512755D01*
X13206366Y66506000D01*
X14953634Y66506000D01*
X15015816Y66512755D01*
X15152205Y66563885D01*
X15268761Y66651239D01*
X15356115Y66767795D01*
X15407245Y66904184D01*
X15414000Y66966366D01*
X15414000Y68713634D01*
X15407245Y68775816D01*
X15356115Y68912205D01*
X15268761Y69028761D01*
X15152205Y69116115D01*
X15015816Y69167245D01*
X14953634Y69174000D01*
X13206366Y69174000D01*
X13144184Y69167245D01*
X13007795Y69116115D01*
X12891239Y69028761D01*
X12803885Y68912205D01*
X12752755Y68775816D01*
X12746000Y68713634D01*
X12746000Y68708769D01*
X12745904Y68708441D01*
X12745816Y68706820D01*
X12745434Y68706841D01*
X12725998Y68640648D01*
X12678624Y68597238D01*
X12631876Y68572666D01*
X11912022Y67852812D01*
X11904408Y67838868D01*
X11181922Y67838868D01*
X10447403Y68573387D01*
X10435629Y68579817D01*
X10423613Y68570520D01*
X10383905Y68513811D01*
X10379408Y68506023D01*
X10328024Y68457031D01*
X10258310Y68443597D01*
X10192399Y68469985D01*
X10161523Y68505620D01*
X10159691Y68509548D01*
X10081642Y68621014D01*
X10028966Y68696243D01*
X10028964Y68696246D01*
X10025807Y68700754D01*
X9860754Y68865807D01*
X9856246Y68868964D01*
X9856243Y68868966D01*
X9747194Y68945323D01*
X10800267Y68945323D01*
X10807335Y68931875D01*
X11527188Y68212022D01*
X11541132Y68204408D01*
X11542965Y68204539D01*
X11549580Y68208790D01*
X12273387Y68932597D01*
X12279817Y68944371D01*
X12270520Y68956387D01*
X12213802Y68996101D01*
X12204316Y69001579D01*
X12002808Y69095544D01*
X11992516Y69099290D01*
X11777759Y69156834D01*
X11766964Y69158737D01*
X11545475Y69178115D01*
X11534525Y69178115D01*
X11313036Y69158737D01*
X11302241Y69156834D01*
X11087484Y69099290D01*
X11077192Y69095544D01*
X10875684Y69001579D01*
X10866198Y68996101D01*
X10808642Y68955801D01*
X10800267Y68945323D01*
X9747194Y68945323D01*
X9674057Y68996534D01*
X9674055Y68996535D01*
X9669548Y68999691D01*
X9664566Y69002014D01*
X9664561Y69002017D01*
X9462980Y69096016D01*
X9462978Y69096017D01*
X9457998Y69098339D01*
X9452690Y69099761D01*
X9452688Y69099762D01*
X9237847Y69157328D01*
X9237845Y69157328D01*
X9232532Y69158752D01*
X9000000Y69179096D01*
X8767468Y69158752D01*
X8762155Y69157328D01*
X8762153Y69157328D01*
X8547312Y69099762D01*
X8547310Y69099761D01*
X8542002Y69098339D01*
X8537022Y69096017D01*
X8537020Y69096016D01*
X8335439Y69002017D01*
X8335434Y69002014D01*
X8330452Y68999691D01*
X8325945Y68996535D01*
X8325943Y68996534D01*
X8143757Y68868966D01*
X8143754Y68868964D01*
X8139246Y68865807D01*
X7974193Y68700754D01*
X7971036Y68696246D01*
X7971034Y68696243D01*
X7918358Y68621014D01*
X7840309Y68509548D01*
X7838726Y68506153D01*
X7787734Y68457534D01*
X7718020Y68444100D01*
X7652110Y68470488D01*
X7621353Y68505983D01*
X7619691Y68509548D01*
X7541642Y68621014D01*
X7488966Y68696243D01*
X7488964Y68696246D01*
X7485807Y68700754D01*
X7320754Y68865807D01*
X7316246Y68868964D01*
X7316243Y68868966D01*
X7134057Y68996534D01*
X7134055Y68996535D01*
X7129548Y68999691D01*
X7124566Y69002014D01*
X7124561Y69002017D01*
X6922980Y69096016D01*
X6922978Y69096017D01*
X6917998Y69098339D01*
X6912690Y69099761D01*
X6912688Y69099762D01*
X6697847Y69157328D01*
X6697845Y69157328D01*
X6692532Y69158752D01*
X6460000Y69179096D01*
X6227468Y69158752D01*
X6222155Y69157328D01*
X6222153Y69157328D01*
X6007312Y69099762D01*
X6007310Y69099761D01*
X6002002Y69098339D01*
X5997022Y69096017D01*
X5997020Y69096016D01*
X5795439Y69002017D01*
X5795434Y69002014D01*
X5790452Y68999691D01*
X5785945Y68996535D01*
X5785943Y68996534D01*
X5603757Y68868966D01*
X5603754Y68868964D01*
X5599246Y68865807D01*
X5434193Y68700754D01*
X5431036Y68696246D01*
X5431034Y68696243D01*
X5378358Y68621014D01*
X5300309Y68509548D01*
X5298537Y68505747D01*
X5247447Y68457033D01*
X5177733Y68443597D01*
X5111822Y68469983D01*
X5080592Y68506023D01*
X5076095Y68513811D01*
X5035801Y68571358D01*
X5025323Y68579733D01*
X5011875Y68572665D01*
X4292022Y67852812D01*
X4284408Y67838868D01*
X4284539Y67837035D01*
X4288790Y67830420D01*
X5012597Y67106613D01*
X5024371Y67100183D01*
X5036387Y67109480D01*
X5076095Y67166189D01*
X5080592Y67173977D01*
X5131976Y67222969D01*
X5201690Y67236403D01*
X5267601Y67210015D01*
X5298477Y67174380D01*
X5300309Y67170452D01*
X5343002Y67109480D01*
X5416481Y67004542D01*
X5434193Y66979246D01*
X5599246Y66814193D01*
X5603754Y66811036D01*
X5603757Y66811034D01*
X5785325Y66683899D01*
X5790452Y66680309D01*
X5795434Y66677986D01*
X5795439Y66677983D01*
X5996008Y66584456D01*
X6002002Y66581661D01*
X6007310Y66580239D01*
X6007312Y66580238D01*
X6222153Y66522672D01*
X6222155Y66522672D01*
X6227468Y66521248D01*
X6460000Y66500904D01*
X6692532Y66521248D01*
X6703438Y66524170D01*
X6772365Y66542638D01*
X6843342Y66540948D01*
X6894070Y66510026D01*
X8596478Y64807617D01*
X10296348Y63107747D01*
X10303888Y63099461D01*
X10308000Y63092982D01*
X10313777Y63087557D01*
X10357651Y63046357D01*
X10360493Y63043602D01*
X10380230Y63023865D01*
X10383427Y63021385D01*
X10392447Y63013682D01*
X10424679Y62983414D01*
X10431625Y62979595D01*
X10431628Y62979593D01*
X10442434Y62973652D01*
X10458953Y62962801D01*
X10474959Y62950386D01*
X10482228Y62947241D01*
X10482232Y62947238D01*
X10515537Y62932826D01*
X10526187Y62927609D01*
X10564940Y62906305D01*
X10572615Y62904334D01*
X10572616Y62904334D01*
X10584562Y62901267D01*
X10603267Y62894863D01*
X10621855Y62886819D01*
X10629678Y62885580D01*
X10629688Y62885577D01*
X10665524Y62879901D01*
X10677144Y62877495D01*
X10700277Y62871556D01*
X10719970Y62866500D01*
X10740224Y62866500D01*
X10759934Y62864949D01*
X10779943Y62861780D01*
X10787835Y62862526D01*
X10813467Y62864949D01*
X10823962Y62865941D01*
X10835819Y62866500D01*
X13273469Y62866500D01*
X13341590Y62846498D01*
X13388083Y62792842D01*
X13398187Y62722568D01*
X13367106Y62656192D01*
X13248661Y62524645D01*
X13153174Y62359257D01*
X13094159Y62177629D01*
X13093469Y62171068D01*
X13093469Y62171066D01*
X13074887Y61994266D01*
X13074197Y61987701D01*
X13074887Y61981136D01*
X13091704Y61821134D01*
X13094159Y61797773D01*
X13153174Y61616145D01*
X13156477Y61610423D01*
X13156478Y61610422D01*
X13156616Y61610183D01*
X13248661Y61450757D01*
X13313692Y61378533D01*
X13325382Y61365550D01*
X13356099Y61301542D01*
X13347334Y61231089D01*
X13320840Y61192145D01*
X12609100Y60480405D01*
X12546788Y60446379D01*
X12520005Y60443500D01*
X3750524Y60443500D01*
X3682403Y60463502D01*
X3647311Y60497229D01*
X3528966Y60666243D01*
X3528964Y60666246D01*
X3525807Y60670754D01*
X3360754Y60835807D01*
X3356246Y60838964D01*
X3356243Y60838966D01*
X3212911Y60939328D01*
X3169548Y60969691D01*
X3165747Y60971463D01*
X3117033Y61022553D01*
X3103597Y61092267D01*
X3129983Y61158178D01*
X3166023Y61189408D01*
X3173811Y61193905D01*
X3231358Y61234199D01*
X3239733Y61244677D01*
X3232665Y61258125D01*
X2512812Y61977978D01*
X2498868Y61985592D01*
X2497035Y61985461D01*
X2490420Y61981210D01*
X1766613Y61257403D01*
X1760183Y61245629D01*
X1769480Y61233613D01*
X1826189Y61193905D01*
X1833977Y61189408D01*
X1882969Y61138024D01*
X1896403Y61068310D01*
X1870015Y61002399D01*
X1834380Y60971523D01*
X1830452Y60969691D01*
X1787089Y60939328D01*
X1643757Y60838966D01*
X1643754Y60838964D01*
X1639246Y60835807D01*
X1474193Y60670754D01*
X1471036Y60666246D01*
X1471034Y60666243D01*
X1347311Y60489548D01*
X1340309Y60479548D01*
X1337986Y60474566D01*
X1337983Y60474561D01*
X1243984Y60272980D01*
X1241661Y60267998D01*
X1240239Y60262690D01*
X1240238Y60262688D01*
X1202087Y60120304D01*
X1181248Y60042532D01*
X1160904Y59810000D01*
X1181248Y59577468D01*
X1182672Y59572155D01*
X1182672Y59572153D01*
X1238271Y59364655D01*
X1241661Y59352002D01*
X1243983Y59347022D01*
X1243984Y59347020D01*
X1337983Y59145439D01*
X1337986Y59145434D01*
X1340309Y59140452D01*
X1343465Y59135945D01*
X1343466Y59135943D01*
X1439984Y58998102D01*
X1474193Y58949246D01*
X1639246Y58784193D01*
X1643754Y58781036D01*
X1643757Y58781034D01*
X1695996Y58744456D01*
X1830452Y58650309D01*
X1833847Y58648726D01*
X1882466Y58597734D01*
X1895900Y58528020D01*
X1869512Y58462110D01*
X1834017Y58431353D01*
X1830452Y58429691D01*
X1825948Y58426537D01*
X1643757Y58298966D01*
X1643754Y58298964D01*
X1639246Y58295807D01*
X1474193Y58130754D01*
X1471036Y58126246D01*
X1471034Y58126243D01*
X1387235Y58006565D01*
X1340309Y57939548D01*
X1337986Y57934566D01*
X1337983Y57934561D01*
X1282993Y57816635D01*
X1241661Y57727998D01*
X1181248Y57502532D01*
X1160904Y57270000D01*
X1181248Y57037468D01*
X1182672Y57032155D01*
X1182672Y57032153D01*
X1232594Y56845842D01*
X1241661Y56812002D01*
X1243983Y56807022D01*
X1243984Y56807020D01*
X1337983Y56605439D01*
X1337986Y56605434D01*
X1340309Y56600452D01*
X1343465Y56595945D01*
X1343466Y56595943D01*
X1388782Y56531226D01*
X1474193Y56409246D01*
X1639246Y56244193D01*
X1643754Y56241036D01*
X1643757Y56241034D01*
X1704542Y56198472D01*
X1830452Y56110309D01*
X1833847Y56108726D01*
X1882466Y56057734D01*
X1895900Y55988020D01*
X1869512Y55922110D01*
X1834017Y55891353D01*
X1830452Y55889691D01*
X1796534Y55865941D01*
X1643757Y55758966D01*
X1643754Y55758964D01*
X1639246Y55755807D01*
X1474193Y55590754D01*
X1471036Y55586246D01*
X1471034Y55586243D01*
X1344605Y55405683D01*
X1340309Y55399548D01*
X1337986Y55394566D01*
X1337983Y55394561D01*
X1263560Y55234960D01*
X1241661Y55187998D01*
X1240239Y55182690D01*
X1240238Y55182688D01*
X1201967Y55039856D01*
X1181248Y54962532D01*
X1160904Y54730000D01*
X1181248Y54497468D01*
X1182672Y54492155D01*
X1182672Y54492153D01*
X1238128Y54285189D01*
X1241661Y54272002D01*
X1243983Y54267022D01*
X1243984Y54267020D01*
X1332827Y54076498D01*
X1340309Y54060452D01*
X1343465Y54055945D01*
X1343466Y54055943D01*
X1468666Y53877140D01*
X1474193Y53869246D01*
X1639246Y53704193D01*
X1643754Y53701036D01*
X1643757Y53701034D01*
X1715039Y53651122D01*
X1830452Y53570309D01*
X1834253Y53568537D01*
X1882967Y53517447D01*
X1896403Y53447733D01*
X1870017Y53381822D01*
X1833977Y53350592D01*
X1826189Y53346095D01*
X1768642Y53305801D01*
X1760267Y53295323D01*
X1767335Y53281875D01*
X2487188Y52562022D01*
X2501132Y52554408D01*
X2502965Y52554539D01*
X2509580Y52558790D01*
X3233387Y53282597D01*
X3239817Y53294371D01*
X3230520Y53306387D01*
X3173811Y53346095D01*
X3166023Y53350592D01*
X3117031Y53401976D01*
X3103597Y53471690D01*
X3129985Y53537601D01*
X3165620Y53568477D01*
X3169548Y53570309D01*
X3284961Y53651122D01*
X3356243Y53701034D01*
X3356246Y53701036D01*
X3360754Y53704193D01*
X3525807Y53869246D01*
X3528966Y53873757D01*
X3647311Y54042771D01*
X3702768Y54087099D01*
X3750524Y54096500D01*
X5611170Y54096500D01*
X5679291Y54076498D01*
X5720289Y54033500D01*
X5760960Y53963056D01*
X5765375Y53958153D01*
X5765379Y53958148D01*
X5848936Y53865349D01*
X5888747Y53821134D01*
X5955518Y53772622D01*
X6032298Y53716838D01*
X6043248Y53708882D01*
X6049276Y53706198D01*
X6049278Y53706197D01*
X6194975Y53641329D01*
X6217712Y53631206D01*
X6275612Y53618899D01*
X6398056Y53592872D01*
X6398061Y53592872D01*
X6404513Y53591500D01*
X6595487Y53591500D01*
X6601939Y53592872D01*
X6601944Y53592872D01*
X6724388Y53618899D01*
X6782288Y53631206D01*
X6805025Y53641329D01*
X6950722Y53706197D01*
X6950724Y53706198D01*
X6956752Y53708882D01*
X6967703Y53716838D01*
X7044482Y53772622D01*
X7111253Y53821134D01*
X7151064Y53865349D01*
X7234621Y53958148D01*
X7234625Y53958153D01*
X7239040Y53963056D01*
X7334527Y54128444D01*
X7393542Y54310072D01*
X7395515Y54328838D01*
X7412814Y54493435D01*
X7413504Y54500000D01*
X7393542Y54689928D01*
X7334527Y54871556D01*
X7305847Y54921232D01*
X7242341Y55031226D01*
X7239040Y55036944D01*
X7232826Y55043846D01*
X7115675Y55173955D01*
X7115674Y55173956D01*
X7111253Y55178866D01*
X6991720Y55265712D01*
X6962094Y55287237D01*
X6962093Y55287238D01*
X6956752Y55291118D01*
X6950724Y55293802D01*
X6950722Y55293803D01*
X6788319Y55366109D01*
X6788318Y55366109D01*
X6782288Y55368794D01*
X6676115Y55391362D01*
X6601944Y55407128D01*
X6601939Y55407128D01*
X6595487Y55408500D01*
X6404513Y55408500D01*
X6398061Y55407128D01*
X6398056Y55407128D01*
X6291767Y55384535D01*
X6217712Y55368794D01*
X6217693Y55368885D01*
X6183695Y55363500D01*
X3750524Y55363500D01*
X3682403Y55383502D01*
X3647311Y55417229D01*
X3528966Y55586243D01*
X3528964Y55586246D01*
X3525807Y55590754D01*
X3360754Y55755807D01*
X3356246Y55758964D01*
X3356243Y55758966D01*
X3203466Y55865941D01*
X3169548Y55889691D01*
X3166153Y55891274D01*
X3117534Y55942266D01*
X3104100Y56011980D01*
X3130488Y56077890D01*
X3165983Y56108647D01*
X3169548Y56110309D01*
X3295458Y56198472D01*
X3356243Y56241034D01*
X3356246Y56241036D01*
X3360754Y56244193D01*
X3525807Y56409246D01*
X3596706Y56510500D01*
X3647311Y56582771D01*
X3702768Y56627099D01*
X3750524Y56636500D01*
X10961186Y56636500D01*
X11029307Y56616498D01*
X11075800Y56562842D01*
X11087186Y56510500D01*
X11087186Y56506565D01*
X11086496Y56500000D01*
X11087186Y56493435D01*
X11096035Y56409246D01*
X11106458Y56310072D01*
X11165473Y56128444D01*
X11168776Y56122722D01*
X11168777Y56122721D01*
X11188691Y56088230D01*
X11260960Y55963056D01*
X11265378Y55958149D01*
X11265379Y55958148D01*
X11347452Y55866997D01*
X11388747Y55821134D01*
X11543248Y55708882D01*
X11549276Y55706198D01*
X11549278Y55706197D01*
X11709799Y55634729D01*
X11717712Y55631206D01*
X11811113Y55611353D01*
X11898056Y55592872D01*
X11898061Y55592872D01*
X11904513Y55591500D01*
X12095487Y55591500D01*
X12101939Y55592872D01*
X12101944Y55592872D01*
X12188888Y55611353D01*
X12282288Y55631206D01*
X12290201Y55634729D01*
X12450722Y55706197D01*
X12450724Y55706198D01*
X12456752Y55708882D01*
X12521339Y55755807D01*
X12605061Y55816635D01*
X12611253Y55821134D01*
X12615668Y55826037D01*
X12620580Y55830460D01*
X12621705Y55829211D01*
X12675014Y55862051D01*
X12708200Y55866500D01*
X13396633Y55866500D01*
X13407816Y55865973D01*
X13415309Y55864298D01*
X13423235Y55864547D01*
X13423236Y55864547D01*
X13483386Y55866438D01*
X13487345Y55866500D01*
X13515256Y55866500D01*
X13519191Y55866997D01*
X13519256Y55867005D01*
X13531093Y55867938D01*
X13563351Y55868952D01*
X13567370Y55869078D01*
X13575289Y55869327D01*
X13594743Y55874979D01*
X13614100Y55878987D01*
X13626330Y55880532D01*
X13626331Y55880532D01*
X13634197Y55881526D01*
X13641568Y55884445D01*
X13641570Y55884445D01*
X13675312Y55897804D01*
X13686542Y55901649D01*
X13721383Y55911771D01*
X13721384Y55911771D01*
X13728993Y55913982D01*
X13735812Y55918015D01*
X13735817Y55918017D01*
X13746428Y55924293D01*
X13764176Y55932988D01*
X13783017Y55940448D01*
X13803025Y55954984D01*
X13818787Y55966436D01*
X13828707Y55972952D01*
X13859935Y55991420D01*
X13859938Y55991422D01*
X13866762Y55995458D01*
X13881083Y56009779D01*
X13896117Y56022620D01*
X13901248Y56026348D01*
X13912507Y56034528D01*
X13940698Y56068605D01*
X13948688Y56077384D01*
X20151405Y62280100D01*
X20213717Y62314126D01*
X20284532Y62309061D01*
X20341368Y62266514D01*
X20366179Y62199994D01*
X20366500Y62191005D01*
X20366500Y56702524D01*
X20346498Y56634403D01*
X20334142Y56618221D01*
X20260960Y56536944D01*
X20165473Y56371556D01*
X20106458Y56189928D01*
X20105768Y56183367D01*
X20105768Y56183365D01*
X20093062Y56062469D01*
X20086496Y56000000D01*
X20087186Y55993435D01*
X20100733Y55864547D01*
X20106458Y55810072D01*
X20165473Y55628444D01*
X20168776Y55622722D01*
X20168777Y55622721D01*
X20186803Y55591500D01*
X20260960Y55463056D01*
X20334137Y55381785D01*
X20364853Y55317779D01*
X20366500Y55297476D01*
X20366500Y45103365D01*
X20365973Y45092182D01*
X20364298Y45084689D01*
X20364547Y45076763D01*
X20364547Y45076762D01*
X20366438Y45016612D01*
X20366500Y45012653D01*
X20366500Y44984742D01*
X20365759Y44984742D01*
X20350845Y44918920D01*
X20300212Y44869152D01*
X20230710Y44854659D01*
X20168511Y44877043D01*
X20041326Y44966099D01*
X20031830Y44971582D01*
X19830328Y45065544D01*
X19820036Y45069290D01*
X19605279Y45126834D01*
X19594484Y45128737D01*
X19372995Y45148115D01*
X19362045Y45148115D01*
X19140556Y45128737D01*
X19129761Y45126834D01*
X18915004Y45069290D01*
X18904712Y45065544D01*
X18703204Y44971579D01*
X18693718Y44966101D01*
X18636162Y44925801D01*
X18627787Y44915323D01*
X18634855Y44901875D01*
X20460117Y43076613D01*
X20471891Y43070183D01*
X20483907Y43079480D01*
X20523621Y43136198D01*
X20529099Y43145684D01*
X20623064Y43347192D01*
X20626810Y43357484D01*
X20684354Y43572241D01*
X20686257Y43583036D01*
X20705635Y43804525D01*
X20705635Y43820982D01*
X20708123Y43820982D01*
X20720045Y43880294D01*
X20769445Y43931285D01*
X20838572Y43947474D01*
X20882823Y43936775D01*
X20973976Y43896191D01*
X20973984Y43896188D01*
X20980011Y43893505D01*
X21067173Y43874978D01*
X21160355Y43855171D01*
X21160360Y43855171D01*
X21166812Y43853799D01*
X21240500Y43853799D01*
X21308621Y43833797D01*
X21355114Y43780141D01*
X21366500Y43727799D01*
X21366500Y41677074D01*
X21346498Y41608953D01*
X21329595Y41587979D01*
X20921232Y41179616D01*
X20858920Y41145590D01*
X20788105Y41150655D01*
X20731269Y41193202D01*
X20706458Y41259722D01*
X20706243Y41265738D01*
X20706616Y41270000D01*
X20686272Y41502532D01*
X20625859Y41727998D01*
X20621587Y41737160D01*
X20529537Y41934561D01*
X20529534Y41934566D01*
X20527211Y41939548D01*
X20524054Y41944057D01*
X20396486Y42126243D01*
X20396484Y42126246D01*
X20393327Y42130754D01*
X20228274Y42295807D01*
X20223766Y42298964D01*
X20223763Y42298966D01*
X20041572Y42426537D01*
X20037068Y42429691D01*
X20033267Y42431463D01*
X19984553Y42482553D01*
X19971117Y42552267D01*
X19997503Y42618178D01*
X20033543Y42649408D01*
X20041331Y42653905D01*
X20098878Y42694199D01*
X20107253Y42704677D01*
X20100185Y42718125D01*
X19380332Y43437978D01*
X19366388Y43445592D01*
X19364555Y43445461D01*
X19357940Y43441210D01*
X18634133Y42717403D01*
X18627703Y42705629D01*
X18637000Y42693613D01*
X18693709Y42653905D01*
X18701497Y42649408D01*
X18750489Y42598024D01*
X18763923Y42528310D01*
X18737535Y42462399D01*
X18701900Y42431523D01*
X18697972Y42429691D01*
X18693468Y42426537D01*
X18511277Y42298966D01*
X18511274Y42298964D01*
X18506766Y42295807D01*
X18341713Y42130754D01*
X18338556Y42126246D01*
X18338554Y42126243D01*
X18210986Y41944057D01*
X18207829Y41939548D01*
X18205506Y41934566D01*
X18205503Y41934561D01*
X18113453Y41737160D01*
X18109181Y41727998D01*
X18048768Y41502532D01*
X18028424Y41270000D01*
X18048768Y41037468D01*
X18109181Y40812002D01*
X18111503Y40807022D01*
X18111504Y40807020D01*
X18205503Y40605439D01*
X18205506Y40605434D01*
X18207829Y40600452D01*
X18341713Y40409246D01*
X18506766Y40244193D01*
X18511274Y40241036D01*
X18511277Y40241034D01*
X18616770Y40167167D01*
X18697972Y40110309D01*
X18701367Y40108726D01*
X18749986Y40057734D01*
X18763420Y39988020D01*
X18737032Y39922110D01*
X18701537Y39891353D01*
X18697972Y39889691D01*
X18693468Y39886537D01*
X18511277Y39758966D01*
X18511274Y39758964D01*
X18506766Y39755807D01*
X18341713Y39590754D01*
X18207829Y39399548D01*
X18205506Y39394566D01*
X18205503Y39394561D01*
X18142873Y39260251D01*
X18109181Y39187998D01*
X18107759Y39182690D01*
X18107758Y39182688D01*
X18050193Y38967850D01*
X18048768Y38962532D01*
X18028424Y38730000D01*
X18048768Y38497468D01*
X18109181Y38272002D01*
X18111503Y38267022D01*
X18111504Y38267020D01*
X18205503Y38065439D01*
X18205506Y38065434D01*
X18207829Y38060452D01*
X18341713Y37869246D01*
X18484703Y37726256D01*
X18518729Y37663944D01*
X18513664Y37593129D01*
X18471117Y37536293D01*
X18431516Y37517745D01*
X18431704Y37517245D01*
X18295315Y37466115D01*
X18178759Y37378761D01*
X18091405Y37262205D01*
X18040275Y37125816D01*
X18033520Y37063634D01*
X18033520Y35316366D01*
X18040275Y35254184D01*
X18091405Y35117795D01*
X18178759Y35001239D01*
X18295315Y34913885D01*
X18431704Y34862755D01*
X18493886Y34856000D01*
X20241154Y34856000D01*
X20303336Y34862755D01*
X20439725Y34913885D01*
X20556281Y35001239D01*
X20643635Y35117795D01*
X20694765Y35254184D01*
X20701520Y35316366D01*
X20701520Y37063634D01*
X20694765Y37125816D01*
X20643635Y37262205D01*
X20556281Y37378761D01*
X20439725Y37466115D01*
X20303336Y37517245D01*
X20303738Y37518319D01*
X20248640Y37549796D01*
X20215819Y37612751D01*
X20222245Y37683456D01*
X20250337Y37726256D01*
X20393327Y37869246D01*
X20527211Y38060452D01*
X20529534Y38065434D01*
X20529537Y38065439D01*
X20623536Y38267020D01*
X20623537Y38267022D01*
X20625859Y38272002D01*
X20686272Y38497468D01*
X20706616Y38730000D01*
X20686272Y38962532D01*
X20678706Y38990768D01*
X20664882Y39042364D01*
X20666572Y39113340D01*
X20697494Y39164069D01*
X21651405Y40117980D01*
X21713717Y40152006D01*
X21784532Y40146941D01*
X21841368Y40104394D01*
X21866179Y40037874D01*
X21866500Y40028885D01*
X21866500Y33506492D01*
X21846498Y33438371D01*
X21792842Y33391878D01*
X21722568Y33381774D01*
X21714303Y33383245D01*
X21601944Y33407128D01*
X21601939Y33407128D01*
X21595487Y33408500D01*
X21404513Y33408500D01*
X21398061Y33407128D01*
X21398056Y33407128D01*
X21326313Y33391878D01*
X21217712Y33368794D01*
X21211682Y33366109D01*
X21211681Y33366109D01*
X21049278Y33293803D01*
X21049276Y33293802D01*
X21043248Y33291118D01*
X20888747Y33178866D01*
X20884326Y33173956D01*
X20884325Y33173955D01*
X20856639Y33143206D01*
X20760960Y33036944D01*
X20757659Y33031226D01*
X20673755Y32885900D01*
X20665473Y32871556D01*
X20606458Y32689928D01*
X20605768Y32683367D01*
X20605768Y32683365D01*
X20589093Y32524708D01*
X20562080Y32459051D01*
X20552878Y32448783D01*
X16529423Y28425328D01*
X16467111Y28391302D01*
X16396296Y28396367D01*
X16351233Y28425328D01*
X16210754Y28565807D01*
X16206246Y28568964D01*
X16206243Y28568966D01*
X16024057Y28696534D01*
X16024055Y28696535D01*
X16019548Y28699691D01*
X16014566Y28702014D01*
X16014561Y28702017D01*
X15812980Y28796016D01*
X15812978Y28796017D01*
X15807998Y28798339D01*
X15802690Y28799761D01*
X15802688Y28799762D01*
X15587847Y28857328D01*
X15587845Y28857328D01*
X15582532Y28858752D01*
X15350000Y28879096D01*
X15117468Y28858752D01*
X15112155Y28857328D01*
X15112153Y28857328D01*
X14897312Y28799762D01*
X14897310Y28799761D01*
X14892002Y28798339D01*
X14887022Y28796017D01*
X14887020Y28796016D01*
X14685439Y28702017D01*
X14685434Y28702014D01*
X14680452Y28699691D01*
X14675945Y28696535D01*
X14675943Y28696534D01*
X14493757Y28568966D01*
X14493754Y28568964D01*
X14489246Y28565807D01*
X14324193Y28400754D01*
X14321036Y28396246D01*
X14321034Y28396243D01*
X14193466Y28214057D01*
X14190309Y28209548D01*
X14187986Y28204566D01*
X14187983Y28204561D01*
X14093984Y28002980D01*
X14091661Y27997998D01*
X14031248Y27772532D01*
X14010904Y27540000D01*
X14031248Y27307468D01*
X14032672Y27302155D01*
X14032672Y27302153D01*
X14070798Y27159866D01*
X14091661Y27082002D01*
X14093983Y27077022D01*
X14093984Y27077020D01*
X14187983Y26875439D01*
X14187986Y26875434D01*
X14190309Y26870452D01*
X14193465Y26865945D01*
X14193466Y26865943D01*
X14207241Y26846271D01*
X14324193Y26679246D01*
X14489246Y26514193D01*
X14493754Y26511036D01*
X14493757Y26511034D01*
X14546026Y26474435D01*
X14680452Y26380309D01*
X14683847Y26378726D01*
X14732466Y26327734D01*
X14745900Y26258020D01*
X14719512Y26192110D01*
X14684017Y26161353D01*
X14680452Y26159691D01*
X14646017Y26135579D01*
X14493757Y26028966D01*
X14493754Y26028964D01*
X14489246Y26025807D01*
X14324193Y25860754D01*
X14321036Y25856246D01*
X14321034Y25856243D01*
X14239095Y25739222D01*
X14190309Y25669548D01*
X14187986Y25664566D01*
X14187983Y25664561D01*
X14146813Y25576271D01*
X14091661Y25457998D01*
X14090239Y25452690D01*
X14090238Y25452688D01*
X14078051Y25407206D01*
X14031248Y25232532D01*
X14010904Y25000000D01*
X14031248Y24767468D01*
X14032672Y24762155D01*
X14032672Y24762153D01*
X14057593Y24669148D01*
X14091661Y24542002D01*
X14093983Y24537022D01*
X14093984Y24537020D01*
X14187983Y24335439D01*
X14187986Y24335434D01*
X14190309Y24330452D01*
X14193465Y24325945D01*
X14193466Y24325943D01*
X14208921Y24303872D01*
X14324193Y24139246D01*
X14489246Y23974193D01*
X14493754Y23971036D01*
X14493757Y23971034D01*
X14599250Y23897167D01*
X14680452Y23840309D01*
X14684253Y23838537D01*
X14732967Y23787447D01*
X14746403Y23717733D01*
X14720017Y23651822D01*
X14683977Y23620592D01*
X14676189Y23616095D01*
X14618642Y23575801D01*
X14610267Y23565323D01*
X14617335Y23551875D01*
X15337188Y22832022D01*
X15351132Y22824408D01*
X15352965Y22824539D01*
X15359580Y22828790D01*
X16083387Y23552597D01*
X16089817Y23564371D01*
X16080520Y23576387D01*
X16023811Y23616095D01*
X16016023Y23620592D01*
X15967031Y23671976D01*
X15953597Y23741690D01*
X15979985Y23807601D01*
X16015620Y23838477D01*
X16019548Y23840309D01*
X16100750Y23897167D01*
X16206243Y23971034D01*
X16206246Y23971036D01*
X16210754Y23974193D01*
X16375807Y24139246D01*
X16491080Y24303872D01*
X16506534Y24325943D01*
X16506535Y24325945D01*
X16509691Y24330452D01*
X16512014Y24335434D01*
X16512017Y24335439D01*
X16606016Y24537020D01*
X16606017Y24537022D01*
X16608339Y24542002D01*
X16642408Y24669148D01*
X16667328Y24762153D01*
X16667328Y24762155D01*
X16668752Y24767468D01*
X16689096Y25000000D01*
X16668752Y25232532D01*
X16659862Y25265712D01*
X16647362Y25312365D01*
X16649052Y25383342D01*
X16679974Y25434070D01*
X20920804Y29674900D01*
X20983116Y29708926D01*
X21053931Y29703861D01*
X21061147Y29700912D01*
X21211677Y29633892D01*
X21211685Y29633889D01*
X21217712Y29631206D01*
X21311113Y29611353D01*
X21398056Y29592872D01*
X21398061Y29592872D01*
X21404513Y29591500D01*
X21595487Y29591500D01*
X21601939Y29592872D01*
X21601944Y29592872D01*
X21714303Y29616755D01*
X21785094Y29611353D01*
X21841727Y29568536D01*
X21866220Y29501898D01*
X21866500Y29493508D01*
X21866500Y16314594D01*
X21846498Y16246473D01*
X21829595Y16225499D01*
X19354500Y13750405D01*
X19292188Y13716379D01*
X19265405Y13713500D01*
X14888004Y13713500D01*
X14819883Y13733502D01*
X14784791Y13767229D01*
X14695136Y13895270D01*
X14695134Y13895273D01*
X14691977Y13899781D01*
X14534781Y14056977D01*
X14530273Y14060134D01*
X14530270Y14060136D01*
X14454505Y14113187D01*
X14352677Y14184488D01*
X14347695Y14186811D01*
X14347690Y14186814D01*
X14156178Y14276117D01*
X14156177Y14276118D01*
X14151196Y14278440D01*
X14145888Y14279862D01*
X14145886Y14279863D01*
X14080051Y14297503D01*
X13936463Y14335978D01*
X13715000Y14355353D01*
X13493537Y14335978D01*
X13349949Y14297503D01*
X13284114Y14279863D01*
X13284112Y14279862D01*
X13278804Y14278440D01*
X13273823Y14276118D01*
X13273822Y14276117D01*
X13082311Y14186814D01*
X13082306Y14186811D01*
X13077324Y14184488D01*
X13072817Y14181332D01*
X13072815Y14181331D01*
X12899730Y14060136D01*
X12899727Y14060134D01*
X12895219Y14056977D01*
X12738023Y13899781D01*
X12734866Y13895273D01*
X12734864Y13895270D01*
X12621593Y13733502D01*
X12610512Y13717676D01*
X12608189Y13712694D01*
X12608186Y13712689D01*
X12518883Y13521178D01*
X12516560Y13516196D01*
X12459022Y13301463D01*
X12439647Y13080000D01*
X12459022Y12858537D01*
X12476876Y12791905D01*
X12514050Y12653173D01*
X12516560Y12643804D01*
X12518882Y12638823D01*
X12518883Y12638822D01*
X12608186Y12447311D01*
X12608189Y12447306D01*
X12610512Y12442324D01*
X12613668Y12437817D01*
X12613669Y12437815D01*
X12721049Y12284461D01*
X12738023Y12260219D01*
X12895219Y12103023D01*
X12899727Y12099866D01*
X12899730Y12099864D01*
X12923759Y12083039D01*
X13077323Y11975512D01*
X13093349Y11968039D01*
X13112247Y11959226D01*
X13165531Y11912308D01*
X13184991Y11844031D01*
X13164448Y11776071D01*
X13112246Y11730838D01*
X13091125Y11720989D01*
X13050439Y11702017D01*
X13050434Y11702014D01*
X13045452Y11699691D01*
X13040945Y11696535D01*
X13040943Y11696534D01*
X12858757Y11568966D01*
X12858754Y11568964D01*
X12854246Y11565807D01*
X12689193Y11400754D01*
X12686036Y11396246D01*
X12686034Y11396243D01*
X12652348Y11348134D01*
X12555309Y11209548D01*
X12552986Y11204566D01*
X12552983Y11204561D01*
X12538499Y11173500D01*
X12456661Y10997998D01*
X12396248Y10772532D01*
X12375904Y10540000D01*
X12396248Y10307468D01*
X12456661Y10082002D01*
X12458983Y10077022D01*
X12458984Y10077020D01*
X12552983Y9875439D01*
X12552986Y9875434D01*
X12555309Y9870452D01*
X12689193Y9679246D01*
X12854246Y9514193D01*
X12858754Y9511036D01*
X12858757Y9511034D01*
X12872989Y9501069D01*
X13045452Y9380309D01*
X13048847Y9378726D01*
X13097466Y9327734D01*
X13110900Y9258020D01*
X13084512Y9192110D01*
X13049017Y9161353D01*
X13045452Y9159691D01*
X13040948Y9156537D01*
X12858757Y9028966D01*
X12858754Y9028964D01*
X12854246Y9025807D01*
X12689193Y8860754D01*
X12686036Y8856246D01*
X12686034Y8856243D01*
X12567689Y8687229D01*
X12555309Y8669548D01*
X12552986Y8664566D01*
X12552983Y8664561D01*
X12491253Y8532180D01*
X12456661Y8457998D01*
X12455239Y8452690D01*
X12455238Y8452688D01*
X12438718Y8391034D01*
X12396248Y8232532D01*
X12375904Y8000000D01*
X12396248Y7767468D01*
X12456661Y7542002D01*
X12458983Y7537022D01*
X12458984Y7537020D01*
X12552983Y7335439D01*
X12552986Y7335434D01*
X12555309Y7330452D01*
X12689193Y7139246D01*
X12854246Y6974193D01*
X12858754Y6971036D01*
X12858757Y6971034D01*
X12964250Y6897167D01*
X13045452Y6840309D01*
X13049253Y6838537D01*
X13097967Y6787447D01*
X13111403Y6717733D01*
X13085017Y6651822D01*
X13048977Y6620592D01*
X13041189Y6616095D01*
X12983642Y6575801D01*
X12975267Y6565323D01*
X12982335Y6551875D01*
X13702188Y5832022D01*
X13716132Y5824408D01*
X13717965Y5824539D01*
X13724580Y5828790D01*
X14448387Y6552597D01*
X14454817Y6564371D01*
X14445520Y6576387D01*
X14388811Y6616095D01*
X14381023Y6620592D01*
X14332031Y6671976D01*
X14318597Y6741690D01*
X14344985Y6807601D01*
X14380620Y6838477D01*
X14384548Y6840309D01*
X14465750Y6897167D01*
X14571243Y6971034D01*
X14571246Y6971036D01*
X14575754Y6974193D01*
X14740807Y7139246D01*
X14862311Y7312771D01*
X14917768Y7357099D01*
X14965524Y7366500D01*
X19921233Y7366500D01*
X19932416Y7365973D01*
X19939909Y7364298D01*
X19947835Y7364547D01*
X19947836Y7364547D01*
X20007986Y7366438D01*
X20011945Y7366500D01*
X20039856Y7366500D01*
X20043791Y7366997D01*
X20043856Y7367005D01*
X20055693Y7367938D01*
X20087951Y7368952D01*
X20091970Y7369078D01*
X20099889Y7369327D01*
X20119343Y7374979D01*
X20138700Y7378987D01*
X20150930Y7380532D01*
X20150931Y7380532D01*
X20158797Y7381526D01*
X20166168Y7384445D01*
X20166170Y7384445D01*
X20199912Y7397804D01*
X20211142Y7401649D01*
X20245983Y7411771D01*
X20245984Y7411771D01*
X20253593Y7413982D01*
X20260412Y7418015D01*
X20260417Y7418017D01*
X20271028Y7424293D01*
X20288776Y7432988D01*
X20307617Y7440448D01*
X20343387Y7466436D01*
X20353307Y7472952D01*
X20384535Y7491420D01*
X20384538Y7491422D01*
X20391362Y7495458D01*
X20405683Y7509779D01*
X20420717Y7522620D01*
X20430694Y7529869D01*
X20437107Y7534528D01*
X20465298Y7568605D01*
X20473288Y7577384D01*
X23534648Y10638744D01*
X23596960Y10672770D01*
X23667775Y10667705D01*
X23724611Y10625158D01*
X23749422Y10558638D01*
X23749743Y10549649D01*
X23749743Y9080024D01*
X23749216Y9068841D01*
X23747541Y9061348D01*
X23747790Y9053422D01*
X23747790Y9053421D01*
X23749681Y8993271D01*
X23749743Y8989312D01*
X23749743Y8961401D01*
X23750240Y8957467D01*
X23750240Y8957466D01*
X23750248Y8957401D01*
X23751181Y8945564D01*
X23752570Y8901368D01*
X23758221Y8881918D01*
X23762230Y8862557D01*
X23764769Y8842460D01*
X23767688Y8835089D01*
X23767688Y8835087D01*
X23781047Y8801345D01*
X23784892Y8790115D01*
X23797225Y8747664D01*
X23801258Y8740845D01*
X23801260Y8740840D01*
X23807536Y8730229D01*
X23816231Y8712481D01*
X23823691Y8693640D01*
X23828353Y8687224D01*
X23828353Y8687223D01*
X23849679Y8657870D01*
X23856195Y8647950D01*
X23865875Y8631583D01*
X23878701Y8609895D01*
X23893022Y8595574D01*
X23905862Y8580541D01*
X23917771Y8564150D01*
X23923877Y8559099D01*
X23951848Y8535959D01*
X23960627Y8527969D01*
X30880843Y1607753D01*
X30888387Y1599463D01*
X30892500Y1592982D01*
X30898277Y1587557D01*
X30942167Y1546342D01*
X30945009Y1543587D01*
X30964731Y1523865D01*
X30967855Y1521442D01*
X30967859Y1521438D01*
X30967924Y1521388D01*
X30976945Y1513683D01*
X31009179Y1483414D01*
X31016127Y1479595D01*
X31016129Y1479593D01*
X31026932Y1473654D01*
X31043459Y1462798D01*
X31053198Y1455243D01*
X31053200Y1455242D01*
X31059460Y1450386D01*
X31064784Y1448082D01*
X31112592Y1396880D01*
X31126000Y1340320D01*
X31126000Y1126366D01*
X31132755Y1064184D01*
X31183885Y927795D01*
X31271239Y811239D01*
X31278419Y805858D01*
X31278420Y805857D01*
X31373196Y734826D01*
X31415711Y677967D01*
X31420737Y607148D01*
X31386677Y544855D01*
X31324345Y510865D01*
X31297631Y508000D01*
X25208094Y508000D01*
X25139973Y528002D01*
X25093480Y581658D01*
X25083376Y651932D01*
X25112870Y716512D01*
X25118999Y723095D01*
X25729879Y1333974D01*
X26450500Y2054595D01*
X26512812Y2088621D01*
X26539595Y2091500D01*
X26595487Y2091500D01*
X26601939Y2092872D01*
X26601944Y2092872D01*
X26688887Y2111353D01*
X26782288Y2131206D01*
X26817073Y2146693D01*
X26950722Y2206197D01*
X26950724Y2206198D01*
X26956752Y2208882D01*
X26984404Y2228972D01*
X27066829Y2288858D01*
X27111253Y2321134D01*
X27182364Y2400111D01*
X27234621Y2458148D01*
X27234622Y2458149D01*
X27239040Y2463056D01*
X27334527Y2628444D01*
X27393542Y2810072D01*
X27394583Y2819971D01*
X27412814Y2993435D01*
X27413504Y3000000D01*
X27401333Y3115801D01*
X27394232Y3183365D01*
X27394232Y3183367D01*
X27393542Y3189928D01*
X27334527Y3371556D01*
X27239040Y3536944D01*
X27195589Y3585202D01*
X27115675Y3673955D01*
X27115674Y3673956D01*
X27111253Y3678866D01*
X26956752Y3791118D01*
X26950724Y3793802D01*
X26950722Y3793803D01*
X26788319Y3866109D01*
X26788318Y3866109D01*
X26782288Y3868794D01*
X26688888Y3888647D01*
X26601944Y3907128D01*
X26601939Y3907128D01*
X26595487Y3908500D01*
X26404513Y3908500D01*
X26398061Y3907128D01*
X26398056Y3907128D01*
X26311112Y3888647D01*
X26217712Y3868794D01*
X26211682Y3866109D01*
X26211681Y3866109D01*
X26049278Y3793803D01*
X26049276Y3793802D01*
X26043248Y3791118D01*
X25888747Y3678866D01*
X25884326Y3673956D01*
X25884325Y3673955D01*
X25804412Y3585202D01*
X25760960Y3536944D01*
X25665473Y3371556D01*
X25606458Y3189928D01*
X25605768Y3183367D01*
X25605768Y3183365D01*
X25603605Y3162782D01*
X25589209Y3025807D01*
X25589093Y3024707D01*
X25562080Y2959050D01*
X25552878Y2948782D01*
X24274500Y1670405D01*
X24212188Y1636379D01*
X24185405Y1633500D01*
X15082400Y1633500D01*
X15014279Y1653502D01*
X14967786Y1707158D01*
X14957682Y1777432D01*
X14981574Y1835064D01*
X14991115Y1847795D01*
X15042245Y1984184D01*
X15049000Y2046366D01*
X15049000Y3793634D01*
X15042245Y3855816D01*
X14991115Y3992205D01*
X14903761Y4108761D01*
X14787205Y4196115D01*
X14650816Y4247245D01*
X14588634Y4254000D01*
X14583769Y4254000D01*
X14583441Y4254096D01*
X14581820Y4254184D01*
X14581841Y4254566D01*
X14515648Y4274002D01*
X14472238Y4321376D01*
X14447666Y4368124D01*
X13727812Y5087978D01*
X13713868Y5095592D01*
X13712035Y5095461D01*
X13705420Y5091210D01*
X12981613Y4367403D01*
X12956917Y4322177D01*
X12956354Y4319593D01*
X12906142Y4269401D01*
X12848157Y4254607D01*
X12848180Y4254184D01*
X12846046Y4254068D01*
X12845778Y4254000D01*
X12841366Y4254000D01*
X12779184Y4247245D01*
X12642795Y4196115D01*
X12526239Y4108761D01*
X12438885Y3992205D01*
X12387755Y3855816D01*
X12381000Y3793634D01*
X12381000Y2046366D01*
X12387755Y1984184D01*
X12438885Y1847795D01*
X12448426Y1835065D01*
X12473274Y1768561D01*
X12458222Y1699178D01*
X12408049Y1648947D01*
X12347600Y1633500D01*
X12314595Y1633500D01*
X12246474Y1653502D01*
X12225500Y1670405D01*
X11170405Y2725500D01*
X11136379Y2787812D01*
X11133500Y2814595D01*
X11133500Y5454525D01*
X12376885Y5454525D01*
X12396263Y5233036D01*
X12398166Y5222241D01*
X12455710Y5007484D01*
X12459456Y4997192D01*
X12553421Y4795684D01*
X12558899Y4786198D01*
X12599199Y4728642D01*
X12609677Y4720267D01*
X12623125Y4727335D01*
X13342978Y5447188D01*
X13349356Y5458868D01*
X14079408Y5458868D01*
X14079539Y5457035D01*
X14083790Y5450420D01*
X14807597Y4726613D01*
X14819371Y4720183D01*
X14831387Y4729480D01*
X14871101Y4786198D01*
X14876579Y4795684D01*
X14970544Y4997192D01*
X14974290Y5007484D01*
X15031834Y5222241D01*
X15033737Y5233036D01*
X15053115Y5454525D01*
X15053115Y5465475D01*
X15033737Y5686964D01*
X15031834Y5697759D01*
X14974290Y5912516D01*
X14970544Y5922808D01*
X14876579Y6124316D01*
X14871101Y6133802D01*
X14830801Y6191358D01*
X14820323Y6199733D01*
X14806875Y6192665D01*
X14087022Y5472812D01*
X14079408Y5458868D01*
X13349356Y5458868D01*
X13350592Y5461132D01*
X13350461Y5462965D01*
X13346210Y5469580D01*
X12622403Y6193387D01*
X12610629Y6199817D01*
X12598613Y6190520D01*
X12558899Y6133802D01*
X12553421Y6124316D01*
X12459456Y5922808D01*
X12455710Y5912516D01*
X12398166Y5697759D01*
X12396263Y5686964D01*
X12376885Y5465475D01*
X12376885Y5454525D01*
X11133500Y5454525D01*
X11133500Y19046366D01*
X14016000Y19046366D01*
X14022755Y18984184D01*
X14073885Y18847795D01*
X14161239Y18731239D01*
X14277795Y18643885D01*
X14414184Y18592755D01*
X14476366Y18586000D01*
X16223634Y18586000D01*
X16285816Y18592755D01*
X16422205Y18643885D01*
X16538761Y18731239D01*
X16626115Y18847795D01*
X16677245Y18984184D01*
X16684000Y19046366D01*
X16684000Y20793634D01*
X16677245Y20855816D01*
X16626115Y20992205D01*
X16538761Y21108761D01*
X16422205Y21196115D01*
X16285816Y21247245D01*
X16223634Y21254000D01*
X16218769Y21254000D01*
X16218441Y21254096D01*
X16216820Y21254184D01*
X16216841Y21254566D01*
X16150648Y21274002D01*
X16107238Y21321376D01*
X16082666Y21368124D01*
X15362812Y22087978D01*
X15348868Y22095592D01*
X15347035Y22095461D01*
X15340420Y22091210D01*
X14616613Y21367403D01*
X14591917Y21322177D01*
X14591354Y21319593D01*
X14541142Y21269401D01*
X14483157Y21254607D01*
X14483180Y21254184D01*
X14481046Y21254068D01*
X14480778Y21254000D01*
X14476366Y21254000D01*
X14414184Y21247245D01*
X14277795Y21196115D01*
X14161239Y21108761D01*
X14073885Y20992205D01*
X14022755Y20855816D01*
X14016000Y20793634D01*
X14016000Y19046366D01*
X11133500Y19046366D01*
X11133500Y22454525D01*
X14011885Y22454525D01*
X14031263Y22233036D01*
X14033166Y22222241D01*
X14090710Y22007484D01*
X14094456Y21997192D01*
X14188421Y21795684D01*
X14193899Y21786198D01*
X14234199Y21728642D01*
X14244677Y21720267D01*
X14258125Y21727335D01*
X14977978Y22447188D01*
X14984356Y22458868D01*
X15714408Y22458868D01*
X15714539Y22457035D01*
X15718790Y22450420D01*
X16442597Y21726613D01*
X16454371Y21720183D01*
X16466387Y21729480D01*
X16506101Y21786198D01*
X16511579Y21795684D01*
X16605544Y21997192D01*
X16609290Y22007484D01*
X16666834Y22222241D01*
X16668737Y22233036D01*
X16688115Y22454525D01*
X16688115Y22465475D01*
X16668737Y22686964D01*
X16666834Y22697759D01*
X16609290Y22912516D01*
X16605544Y22922808D01*
X16511579Y23124316D01*
X16506101Y23133802D01*
X16465801Y23191358D01*
X16455323Y23199733D01*
X16441875Y23192665D01*
X15722022Y22472812D01*
X15714408Y22458868D01*
X14984356Y22458868D01*
X14985592Y22461132D01*
X14985461Y22462965D01*
X14981210Y22469580D01*
X14257403Y23193387D01*
X14245629Y23199817D01*
X14233613Y23190520D01*
X14193899Y23133802D01*
X14188421Y23124316D01*
X14094456Y22922808D01*
X14090710Y22912516D01*
X14033166Y22697759D01*
X14031263Y22686964D01*
X14011885Y22465475D01*
X14011885Y22454525D01*
X11133500Y22454525D01*
X11133500Y42185406D01*
X11153502Y42253527D01*
X11170405Y42274501D01*
X12700429Y43804525D01*
X18029405Y43804525D01*
X18048783Y43583036D01*
X18050686Y43572241D01*
X18108230Y43357484D01*
X18111976Y43347192D01*
X18205941Y43145684D01*
X18211419Y43136198D01*
X18251719Y43078642D01*
X18262197Y43070267D01*
X18275645Y43077335D01*
X18995498Y43797188D01*
X19003112Y43811132D01*
X19002981Y43812965D01*
X18998730Y43819580D01*
X18274923Y44543387D01*
X18263149Y44549817D01*
X18251133Y44540520D01*
X18211419Y44483802D01*
X18205941Y44474316D01*
X18111976Y44272808D01*
X18108230Y44262516D01*
X18050686Y44047759D01*
X18048783Y44036964D01*
X18029405Y43815475D01*
X18029405Y43804525D01*
X12700429Y43804525D01*
X15450500Y46554595D01*
X15512812Y46588621D01*
X15539595Y46591500D01*
X15595487Y46591500D01*
X15601939Y46592872D01*
X15601944Y46592872D01*
X15688888Y46611353D01*
X15782288Y46631206D01*
X15788319Y46633891D01*
X15950722Y46706197D01*
X15950724Y46706198D01*
X15956752Y46708882D01*
X15988244Y46731762D01*
X16099292Y46812444D01*
X16111253Y46821134D01*
X16115675Y46826045D01*
X16234621Y46958148D01*
X16234622Y46958149D01*
X16239040Y46963056D01*
X16313465Y47091964D01*
X16331223Y47122721D01*
X16331224Y47122722D01*
X16334527Y47128444D01*
X16393542Y47310072D01*
X16401080Y47381787D01*
X16412814Y47493435D01*
X16413504Y47500000D01*
X16393542Y47689928D01*
X16334527Y47871556D01*
X16239040Y48036944D01*
X16111253Y48178866D01*
X15956752Y48291118D01*
X15950724Y48293802D01*
X15950722Y48293803D01*
X15788319Y48366109D01*
X15788318Y48366109D01*
X15782288Y48368794D01*
X15688888Y48388647D01*
X15601944Y48407128D01*
X15601939Y48407128D01*
X15595487Y48408500D01*
X15539595Y48408500D01*
X15471474Y48428502D01*
X15450500Y48445405D01*
X14670405Y49225500D01*
X14636379Y49287812D01*
X14633500Y49314595D01*
X14633500Y53797476D01*
X14653502Y53865597D01*
X14665858Y53881779D01*
X14739040Y53963056D01*
X14834527Y54128444D01*
X14893542Y54310072D01*
X14895515Y54328838D01*
X14912814Y54493435D01*
X14913504Y54500000D01*
X14893542Y54689928D01*
X14834527Y54871556D01*
X14805847Y54921232D01*
X14742341Y55031226D01*
X14739040Y55036944D01*
X14732826Y55043846D01*
X14615675Y55173955D01*
X14615674Y55173956D01*
X14611253Y55178866D01*
X14491720Y55265712D01*
X14462094Y55287237D01*
X14462093Y55287238D01*
X14456752Y55291118D01*
X14450724Y55293802D01*
X14450722Y55293803D01*
X14288319Y55366109D01*
X14288318Y55366109D01*
X14282288Y55368794D01*
X14176115Y55391362D01*
X14101944Y55407128D01*
X14101939Y55407128D01*
X14095487Y55408500D01*
X13904513Y55408500D01*
X13898061Y55407128D01*
X13898056Y55407128D01*
X13823885Y55391362D01*
X13717712Y55368794D01*
X13711682Y55366109D01*
X13711681Y55366109D01*
X13549278Y55293803D01*
X13549276Y55293802D01*
X13543248Y55291118D01*
X13537907Y55287238D01*
X13537906Y55287237D01*
X13508280Y55265712D01*
X13388747Y55178866D01*
X13384326Y55173956D01*
X13384325Y55173955D01*
X13267175Y55043846D01*
X13260960Y55036944D01*
X13257659Y55031226D01*
X13194154Y54921232D01*
X13165473Y54871556D01*
X13106458Y54689928D01*
X13086496Y54500000D01*
X13087186Y54493435D01*
X13104486Y54328838D01*
X13106458Y54310072D01*
X13165473Y54128444D01*
X13260960Y53963056D01*
X13334137Y53881785D01*
X13364853Y53817779D01*
X13366500Y53797476D01*
X13366500Y49078767D01*
X13365973Y49067584D01*
X13364298Y49060091D01*
X13364547Y49052165D01*
X13364547Y49052164D01*
X13366438Y48992014D01*
X13366500Y48988055D01*
X13366500Y48960144D01*
X13366997Y48956210D01*
X13366997Y48956209D01*
X13367005Y48956144D01*
X13367938Y48944307D01*
X13369327Y48900111D01*
X13372658Y48888647D01*
X13374978Y48880661D01*
X13378987Y48861300D01*
X13381526Y48841203D01*
X13384445Y48833832D01*
X13384445Y48833830D01*
X13397804Y48800088D01*
X13401649Y48788858D01*
X13405278Y48776366D01*
X13413982Y48746407D01*
X13418015Y48739588D01*
X13418017Y48739583D01*
X13424293Y48728972D01*
X13432988Y48711224D01*
X13440448Y48692383D01*
X13445110Y48685967D01*
X13445110Y48685966D01*
X13466436Y48656613D01*
X13472952Y48646693D01*
X13495458Y48608638D01*
X13509779Y48594317D01*
X13522619Y48579284D01*
X13534528Y48562893D01*
X13540634Y48557842D01*
X13568605Y48534702D01*
X13577384Y48526712D01*
X14515001Y47589095D01*
X14549027Y47526783D01*
X14543962Y47455968D01*
X14515001Y47410905D01*
X12311253Y45207158D01*
X10107747Y43003652D01*
X10099461Y42996112D01*
X10092982Y42992000D01*
X10087557Y42986223D01*
X10046357Y42942349D01*
X10043602Y42939507D01*
X10023865Y42919770D01*
X10021385Y42916573D01*
X10013682Y42907553D01*
X9983414Y42875321D01*
X9979595Y42868375D01*
X9979593Y42868372D01*
X9973652Y42857566D01*
X9962801Y42841047D01*
X9950386Y42825041D01*
X9947241Y42817772D01*
X9947238Y42817768D01*
X9932826Y42784463D01*
X9927609Y42773813D01*
X9906305Y42735060D01*
X9904334Y42727385D01*
X9904334Y42727384D01*
X9901267Y42715438D01*
X9894863Y42696734D01*
X9893513Y42693613D01*
X9886819Y42678145D01*
X9885580Y42670322D01*
X9885577Y42670312D01*
X9879901Y42634476D01*
X9877495Y42622856D01*
X9871120Y42598024D01*
X9866500Y42580030D01*
X9866500Y42559776D01*
X9864949Y42540066D01*
X9861780Y42520057D01*
X9862526Y42512165D01*
X9865941Y42476039D01*
X9866500Y42464181D01*
X9866500Y2578767D01*
X9865973Y2567584D01*
X9864298Y2560091D01*
X9864547Y2552165D01*
X9864547Y2552164D01*
X9866438Y2492014D01*
X9866500Y2488055D01*
X9866500Y2460144D01*
X9866997Y2456210D01*
X9866997Y2456209D01*
X9867005Y2456144D01*
X9867938Y2444307D01*
X9869327Y2400111D01*
X9874978Y2380661D01*
X9878987Y2361300D01*
X9881526Y2341203D01*
X9884445Y2333832D01*
X9884445Y2333830D01*
X9897804Y2300088D01*
X9901649Y2288858D01*
X9913982Y2246407D01*
X9918015Y2239588D01*
X9918017Y2239583D01*
X9924293Y2228972D01*
X9932988Y2211224D01*
X9940448Y2192383D01*
X9945110Y2185967D01*
X9945110Y2185966D01*
X9966436Y2156613D01*
X9972952Y2146693D01*
X9982923Y2129834D01*
X9995458Y2108638D01*
X10009779Y2094317D01*
X10022619Y2079284D01*
X10034528Y2062893D01*
X10040634Y2057842D01*
X10068605Y2034702D01*
X10077384Y2026712D01*
X11381001Y723095D01*
X11415027Y660783D01*
X11409962Y589968D01*
X11367415Y533132D01*
X11300895Y508321D01*
X11291906Y508000D01*
X634000Y508000D01*
X565879Y528002D01*
X519386Y581658D01*
X508000Y634000D01*
X508000Y5000000D01*
X1286411Y5000000D01*
X1306754Y4611824D01*
X1307267Y4608584D01*
X1307268Y4608576D01*
X1335268Y4431793D01*
X1367562Y4227901D01*
X1468167Y3852438D01*
X1469352Y3849350D01*
X1469353Y3849348D01*
X1492051Y3790217D01*
X1607468Y3489547D01*
X1608966Y3486607D01*
X1778880Y3153133D01*
X1783938Y3143206D01*
X1785734Y3140440D01*
X1785736Y3140437D01*
X1914532Y2942108D01*
X1995643Y2817207D01*
X2090556Y2700000D01*
X2195635Y2570239D01*
X2240266Y2515124D01*
X2515124Y2240266D01*
X2517682Y2238194D01*
X2517686Y2238191D01*
X2646486Y2133891D01*
X2817207Y1995643D01*
X2819970Y1993848D01*
X2819971Y1993848D01*
X3102174Y1810584D01*
X3143205Y1783938D01*
X3146139Y1782443D01*
X3146146Y1782439D01*
X3449294Y1627978D01*
X3489547Y1607468D01*
X3660092Y1542002D01*
X3839220Y1473241D01*
X3852438Y1468167D01*
X4227901Y1367562D01*
X4399899Y1340320D01*
X4608576Y1307268D01*
X4608584Y1307267D01*
X4611824Y1306754D01*
X5000000Y1286411D01*
X5388176Y1306754D01*
X5391416Y1307267D01*
X5391424Y1307268D01*
X5600101Y1340320D01*
X5772099Y1367562D01*
X6147562Y1468167D01*
X6160781Y1473241D01*
X6339908Y1542002D01*
X6510453Y1607468D01*
X6550706Y1627978D01*
X6853854Y1782439D01*
X6853861Y1782443D01*
X6856795Y1783938D01*
X6897827Y1810584D01*
X7180029Y1993848D01*
X7180030Y1993848D01*
X7182793Y1995643D01*
X7353514Y2133891D01*
X7482314Y2238191D01*
X7482318Y2238194D01*
X7484876Y2240266D01*
X7759734Y2515124D01*
X7804366Y2570239D01*
X7909444Y2700000D01*
X8004357Y2817207D01*
X8085468Y2942108D01*
X8214264Y3140437D01*
X8214266Y3140440D01*
X8216062Y3143206D01*
X8221121Y3153133D01*
X8391034Y3486607D01*
X8392532Y3489547D01*
X8507949Y3790217D01*
X8530647Y3849348D01*
X8530648Y3849350D01*
X8531833Y3852438D01*
X8632438Y4227901D01*
X8664732Y4431793D01*
X8692732Y4608576D01*
X8692733Y4608584D01*
X8693246Y4611824D01*
X8713589Y5000000D01*
X8693246Y5388176D01*
X8690245Y5407128D01*
X8632954Y5768838D01*
X8632438Y5772099D01*
X8531833Y6147562D01*
X8514243Y6193387D01*
X8393716Y6507368D01*
X8392532Y6510453D01*
X8364574Y6565323D01*
X8217561Y6853853D01*
X8217557Y6853860D01*
X8216062Y6856794D01*
X8004357Y7182793D01*
X7855191Y7366997D01*
X7761809Y7482314D01*
X7761806Y7482318D01*
X7759734Y7484876D01*
X7484876Y7759734D01*
X7475326Y7767468D01*
X7185355Y8002282D01*
X7182793Y8004357D01*
X6856795Y8216062D01*
X6853861Y8217557D01*
X6853854Y8217561D01*
X6513393Y8391034D01*
X6510453Y8392532D01*
X6147562Y8531833D01*
X5772099Y8632438D01*
X5537798Y8669548D01*
X5391424Y8692732D01*
X5391416Y8692733D01*
X5388176Y8693246D01*
X5000000Y8713589D01*
X4611824Y8693246D01*
X4608584Y8692733D01*
X4608576Y8692732D01*
X4462202Y8669548D01*
X4227901Y8632438D01*
X3852438Y8531833D01*
X3489547Y8392532D01*
X3486607Y8391034D01*
X3146147Y8217561D01*
X3146140Y8217557D01*
X3143206Y8216062D01*
X2817207Y8004357D01*
X2814645Y8002282D01*
X2524675Y7767468D01*
X2515124Y7759734D01*
X2240266Y7484876D01*
X2238194Y7482318D01*
X2238191Y7482314D01*
X2144809Y7366997D01*
X1995643Y7182793D01*
X1783938Y6856794D01*
X1782443Y6853860D01*
X1782439Y6853853D01*
X1635426Y6565323D01*
X1607468Y6510453D01*
X1606284Y6507368D01*
X1485758Y6193387D01*
X1468167Y6147562D01*
X1367562Y5772099D01*
X1367046Y5768838D01*
X1309756Y5407128D01*
X1306754Y5388176D01*
X1286411Y5000000D01*
X508000Y5000000D01*
X508000Y35000000D01*
X1286411Y35000000D01*
X1306754Y34611824D01*
X1307267Y34608584D01*
X1307268Y34608576D01*
X1313513Y34569149D01*
X1367562Y34227901D01*
X1468167Y33852438D01*
X1469352Y33849350D01*
X1469353Y33849348D01*
X1522378Y33711213D01*
X1607468Y33489547D01*
X1608966Y33486607D01*
X1768271Y33173955D01*
X1783938Y33143206D01*
X1785734Y33140440D01*
X1785736Y33140437D01*
X1964430Y32865271D01*
X1995643Y32817207D01*
X2240266Y32515124D01*
X2515124Y32240266D01*
X2517682Y32238194D01*
X2517686Y32238191D01*
X2604712Y32167719D01*
X2817207Y31995643D01*
X2819970Y31993848D01*
X2819971Y31993848D01*
X2923175Y31926827D01*
X3143205Y31783938D01*
X3146139Y31782443D01*
X3146146Y31782439D01*
X3486607Y31608966D01*
X3489547Y31607468D01*
X3852438Y31468167D01*
X4227901Y31367562D01*
X4431793Y31335268D01*
X4608576Y31307268D01*
X4608584Y31307267D01*
X4611824Y31306754D01*
X5000000Y31286411D01*
X5388176Y31306754D01*
X5391416Y31307267D01*
X5391424Y31307268D01*
X5568207Y31335268D01*
X5772099Y31367562D01*
X6147562Y31468167D01*
X6510453Y31607468D01*
X6513393Y31608966D01*
X6853854Y31782439D01*
X6853861Y31782443D01*
X6856795Y31783938D01*
X7076826Y31926827D01*
X7180029Y31993848D01*
X7180030Y31993848D01*
X7182793Y31995643D01*
X7395288Y32167719D01*
X7482314Y32238191D01*
X7482318Y32238194D01*
X7484876Y32240266D01*
X7759734Y32515124D01*
X8004357Y32817207D01*
X8035570Y32865271D01*
X8214264Y33140437D01*
X8214266Y33140440D01*
X8216062Y33143206D01*
X8231730Y33173955D01*
X8391034Y33486607D01*
X8392532Y33489547D01*
X8477622Y33711213D01*
X8530647Y33849348D01*
X8530648Y33849350D01*
X8531833Y33852438D01*
X8632438Y34227901D01*
X8686487Y34569149D01*
X8692732Y34608576D01*
X8692733Y34608584D01*
X8693246Y34611824D01*
X8713589Y35000000D01*
X8693246Y35388176D01*
X8632438Y35772099D01*
X8531833Y36147562D01*
X8392532Y36510453D01*
X8329033Y36635077D01*
X8217561Y36853853D01*
X8217557Y36853860D01*
X8216062Y36856794D01*
X8197978Y36884642D01*
X8006152Y37180029D01*
X8006152Y37180030D01*
X8004357Y37182793D01*
X7779288Y37460729D01*
X7761809Y37482314D01*
X7761806Y37482318D01*
X7759734Y37484876D01*
X7484876Y37759734D01*
X7182793Y38004357D01*
X6856795Y38216062D01*
X6853861Y38217557D01*
X6853854Y38217561D01*
X6513393Y38391034D01*
X6510453Y38392532D01*
X6147562Y38531833D01*
X5772099Y38632438D01*
X5568207Y38664732D01*
X5391424Y38692732D01*
X5391416Y38692733D01*
X5388176Y38693246D01*
X5000000Y38713589D01*
X4611824Y38693246D01*
X4608584Y38692733D01*
X4608576Y38692732D01*
X4431793Y38664732D01*
X4227901Y38632438D01*
X3852438Y38531833D01*
X3489547Y38392532D01*
X3486607Y38391034D01*
X3146147Y38217561D01*
X3146140Y38217557D01*
X3143206Y38216062D01*
X3140440Y38214266D01*
X3140437Y38214264D01*
X2903586Y38060452D01*
X2817207Y38004357D01*
X2515124Y37759734D01*
X2240266Y37484876D01*
X2238194Y37482318D01*
X2238191Y37482314D01*
X2220712Y37460729D01*
X1995643Y37182793D01*
X1993848Y37180030D01*
X1993848Y37180029D01*
X1802023Y36884642D01*
X1783938Y36856794D01*
X1782443Y36853860D01*
X1782439Y36853853D01*
X1670967Y36635077D01*
X1607468Y36510453D01*
X1468167Y36147562D01*
X1367562Y35772099D01*
X1306754Y35388176D01*
X1286411Y35000000D01*
X508000Y35000000D01*
X508000Y48776366D01*
X1166000Y48776366D01*
X1172755Y48714184D01*
X1223885Y48577795D01*
X1311239Y48461239D01*
X1427795Y48373885D01*
X1564184Y48322755D01*
X1626366Y48316000D01*
X3373634Y48316000D01*
X3435816Y48322755D01*
X3572205Y48373885D01*
X3688761Y48461239D01*
X3776115Y48577795D01*
X3827245Y48714184D01*
X3834000Y48776366D01*
X3834000Y50523634D01*
X3827245Y50585816D01*
X3776115Y50722205D01*
X3688761Y50838761D01*
X3572205Y50926115D01*
X3435816Y50977245D01*
X3373634Y50984000D01*
X3368769Y50984000D01*
X3368441Y50984096D01*
X3366820Y50984184D01*
X3366841Y50984566D01*
X3300648Y51004002D01*
X3257238Y51051376D01*
X3232666Y51098124D01*
X2512812Y51817978D01*
X2498868Y51825592D01*
X2497035Y51825461D01*
X2490420Y51821210D01*
X1766613Y51097403D01*
X1741917Y51052177D01*
X1741354Y51049593D01*
X1691142Y50999401D01*
X1633157Y50984607D01*
X1633180Y50984184D01*
X1631046Y50984068D01*
X1630778Y50984000D01*
X1626366Y50984000D01*
X1564184Y50977245D01*
X1427795Y50926115D01*
X1311239Y50838761D01*
X1223885Y50722205D01*
X1172755Y50585816D01*
X1166000Y50523634D01*
X1166000Y48776366D01*
X508000Y48776366D01*
X508000Y52184525D01*
X1161885Y52184525D01*
X1181263Y51963036D01*
X1183166Y51952241D01*
X1240710Y51737484D01*
X1244456Y51727192D01*
X1338421Y51525684D01*
X1343899Y51516198D01*
X1384199Y51458642D01*
X1394677Y51450267D01*
X1408125Y51457335D01*
X2127978Y52177188D01*
X2134356Y52188868D01*
X2864408Y52188868D01*
X2864539Y52187035D01*
X2868790Y52180420D01*
X3592597Y51456613D01*
X3604371Y51450183D01*
X3616387Y51459480D01*
X3656101Y51516198D01*
X3661579Y51525684D01*
X3755544Y51727192D01*
X3759290Y51737484D01*
X3816834Y51952241D01*
X3818737Y51963036D01*
X3838115Y52184525D01*
X3838115Y52195475D01*
X3818737Y52416964D01*
X3816834Y52427759D01*
X3759290Y52642516D01*
X3755544Y52652808D01*
X3661579Y52854316D01*
X3656101Y52863802D01*
X3615801Y52921358D01*
X3605323Y52929733D01*
X3591875Y52922665D01*
X2872022Y52202812D01*
X2864408Y52188868D01*
X2134356Y52188868D01*
X2135592Y52191132D01*
X2135461Y52192965D01*
X2131210Y52199580D01*
X1407403Y52923387D01*
X1395629Y52929817D01*
X1383613Y52920520D01*
X1343899Y52863802D01*
X1338421Y52854316D01*
X1244456Y52652808D01*
X1240710Y52642516D01*
X1183166Y52427759D01*
X1181263Y52416964D01*
X1161885Y52195475D01*
X1161885Y52184525D01*
X508000Y52184525D01*
X508000Y62344525D01*
X1161885Y62344525D01*
X1181263Y62123036D01*
X1183166Y62112241D01*
X1240710Y61897484D01*
X1244456Y61887192D01*
X1338421Y61685684D01*
X1343899Y61676198D01*
X1384199Y61618642D01*
X1394677Y61610267D01*
X1408125Y61617335D01*
X2127978Y62337188D01*
X2134356Y62348868D01*
X2864408Y62348868D01*
X2864539Y62347035D01*
X2868790Y62340420D01*
X3592597Y61616613D01*
X3604371Y61610183D01*
X3616387Y61619480D01*
X3656101Y61676198D01*
X3661579Y61685684D01*
X3755544Y61887192D01*
X3759290Y61897484D01*
X3816834Y62112241D01*
X3818737Y62123036D01*
X3838115Y62344525D01*
X3838115Y62355475D01*
X3818737Y62576964D01*
X3816834Y62587759D01*
X3759290Y62802516D01*
X3755544Y62812808D01*
X3661579Y63014316D01*
X3656101Y63023802D01*
X3615801Y63081358D01*
X3605323Y63089733D01*
X3591875Y63082665D01*
X2872022Y62362812D01*
X2864408Y62348868D01*
X2134356Y62348868D01*
X2135592Y62351132D01*
X2135461Y62352965D01*
X2131210Y62359580D01*
X1407403Y63083387D01*
X1395629Y63089817D01*
X1383613Y63080520D01*
X1343899Y63023802D01*
X1338421Y63014316D01*
X1244456Y62812808D01*
X1240710Y62802516D01*
X1183166Y62587759D01*
X1181263Y62576964D01*
X1161885Y62355475D01*
X1161885Y62344525D01*
X508000Y62344525D01*
X508000Y63455323D01*
X1760267Y63455323D01*
X1767335Y63441875D01*
X2487188Y62722022D01*
X2501132Y62714408D01*
X2502965Y62714539D01*
X2509580Y62718790D01*
X3233387Y63442597D01*
X3239817Y63454371D01*
X3230520Y63466387D01*
X3173802Y63506101D01*
X3164316Y63511579D01*
X2962808Y63605544D01*
X2952516Y63609290D01*
X2737759Y63666834D01*
X2726964Y63668737D01*
X2505475Y63688115D01*
X2494525Y63688115D01*
X2273036Y63668737D01*
X2262241Y63666834D01*
X2047484Y63609290D01*
X2037192Y63605544D01*
X1835684Y63511579D01*
X1826198Y63506101D01*
X1768642Y63465801D01*
X1760267Y63455323D01*
X508000Y63455323D01*
X508000Y66735629D01*
X3180183Y66735629D01*
X3189480Y66723613D01*
X3246198Y66683899D01*
X3255684Y66678421D01*
X3457192Y66584456D01*
X3467484Y66580710D01*
X3682241Y66523166D01*
X3693036Y66521263D01*
X3914525Y66501885D01*
X3925475Y66501885D01*
X4146964Y66521263D01*
X4157759Y66523166D01*
X4372516Y66580710D01*
X4382808Y66584456D01*
X4584316Y66678421D01*
X4593802Y66683899D01*
X4651358Y66724199D01*
X4659733Y66734677D01*
X4652665Y66748125D01*
X3932812Y67467978D01*
X3918868Y67475592D01*
X3917035Y67475461D01*
X3910420Y67471210D01*
X3186613Y66747403D01*
X3180183Y66735629D01*
X508000Y66735629D01*
X508000Y67834525D01*
X2581885Y67834525D01*
X2601263Y67613036D01*
X2603166Y67602241D01*
X2660710Y67387484D01*
X2664456Y67377192D01*
X2758421Y67175684D01*
X2763899Y67166198D01*
X2804199Y67108642D01*
X2814677Y67100267D01*
X2828125Y67107335D01*
X3547978Y67827188D01*
X3555592Y67841132D01*
X3555461Y67842965D01*
X3551210Y67849580D01*
X2827403Y68573387D01*
X2815629Y68579817D01*
X2803613Y68570520D01*
X2763899Y68513802D01*
X2758421Y68504316D01*
X2664456Y68302808D01*
X2660710Y68292516D01*
X2603166Y68077759D01*
X2601263Y68066964D01*
X2581885Y67845475D01*
X2581885Y67834525D01*
X508000Y67834525D01*
X508000Y68945323D01*
X3180267Y68945323D01*
X3187335Y68931875D01*
X3907188Y68212022D01*
X3921132Y68204408D01*
X3922965Y68204539D01*
X3929580Y68208790D01*
X4653387Y68932597D01*
X4659817Y68944371D01*
X4650520Y68956387D01*
X4593802Y68996101D01*
X4584316Y69001579D01*
X4382808Y69095544D01*
X4372516Y69099290D01*
X4157759Y69156834D01*
X4146964Y69158737D01*
X3925475Y69178115D01*
X3914525Y69178115D01*
X3693036Y69158737D01*
X3682241Y69156834D01*
X3467484Y69099290D01*
X3457192Y69095544D01*
X3255684Y69001579D01*
X3246198Y68996101D01*
X3188642Y68955801D01*
X3180267Y68945323D01*
X508000Y68945323D01*
X508000Y69366000D01*
X528002Y69434121D01*
X581658Y69480614D01*
X634000Y69492000D01*
X49527631Y69492000D01*
X49595752Y69471998D01*
G37*
%TD.AperFunction*%
%TA.AperFunction,Conductor*%
G36*
X43403376Y44812718D02*
G01*
X43462172Y44772924D01*
X43490120Y44707660D01*
X43491011Y44692701D01*
X43491011Y37306782D01*
X43471009Y37238661D01*
X43417353Y37192168D01*
X43347079Y37182064D01*
X43332400Y37185075D01*
X43233312Y37211625D01*
X43222519Y37213528D01*
X43005475Y37232517D01*
X42994525Y37232517D01*
X42777481Y37213528D01*
X42766688Y37211625D01*
X42556239Y37155236D01*
X42545947Y37151490D01*
X42348489Y37059414D01*
X42338994Y37053931D01*
X42286952Y37017491D01*
X42278576Y37007012D01*
X42285644Y36993566D01*
X43270115Y36009095D01*
X43304141Y35946783D01*
X43299076Y35875968D01*
X43270115Y35830905D01*
X42284923Y34845713D01*
X42278493Y34833938D01*
X42287789Y34821923D01*
X42338994Y34786069D01*
X42348489Y34780586D01*
X42545947Y34688510D01*
X42556239Y34684764D01*
X42766688Y34628375D01*
X42777481Y34626472D01*
X42994525Y34607483D01*
X43005475Y34607483D01*
X43222519Y34626472D01*
X43233312Y34628375D01*
X43332400Y34654925D01*
X43403376Y34653235D01*
X43462172Y34613441D01*
X43490120Y34548176D01*
X43491011Y34533218D01*
X43491011Y33939106D01*
X43471009Y33870985D01*
X43454106Y33850011D01*
X41774500Y32170405D01*
X41712188Y32136379D01*
X41685405Y32133500D01*
X40111813Y32133500D01*
X40043692Y32153502D01*
X39997199Y32207158D01*
X39987095Y32277432D01*
X40010987Y32335065D01*
X40067786Y32410852D01*
X40076324Y32426446D01*
X40121478Y32546894D01*
X40125105Y32562149D01*
X40130631Y32613014D01*
X40131000Y32619828D01*
X40131000Y33217885D01*
X40126525Y33233124D01*
X40125135Y33234329D01*
X40117452Y33236000D01*
X39069615Y33236000D01*
X39054376Y33231525D01*
X39053171Y33230135D01*
X39051500Y33222452D01*
X39051500Y32174616D01*
X39055975Y32159377D01*
X39057365Y32158172D01*
X39065048Y32156501D01*
X39453161Y32156501D01*
X39521282Y32136499D01*
X39567775Y32082843D01*
X39577879Y32012569D01*
X39550247Y31950187D01*
X39534703Y31931397D01*
X39526712Y31922616D01*
X36747747Y29143652D01*
X36739461Y29136112D01*
X36732982Y29132000D01*
X36727557Y29126223D01*
X36686357Y29082349D01*
X36683602Y29079507D01*
X36663865Y29059770D01*
X36661385Y29056573D01*
X36653682Y29047553D01*
X36623414Y29015321D01*
X36619595Y29008375D01*
X36619593Y29008372D01*
X36613652Y28997566D01*
X36602801Y28981047D01*
X36590386Y28965041D01*
X36587241Y28957772D01*
X36587238Y28957768D01*
X36572826Y28924463D01*
X36567609Y28913813D01*
X36546305Y28875060D01*
X36544334Y28867385D01*
X36544334Y28867384D01*
X36541267Y28855438D01*
X36534863Y28836734D01*
X36526819Y28818145D01*
X36525580Y28810322D01*
X36525577Y28810312D01*
X36519901Y28774476D01*
X36517495Y28762856D01*
X36506500Y28720030D01*
X36506500Y28699776D01*
X36504949Y28680066D01*
X36501780Y28660057D01*
X36502526Y28652165D01*
X36505941Y28616039D01*
X36506500Y28604181D01*
X36506500Y27755782D01*
X36486498Y27687661D01*
X36432842Y27641168D01*
X36362568Y27631064D01*
X36327270Y27643282D01*
X36326752Y27642118D01*
X36158319Y27717109D01*
X36158318Y27717109D01*
X36152288Y27719794D01*
X36058887Y27739647D01*
X35971944Y27758128D01*
X35971939Y27758128D01*
X35965487Y27759500D01*
X35774513Y27759500D01*
X35768061Y27758128D01*
X35768056Y27758128D01*
X35681113Y27739647D01*
X35587712Y27719794D01*
X35581682Y27717109D01*
X35581681Y27717109D01*
X35419278Y27644803D01*
X35419276Y27644802D01*
X35413248Y27642118D01*
X35407907Y27638238D01*
X35407906Y27638237D01*
X35396464Y27629924D01*
X35309060Y27566421D01*
X35242194Y27542563D01*
X35173042Y27558643D01*
X35160944Y27566418D01*
X35073536Y27629924D01*
X35062094Y27638237D01*
X35062093Y27638238D01*
X35056752Y27642118D01*
X35050724Y27644802D01*
X35050722Y27644803D01*
X34888319Y27717109D01*
X34888318Y27717109D01*
X34882288Y27719794D01*
X34788887Y27739647D01*
X34701944Y27758128D01*
X34701939Y27758128D01*
X34695487Y27759500D01*
X34504513Y27759500D01*
X34498061Y27758128D01*
X34498056Y27758128D01*
X34411113Y27739647D01*
X34317712Y27719794D01*
X34311682Y27717109D01*
X34311681Y27717109D01*
X34245540Y27687661D01*
X34143248Y27642118D01*
X34142323Y27644196D01*
X34083512Y27629924D01*
X34016419Y27653141D01*
X33972528Y27708945D01*
X33963500Y27755782D01*
X33963500Y29091232D01*
X33964027Y29102415D01*
X33965702Y29109908D01*
X33964642Y29143652D01*
X33963562Y29177998D01*
X33963500Y29181956D01*
X33963500Y29209856D01*
X33962996Y29213847D01*
X33962063Y29225689D01*
X33960923Y29261964D01*
X33960674Y29269889D01*
X33955021Y29289348D01*
X33951012Y29308707D01*
X33950846Y29310017D01*
X33948474Y29328797D01*
X33945558Y29336163D01*
X33945556Y29336169D01*
X33932200Y29369902D01*
X33928355Y29381132D01*
X33918230Y29415983D01*
X33918230Y29415984D01*
X33916019Y29423593D01*
X33905705Y29441034D01*
X33897008Y29458787D01*
X33892472Y29470242D01*
X33889552Y29477617D01*
X33863563Y29513388D01*
X33857047Y29523308D01*
X33838578Y29554537D01*
X33834542Y29561362D01*
X33820221Y29575683D01*
X33807380Y29590717D01*
X33800131Y29600694D01*
X33795472Y29607107D01*
X33761395Y29635298D01*
X33752616Y29643288D01*
X31418148Y31977756D01*
X31384122Y32040068D01*
X31389187Y32110883D01*
X31431734Y32167719D01*
X31474629Y32188557D01*
X31591598Y32219898D01*
X31630188Y32230238D01*
X31630190Y32230239D01*
X31635498Y32231661D01*
X31649502Y32238191D01*
X31842061Y32327983D01*
X31842066Y32327986D01*
X31847048Y32330309D01*
X31851557Y32333466D01*
X32033743Y32461034D01*
X32033746Y32461036D01*
X32038254Y32464193D01*
X32203307Y32629246D01*
X32208431Y32636563D01*
X32291712Y32755501D01*
X32337191Y32820452D01*
X32338774Y32823847D01*
X32389766Y32872466D01*
X32459480Y32885900D01*
X32525390Y32859512D01*
X32556147Y32824017D01*
X32557809Y32820452D01*
X32603288Y32755501D01*
X32686570Y32636563D01*
X32691693Y32629246D01*
X32856746Y32464193D01*
X32861254Y32461036D01*
X32861257Y32461034D01*
X33043443Y32333466D01*
X33047952Y32330309D01*
X33052934Y32327986D01*
X33052939Y32327983D01*
X33245498Y32238191D01*
X33259502Y32231661D01*
X33264810Y32230239D01*
X33264812Y32230238D01*
X33479653Y32172672D01*
X33479655Y32172672D01*
X33484968Y32171248D01*
X33717500Y32150904D01*
X33950032Y32171248D01*
X33955345Y32172672D01*
X33955347Y32172672D01*
X34170188Y32230238D01*
X34170190Y32230239D01*
X34175498Y32231661D01*
X34189502Y32238191D01*
X34382061Y32327983D01*
X34382066Y32327986D01*
X34387048Y32330309D01*
X34391557Y32333466D01*
X34573743Y32461034D01*
X34573746Y32461036D01*
X34578254Y32464193D01*
X34743307Y32629246D01*
X34748431Y32636563D01*
X34831712Y32755501D01*
X34877191Y32820452D01*
X34878774Y32823847D01*
X34929766Y32872466D01*
X34999480Y32885900D01*
X35065390Y32859512D01*
X35096147Y32824017D01*
X35097809Y32820452D01*
X35143288Y32755501D01*
X35226570Y32636563D01*
X35231693Y32629246D01*
X35396746Y32464193D01*
X35401254Y32461036D01*
X35401257Y32461034D01*
X35583443Y32333466D01*
X35587952Y32330309D01*
X35592934Y32327986D01*
X35592939Y32327983D01*
X35785498Y32238191D01*
X35799502Y32231661D01*
X35804810Y32230239D01*
X35804812Y32230238D01*
X36019653Y32172672D01*
X36019655Y32172672D01*
X36024968Y32171248D01*
X36257500Y32150904D01*
X36490032Y32171248D01*
X36495345Y32172672D01*
X36495347Y32172672D01*
X36710188Y32230238D01*
X36710190Y32230239D01*
X36715498Y32231661D01*
X36729502Y32238191D01*
X36922061Y32327983D01*
X36922066Y32327986D01*
X36927048Y32330309D01*
X36931557Y32333466D01*
X37113743Y32461034D01*
X37113746Y32461036D01*
X37118254Y32464193D01*
X37261663Y32607602D01*
X37323975Y32641628D01*
X37394790Y32636563D01*
X37451626Y32594016D01*
X37470309Y32554128D01*
X37470748Y32554293D01*
X37472818Y32548772D01*
X37473340Y32547657D01*
X37473521Y32546896D01*
X37518676Y32426446D01*
X37527214Y32410851D01*
X37603715Y32308776D01*
X37616276Y32296215D01*
X37718351Y32219714D01*
X37733946Y32211176D01*
X37854394Y32166022D01*
X37869649Y32162395D01*
X37920514Y32156869D01*
X37927328Y32156500D01*
X38525385Y32156500D01*
X38540624Y32160975D01*
X38541829Y32162365D01*
X38543500Y32170048D01*
X38543500Y33762115D01*
X39051500Y33762115D01*
X39055975Y33746876D01*
X39057365Y33745671D01*
X39065048Y33744000D01*
X40112884Y33744000D01*
X40128123Y33748475D01*
X40129328Y33749865D01*
X40130999Y33757548D01*
X40130999Y34360169D01*
X40130629Y34366990D01*
X40125105Y34417852D01*
X40121479Y34433104D01*
X40076324Y34553554D01*
X40067786Y34569149D01*
X39991285Y34671224D01*
X39978724Y34683785D01*
X39876649Y34760286D01*
X39861054Y34768824D01*
X39740606Y34813978D01*
X39725351Y34817605D01*
X39674486Y34823131D01*
X39667672Y34823500D01*
X39069615Y34823500D01*
X39054376Y34819025D01*
X39053171Y34817635D01*
X39051500Y34809952D01*
X39051500Y33762115D01*
X38543500Y33762115D01*
X38543500Y34805384D01*
X38539025Y34820623D01*
X38537635Y34821828D01*
X38529952Y34823499D01*
X37927331Y34823499D01*
X37920510Y34823129D01*
X37869648Y34817605D01*
X37854396Y34813979D01*
X37733946Y34768824D01*
X37718351Y34760286D01*
X37616276Y34683785D01*
X37603715Y34671224D01*
X37527214Y34569149D01*
X37518676Y34553554D01*
X37473521Y34433104D01*
X37473340Y34432343D01*
X37473037Y34431812D01*
X37470748Y34425707D01*
X37469760Y34426077D01*
X37438120Y34370698D01*
X37375164Y34337879D01*
X37304459Y34344308D01*
X37261663Y34372398D01*
X37118254Y34515807D01*
X37113746Y34518964D01*
X37113743Y34518966D01*
X36931557Y34646534D01*
X36931555Y34646535D01*
X36927048Y34649691D01*
X36922066Y34652014D01*
X36922061Y34652017D01*
X36720480Y34746016D01*
X36720478Y34746017D01*
X36715498Y34748339D01*
X36710190Y34749761D01*
X36710188Y34749762D01*
X36495347Y34807328D01*
X36495345Y34807328D01*
X36490032Y34808752D01*
X36257500Y34829096D01*
X36024968Y34808752D01*
X36019655Y34807328D01*
X36019653Y34807328D01*
X35804812Y34749762D01*
X35804810Y34749761D01*
X35799502Y34748339D01*
X35794522Y34746017D01*
X35794520Y34746016D01*
X35592939Y34652017D01*
X35592934Y34652014D01*
X35587952Y34649691D01*
X35583445Y34646535D01*
X35583443Y34646534D01*
X35401257Y34518966D01*
X35401254Y34518964D01*
X35396746Y34515807D01*
X35231693Y34350754D01*
X35228536Y34346246D01*
X35228534Y34346243D01*
X35206375Y34314596D01*
X35097809Y34159548D01*
X35096226Y34156153D01*
X35045234Y34107534D01*
X34975520Y34094100D01*
X34909610Y34120488D01*
X34878853Y34155983D01*
X34877191Y34159548D01*
X34768625Y34314596D01*
X34746466Y34346243D01*
X34746464Y34346246D01*
X34743307Y34350754D01*
X34578254Y34515807D01*
X34573746Y34518964D01*
X34573743Y34518966D01*
X34391557Y34646534D01*
X34391555Y34646535D01*
X34387048Y34649691D01*
X34382066Y34652014D01*
X34382061Y34652017D01*
X34180480Y34746016D01*
X34180478Y34746017D01*
X34175498Y34748339D01*
X34170190Y34749761D01*
X34170188Y34749762D01*
X33955347Y34807328D01*
X33955345Y34807328D01*
X33950032Y34808752D01*
X33717500Y34829096D01*
X33484968Y34808752D01*
X33479655Y34807328D01*
X33479653Y34807328D01*
X33264812Y34749762D01*
X33264810Y34749761D01*
X33259502Y34748339D01*
X33254522Y34746017D01*
X33254520Y34746016D01*
X33052939Y34652017D01*
X33052934Y34652014D01*
X33047952Y34649691D01*
X33043445Y34646535D01*
X33043443Y34646534D01*
X32861257Y34518966D01*
X32861254Y34518964D01*
X32856746Y34515807D01*
X32691693Y34350754D01*
X32688536Y34346246D01*
X32688534Y34346243D01*
X32666375Y34314596D01*
X32557809Y34159548D01*
X32556226Y34156153D01*
X32505234Y34107534D01*
X32435520Y34094100D01*
X32369610Y34120488D01*
X32338853Y34155983D01*
X32337191Y34159548D01*
X32228625Y34314596D01*
X32206466Y34346243D01*
X32206464Y34346246D01*
X32203307Y34350754D01*
X32038254Y34515807D01*
X32033746Y34518964D01*
X32033743Y34518966D01*
X31851557Y34646534D01*
X31851555Y34646535D01*
X31847048Y34649691D01*
X31842066Y34652014D01*
X31842061Y34652017D01*
X31640480Y34746016D01*
X31640478Y34746017D01*
X31635498Y34748339D01*
X31630190Y34749761D01*
X31630188Y34749762D01*
X31415347Y34807328D01*
X31415345Y34807328D01*
X31410032Y34808752D01*
X31177500Y34829096D01*
X30944968Y34808752D01*
X30939655Y34807328D01*
X30939653Y34807328D01*
X30724812Y34749762D01*
X30724810Y34749761D01*
X30719502Y34748339D01*
X30714522Y34746017D01*
X30714520Y34746016D01*
X30512939Y34652017D01*
X30512934Y34652014D01*
X30507952Y34649691D01*
X30503445Y34646535D01*
X30503443Y34646534D01*
X30321257Y34518966D01*
X30321254Y34518964D01*
X30316746Y34515807D01*
X30151693Y34350754D01*
X30148536Y34346246D01*
X30148534Y34346243D01*
X30067216Y34230109D01*
X30017809Y34159548D01*
X30015486Y34154566D01*
X30015483Y34154561D01*
X29921484Y33952980D01*
X29919161Y33947998D01*
X29917739Y33942690D01*
X29917738Y33942688D01*
X29876058Y33787133D01*
X29839107Y33726510D01*
X29775246Y33695489D01*
X29704752Y33703917D01*
X29665255Y33730649D01*
X29487875Y33908030D01*
X29170404Y34225501D01*
X29136379Y34287813D01*
X29133500Y34314596D01*
X29133500Y35914525D01*
X41687483Y35914525D01*
X41706472Y35697481D01*
X41708375Y35686688D01*
X41764764Y35476239D01*
X41768510Y35465947D01*
X41860586Y35268489D01*
X41866069Y35258994D01*
X41902509Y35206952D01*
X41912988Y35198576D01*
X41926434Y35205644D01*
X42627978Y35907188D01*
X42635592Y35921132D01*
X42635461Y35922965D01*
X42631210Y35929580D01*
X41925713Y36635077D01*
X41913938Y36641507D01*
X41901923Y36632211D01*
X41866069Y36581006D01*
X41860586Y36571511D01*
X41768510Y36374053D01*
X41764764Y36363761D01*
X41708375Y36153312D01*
X41706472Y36142519D01*
X41687483Y35925475D01*
X41687483Y35914525D01*
X29133500Y35914525D01*
X29133500Y43493508D01*
X29153502Y43561629D01*
X29207158Y43608122D01*
X29277432Y43618226D01*
X29285697Y43616755D01*
X29398056Y43592872D01*
X29398061Y43592872D01*
X29404513Y43591500D01*
X29595487Y43591500D01*
X29601939Y43592872D01*
X29601944Y43592872D01*
X29688888Y43611353D01*
X29782288Y43631206D01*
X29788319Y43633891D01*
X29950722Y43706197D01*
X29950724Y43706198D01*
X29956752Y43708882D01*
X30111253Y43821134D01*
X30115668Y43826037D01*
X30120580Y43830460D01*
X30121705Y43829211D01*
X30175014Y43862051D01*
X30208200Y43866500D01*
X41341233Y43866500D01*
X41352416Y43865973D01*
X41359909Y43864298D01*
X41367835Y43864547D01*
X41367836Y43864547D01*
X41427986Y43866438D01*
X41431945Y43866500D01*
X41459856Y43866500D01*
X41463791Y43866997D01*
X41463856Y43867005D01*
X41475693Y43867938D01*
X41507951Y43868952D01*
X41511970Y43869078D01*
X41519889Y43869327D01*
X41539343Y43874979D01*
X41558700Y43878987D01*
X41570930Y43880532D01*
X41570931Y43880532D01*
X41578797Y43881526D01*
X41586168Y43884445D01*
X41586170Y43884445D01*
X41619912Y43897804D01*
X41631142Y43901649D01*
X41665983Y43911771D01*
X41665984Y43911771D01*
X41673593Y43913982D01*
X41680412Y43918015D01*
X41680417Y43918017D01*
X41691028Y43924293D01*
X41708776Y43932988D01*
X41727617Y43940448D01*
X41763387Y43966436D01*
X41773307Y43972952D01*
X41804535Y43991420D01*
X41804538Y43991422D01*
X41811362Y43995458D01*
X41825683Y44009779D01*
X41840717Y44022620D01*
X41850694Y44029869D01*
X41857107Y44034528D01*
X41885298Y44068605D01*
X41893288Y44077384D01*
X42586752Y44770848D01*
X42649064Y44804874D01*
X42708459Y44803459D01*
X42766591Y44787882D01*
X42766602Y44787880D01*
X42771913Y44786457D01*
X43000000Y44766502D01*
X43228087Y44786457D01*
X43332401Y44814408D01*
X43403376Y44812718D01*
G37*
%TD.AperFunction*%
%TD*%
M02*
