%FSLAX45Y45*%
G04 Gerber Fmt 4.5, Leading zero omitted, Abs format (unit mm)*
G04 Created by KiCad (PCBNEW 6.0.2+dfsg-1) date 2022-06-19 17:26:45*
%MOMM*%
%LPD*%
G01*
G04 APERTURE LIST*
%TA.AperFunction,Profile*%
%ADD10C,0.100000*%
%TD*%
%ADD11C,0.200000*%
G04 APERTURE END LIST*
D10*
X10000000Y-3300000D02*
X17000000Y-3300000D01*
X17000000Y-3300000D02*
X17000000Y-10300000D01*
X17000000Y-10300000D02*
X10000000Y-10300000D01*
X10000000Y-10300000D02*
X10000000Y-3300000D01*
D11*
X10252619Y-10615476D02*
X10252619Y-10415476D01*
X10300238Y-10415476D01*
X10328810Y-10425000D01*
X10347857Y-10444048D01*
X10357381Y-10463095D01*
X10366905Y-10501190D01*
X10366905Y-10529762D01*
X10357381Y-10567857D01*
X10347857Y-10586905D01*
X10328810Y-10605952D01*
X10300238Y-10615476D01*
X10252619Y-10615476D01*
X10452619Y-10615476D02*
X10452619Y-10482143D01*
X10452619Y-10520238D02*
X10462143Y-10501190D01*
X10471667Y-10491667D01*
X10490714Y-10482143D01*
X10509762Y-10482143D01*
X10576429Y-10615476D02*
X10576429Y-10482143D01*
X10576429Y-10415476D02*
X10566905Y-10425000D01*
X10576429Y-10434524D01*
X10585952Y-10425000D01*
X10576429Y-10415476D01*
X10576429Y-10434524D01*
X10700238Y-10615476D02*
X10681190Y-10605952D01*
X10671667Y-10586905D01*
X10671667Y-10415476D01*
X10805000Y-10615476D02*
X10785952Y-10605952D01*
X10776429Y-10586905D01*
X10776429Y-10415476D01*
X11033571Y-10615476D02*
X11033571Y-10415476D01*
X11100238Y-10558333D01*
X11166905Y-10415476D01*
X11166905Y-10615476D01*
X11347857Y-10615476D02*
X11347857Y-10510714D01*
X11338333Y-10491667D01*
X11319286Y-10482143D01*
X11281190Y-10482143D01*
X11262143Y-10491667D01*
X11347857Y-10605952D02*
X11328809Y-10615476D01*
X11281190Y-10615476D01*
X11262143Y-10605952D01*
X11252619Y-10586905D01*
X11252619Y-10567857D01*
X11262143Y-10548810D01*
X11281190Y-10539286D01*
X11328809Y-10539286D01*
X11347857Y-10529762D01*
X11443095Y-10482143D02*
X11443095Y-10682143D01*
X11443095Y-10491667D02*
X11462143Y-10482143D01*
X11500238Y-10482143D01*
X11519286Y-10491667D01*
X11528809Y-10501190D01*
X11538333Y-10520238D01*
X11538333Y-10577381D01*
X11528809Y-10596429D01*
X11519286Y-10605952D01*
X11500238Y-10615476D01*
X11462143Y-10615476D01*
X11443095Y-10605952D01*
X11624048Y-10596429D02*
X11633571Y-10605952D01*
X11624048Y-10615476D01*
X11614524Y-10605952D01*
X11624048Y-10596429D01*
X11624048Y-10615476D01*
X11624048Y-10491667D02*
X11633571Y-10501190D01*
X11624048Y-10510714D01*
X11614524Y-10501190D01*
X11624048Y-10491667D01*
X11624048Y-10510714D01*
M02*
