M48
; DRILL file {KiCad 6.0.2+dfsg-1} date dim 19 jun 2022 17:26:45
; FORMAT={-:-/ absolute / metric / decimal}
; #@! TF.CreationDate,2022-06-19T17:26:45+02:00
; #@! TF.GenerationSoftware,Kicad,Pcbnew,6.0.2+dfsg-1
; #@! TF.FileFunction,Plated,1,2,PTH
FMAT,2
METRIC
; #@! TA.AperFunction,Plated,PTH,ViaDrill
T1C0.400
; #@! TA.AperFunction,Plated,PTH,ComponentDrill
T2C0.600
; #@! TA.AperFunction,Plated,PTH,ComponentDrill
T3C0.762
; #@! TA.AperFunction,Plated,PTH,ComponentDrill
T4C0.800
; #@! TA.AperFunction,Plated,PTH,ComponentDrill
T5C0.889
; #@! TA.AperFunction,Plated,PTH,ComponentDrill
T6C0.900
; #@! TA.AperFunction,Plated,PTH,ComponentDrill
T7C1.000
; #@! TA.AperFunction,Plated,PTH,ComponentDrill
T8C1.168
; #@! TA.AperFunction,Plated,PTH,ComponentDrill
T9C3.200
%
G90
G05
T1
X106.5Y-48.5
X107.0Y-47.0
X112.0Y-46.5
X113.988Y-41.012
X114.0Y-39.5
X114.0Y-48.5
X115.5Y-55.5
X116.5Y-35.0
X116.5Y-37.5
X116.5Y-46.0
X121.0Y-47.0
X121.262Y-58.238
X121.5Y-39.5
X121.5Y-70.5
X121.5Y-72.5
X123.5Y-40.5
X124.383Y-44.141
X126.5Y-53.5
X126.5Y-100.0
X128.0Y-55.5
X128.1Y-40.5
X128.5Y-49.5
X129.0Y-35.0
X129.5Y-58.5
X130.5Y-38.5
X132.0Y-55.0
X132.0Y-98.5
X132.5Y-37.5
X132.983Y-56.724
X133.0Y-49.0
X133.5Y-47.5
X134.0Y-36.5
X138.5Y-35.5
X141.5Y-44.0
X142.0Y-51.5
X142.5Y-54.0
X145.0Y-80.5
X145.5Y-36.5
X146.0Y-40.5
X146.0Y-45.0
X146.0Y-81.5
X147.0Y-83.0
X147.017Y-53.276
X147.408Y-42.488
X148.0Y-84.0
X149.0Y-55.0
X149.0Y-89.0
X150.5Y-40.5
X153.9Y-62.0
X154.0Y-51.0
X154.0Y-73.0
X154.0Y-84.0
X161.5Y-45.5
T2
X128.261Y-76.519
X128.261Y-77.789
X129.52Y-76.149
X130.79Y-76.149
X132.06Y-76.149
X133.33Y-76.149
X134.6Y-76.149
X135.87Y-76.149
X137.14Y-76.149
X138.41Y-76.149
X139.68Y-76.149
X140.95Y-76.149
X142.22Y-76.149
X142.22Y-90.119
X143.49Y-76.149
X143.49Y-90.119
T3
X113.715Y-89.92
T4
X127.0Y-56.92
X127.0Y-67.08
X143.0Y-56.92
X143.0Y-67.08
T5
X102.5Y-40.65
X102.5Y-43.19
X102.5Y-45.73
X102.5Y-48.27
X102.5Y-50.81
X102.5Y-53.35
X103.92Y-35.16
X106.46Y-35.16
X109.0Y-35.16
X111.54Y-35.16
X113.715Y-92.46
X113.715Y-95.0
X113.715Y-97.54
X113.715Y-100.08
X114.08Y-35.16
X115.35Y-75.46
X115.35Y-78.0
X115.35Y-80.54
X115.35Y-83.08
X119.368Y-59.19
X119.368Y-61.73
X119.368Y-64.27
X119.368Y-66.81
X131.177Y-69.51
X132.46Y-101.0
X133.718Y-69.51
X135.0Y-101.0
X136.257Y-69.51
X137.54Y-101.0
X138.797Y-69.51
X150.46Y-43.0
X150.69Y-35.0
X153.0Y-43.0
X153.23Y-35.0
X155.54Y-43.0
X155.77Y-35.0
X158.31Y-35.0
T6
X150.73Y-38.5
X153.27Y-38.5
T7
X163.5Y-92.7
X163.5Y-100.3
T8
X165.95Y-36.0
X165.95Y-41.0
X165.95Y-47.5
X165.95Y-52.5
X165.95Y-62.5
X165.95Y-67.5
X165.95Y-77.5
X165.95Y-82.5
T9
X105.0Y-68.0
X105.0Y-98.0
X145.0Y-98.0
T0
M30
