%TF.GenerationSoftware,KiCad,Pcbnew,6.0.2+dfsg-1*%
%TF.CreationDate,2022-06-19T17:26:26+02:00*%
%TF.ProjectId,PlantSensor,506c616e-7453-4656-9e73-6f722e6b6963,3*%
%TF.SameCoordinates,PX5f5e100PY623a7c0*%
%TF.FileFunction,Legend,Top*%
%TF.FilePolarity,Positive*%
%FSLAX46Y46*%
G04 Gerber Fmt 4.6, Leading zero omitted, Abs format (unit mm)*
G04 Created by KiCad (PCBNEW 6.0.2+dfsg-1) date 2022-06-19 17:26:26*
%MOMM*%
%LPD*%
G01*
G04 APERTURE LIST*
G04 Aperture macros list*
%AMRoundRect*
0 Rectangle with rounded corners*
0 $1 Rounding radius*
0 $2 $3 $4 $5 $6 $7 $8 $9 X,Y pos of 4 corners*
0 Add a 4 corners polygon primitive as box body*
4,1,4,$2,$3,$4,$5,$6,$7,$8,$9,$2,$3,0*
0 Add four circle primitives for the rounded corners*
1,1,$1+$1,$2,$3*
1,1,$1+$1,$4,$5*
1,1,$1+$1,$6,$7*
1,1,$1+$1,$8,$9*
0 Add four rect primitives between the rounded corners*
20,1,$1+$1,$2,$3,$4,$5,0*
20,1,$1+$1,$4,$5,$6,$7,0*
20,1,$1+$1,$6,$7,$8,$9,0*
20,1,$1+$1,$8,$9,$2,$3,0*%
G04 Aperture macros list end*
%ADD10C,0.150000*%
%ADD11C,0.200000*%
%ADD12C,0.101600*%
%ADD13C,0.120000*%
%ADD14C,0.127000*%
%ADD15C,0.066040*%
%ADD16C,0.508000*%
%ADD17RoundRect,0.250000X0.312500X0.625000X-0.312500X0.625000X-0.312500X-0.625000X0.312500X-0.625000X0*%
%ADD18RoundRect,0.250000X0.325000X0.650000X-0.325000X0.650000X-0.325000X-0.650000X0.325000X-0.650000X0*%
%ADD19R,1.651000X1.651000*%
%ADD20C,1.651000*%
%ADD21R,2.000000X2.000000*%
%ADD22C,2.000000*%
%ADD23RoundRect,0.250000X0.625000X-0.312500X0.625000X0.312500X-0.625000X0.312500X-0.625000X-0.312500X0*%
%ADD24R,0.900000X1.200000*%
%ADD25C,1.600000*%
%ADD26O,1.600000X1.600000*%
%ADD27RoundRect,0.250000X0.650000X-0.325000X0.650000X0.325000X-0.650000X0.325000X-0.650000X-0.325000X0*%
%ADD28R,2.032000X2.032000*%
%ADD29C,2.032000*%
%ADD30RoundRect,0.250000X-0.625000X0.312500X-0.625000X-0.312500X0.625000X-0.312500X0.625000X0.312500X0*%
%ADD31R,2.200000X1.200000*%
%ADD32R,6.400000X5.800000*%
%ADD33C,1.524000*%
%ADD34RoundRect,0.250000X-0.325000X-0.650000X0.325000X-0.650000X0.325000X0.650000X-0.325000X0.650000X0*%
%ADD35C,6.400000*%
%ADD36RoundRect,0.250000X-0.650000X0.325000X-0.650000X-0.325000X0.650000X-0.325000X0.650000X0.325000X0*%
%ADD37R,2.000000X0.900000*%
%ADD38R,0.900000X2.000000*%
%ADD39R,5.000000X5.000000*%
%ADD40RoundRect,0.150000X0.150000X-0.512500X0.150000X0.512500X-0.150000X0.512500X-0.150000X-0.512500X0*%
%ADD41RoundRect,0.225000X-0.225000X0.975000X-0.225000X-0.975000X0.225000X-0.975000X0.225000X0.975000X0*%
%ADD42C,0.800000*%
%ADD43RoundRect,0.225000X-0.975000X-0.225000X0.975000X-0.225000X0.975000X0.225000X-0.975000X0.225000X0*%
%ADD44RoundRect,0.225000X0.225000X-0.975000X0.225000X0.975000X-0.225000X0.975000X-0.225000X-0.975000X0*%
G04 APERTURE END LIST*
D10*
X48571428Y2095239D02*
X48571428Y4095239D01*
X48571428Y3333334D02*
X48761904Y3428572D01*
X49142857Y3428572D01*
X49333333Y3333334D01*
X49428571Y3238096D01*
X49523809Y3047620D01*
X49523809Y2476191D01*
X49428571Y2285715D01*
X49333333Y2190477D01*
X49142857Y2095239D01*
X48761904Y2095239D01*
X48571428Y2190477D01*
X51238095Y3428572D02*
X51238095Y2095239D01*
X50380952Y3428572D02*
X50380952Y2380953D01*
X50476190Y2190477D01*
X50666666Y2095239D01*
X50952380Y2095239D01*
X51142857Y2190477D01*
X51238095Y2285715D01*
X52000000Y3428572D02*
X53047619Y3428572D01*
X52000000Y2095239D01*
X53047619Y2095239D01*
X53619047Y3428572D02*
X54666666Y3428572D01*
X53619047Y2095239D01*
X54666666Y2095239D01*
X56190476Y2190477D02*
X56000000Y2095239D01*
X55619047Y2095239D01*
X55428571Y2190477D01*
X55333333Y2380953D01*
X55333333Y3142858D01*
X55428571Y3333334D01*
X55619047Y3428572D01*
X56000000Y3428572D01*
X56190476Y3333334D01*
X56285714Y3142858D01*
X56285714Y2952381D01*
X55333333Y2761905D01*
X57142857Y2095239D02*
X57142857Y3428572D01*
X57142857Y3047620D02*
X57238095Y3238096D01*
X57333333Y3333334D01*
X57523809Y3428572D01*
X57714285Y3428572D01*
X26857142Y8690477D02*
X27142857Y8595239D01*
X27619047Y8595239D01*
X27809523Y8690477D01*
X27904761Y8785715D01*
X28000000Y8976191D01*
X28000000Y9166667D01*
X27904761Y9357143D01*
X27809523Y9452381D01*
X27619047Y9547620D01*
X27238095Y9642858D01*
X27047619Y9738096D01*
X26952380Y9833334D01*
X26857142Y10023810D01*
X26857142Y10214286D01*
X26952380Y10404762D01*
X27047619Y10500000D01*
X27238095Y10595239D01*
X27714285Y10595239D01*
X28000000Y10500000D01*
X29142857Y8595239D02*
X28952380Y8690477D01*
X28857142Y8785715D01*
X28761904Y8976191D01*
X28761904Y9547620D01*
X28857142Y9738096D01*
X28952380Y9833334D01*
X29142857Y9928572D01*
X29428571Y9928572D01*
X29619047Y9833334D01*
X29714285Y9738096D01*
X29809523Y9547620D01*
X29809523Y8976191D01*
X29714285Y8785715D01*
X29619047Y8690477D01*
X29428571Y8595239D01*
X29142857Y8595239D01*
X30666666Y8595239D02*
X30666666Y9928572D01*
X30666666Y10595239D02*
X30571428Y10500000D01*
X30666666Y10404762D01*
X30761904Y10500000D01*
X30666666Y10595239D01*
X30666666Y10404762D01*
X31904761Y8595239D02*
X31714285Y8690477D01*
X31619047Y8880953D01*
X31619047Y10595239D01*
X34095238Y8690477D02*
X34285714Y8595239D01*
X34666666Y8595239D01*
X34857142Y8690477D01*
X34952380Y8880953D01*
X34952380Y8976191D01*
X34857142Y9166667D01*
X34666666Y9261905D01*
X34380952Y9261905D01*
X34190476Y9357143D01*
X34095238Y9547620D01*
X34095238Y9642858D01*
X34190476Y9833334D01*
X34380952Y9928572D01*
X34666666Y9928572D01*
X34857142Y9833334D01*
X36571428Y8690477D02*
X36380952Y8595239D01*
X36000000Y8595239D01*
X35809523Y8690477D01*
X35714285Y8880953D01*
X35714285Y9642858D01*
X35809523Y9833334D01*
X36000000Y9928572D01*
X36380952Y9928572D01*
X36571428Y9833334D01*
X36666666Y9642858D01*
X36666666Y9452381D01*
X35714285Y9261905D01*
X37523809Y9928572D02*
X37523809Y8595239D01*
X37523809Y9738096D02*
X37619047Y9833334D01*
X37809523Y9928572D01*
X38095238Y9928572D01*
X38285714Y9833334D01*
X38380952Y9642858D01*
X38380952Y8595239D01*
X39238095Y8690477D02*
X39428571Y8595239D01*
X39809523Y8595239D01*
X40000000Y8690477D01*
X40095238Y8880953D01*
X40095238Y8976191D01*
X40000000Y9166667D01*
X39809523Y9261905D01*
X39523809Y9261905D01*
X39333333Y9357143D01*
X39238095Y9547620D01*
X39238095Y9642858D01*
X39333333Y9833334D01*
X39523809Y9928572D01*
X39809523Y9928572D01*
X40000000Y9833334D01*
X41238095Y8595239D02*
X41047619Y8690477D01*
X40952380Y8785715D01*
X40857142Y8976191D01*
X40857142Y9547620D01*
X40952380Y9738096D01*
X41047619Y9833334D01*
X41238095Y9928572D01*
X41523809Y9928572D01*
X41714285Y9833334D01*
X41809523Y9738096D01*
X41904761Y9547620D01*
X41904761Y8976191D01*
X41809523Y8785715D01*
X41714285Y8690477D01*
X41523809Y8595239D01*
X41238095Y8595239D01*
X42761904Y8595239D02*
X42761904Y9928572D01*
X42761904Y9547620D02*
X42857142Y9738096D01*
X42952380Y9833334D01*
X43142857Y9928572D01*
X43333333Y9928572D01*
X3571428Y12000000D02*
X3380952Y12095239D01*
X3095238Y12095239D01*
X2809523Y12000000D01*
X2619047Y11809524D01*
X2523809Y11619048D01*
X2428571Y11238096D01*
X2428571Y10952381D01*
X2523809Y10571429D01*
X2619047Y10380953D01*
X2809523Y10190477D01*
X3095238Y10095239D01*
X3285714Y10095239D01*
X3571428Y10190477D01*
X3666666Y10285715D01*
X3666666Y10952381D01*
X3285714Y10952381D01*
X4523809Y10095239D02*
X4523809Y12095239D01*
X5285714Y12095239D01*
X5476190Y12000000D01*
X5571428Y11904762D01*
X5666666Y11714286D01*
X5666666Y11428572D01*
X5571428Y11238096D01*
X5476190Y11142858D01*
X5285714Y11047620D01*
X4523809Y11047620D01*
X6428571Y10190477D02*
X6714285Y10095239D01*
X7190476Y10095239D01*
X7380952Y10190477D01*
X7476190Y10285715D01*
X7571428Y10476191D01*
X7571428Y10666667D01*
X7476190Y10857143D01*
X7380952Y10952381D01*
X7190476Y11047620D01*
X6809523Y11142858D01*
X6619047Y11238096D01*
X6523809Y11333334D01*
X6428571Y11523810D01*
X6428571Y11714286D01*
X6523809Y11904762D01*
X6619047Y12000000D01*
X6809523Y12095239D01*
X7285714Y12095239D01*
X7571428Y12000000D01*
X31047619Y43095239D02*
X31047619Y45095239D01*
X31047619Y43190477D02*
X30857142Y43095239D01*
X30476190Y43095239D01*
X30285714Y43190477D01*
X30190476Y43285715D01*
X30095238Y43476191D01*
X30095238Y44047620D01*
X30190476Y44238096D01*
X30285714Y44333334D01*
X30476190Y44428572D01*
X30857142Y44428572D01*
X31047619Y44333334D01*
X32000000Y43095239D02*
X32000000Y44428572D01*
X32000000Y45095239D02*
X31904761Y45000000D01*
X32000000Y44904762D01*
X32095238Y45000000D01*
X32000000Y45095239D01*
X32000000Y44904762D01*
X32857142Y43190477D02*
X33047619Y43095239D01*
X33428571Y43095239D01*
X33619047Y43190477D01*
X33714285Y43380953D01*
X33714285Y43476191D01*
X33619047Y43666667D01*
X33428571Y43761905D01*
X33142857Y43761905D01*
X32952380Y43857143D01*
X32857142Y44047620D01*
X32857142Y44142858D01*
X32952380Y44333334D01*
X33142857Y44428572D01*
X33428571Y44428572D01*
X33619047Y44333334D01*
X34571428Y44428572D02*
X34571428Y42428572D01*
X34571428Y44333334D02*
X34761904Y44428572D01*
X35142857Y44428572D01*
X35333333Y44333334D01*
X35428571Y44238096D01*
X35523809Y44047620D01*
X35523809Y43476191D01*
X35428571Y43285715D01*
X35333333Y43190477D01*
X35142857Y43095239D01*
X34761904Y43095239D01*
X34571428Y43190477D01*
X36666666Y43095239D02*
X36476190Y43190477D01*
X36380952Y43380953D01*
X36380952Y45095239D01*
X38285714Y43095239D02*
X38285714Y44142858D01*
X38190476Y44333334D01*
X38000000Y44428572D01*
X37619047Y44428572D01*
X37428571Y44333334D01*
X38285714Y43190477D02*
X38095238Y43095239D01*
X37619047Y43095239D01*
X37428571Y43190477D01*
X37333333Y43380953D01*
X37333333Y43571429D01*
X37428571Y43761905D01*
X37619047Y43857143D01*
X38095238Y43857143D01*
X38285714Y43952381D01*
X39047619Y44428572D02*
X39523809Y43095239D01*
X40000000Y44428572D02*
X39523809Y43095239D01*
X39333333Y42619048D01*
X39238095Y42523810D01*
X39047619Y42428572D01*
X8873928Y11651429D02*
X8873928Y13151429D01*
X9369166Y13151429D01*
X9492976Y13080000D01*
X9554880Y13008572D01*
X9616785Y12865715D01*
X9616785Y12651429D01*
X9554880Y12508572D01*
X9492976Y12437143D01*
X9369166Y12365715D01*
X8873928Y12365715D01*
X10173928Y11651429D02*
X10173928Y13151429D01*
X10669166Y13151429D01*
X10792976Y13080000D01*
X10854880Y13008572D01*
X10916785Y12865715D01*
X10916785Y12651429D01*
X10854880Y12508572D01*
X10792976Y12437143D01*
X10669166Y12365715D01*
X10173928Y12365715D01*
X11412023Y11722858D02*
X11597738Y11651429D01*
X11907261Y11651429D01*
X12031071Y11722858D01*
X12092976Y11794286D01*
X12154880Y11937143D01*
X12154880Y12080000D01*
X12092976Y12222858D01*
X12031071Y12294286D01*
X11907261Y12365715D01*
X11659642Y12437143D01*
X11535833Y12508572D01*
X11473928Y12580000D01*
X11412023Y12722858D01*
X11412023Y12865715D01*
X11473928Y13008572D01*
X11535833Y13080000D01*
X11659642Y13151429D01*
X11969166Y13151429D01*
X12154880Y13080000D01*
X10916785Y9236429D02*
X10483452Y9950715D01*
X10173928Y9236429D02*
X10173928Y10736429D01*
X10669166Y10736429D01*
X10792976Y10665000D01*
X10854880Y10593572D01*
X10916785Y10450715D01*
X10916785Y10236429D01*
X10854880Y10093572D01*
X10792976Y10022143D01*
X10669166Y9950715D01*
X10173928Y9950715D01*
X11350119Y10736429D02*
X12216785Y9236429D01*
X12216785Y10736429D02*
X11350119Y9236429D01*
X10297738Y8321429D02*
X11040595Y8321429D01*
X10669166Y6821429D02*
X10669166Y8321429D01*
X11350119Y8321429D02*
X12216785Y6821429D01*
X12216785Y8321429D02*
X11350119Y6821429D01*
X9431071Y5835000D02*
X9307261Y5906429D01*
X9121547Y5906429D01*
X8935833Y5835000D01*
X8812023Y5692143D01*
X8750119Y5549286D01*
X8688214Y5263572D01*
X8688214Y5049286D01*
X8750119Y4763572D01*
X8812023Y4620715D01*
X8935833Y4477858D01*
X9121547Y4406429D01*
X9245357Y4406429D01*
X9431071Y4477858D01*
X9492976Y4549286D01*
X9492976Y5049286D01*
X9245357Y5049286D01*
X10050119Y4406429D02*
X10050119Y5906429D01*
X10792976Y4406429D01*
X10792976Y5906429D01*
X11412023Y4406429D02*
X11412023Y5906429D01*
X11721547Y5906429D01*
X11907261Y5835000D01*
X12031071Y5692143D01*
X12092976Y5549286D01*
X12154880Y5263572D01*
X12154880Y5049286D01*
X12092976Y4763572D01*
X12031071Y4620715D01*
X11907261Y4477858D01*
X11721547Y4406429D01*
X11412023Y4406429D01*
X8997738Y3491429D02*
X9802500Y3491429D01*
X9369166Y2920000D01*
X9554880Y2920000D01*
X9678690Y2848572D01*
X9740595Y2777143D01*
X9802500Y2634286D01*
X9802500Y2277143D01*
X9740595Y2134286D01*
X9678690Y2062858D01*
X9554880Y1991429D01*
X9183452Y1991429D01*
X9059642Y2062858D01*
X8997738Y2134286D01*
X10173928Y3491429D02*
X10607261Y1991429D01*
X11040595Y3491429D01*
X11350119Y3491429D02*
X12154880Y3491429D01*
X11721547Y2920000D01*
X11907261Y2920000D01*
X12031071Y2848572D01*
X12092976Y2777143D01*
X12154880Y2634286D01*
X12154880Y2277143D01*
X12092976Y2134286D01*
X12031071Y2062858D01*
X11907261Y1991429D01*
X11535833Y1991429D01*
X11412023Y2062858D01*
X11350119Y2134286D01*
X25666666Y1833334D02*
X26142857Y1833334D01*
X25571428Y1547620D02*
X25904761Y2547620D01*
X26238095Y1547620D01*
X26571428Y2214286D02*
X26571428Y1547620D01*
X26571428Y2119048D02*
X26619047Y2166667D01*
X26714285Y2214286D01*
X26857142Y2214286D01*
X26952380Y2166667D01*
X27000000Y2071429D01*
X27000000Y1547620D01*
X28428571Y2547620D02*
X28619047Y2547620D01*
X28714285Y2500000D01*
X28809523Y2404762D01*
X28857142Y2214286D01*
X28857142Y1880953D01*
X28809523Y1690477D01*
X28714285Y1595239D01*
X28619047Y1547620D01*
X28428571Y1547620D01*
X28333333Y1595239D01*
X28238095Y1690477D01*
X28190476Y1880953D01*
X28190476Y2214286D01*
X28238095Y2404762D01*
X28333333Y2500000D01*
X28428571Y2547620D01*
X29714285Y2214286D02*
X29714285Y1547620D01*
X29285714Y2214286D02*
X29285714Y1690477D01*
X29333333Y1595239D01*
X29428571Y1547620D01*
X29571428Y1547620D01*
X29666666Y1595239D01*
X29714285Y1642858D01*
X30047619Y2214286D02*
X30428571Y2214286D01*
X30190476Y2547620D02*
X30190476Y1690477D01*
X30238095Y1595239D01*
X30333333Y1547620D01*
X30428571Y1547620D01*
X33309523Y18095239D02*
X32357142Y18095239D01*
X32357142Y20095239D01*
X34261904Y18095239D02*
X34071428Y18190477D01*
X33976190Y18285715D01*
X33880952Y18476191D01*
X33880952Y19047620D01*
X33976190Y19238096D01*
X34071428Y19333334D01*
X34261904Y19428572D01*
X34547619Y19428572D01*
X34738095Y19333334D01*
X34833333Y19238096D01*
X34928571Y19047620D01*
X34928571Y18476191D01*
X34833333Y18285715D01*
X34738095Y18190477D01*
X34547619Y18095239D01*
X34261904Y18095239D01*
X36928571Y18095239D02*
X36261904Y19047620D01*
X35785714Y18095239D02*
X35785714Y20095239D01*
X36547619Y20095239D01*
X36738095Y20000000D01*
X36833333Y19904762D01*
X36928571Y19714286D01*
X36928571Y19428572D01*
X36833333Y19238096D01*
X36738095Y19142858D01*
X36547619Y19047620D01*
X35785714Y19047620D01*
X38642857Y18095239D02*
X38642857Y19142858D01*
X38547619Y19333334D01*
X38357142Y19428572D01*
X37976190Y19428572D01*
X37785714Y19333334D01*
X38642857Y18190477D02*
X38452380Y18095239D01*
X37976190Y18095239D01*
X37785714Y18190477D01*
X37690476Y18380953D01*
X37690476Y18571429D01*
X37785714Y18761905D01*
X37976190Y18857143D01*
X38452380Y18857143D01*
X38642857Y18952381D01*
X50214285Y61797620D02*
X50214285Y62797620D01*
X50595238Y62797620D01*
X50690476Y62750000D01*
X50738095Y62702381D01*
X50785714Y62607143D01*
X50785714Y62464286D01*
X50738095Y62369048D01*
X50690476Y62321429D01*
X50595238Y62273810D01*
X50214285Y62273810D01*
X51785714Y61797620D02*
X51452380Y62273810D01*
X51214285Y61797620D02*
X51214285Y62797620D01*
X51595238Y62797620D01*
X51690476Y62750000D01*
X51738095Y62702381D01*
X51785714Y62607143D01*
X51785714Y62464286D01*
X51738095Y62369048D01*
X51690476Y62321429D01*
X51595238Y62273810D01*
X51214285Y62273810D01*
X52404761Y62797620D02*
X52595238Y62797620D01*
X52690476Y62750000D01*
X52785714Y62654762D01*
X52833333Y62464286D01*
X52833333Y62130953D01*
X52785714Y61940477D01*
X52690476Y61845239D01*
X52595238Y61797620D01*
X52404761Y61797620D01*
X52309523Y61845239D01*
X52214285Y61940477D01*
X52166666Y62130953D01*
X52166666Y62464286D01*
X52214285Y62654762D01*
X52309523Y62750000D01*
X52404761Y62797620D01*
X53785714Y62750000D02*
X53690476Y62797620D01*
X53547619Y62797620D01*
X53404761Y62750000D01*
X53309523Y62654762D01*
X53261904Y62559524D01*
X53214285Y62369048D01*
X53214285Y62226191D01*
X53261904Y62035715D01*
X53309523Y61940477D01*
X53404761Y61845239D01*
X53547619Y61797620D01*
X53642857Y61797620D01*
X53785714Y61845239D01*
X53833333Y61892858D01*
X53833333Y62226191D01*
X53642857Y62226191D01*
X39738095Y2500000D02*
X39642857Y2547620D01*
X39500000Y2547620D01*
X39357142Y2500000D01*
X39261904Y2404762D01*
X39214285Y2309524D01*
X39166666Y2119048D01*
X39166666Y1976191D01*
X39214285Y1785715D01*
X39261904Y1690477D01*
X39357142Y1595239D01*
X39500000Y1547620D01*
X39595238Y1547620D01*
X39738095Y1595239D01*
X39785714Y1642858D01*
X39785714Y1976191D01*
X39595238Y1976191D01*
X40214285Y1547620D02*
X40214285Y2547620D01*
X40785714Y1547620D01*
X40785714Y2547620D01*
X41261904Y1547620D02*
X41261904Y2547620D01*
X41500000Y2547620D01*
X41642857Y2500000D01*
X41738095Y2404762D01*
X41785714Y2309524D01*
X41833333Y2119048D01*
X41833333Y1976191D01*
X41785714Y1785715D01*
X41738095Y1690477D01*
X41642857Y1595239D01*
X41500000Y1547620D01*
X41261904Y1547620D01*
X28857142Y29595239D02*
X29000000Y29547620D01*
X29238095Y29547620D01*
X29333333Y29595239D01*
X29380952Y29642858D01*
X29428571Y29738096D01*
X29428571Y29833334D01*
X29380952Y29928572D01*
X29333333Y29976191D01*
X29238095Y30023810D01*
X29047619Y30071429D01*
X28952380Y30119048D01*
X28904761Y30166667D01*
X28857142Y30261905D01*
X28857142Y30357143D01*
X28904761Y30452381D01*
X28952380Y30500000D01*
X29047619Y30547620D01*
X29285714Y30547620D01*
X29428571Y30500000D01*
X29857142Y29547620D02*
X29857142Y30547620D01*
X30095238Y30547620D01*
X30238095Y30500000D01*
X30333333Y30404762D01*
X30380952Y30309524D01*
X30428571Y30119048D01*
X30428571Y29976191D01*
X30380952Y29785715D01*
X30333333Y29690477D01*
X30238095Y29595239D01*
X30095238Y29547620D01*
X29857142Y29547620D01*
X30809523Y29833334D02*
X31285714Y29833334D01*
X30714285Y29547620D02*
X31047619Y30547620D01*
X31380952Y29547620D01*
X32428571Y29595239D02*
X32571428Y29547620D01*
X32809523Y29547620D01*
X32904761Y29595239D01*
X32952380Y29642858D01*
X33000000Y29738096D01*
X33000000Y29833334D01*
X32952380Y29928572D01*
X32904761Y29976191D01*
X32809523Y30023810D01*
X32619047Y30071429D01*
X32523809Y30119048D01*
X32476190Y30166667D01*
X32428571Y30261905D01*
X32428571Y30357143D01*
X32476190Y30452381D01*
X32523809Y30500000D01*
X32619047Y30547620D01*
X32857142Y30547620D01*
X33000000Y30500000D01*
X34000000Y29642858D02*
X33952380Y29595239D01*
X33809523Y29547620D01*
X33714285Y29547620D01*
X33571428Y29595239D01*
X33476190Y29690477D01*
X33428571Y29785715D01*
X33380952Y29976191D01*
X33380952Y30119048D01*
X33428571Y30309524D01*
X33476190Y30404762D01*
X33571428Y30500000D01*
X33714285Y30547620D01*
X33809523Y30547620D01*
X33952380Y30500000D01*
X34000000Y30452381D01*
X34904761Y29547620D02*
X34428571Y29547620D01*
X34428571Y30547620D01*
X35904761Y30547620D02*
X36523809Y30547620D01*
X36190476Y30166667D01*
X36333333Y30166667D01*
X36428571Y30119048D01*
X36476190Y30071429D01*
X36523809Y29976191D01*
X36523809Y29738096D01*
X36476190Y29642858D01*
X36428571Y29595239D01*
X36333333Y29547620D01*
X36047619Y29547620D01*
X35952380Y29595239D01*
X35904761Y29642858D01*
X36809523Y30547620D02*
X37142857Y29547620D01*
X37476190Y30547620D01*
X37714285Y30547620D02*
X38333333Y30547620D01*
X38000000Y30166667D01*
X38142857Y30166667D01*
X38238095Y30119048D01*
X38285714Y30071429D01*
X38333333Y29976191D01*
X38333333Y29738096D01*
X38285714Y29642858D01*
X38238095Y29595239D01*
X38142857Y29547620D01*
X37857142Y29547620D01*
X37761904Y29595239D01*
X37714285Y29642858D01*
X40047619Y30500000D02*
X39952380Y30547620D01*
X39809523Y30547620D01*
X39666666Y30500000D01*
X39571428Y30404762D01*
X39523809Y30309524D01*
X39476190Y30119048D01*
X39476190Y29976191D01*
X39523809Y29785715D01*
X39571428Y29690477D01*
X39666666Y29595239D01*
X39809523Y29547620D01*
X39904761Y29547620D01*
X40047619Y29595239D01*
X40095238Y29642858D01*
X40095238Y29976191D01*
X39904761Y29976191D01*
X40523809Y29547620D02*
X40523809Y30547620D01*
X41095238Y29547620D01*
X41095238Y30547620D01*
X41571428Y29547620D02*
X41571428Y30547620D01*
X41809523Y30547620D01*
X41952380Y30500000D01*
X42047619Y30404762D01*
X42095238Y30309524D01*
X42142857Y30119048D01*
X42142857Y29976191D01*
X42095238Y29785715D01*
X42047619Y29690477D01*
X41952380Y29595239D01*
X41809523Y29547620D01*
X41571428Y29547620D01*
X6821428Y44236429D02*
X6821428Y45736429D01*
X7178571Y45736429D01*
X7392857Y45665000D01*
X7535714Y45522143D01*
X7607142Y45379286D01*
X7678571Y45093572D01*
X7678571Y44879286D01*
X7607142Y44593572D01*
X7535714Y44450715D01*
X7392857Y44307858D01*
X7178571Y44236429D01*
X6821428Y44236429D01*
X8321428Y44236429D02*
X8321428Y45736429D01*
X8321428Y45022143D02*
X9178571Y45022143D01*
X9178571Y44236429D02*
X9178571Y45736429D01*
X9678571Y45736429D02*
X10535714Y45736429D01*
X10107142Y44236429D02*
X10107142Y45736429D01*
X11821428Y44236429D02*
X10964285Y44236429D01*
X11392857Y44236429D02*
X11392857Y45736429D01*
X11250000Y45522143D01*
X11107142Y45379286D01*
X10964285Y45307858D01*
X13250000Y44236429D02*
X12392857Y44236429D01*
X12821428Y44236429D02*
X12821428Y45736429D01*
X12678571Y45522143D01*
X12535714Y45379286D01*
X12392857Y45307858D01*
X5607142Y41821429D02*
X5607142Y43321429D01*
X6250000Y41821429D02*
X6250000Y42607143D01*
X6178571Y42750000D01*
X6035714Y42821429D01*
X5821428Y42821429D01*
X5678571Y42750000D01*
X5607142Y42678572D01*
X7607142Y42821429D02*
X7607142Y41821429D01*
X6964285Y42821429D02*
X6964285Y42035715D01*
X7035714Y41892858D01*
X7178571Y41821429D01*
X7392857Y41821429D01*
X7535714Y41892858D01*
X7607142Y41964286D01*
X8321428Y41821429D02*
X8321428Y42821429D01*
X8321428Y42678572D02*
X8392857Y42750000D01*
X8535714Y42821429D01*
X8750000Y42821429D01*
X8892857Y42750000D01*
X8964285Y42607143D01*
X8964285Y41821429D01*
X8964285Y42607143D02*
X9035714Y42750000D01*
X9178571Y42821429D01*
X9392857Y42821429D01*
X9535714Y42750000D01*
X9607142Y42607143D01*
X9607142Y41821429D01*
X10321428Y41821429D02*
X10321428Y42821429D01*
X10321428Y43321429D02*
X10250000Y43250000D01*
X10321428Y43178572D01*
X10392857Y43250000D01*
X10321428Y43321429D01*
X10321428Y43178572D01*
X11678571Y41821429D02*
X11678571Y43321429D01*
X11678571Y41892858D02*
X11535714Y41821429D01*
X11250000Y41821429D01*
X11107142Y41892858D01*
X11035714Y41964286D01*
X10964285Y42107143D01*
X10964285Y42535715D01*
X11035714Y42678572D01*
X11107142Y42750000D01*
X11250000Y42821429D01*
X11535714Y42821429D01*
X11678571Y42750000D01*
X12392857Y41821429D02*
X12392857Y42821429D01*
X12392857Y43321429D02*
X12321428Y43250000D01*
X12392857Y43178572D01*
X12464285Y43250000D01*
X12392857Y43321429D01*
X12392857Y43178572D01*
X12892857Y42821429D02*
X13464285Y42821429D01*
X13107142Y43321429D02*
X13107142Y42035715D01*
X13178571Y41892858D01*
X13321428Y41821429D01*
X13464285Y41821429D01*
X13821428Y42821429D02*
X14178571Y41821429D01*
X14535714Y42821429D02*
X14178571Y41821429D01*
X14035714Y41464286D01*
X13964285Y41392858D01*
X13821428Y41321429D01*
X6607142Y39477858D02*
X6750000Y39406429D01*
X7035714Y39406429D01*
X7178571Y39477858D01*
X7250000Y39620715D01*
X7250000Y39692143D01*
X7178571Y39835000D01*
X7035714Y39906429D01*
X6821428Y39906429D01*
X6678571Y39977858D01*
X6607142Y40120715D01*
X6607142Y40192143D01*
X6678571Y40335000D01*
X6821428Y40406429D01*
X7035714Y40406429D01*
X7178571Y40335000D01*
X8464285Y39477858D02*
X8321428Y39406429D01*
X8035714Y39406429D01*
X7892857Y39477858D01*
X7821428Y39620715D01*
X7821428Y40192143D01*
X7892857Y40335000D01*
X8035714Y40406429D01*
X8321428Y40406429D01*
X8464285Y40335000D01*
X8535714Y40192143D01*
X8535714Y40049286D01*
X7821428Y39906429D01*
X9178571Y40406429D02*
X9178571Y39406429D01*
X9178571Y40263572D02*
X9250000Y40335000D01*
X9392857Y40406429D01*
X9607142Y40406429D01*
X9750000Y40335000D01*
X9821428Y40192143D01*
X9821428Y39406429D01*
X10464285Y39477858D02*
X10607142Y39406429D01*
X10892857Y39406429D01*
X11035714Y39477858D01*
X11107142Y39620715D01*
X11107142Y39692143D01*
X11035714Y39835000D01*
X10892857Y39906429D01*
X10678571Y39906429D01*
X10535714Y39977858D01*
X10464285Y40120715D01*
X10464285Y40192143D01*
X10535714Y40335000D01*
X10678571Y40406429D01*
X10892857Y40406429D01*
X11035714Y40335000D01*
X11964285Y39406429D02*
X11821428Y39477858D01*
X11750000Y39549286D01*
X11678571Y39692143D01*
X11678571Y40120715D01*
X11750000Y40263572D01*
X11821428Y40335000D01*
X11964285Y40406429D01*
X12178571Y40406429D01*
X12321428Y40335000D01*
X12392857Y40263572D01*
X12464285Y40120715D01*
X12464285Y39692143D01*
X12392857Y39549286D01*
X12321428Y39477858D01*
X12178571Y39406429D01*
X11964285Y39406429D01*
X13107142Y39406429D02*
X13107142Y40406429D01*
X13107142Y40120715D02*
X13178571Y40263572D01*
X13250000Y40335000D01*
X13392857Y40406429D01*
X13535714Y40406429D01*
X44657142Y24185715D02*
X44657142Y25985715D01*
X45342857Y25985715D01*
X45514285Y25900000D01*
X45600000Y25814286D01*
X45685714Y25642858D01*
X45685714Y25385715D01*
X45600000Y25214286D01*
X45514285Y25128572D01*
X45342857Y25042858D01*
X44657142Y25042858D01*
X46457142Y25985715D02*
X46457142Y24528572D01*
X46542857Y24357143D01*
X46628571Y24271429D01*
X46800000Y24185715D01*
X47142857Y24185715D01*
X47314285Y24271429D01*
X47400000Y24357143D01*
X47485714Y24528572D01*
X47485714Y25985715D01*
X48342857Y24185715D02*
X48342857Y25985715D01*
X48942857Y24700000D01*
X49542857Y25985715D01*
X49542857Y24185715D01*
X50400000Y24185715D02*
X50400000Y25985715D01*
X51085714Y25985715D01*
X51257142Y25900000D01*
X51342857Y25814286D01*
X51428571Y25642858D01*
X51428571Y25385715D01*
X51342857Y25214286D01*
X51257142Y25128572D01*
X51085714Y25042858D01*
X50400000Y25042858D01*
X46511904Y69047620D02*
X47130952Y69047620D01*
X46797619Y68666667D01*
X46940476Y68666667D01*
X47035714Y68619048D01*
X47083333Y68571429D01*
X47130952Y68476191D01*
X47130952Y68238096D01*
X47083333Y68142858D01*
X47035714Y68095239D01*
X46940476Y68047620D01*
X46654761Y68047620D01*
X46559523Y68095239D01*
X46511904Y68142858D01*
X47416666Y69047620D02*
X47750000Y68047620D01*
X48083333Y69047620D01*
X48321428Y69047620D02*
X48940476Y69047620D01*
X48607142Y68666667D01*
X48750000Y68666667D01*
X48845238Y68619048D01*
X48892857Y68571429D01*
X48940476Y68476191D01*
X48940476Y68238096D01*
X48892857Y68142858D01*
X48845238Y68095239D01*
X48750000Y68047620D01*
X48464285Y68047620D01*
X48369047Y68095239D01*
X48321428Y68142858D01*
X5809523Y51595239D02*
X5809523Y52928572D01*
X5809523Y52738096D02*
X5904761Y52833334D01*
X6095238Y52928572D01*
X6380952Y52928572D01*
X6571428Y52833334D01*
X6666666Y52642858D01*
X6666666Y51595239D01*
X6666666Y52642858D02*
X6761904Y52833334D01*
X6952380Y52928572D01*
X7238095Y52928572D01*
X7428571Y52833334D01*
X7523809Y52642858D01*
X7523809Y51595239D01*
X8476190Y51595239D02*
X8476190Y52928572D01*
X8476190Y53595239D02*
X8380952Y53500000D01*
X8476190Y53404762D01*
X8571428Y53500000D01*
X8476190Y53595239D01*
X8476190Y53404762D01*
X10285714Y51690477D02*
X10095238Y51595239D01*
X9714285Y51595239D01*
X9523809Y51690477D01*
X9428571Y51785715D01*
X9333333Y51976191D01*
X9333333Y52547620D01*
X9428571Y52738096D01*
X9523809Y52833334D01*
X9714285Y52928572D01*
X10095238Y52928572D01*
X10285714Y52833334D01*
X4287976Y61620239D02*
X4430833Y61572620D01*
X4668928Y61572620D01*
X4764166Y61620239D01*
X4811785Y61667858D01*
X4859404Y61763096D01*
X4859404Y61858334D01*
X4811785Y61953572D01*
X4764166Y62001191D01*
X4668928Y62048810D01*
X4478452Y62096429D01*
X4383214Y62144048D01*
X4335595Y62191667D01*
X4287976Y62286905D01*
X4287976Y62382143D01*
X4335595Y62477381D01*
X4383214Y62525000D01*
X4478452Y62572620D01*
X4716547Y62572620D01*
X4859404Y62525000D01*
X5287976Y62096429D02*
X5621309Y62096429D01*
X5764166Y61572620D02*
X5287976Y61572620D01*
X5287976Y62572620D01*
X5764166Y62572620D01*
X6668928Y61572620D02*
X6192738Y61572620D01*
X6192738Y62572620D01*
X4811785Y59962620D02*
X4335595Y59962620D01*
X4335595Y60962620D01*
X5716547Y59962620D02*
X5383214Y60438810D01*
X5145119Y59962620D02*
X5145119Y60962620D01*
X5526071Y60962620D01*
X5621309Y60915000D01*
X5668928Y60867381D01*
X5716547Y60772143D01*
X5716547Y60629286D01*
X5668928Y60534048D01*
X5621309Y60486429D01*
X5526071Y60438810D01*
X5145119Y60438810D01*
X6716547Y60057858D02*
X6668928Y60010239D01*
X6526071Y59962620D01*
X6430833Y59962620D01*
X6287976Y60010239D01*
X6192738Y60105477D01*
X6145119Y60200715D01*
X6097500Y60391191D01*
X6097500Y60534048D01*
X6145119Y60724524D01*
X6192738Y60819762D01*
X6287976Y60915000D01*
X6430833Y60962620D01*
X6526071Y60962620D01*
X6668928Y60915000D01*
X6716547Y60867381D01*
X7621309Y59962620D02*
X7145119Y59962620D01*
X7145119Y60962620D01*
X4335595Y58352620D02*
X4335595Y59352620D01*
X4573690Y59352620D01*
X4716547Y59305000D01*
X4811785Y59209762D01*
X4859404Y59114524D01*
X4907023Y58924048D01*
X4907023Y58781191D01*
X4859404Y58590715D01*
X4811785Y58495477D01*
X4716547Y58400239D01*
X4573690Y58352620D01*
X4335595Y58352620D01*
X5526071Y59352620D02*
X5716547Y59352620D01*
X5811785Y59305000D01*
X5907023Y59209762D01*
X5954642Y59019286D01*
X5954642Y58685953D01*
X5907023Y58495477D01*
X5811785Y58400239D01*
X5716547Y58352620D01*
X5526071Y58352620D01*
X5430833Y58400239D01*
X5335595Y58495477D01*
X5287976Y58685953D01*
X5287976Y59019286D01*
X5335595Y59209762D01*
X5430833Y59305000D01*
X5526071Y59352620D01*
X6383214Y59352620D02*
X6383214Y58543096D01*
X6430833Y58447858D01*
X6478452Y58400239D01*
X6573690Y58352620D01*
X6764166Y58352620D01*
X6859404Y58400239D01*
X6907023Y58447858D01*
X6954642Y58543096D01*
X6954642Y59352620D01*
X7287976Y59352620D02*
X7859404Y59352620D01*
X7573690Y58352620D02*
X7573690Y59352620D01*
X4668928Y57266429D02*
X4811785Y57218810D01*
X4859404Y57171191D01*
X4907023Y57075953D01*
X4907023Y56933096D01*
X4859404Y56837858D01*
X4811785Y56790239D01*
X4716547Y56742620D01*
X4335595Y56742620D01*
X4335595Y57742620D01*
X4668928Y57742620D01*
X4764166Y57695000D01*
X4811785Y57647381D01*
X4859404Y57552143D01*
X4859404Y57456905D01*
X4811785Y57361667D01*
X4764166Y57314048D01*
X4668928Y57266429D01*
X4335595Y57266429D01*
X5907023Y56837858D02*
X5859404Y56790239D01*
X5716547Y56742620D01*
X5621309Y56742620D01*
X5478452Y56790239D01*
X5383214Y56885477D01*
X5335595Y56980715D01*
X5287976Y57171191D01*
X5287976Y57314048D01*
X5335595Y57504524D01*
X5383214Y57599762D01*
X5478452Y57695000D01*
X5621309Y57742620D01*
X5716547Y57742620D01*
X5859404Y57695000D01*
X5907023Y57647381D01*
X6811785Y56742620D02*
X6335595Y56742620D01*
X6335595Y57742620D01*
X7145119Y56742620D02*
X7145119Y57742620D01*
X7716547Y56742620D02*
X7287976Y57314048D01*
X7716547Y57742620D02*
X7145119Y57171191D01*
X4859404Y56085000D02*
X4764166Y56132620D01*
X4621309Y56132620D01*
X4478452Y56085000D01*
X4383214Y55989762D01*
X4335595Y55894524D01*
X4287976Y55704048D01*
X4287976Y55561191D01*
X4335595Y55370715D01*
X4383214Y55275477D01*
X4478452Y55180239D01*
X4621309Y55132620D01*
X4716547Y55132620D01*
X4859404Y55180239D01*
X4907023Y55227858D01*
X4907023Y55561191D01*
X4716547Y55561191D01*
X5335595Y55132620D02*
X5335595Y56132620D01*
X5907023Y55132620D01*
X5907023Y56132620D01*
X6383214Y55132620D02*
X6383214Y56132620D01*
X6621309Y56132620D01*
X6764166Y56085000D01*
X6859404Y55989762D01*
X6907023Y55894524D01*
X6954642Y55704048D01*
X6954642Y55561191D01*
X6907023Y55370715D01*
X6859404Y55275477D01*
X6764166Y55180239D01*
X6621309Y55132620D01*
X6383214Y55132620D01*
X4240357Y54522620D02*
X4859404Y54522620D01*
X4526071Y54141667D01*
X4668928Y54141667D01*
X4764166Y54094048D01*
X4811785Y54046429D01*
X4859404Y53951191D01*
X4859404Y53713096D01*
X4811785Y53617858D01*
X4764166Y53570239D01*
X4668928Y53522620D01*
X4383214Y53522620D01*
X4287976Y53570239D01*
X4240357Y53617858D01*
X5145119Y54522620D02*
X5478452Y53522620D01*
X5811785Y54522620D01*
X6049880Y54522620D02*
X6668928Y54522620D01*
X6335595Y54141667D01*
X6478452Y54141667D01*
X6573690Y54094048D01*
X6621309Y54046429D01*
X6668928Y53951191D01*
X6668928Y53713096D01*
X6621309Y53617858D01*
X6573690Y53570239D01*
X6478452Y53522620D01*
X6192738Y53522620D01*
X6097500Y53570239D01*
X6049880Y53617858D01*
X48714285Y57547620D02*
X48619047Y57595239D01*
X48571428Y57642858D01*
X48523809Y57738096D01*
X48523809Y58023810D01*
X48571428Y58119048D01*
X48619047Y58166667D01*
X48714285Y58214286D01*
X48857142Y58214286D01*
X48952380Y58166667D01*
X49000000Y58119048D01*
X49047619Y58023810D01*
X49047619Y57738096D01*
X49000000Y57642858D01*
X48952380Y57595239D01*
X48857142Y57547620D01*
X48714285Y57547620D01*
X49904761Y58214286D02*
X49904761Y57547620D01*
X49476190Y58214286D02*
X49476190Y57690477D01*
X49523809Y57595239D01*
X49619047Y57547620D01*
X49761904Y57547620D01*
X49857142Y57595239D01*
X49904761Y57642858D01*
X50238095Y58214286D02*
X50619047Y58214286D01*
X50380952Y58547620D02*
X50380952Y57690477D01*
X50428571Y57595239D01*
X50523809Y57547620D01*
X50619047Y57547620D01*
X52238095Y58500000D02*
X52142857Y58547620D01*
X52000000Y58547620D01*
X51857142Y58500000D01*
X51761904Y58404762D01*
X51714285Y58309524D01*
X51666666Y58119048D01*
X51666666Y57976191D01*
X51714285Y57785715D01*
X51761904Y57690477D01*
X51857142Y57595239D01*
X52000000Y57547620D01*
X52095238Y57547620D01*
X52238095Y57595239D01*
X52285714Y57642858D01*
X52285714Y57976191D01*
X52095238Y57976191D01*
X52714285Y57547620D02*
X52714285Y58547620D01*
X53285714Y57547620D01*
X53285714Y58547620D01*
X53761904Y57547620D02*
X53761904Y58547620D01*
X54000000Y58547620D01*
X54142857Y58500000D01*
X54238095Y58404762D01*
X54285714Y58309524D01*
X54333333Y58119048D01*
X54333333Y57976191D01*
X54285714Y57785715D01*
X54238095Y57690477D01*
X54142857Y57595239D01*
X54000000Y57547620D01*
X53761904Y57547620D01*
X55523809Y57547620D02*
X55523809Y58214286D01*
X55523809Y58547620D02*
X55476190Y58500000D01*
X55523809Y58452381D01*
X55571428Y58500000D01*
X55523809Y58547620D01*
X55523809Y58452381D01*
X56000000Y58214286D02*
X56000000Y57547620D01*
X56000000Y58119048D02*
X56047619Y58166667D01*
X56142857Y58214286D01*
X56285714Y58214286D01*
X56380952Y58166667D01*
X56428571Y58071429D01*
X56428571Y57547620D01*
X19654761Y67705239D02*
X18702380Y67705239D01*
X18702380Y69705239D01*
X21178571Y69038572D02*
X21178571Y67705239D01*
X20321428Y69038572D02*
X20321428Y67990953D01*
X20416666Y67800477D01*
X20607142Y67705239D01*
X20892857Y67705239D01*
X21083333Y67800477D01*
X21178571Y67895715D01*
X21940476Y67705239D02*
X22988095Y69038572D01*
X21940476Y69038572D02*
X22988095Y67705239D01*
X16988095Y64485239D02*
X16988095Y65818572D01*
X16988095Y65628096D02*
X17083333Y65723334D01*
X17273809Y65818572D01*
X17559523Y65818572D01*
X17750000Y65723334D01*
X17845238Y65532858D01*
X17845238Y64485239D01*
X17845238Y65532858D02*
X17940476Y65723334D01*
X18130952Y65818572D01*
X18416666Y65818572D01*
X18607142Y65723334D01*
X18702380Y65532858D01*
X18702380Y64485239D01*
X20416666Y64580477D02*
X20226190Y64485239D01*
X19845238Y64485239D01*
X19654761Y64580477D01*
X19559523Y64770953D01*
X19559523Y65532858D01*
X19654761Y65723334D01*
X19845238Y65818572D01*
X20226190Y65818572D01*
X20416666Y65723334D01*
X20511904Y65532858D01*
X20511904Y65342381D01*
X19559523Y65151905D01*
X21083333Y65818572D02*
X21845238Y65818572D01*
X21369047Y66485239D02*
X21369047Y64770953D01*
X21464285Y64580477D01*
X21654761Y64485239D01*
X21845238Y64485239D01*
X23273809Y64580477D02*
X23083333Y64485239D01*
X22702380Y64485239D01*
X22511904Y64580477D01*
X22416666Y64770953D01*
X22416666Y65532858D01*
X22511904Y65723334D01*
X22702380Y65818572D01*
X23083333Y65818572D01*
X23273809Y65723334D01*
X23369047Y65532858D01*
X23369047Y65342381D01*
X22416666Y65151905D01*
X24226190Y64485239D02*
X24226190Y65818572D01*
X24226190Y65437620D02*
X24321428Y65628096D01*
X24416666Y65723334D01*
X24607142Y65818572D01*
X24797619Y65818572D01*
X10178571Y26515358D02*
X10392857Y26443929D01*
X10750000Y26443929D01*
X10892857Y26515358D01*
X10964285Y26586786D01*
X11035714Y26729643D01*
X11035714Y26872500D01*
X10964285Y27015358D01*
X10892857Y27086786D01*
X10750000Y27158215D01*
X10464285Y27229643D01*
X10321428Y27301072D01*
X10250000Y27372500D01*
X10178571Y27515358D01*
X10178571Y27658215D01*
X10250000Y27801072D01*
X10321428Y27872500D01*
X10464285Y27943929D01*
X10821428Y27943929D01*
X11035714Y27872500D01*
X11678571Y26443929D02*
X11678571Y27943929D01*
X12035714Y27943929D01*
X12250000Y27872500D01*
X12392857Y27729643D01*
X12464285Y27586786D01*
X12535714Y27301072D01*
X12535714Y27086786D01*
X12464285Y26801072D01*
X12392857Y26658215D01*
X12250000Y26515358D01*
X12035714Y26443929D01*
X11678571Y26443929D01*
X13107142Y26872500D02*
X13821428Y26872500D01*
X12964285Y26443929D02*
X13464285Y27943929D01*
X13964285Y26443929D01*
X10214285Y24100358D02*
X10428571Y24028929D01*
X10785714Y24028929D01*
X10928571Y24100358D01*
X11000000Y24171786D01*
X11071428Y24314643D01*
X11071428Y24457500D01*
X11000000Y24600358D01*
X10928571Y24671786D01*
X10785714Y24743215D01*
X10500000Y24814643D01*
X10357142Y24886072D01*
X10285714Y24957500D01*
X10214285Y25100358D01*
X10214285Y25243215D01*
X10285714Y25386072D01*
X10357142Y25457500D01*
X10500000Y25528929D01*
X10857142Y25528929D01*
X11071428Y25457500D01*
X12571428Y24171786D02*
X12500000Y24100358D01*
X12285714Y24028929D01*
X12142857Y24028929D01*
X11928571Y24100358D01*
X11785714Y24243215D01*
X11714285Y24386072D01*
X11642857Y24671786D01*
X11642857Y24886072D01*
X11714285Y25171786D01*
X11785714Y25314643D01*
X11928571Y25457500D01*
X12142857Y25528929D01*
X12285714Y25528929D01*
X12500000Y25457500D01*
X12571428Y25386072D01*
X13928571Y24028929D02*
X13214285Y24028929D01*
X13214285Y25528929D01*
X10857142Y23042500D02*
X10714285Y23113929D01*
X10500000Y23113929D01*
X10285714Y23042500D01*
X10142857Y22899643D01*
X10071428Y22756786D01*
X10000000Y22471072D01*
X10000000Y22256786D01*
X10071428Y21971072D01*
X10142857Y21828215D01*
X10285714Y21685358D01*
X10500000Y21613929D01*
X10642857Y21613929D01*
X10857142Y21685358D01*
X10928571Y21756786D01*
X10928571Y22256786D01*
X10642857Y22256786D01*
X11571428Y21613929D02*
X11571428Y23113929D01*
X12428571Y21613929D01*
X12428571Y23113929D01*
X13142857Y21613929D02*
X13142857Y23113929D01*
X13500000Y23113929D01*
X13714285Y23042500D01*
X13857142Y22899643D01*
X13928571Y22756786D01*
X14000000Y22471072D01*
X14000000Y22256786D01*
X13928571Y21971072D01*
X13857142Y21828215D01*
X13714285Y21685358D01*
X13500000Y21613929D01*
X13142857Y21613929D01*
X10142857Y20698929D02*
X11071428Y20698929D01*
X10571428Y20127500D01*
X10785714Y20127500D01*
X10928571Y20056072D01*
X11000000Y19984643D01*
X11071428Y19841786D01*
X11071428Y19484643D01*
X11000000Y19341786D01*
X10928571Y19270358D01*
X10785714Y19198929D01*
X10357142Y19198929D01*
X10214285Y19270358D01*
X10142857Y19341786D01*
X11500000Y20698929D02*
X12000000Y19198929D01*
X12500000Y20698929D01*
X12857142Y20698929D02*
X13785714Y20698929D01*
X13285714Y20127500D01*
X13500000Y20127500D01*
X13642857Y20056072D01*
X13714285Y19984643D01*
X13785714Y19841786D01*
X13785714Y19484643D01*
X13714285Y19341786D01*
X13642857Y19270358D01*
X13500000Y19198929D01*
X13071428Y19198929D01*
X12928571Y19270358D01*
X12857142Y19341786D01*
D11*
X58016666Y65008405D02*
X58450000Y63708405D01*
X58883333Y65008405D01*
X60059523Y63832215D02*
X59997619Y63770310D01*
X59811904Y63708405D01*
X59688095Y63708405D01*
X59502380Y63770310D01*
X59378571Y63894120D01*
X59316666Y64017929D01*
X59254761Y64265548D01*
X59254761Y64451262D01*
X59316666Y64698881D01*
X59378571Y64822691D01*
X59502380Y64946500D01*
X59688095Y65008405D01*
X59811904Y65008405D01*
X59997619Y64946500D01*
X60059523Y64884596D01*
X61359523Y63832215D02*
X61297619Y63770310D01*
X61111904Y63708405D01*
X60988095Y63708405D01*
X60802380Y63770310D01*
X60678571Y63894120D01*
X60616666Y64017929D01*
X60554761Y64265548D01*
X60554761Y64451262D01*
X60616666Y64698881D01*
X60678571Y64822691D01*
X60802380Y64946500D01*
X60988095Y65008405D01*
X61111904Y65008405D01*
X61297619Y64946500D01*
X61359523Y64884596D01*
X58759523Y62853500D02*
X58635714Y62915405D01*
X58450000Y62915405D01*
X58264285Y62853500D01*
X58140476Y62729691D01*
X58078571Y62605881D01*
X58016666Y62358262D01*
X58016666Y62172548D01*
X58078571Y61924929D01*
X58140476Y61801120D01*
X58264285Y61677310D01*
X58450000Y61615405D01*
X58573809Y61615405D01*
X58759523Y61677310D01*
X58821428Y61739215D01*
X58821428Y62172548D01*
X58573809Y62172548D01*
X59378571Y61615405D02*
X59378571Y62915405D01*
X60121428Y61615405D01*
X60121428Y62915405D01*
X60740476Y61615405D02*
X60740476Y62915405D01*
X61050000Y62915405D01*
X61235714Y62853500D01*
X61359523Y62729691D01*
X61421428Y62605881D01*
X61483333Y62358262D01*
X61483333Y62172548D01*
X61421428Y61924929D01*
X61359523Y61801120D01*
X61235714Y61677310D01*
X61050000Y61615405D01*
X60740476Y61615405D01*
D10*
X45761904Y46595239D02*
X44809523Y46595239D01*
X44809523Y48595239D01*
X46428571Y47642858D02*
X47095238Y47642858D01*
X47380952Y46595239D02*
X46428571Y46595239D01*
X46428571Y48595239D01*
X47380952Y48595239D01*
X48238095Y46595239D02*
X48238095Y48595239D01*
X48714285Y48595239D01*
X49000000Y48500000D01*
X49190476Y48309524D01*
X49285714Y48119048D01*
X49380952Y47738096D01*
X49380952Y47452381D01*
X49285714Y47071429D01*
X49190476Y46880953D01*
X49000000Y46690477D01*
X48714285Y46595239D01*
X48238095Y46595239D01*
X51285714Y46595239D02*
X50142857Y46595239D01*
X50714285Y46595239D02*
X50714285Y48595239D01*
X50523809Y48309524D01*
X50333333Y48119048D01*
X50142857Y48023810D01*
X45761904Y35095239D02*
X44809523Y35095239D01*
X44809523Y37095239D01*
X46428571Y36142858D02*
X47095238Y36142858D01*
X47380952Y35095239D02*
X46428571Y35095239D01*
X46428571Y37095239D01*
X47380952Y37095239D01*
X48238095Y35095239D02*
X48238095Y37095239D01*
X48714285Y37095239D01*
X49000000Y37000000D01*
X49190476Y36809524D01*
X49285714Y36619048D01*
X49380952Y36238096D01*
X49380952Y35952381D01*
X49285714Y35571429D01*
X49190476Y35380953D01*
X49000000Y35190477D01*
X48714285Y35095239D01*
X48238095Y35095239D01*
X50142857Y36904762D02*
X50238095Y37000000D01*
X50428571Y37095239D01*
X50904761Y37095239D01*
X51095238Y37000000D01*
X51190476Y36904762D01*
X51285714Y36714286D01*
X51285714Y36523810D01*
X51190476Y36238096D01*
X50047619Y35095239D01*
X51285714Y35095239D01*
X1500000Y29528929D02*
X1500000Y31028929D01*
X2071428Y31028929D01*
X2214285Y30957500D01*
X2285714Y30886072D01*
X2357142Y30743215D01*
X2357142Y30528929D01*
X2285714Y30386072D01*
X2214285Y30314643D01*
X2071428Y30243215D01*
X1500000Y30243215D01*
X3000000Y29528929D02*
X3000000Y30528929D01*
X3000000Y30243215D02*
X3071428Y30386072D01*
X3142857Y30457500D01*
X3285714Y30528929D01*
X3428571Y30528929D01*
X4500000Y29600358D02*
X4357142Y29528929D01*
X4071428Y29528929D01*
X3928571Y29600358D01*
X3857142Y29743215D01*
X3857142Y30314643D01*
X3928571Y30457500D01*
X4071428Y30528929D01*
X4357142Y30528929D01*
X4500000Y30457500D01*
X4571428Y30314643D01*
X4571428Y30171786D01*
X3857142Y30028929D01*
X5142857Y29600358D02*
X5285714Y29528929D01*
X5571428Y29528929D01*
X5714285Y29600358D01*
X5785714Y29743215D01*
X5785714Y29814643D01*
X5714285Y29957500D01*
X5571428Y30028929D01*
X5357142Y30028929D01*
X5214285Y30100358D01*
X5142857Y30243215D01*
X5142857Y30314643D01*
X5214285Y30457500D01*
X5357142Y30528929D01*
X5571428Y30528929D01*
X5714285Y30457500D01*
X6357142Y29600358D02*
X6500000Y29528929D01*
X6785714Y29528929D01*
X6928571Y29600358D01*
X7000000Y29743215D01*
X7000000Y29814643D01*
X6928571Y29957500D01*
X6785714Y30028929D01*
X6571428Y30028929D01*
X6428571Y30100358D01*
X6357142Y30243215D01*
X6357142Y30314643D01*
X6428571Y30457500D01*
X6571428Y30528929D01*
X6785714Y30528929D01*
X6928571Y30457500D01*
X8285714Y30528929D02*
X8285714Y29528929D01*
X7642857Y30528929D02*
X7642857Y29743215D01*
X7714285Y29600358D01*
X7857142Y29528929D01*
X8071428Y29528929D01*
X8214285Y29600358D01*
X8285714Y29671786D01*
X9000000Y29528929D02*
X9000000Y30528929D01*
X9000000Y30243215D02*
X9071428Y30386072D01*
X9142857Y30457500D01*
X9285714Y30528929D01*
X9428571Y30528929D01*
X10500000Y29600358D02*
X10357142Y29528929D01*
X10071428Y29528929D01*
X9928571Y29600358D01*
X9857142Y29743215D01*
X9857142Y30314643D01*
X9928571Y30457500D01*
X10071428Y30528929D01*
X10357142Y30528929D01*
X10500000Y30457500D01*
X10571428Y30314643D01*
X10571428Y30171786D01*
X9857142Y30028929D01*
X2607142Y27185358D02*
X2750000Y27113929D01*
X3035714Y27113929D01*
X3178571Y27185358D01*
X3250000Y27328215D01*
X3250000Y27399643D01*
X3178571Y27542500D01*
X3035714Y27613929D01*
X2821428Y27613929D01*
X2678571Y27685358D01*
X2607142Y27828215D01*
X2607142Y27899643D01*
X2678571Y28042500D01*
X2821428Y28113929D01*
X3035714Y28113929D01*
X3178571Y28042500D01*
X4464285Y27185358D02*
X4321428Y27113929D01*
X4035714Y27113929D01*
X3892857Y27185358D01*
X3821428Y27328215D01*
X3821428Y27899643D01*
X3892857Y28042500D01*
X4035714Y28113929D01*
X4321428Y28113929D01*
X4464285Y28042500D01*
X4535714Y27899643D01*
X4535714Y27756786D01*
X3821428Y27613929D01*
X5178571Y28113929D02*
X5178571Y27113929D01*
X5178571Y27971072D02*
X5250000Y28042500D01*
X5392857Y28113929D01*
X5607142Y28113929D01*
X5750000Y28042500D01*
X5821428Y27899643D01*
X5821428Y27113929D01*
X6464285Y27185358D02*
X6607142Y27113929D01*
X6892857Y27113929D01*
X7035714Y27185358D01*
X7107142Y27328215D01*
X7107142Y27399643D01*
X7035714Y27542500D01*
X6892857Y27613929D01*
X6678571Y27613929D01*
X6535714Y27685358D01*
X6464285Y27828215D01*
X6464285Y27899643D01*
X6535714Y28042500D01*
X6678571Y28113929D01*
X6892857Y28113929D01*
X7035714Y28042500D01*
X7964285Y27113929D02*
X7821428Y27185358D01*
X7750000Y27256786D01*
X7678571Y27399643D01*
X7678571Y27828215D01*
X7750000Y27971072D01*
X7821428Y28042500D01*
X7964285Y28113929D01*
X8178571Y28113929D01*
X8321428Y28042500D01*
X8392857Y27971072D01*
X8464285Y27828215D01*
X8464285Y27399643D01*
X8392857Y27256786D01*
X8321428Y27185358D01*
X8178571Y27113929D01*
X7964285Y27113929D01*
X9107142Y27113929D02*
X9107142Y28113929D01*
X9107142Y27828215D02*
X9178571Y27971072D01*
X9250000Y28042500D01*
X9392857Y28113929D01*
X9535714Y28113929D01*
X55595238Y65297620D02*
X55261904Y65773810D01*
X55023809Y65297620D02*
X55023809Y66297620D01*
X55404761Y66297620D01*
X55500000Y66250000D01*
X55547619Y66202381D01*
X55595238Y66107143D01*
X55595238Y65964286D01*
X55547619Y65869048D01*
X55500000Y65821429D01*
X55404761Y65773810D01*
X55023809Y65773810D01*
X55928571Y66297620D02*
X56595238Y65297620D01*
X56595238Y66297620D02*
X55928571Y65297620D01*
X57595238Y66297620D02*
X58166666Y66297620D01*
X57880952Y65297620D02*
X57880952Y66297620D01*
X58404761Y66297620D02*
X59071428Y65297620D01*
X59071428Y66297620D02*
X58404761Y65297620D01*
%TO.C,R2*%
X58833333Y44727620D02*
X58500000Y45203810D01*
X58261904Y44727620D02*
X58261904Y45727620D01*
X58642857Y45727620D01*
X58738095Y45680000D01*
X58785714Y45632381D01*
X58833333Y45537143D01*
X58833333Y45394286D01*
X58785714Y45299048D01*
X58738095Y45251429D01*
X58642857Y45203810D01*
X58261904Y45203810D01*
X59214285Y45632381D02*
X59261904Y45680000D01*
X59357142Y45727620D01*
X59595238Y45727620D01*
X59690476Y45680000D01*
X59738095Y45632381D01*
X59785714Y45537143D01*
X59785714Y45441905D01*
X59738095Y45299048D01*
X59166666Y44727620D01*
X59785714Y44727620D01*
%TO.C,C14*%
X10357142Y63642858D02*
X10309523Y63595239D01*
X10166666Y63547620D01*
X10071428Y63547620D01*
X9928571Y63595239D01*
X9833333Y63690477D01*
X9785714Y63785715D01*
X9738095Y63976191D01*
X9738095Y64119048D01*
X9785714Y64309524D01*
X9833333Y64404762D01*
X9928571Y64500000D01*
X10071428Y64547620D01*
X10166666Y64547620D01*
X10309523Y64500000D01*
X10357142Y64452381D01*
X11309523Y63547620D02*
X10738095Y63547620D01*
X11023809Y63547620D02*
X11023809Y64547620D01*
X10928571Y64404762D01*
X10833333Y64309524D01*
X10738095Y64261905D01*
X12166666Y64214286D02*
X12166666Y63547620D01*
X11928571Y64595239D02*
X11690476Y63880953D01*
X12309523Y63880953D01*
%TO.C,J6*%
X60416666Y69297620D02*
X60416666Y68583334D01*
X60369047Y68440477D01*
X60273809Y68345239D01*
X60130952Y68297620D01*
X60035714Y68297620D01*
X61321428Y69297620D02*
X61130952Y69297620D01*
X61035714Y69250000D01*
X60988095Y69202381D01*
X60892857Y69059524D01*
X60845238Y68869048D01*
X60845238Y68488096D01*
X60892857Y68392858D01*
X60940476Y68345239D01*
X61035714Y68297620D01*
X61226190Y68297620D01*
X61321428Y68345239D01*
X61369047Y68392858D01*
X61416666Y68488096D01*
X61416666Y68726191D01*
X61369047Y68821429D01*
X61321428Y68869048D01*
X61226190Y68916667D01*
X61035714Y68916667D01*
X60940476Y68869048D01*
X60892857Y68821429D01*
X60845238Y68726191D01*
%TO.C,R8*%
X53833333Y22727620D02*
X53500000Y23203810D01*
X53261904Y22727620D02*
X53261904Y23727620D01*
X53642857Y23727620D01*
X53738095Y23680000D01*
X53785714Y23632381D01*
X53833333Y23537143D01*
X53833333Y23394286D01*
X53785714Y23299048D01*
X53738095Y23251429D01*
X53642857Y23203810D01*
X53261904Y23203810D01*
X54404761Y23299048D02*
X54309523Y23346667D01*
X54261904Y23394286D01*
X54214285Y23489524D01*
X54214285Y23537143D01*
X54261904Y23632381D01*
X54309523Y23680000D01*
X54404761Y23727620D01*
X54595238Y23727620D01*
X54690476Y23680000D01*
X54738095Y23632381D01*
X54785714Y23537143D01*
X54785714Y23489524D01*
X54738095Y23394286D01*
X54690476Y23346667D01*
X54595238Y23299048D01*
X54404761Y23299048D01*
X54309523Y23251429D01*
X54261904Y23203810D01*
X54214285Y23108572D01*
X54214285Y22918096D01*
X54261904Y22822858D01*
X54309523Y22775239D01*
X54404761Y22727620D01*
X54595238Y22727620D01*
X54690476Y22775239D01*
X54738095Y22822858D01*
X54785714Y22918096D01*
X54785714Y23108572D01*
X54738095Y23203810D01*
X54690476Y23251429D01*
X54595238Y23299048D01*
%TO.C,BZ1*%
X66619047Y13571429D02*
X66761904Y13523810D01*
X66809523Y13476191D01*
X66857142Y13380953D01*
X66857142Y13238096D01*
X66809523Y13142858D01*
X66761904Y13095239D01*
X66666666Y13047620D01*
X66285714Y13047620D01*
X66285714Y14047620D01*
X66619047Y14047620D01*
X66714285Y14000000D01*
X66761904Y13952381D01*
X66809523Y13857143D01*
X66809523Y13761905D01*
X66761904Y13666667D01*
X66714285Y13619048D01*
X66619047Y13571429D01*
X66285714Y13571429D01*
X67190476Y14047620D02*
X67857142Y14047620D01*
X67190476Y13047620D01*
X67857142Y13047620D01*
X68761904Y13047620D02*
X68190476Y13047620D01*
X68476190Y13047620D02*
X68476190Y14047620D01*
X68380952Y13904762D01*
X68285714Y13809524D01*
X68190476Y13761905D01*
X66111428Y9929048D02*
X66111428Y10690953D01*
X66492380Y10310000D02*
X65730476Y10310000D01*
%TO.C,R13*%
X21357142Y51547620D02*
X21023809Y52023810D01*
X20785714Y51547620D02*
X20785714Y52547620D01*
X21166666Y52547620D01*
X21261904Y52500000D01*
X21309523Y52452381D01*
X21357142Y52357143D01*
X21357142Y52214286D01*
X21309523Y52119048D01*
X21261904Y52071429D01*
X21166666Y52023810D01*
X20785714Y52023810D01*
X22309523Y51547620D02*
X21738095Y51547620D01*
X22023809Y51547620D02*
X22023809Y52547620D01*
X21928571Y52404762D01*
X21833333Y52309524D01*
X21738095Y52261905D01*
X22642857Y52547620D02*
X23261904Y52547620D01*
X22928571Y52166667D01*
X23071428Y52166667D01*
X23166666Y52119048D01*
X23214285Y52071429D01*
X23261904Y51976191D01*
X23261904Y51738096D01*
X23214285Y51642858D01*
X23166666Y51595239D01*
X23071428Y51547620D01*
X22785714Y51547620D01*
X22690476Y51595239D01*
X22642857Y51642858D01*
%TO.C,U1*%
X48238095Y57047620D02*
X48238095Y56238096D01*
X48285714Y56142858D01*
X48333333Y56095239D01*
X48428571Y56047620D01*
X48619047Y56047620D01*
X48714285Y56095239D01*
X48761904Y56142858D01*
X48809523Y56238096D01*
X48809523Y57047620D01*
X49809523Y56047620D02*
X49238095Y56047620D01*
X49523809Y56047620D02*
X49523809Y57047620D01*
X49428571Y56904762D01*
X49333333Y56809524D01*
X49238095Y56761905D01*
%TO.C,D3*%
X61761904Y15047620D02*
X61761904Y16047620D01*
X62000000Y16047620D01*
X62142857Y16000000D01*
X62238095Y15904762D01*
X62285714Y15809524D01*
X62333333Y15619048D01*
X62333333Y15476191D01*
X62285714Y15285715D01*
X62238095Y15190477D01*
X62142857Y15095239D01*
X62000000Y15047620D01*
X61761904Y15047620D01*
X62666666Y16047620D02*
X63285714Y16047620D01*
X62952380Y15666667D01*
X63095238Y15666667D01*
X63190476Y15619048D01*
X63238095Y15571429D01*
X63285714Y15476191D01*
X63285714Y15238096D01*
X63238095Y15142858D01*
X63190476Y15095239D01*
X63095238Y15047620D01*
X62809523Y15047620D01*
X62714285Y15095239D01*
X62666666Y15142858D01*
%TO.C,D1*%
X61761904Y44547620D02*
X61761904Y45547620D01*
X62000000Y45547620D01*
X62142857Y45500000D01*
X62238095Y45404762D01*
X62285714Y45309524D01*
X62333333Y45119048D01*
X62333333Y44976191D01*
X62285714Y44785715D01*
X62238095Y44690477D01*
X62142857Y44595239D01*
X62000000Y44547620D01*
X61761904Y44547620D01*
X63285714Y44547620D02*
X62714285Y44547620D01*
X63000000Y44547620D02*
X63000000Y45547620D01*
X62904761Y45404762D01*
X62809523Y45309524D01*
X62714285Y45261905D01*
%TO.C,SW1*%
X25666666Y40595239D02*
X25809523Y40547620D01*
X26047619Y40547620D01*
X26142857Y40595239D01*
X26190476Y40642858D01*
X26238095Y40738096D01*
X26238095Y40833334D01*
X26190476Y40928572D01*
X26142857Y40976191D01*
X26047619Y41023810D01*
X25857142Y41071429D01*
X25761904Y41119048D01*
X25714285Y41166667D01*
X25666666Y41261905D01*
X25666666Y41357143D01*
X25714285Y41452381D01*
X25761904Y41500000D01*
X25857142Y41547620D01*
X26095238Y41547620D01*
X26238095Y41500000D01*
X26571428Y41547620D02*
X26809523Y40547620D01*
X27000000Y41261905D01*
X27190476Y40547620D01*
X27428571Y41547620D01*
X28333333Y40547620D02*
X27761904Y40547620D01*
X28047619Y40547620D02*
X28047619Y41547620D01*
X27952380Y41404762D01*
X27857142Y41309524D01*
X27761904Y41261905D01*
%TO.C,C1*%
X45600000Y65142858D02*
X45557142Y65095239D01*
X45428571Y65047620D01*
X45342857Y65047620D01*
X45214285Y65095239D01*
X45128571Y65190477D01*
X45085714Y65285715D01*
X45042857Y65476191D01*
X45042857Y65619048D01*
X45085714Y65809524D01*
X45128571Y65904762D01*
X45214285Y66000000D01*
X45342857Y66047620D01*
X45428571Y66047620D01*
X45557142Y66000000D01*
X45600000Y65952381D01*
X46457142Y65047620D02*
X45942857Y65047620D01*
X46200000Y65047620D02*
X46200000Y66047620D01*
X46114285Y65904762D01*
X46028571Y65809524D01*
X45942857Y65761905D01*
%TO.C,C12*%
X36857142Y36792858D02*
X36809523Y36745239D01*
X36666666Y36697620D01*
X36571428Y36697620D01*
X36428571Y36745239D01*
X36333333Y36840477D01*
X36285714Y36935715D01*
X36238095Y37126191D01*
X36238095Y37269048D01*
X36285714Y37459524D01*
X36333333Y37554762D01*
X36428571Y37650000D01*
X36571428Y37697620D01*
X36666666Y37697620D01*
X36809523Y37650000D01*
X36857142Y37602381D01*
X37809523Y36697620D02*
X37238095Y36697620D01*
X37523809Y36697620D02*
X37523809Y37697620D01*
X37428571Y37554762D01*
X37333333Y37459524D01*
X37238095Y37411905D01*
X38190476Y37602381D02*
X38238095Y37650000D01*
X38333333Y37697620D01*
X38571428Y37697620D01*
X38666666Y37650000D01*
X38714285Y37602381D01*
X38761904Y37507143D01*
X38761904Y37411905D01*
X38714285Y37269048D01*
X38142857Y36697620D01*
X38761904Y36697620D01*
%TO.C,C9*%
X20333333Y3642858D02*
X20285714Y3595239D01*
X20142857Y3547620D01*
X20047619Y3547620D01*
X19904761Y3595239D01*
X19809523Y3690477D01*
X19761904Y3785715D01*
X19714285Y3976191D01*
X19714285Y4119048D01*
X19761904Y4309524D01*
X19809523Y4404762D01*
X19904761Y4500000D01*
X20047619Y4547620D01*
X20142857Y4547620D01*
X20285714Y4500000D01*
X20333333Y4452381D01*
X20809523Y3547620D02*
X21000000Y3547620D01*
X21095238Y3595239D01*
X21142857Y3642858D01*
X21238095Y3785715D01*
X21285714Y3976191D01*
X21285714Y4357143D01*
X21238095Y4452381D01*
X21190476Y4500000D01*
X21095238Y4547620D01*
X20904761Y4547620D01*
X20809523Y4500000D01*
X20761904Y4452381D01*
X20714285Y4357143D01*
X20714285Y4119048D01*
X20761904Y4023810D01*
X20809523Y3976191D01*
X20904761Y3928572D01*
X21095238Y3928572D01*
X21190476Y3976191D01*
X21238095Y4023810D01*
X21285714Y4119048D01*
%TO.C,J3*%
X62166666Y32547620D02*
X62166666Y31833334D01*
X62119047Y31690477D01*
X62023809Y31595239D01*
X61880952Y31547620D01*
X61785714Y31547620D01*
X62547619Y32547620D02*
X63166666Y32547620D01*
X62833333Y32166667D01*
X62976190Y32166667D01*
X63071428Y32119048D01*
X63119047Y32071429D01*
X63166666Y31976191D01*
X63166666Y31738096D01*
X63119047Y31642858D01*
X63071428Y31595239D01*
X62976190Y31547620D01*
X62690476Y31547620D01*
X62595238Y31595239D01*
X62547619Y31642858D01*
%TO.C,C2*%
X14333333Y61642858D02*
X14285714Y61595239D01*
X14142857Y61547620D01*
X14047619Y61547620D01*
X13904761Y61595239D01*
X13809523Y61690477D01*
X13761904Y61785715D01*
X13714285Y61976191D01*
X13714285Y62119048D01*
X13761904Y62309524D01*
X13809523Y62404762D01*
X13904761Y62500000D01*
X14047619Y62547620D01*
X14142857Y62547620D01*
X14285714Y62500000D01*
X14333333Y62452381D01*
X14714285Y62452381D02*
X14761904Y62500000D01*
X14857142Y62547620D01*
X15095238Y62547620D01*
X15190476Y62500000D01*
X15238095Y62452381D01*
X15285714Y62357143D01*
X15285714Y62261905D01*
X15238095Y62119048D01*
X14666666Y61547620D01*
X15285714Y61547620D01*
%TO.C,C3*%
X21833333Y61642858D02*
X21785714Y61595239D01*
X21642857Y61547620D01*
X21547619Y61547620D01*
X21404761Y61595239D01*
X21309523Y61690477D01*
X21261904Y61785715D01*
X21214285Y61976191D01*
X21214285Y62119048D01*
X21261904Y62309524D01*
X21309523Y62404762D01*
X21404761Y62500000D01*
X21547619Y62547620D01*
X21642857Y62547620D01*
X21785714Y62500000D01*
X21833333Y62452381D01*
X22166666Y62547620D02*
X22785714Y62547620D01*
X22452380Y62166667D01*
X22595238Y62166667D01*
X22690476Y62119048D01*
X22738095Y62071429D01*
X22785714Y61976191D01*
X22785714Y61738096D01*
X22738095Y61642858D01*
X22690476Y61595239D01*
X22595238Y61547620D01*
X22309523Y61547620D01*
X22214285Y61595239D01*
X22166666Y61642858D01*
%TO.C,U6*%
X18738095Y25047620D02*
X18738095Y24238096D01*
X18785714Y24142858D01*
X18833333Y24095239D01*
X18928571Y24047620D01*
X19119047Y24047620D01*
X19214285Y24095239D01*
X19261904Y24142858D01*
X19309523Y24238096D01*
X19309523Y25047620D01*
X20214285Y25047620D02*
X20023809Y25047620D01*
X19928571Y25000000D01*
X19880952Y24952381D01*
X19785714Y24809524D01*
X19738095Y24619048D01*
X19738095Y24238096D01*
X19785714Y24142858D01*
X19833333Y24095239D01*
X19928571Y24047620D01*
X20119047Y24047620D01*
X20214285Y24095239D01*
X20261904Y24142858D01*
X20309523Y24238096D01*
X20309523Y24476191D01*
X20261904Y24571429D01*
X20214285Y24619048D01*
X20119047Y24666667D01*
X19928571Y24666667D01*
X19833333Y24619048D01*
X19785714Y24571429D01*
X19738095Y24476191D01*
%TO.C,R12*%
X56357142Y56047620D02*
X56023809Y56523810D01*
X55785714Y56047620D02*
X55785714Y57047620D01*
X56166666Y57047620D01*
X56261904Y57000000D01*
X56309523Y56952381D01*
X56357142Y56857143D01*
X56357142Y56714286D01*
X56309523Y56619048D01*
X56261904Y56571429D01*
X56166666Y56523810D01*
X55785714Y56523810D01*
X57309523Y56047620D02*
X56738095Y56047620D01*
X57023809Y56047620D02*
X57023809Y57047620D01*
X56928571Y56904762D01*
X56833333Y56809524D01*
X56738095Y56761905D01*
X57690476Y56952381D02*
X57738095Y57000000D01*
X57833333Y57047620D01*
X58071428Y57047620D01*
X58166666Y57000000D01*
X58214285Y56952381D01*
X58261904Y56857143D01*
X58261904Y56761905D01*
X58214285Y56619048D01*
X57642857Y56047620D01*
X58261904Y56047620D01*
%TO.C,U5*%
X34225595Y36390048D02*
X34225595Y35580524D01*
X34273214Y35485286D01*
X34320833Y35437667D01*
X34416071Y35390048D01*
X34606547Y35390048D01*
X34701785Y35437667D01*
X34749404Y35485286D01*
X34797023Y35580524D01*
X34797023Y36390048D01*
X35749404Y36390048D02*
X35273214Y36390048D01*
X35225595Y35913857D01*
X35273214Y35961476D01*
X35368452Y36009095D01*
X35606547Y36009095D01*
X35701785Y35961476D01*
X35749404Y35913857D01*
X35797023Y35818619D01*
X35797023Y35580524D01*
X35749404Y35485286D01*
X35701785Y35437667D01*
X35606547Y35390048D01*
X35368452Y35390048D01*
X35273214Y35437667D01*
X35225595Y35485286D01*
%TO.C,Q2*%
X48904761Y40452381D02*
X48809523Y40500000D01*
X48714285Y40595239D01*
X48571428Y40738096D01*
X48476190Y40785715D01*
X48380952Y40785715D01*
X48428571Y40547620D02*
X48333333Y40595239D01*
X48238095Y40690477D01*
X48190476Y40880953D01*
X48190476Y41214286D01*
X48238095Y41404762D01*
X48333333Y41500000D01*
X48428571Y41547620D01*
X48619047Y41547620D01*
X48714285Y41500000D01*
X48809523Y41404762D01*
X48857142Y41214286D01*
X48857142Y40880953D01*
X48809523Y40690477D01*
X48714285Y40595239D01*
X48619047Y40547620D01*
X48428571Y40547620D01*
X49238095Y41452381D02*
X49285714Y41500000D01*
X49380952Y41547620D01*
X49619047Y41547620D01*
X49714285Y41500000D01*
X49761904Y41452381D01*
X49809523Y41357143D01*
X49809523Y41261905D01*
X49761904Y41119048D01*
X49190476Y40547620D01*
X49809523Y40547620D01*
%TO.C,R6*%
X53833333Y44727620D02*
X53500000Y45203810D01*
X53261904Y44727620D02*
X53261904Y45727620D01*
X53642857Y45727620D01*
X53738095Y45680000D01*
X53785714Y45632381D01*
X53833333Y45537143D01*
X53833333Y45394286D01*
X53785714Y45299048D01*
X53738095Y45251429D01*
X53642857Y45203810D01*
X53261904Y45203810D01*
X54690476Y45727620D02*
X54500000Y45727620D01*
X54404761Y45680000D01*
X54357142Y45632381D01*
X54261904Y45489524D01*
X54214285Y45299048D01*
X54214285Y44918096D01*
X54261904Y44822858D01*
X54309523Y44775239D01*
X54404761Y44727620D01*
X54595238Y44727620D01*
X54690476Y44775239D01*
X54738095Y44822858D01*
X54785714Y44918096D01*
X54785714Y45156191D01*
X54738095Y45251429D01*
X54690476Y45299048D01*
X54595238Y45346667D01*
X54404761Y45346667D01*
X54309523Y45299048D01*
X54261904Y45251429D01*
X54214285Y45156191D01*
%TO.C,U8*%
X2738095Y14547620D02*
X2738095Y13738096D01*
X2785714Y13642858D01*
X2833333Y13595239D01*
X2928571Y13547620D01*
X3119047Y13547620D01*
X3214285Y13595239D01*
X3261904Y13642858D01*
X3309523Y13738096D01*
X3309523Y14547620D01*
X3928571Y14119048D02*
X3833333Y14166667D01*
X3785714Y14214286D01*
X3738095Y14309524D01*
X3738095Y14357143D01*
X3785714Y14452381D01*
X3833333Y14500000D01*
X3928571Y14547620D01*
X4119047Y14547620D01*
X4214285Y14500000D01*
X4261904Y14452381D01*
X4309523Y14357143D01*
X4309523Y14309524D01*
X4261904Y14214286D01*
X4214285Y14166667D01*
X4119047Y14119048D01*
X3928571Y14119048D01*
X3833333Y14071429D01*
X3785714Y14023810D01*
X3738095Y13928572D01*
X3738095Y13738096D01*
X3785714Y13642858D01*
X3833333Y13595239D01*
X3928571Y13547620D01*
X4119047Y13547620D01*
X4214285Y13595239D01*
X4261904Y13642858D01*
X4309523Y13738096D01*
X4309523Y13928572D01*
X4261904Y14023810D01*
X4214285Y14071429D01*
X4119047Y14119048D01*
%TO.C,R1*%
X52333333Y7047620D02*
X52000000Y7523810D01*
X51761904Y7047620D02*
X51761904Y8047620D01*
X52142857Y8047620D01*
X52238095Y8000000D01*
X52285714Y7952381D01*
X52333333Y7857143D01*
X52333333Y7714286D01*
X52285714Y7619048D01*
X52238095Y7571429D01*
X52142857Y7523810D01*
X51761904Y7523810D01*
X53285714Y7047620D02*
X52714285Y7047620D01*
X53000000Y7047620D02*
X53000000Y8047620D01*
X52904761Y7904762D01*
X52809523Y7809524D01*
X52714285Y7761905D01*
%TO.C,C8*%
X22833333Y37492858D02*
X22785714Y37445239D01*
X22642857Y37397620D01*
X22547619Y37397620D01*
X22404761Y37445239D01*
X22309523Y37540477D01*
X22261904Y37635715D01*
X22214285Y37826191D01*
X22214285Y37969048D01*
X22261904Y38159524D01*
X22309523Y38254762D01*
X22404761Y38350000D01*
X22547619Y38397620D01*
X22642857Y38397620D01*
X22785714Y38350000D01*
X22833333Y38302381D01*
X23404761Y37969048D02*
X23309523Y38016667D01*
X23261904Y38064286D01*
X23214285Y38159524D01*
X23214285Y38207143D01*
X23261904Y38302381D01*
X23309523Y38350000D01*
X23404761Y38397620D01*
X23595238Y38397620D01*
X23690476Y38350000D01*
X23738095Y38302381D01*
X23785714Y38207143D01*
X23785714Y38159524D01*
X23738095Y38064286D01*
X23690476Y38016667D01*
X23595238Y37969048D01*
X23404761Y37969048D01*
X23309523Y37921429D01*
X23261904Y37873810D01*
X23214285Y37778572D01*
X23214285Y37588096D01*
X23261904Y37492858D01*
X23309523Y37445239D01*
X23404761Y37397620D01*
X23595238Y37397620D01*
X23690476Y37445239D01*
X23738095Y37492858D01*
X23785714Y37588096D01*
X23785714Y37778572D01*
X23738095Y37873810D01*
X23690476Y37921429D01*
X23595238Y37969048D01*
%TO.C,Q4*%
X48904761Y18452381D02*
X48809523Y18500000D01*
X48714285Y18595239D01*
X48571428Y18738096D01*
X48476190Y18785715D01*
X48380952Y18785715D01*
X48428571Y18547620D02*
X48333333Y18595239D01*
X48238095Y18690477D01*
X48190476Y18880953D01*
X48190476Y19214286D01*
X48238095Y19404762D01*
X48333333Y19500000D01*
X48428571Y19547620D01*
X48619047Y19547620D01*
X48714285Y19500000D01*
X48809523Y19404762D01*
X48857142Y19214286D01*
X48857142Y18880953D01*
X48809523Y18690477D01*
X48714285Y18595239D01*
X48619047Y18547620D01*
X48428571Y18547620D01*
X49714285Y19214286D02*
X49714285Y18547620D01*
X49476190Y19595239D02*
X49238095Y18880953D01*
X49857142Y18880953D01*
%TO.C,Q3*%
X48904761Y29452381D02*
X48809523Y29500000D01*
X48714285Y29595239D01*
X48571428Y29738096D01*
X48476190Y29785715D01*
X48380952Y29785715D01*
X48428571Y29547620D02*
X48333333Y29595239D01*
X48238095Y29690477D01*
X48190476Y29880953D01*
X48190476Y30214286D01*
X48238095Y30404762D01*
X48333333Y30500000D01*
X48428571Y30547620D01*
X48619047Y30547620D01*
X48714285Y30500000D01*
X48809523Y30404762D01*
X48857142Y30214286D01*
X48857142Y29880953D01*
X48809523Y29690477D01*
X48714285Y29595239D01*
X48619047Y29547620D01*
X48428571Y29547620D01*
X49190476Y30547620D02*
X49809523Y30547620D01*
X49476190Y30166667D01*
X49619047Y30166667D01*
X49714285Y30119048D01*
X49761904Y30071429D01*
X49809523Y29976191D01*
X49809523Y29738096D01*
X49761904Y29642858D01*
X49714285Y29595239D01*
X49619047Y29547620D01*
X49333333Y29547620D01*
X49238095Y29595239D01*
X49190476Y29642858D01*
%TO.C,C5*%
X21333333Y41142858D02*
X21285714Y41095239D01*
X21142857Y41047620D01*
X21047619Y41047620D01*
X20904761Y41095239D01*
X20809523Y41190477D01*
X20761904Y41285715D01*
X20714285Y41476191D01*
X20714285Y41619048D01*
X20761904Y41809524D01*
X20809523Y41904762D01*
X20904761Y42000000D01*
X21047619Y42047620D01*
X21142857Y42047620D01*
X21285714Y42000000D01*
X21333333Y41952381D01*
X22238095Y42047620D02*
X21761904Y42047620D01*
X21714285Y41571429D01*
X21761904Y41619048D01*
X21857142Y41666667D01*
X22095238Y41666667D01*
X22190476Y41619048D01*
X22238095Y41571429D01*
X22285714Y41476191D01*
X22285714Y41238096D01*
X22238095Y41142858D01*
X22190476Y41095239D01*
X22095238Y41047620D01*
X21857142Y41047620D01*
X21761904Y41095239D01*
X21714285Y41142858D01*
%TO.C,R5*%
X57333333Y11547620D02*
X57000000Y12023810D01*
X56761904Y11547620D02*
X56761904Y12547620D01*
X57142857Y12547620D01*
X57238095Y12500000D01*
X57285714Y12452381D01*
X57333333Y12357143D01*
X57333333Y12214286D01*
X57285714Y12119048D01*
X57238095Y12071429D01*
X57142857Y12023810D01*
X56761904Y12023810D01*
X58238095Y12547620D02*
X57761904Y12547620D01*
X57714285Y12071429D01*
X57761904Y12119048D01*
X57857142Y12166667D01*
X58095238Y12166667D01*
X58190476Y12119048D01*
X58238095Y12071429D01*
X58285714Y11976191D01*
X58285714Y11738096D01*
X58238095Y11642858D01*
X58190476Y11595239D01*
X58095238Y11547620D01*
X57857142Y11547620D01*
X57761904Y11595239D01*
X57714285Y11642858D01*
%TO.C,U3*%
X34238095Y49047620D02*
X34238095Y48238096D01*
X34285714Y48142858D01*
X34333333Y48095239D01*
X34428571Y48047620D01*
X34619047Y48047620D01*
X34714285Y48095239D01*
X34761904Y48142858D01*
X34809523Y48238096D01*
X34809523Y49047620D01*
X35190476Y49047620D02*
X35809523Y49047620D01*
X35476190Y48666667D01*
X35619047Y48666667D01*
X35714285Y48619048D01*
X35761904Y48571429D01*
X35809523Y48476191D01*
X35809523Y48238096D01*
X35761904Y48142858D01*
X35714285Y48095239D01*
X35619047Y48047620D01*
X35333333Y48047620D01*
X35238095Y48095239D01*
X35190476Y48142858D01*
%TO.C,Q1*%
X48904761Y52452381D02*
X48809523Y52500000D01*
X48714285Y52595239D01*
X48571428Y52738096D01*
X48476190Y52785715D01*
X48380952Y52785715D01*
X48428571Y52547620D02*
X48333333Y52595239D01*
X48238095Y52690477D01*
X48190476Y52880953D01*
X48190476Y53214286D01*
X48238095Y53404762D01*
X48333333Y53500000D01*
X48428571Y53547620D01*
X48619047Y53547620D01*
X48714285Y53500000D01*
X48809523Y53404762D01*
X48857142Y53214286D01*
X48857142Y52880953D01*
X48809523Y52690477D01*
X48714285Y52595239D01*
X48619047Y52547620D01*
X48428571Y52547620D01*
X49809523Y52547620D02*
X49238095Y52547620D01*
X49523809Y52547620D02*
X49523809Y53547620D01*
X49428571Y53404762D01*
X49333333Y53309524D01*
X49238095Y53261905D01*
%TO.C,SW2*%
X41666666Y40595239D02*
X41809523Y40547620D01*
X42047619Y40547620D01*
X42142857Y40595239D01*
X42190476Y40642858D01*
X42238095Y40738096D01*
X42238095Y40833334D01*
X42190476Y40928572D01*
X42142857Y40976191D01*
X42047619Y41023810D01*
X41857142Y41071429D01*
X41761904Y41119048D01*
X41714285Y41166667D01*
X41666666Y41261905D01*
X41666666Y41357143D01*
X41714285Y41452381D01*
X41761904Y41500000D01*
X41857142Y41547620D01*
X42095238Y41547620D01*
X42238095Y41500000D01*
X42571428Y41547620D02*
X42809523Y40547620D01*
X43000000Y41261905D01*
X43190476Y40547620D01*
X43428571Y41547620D01*
X43761904Y41452381D02*
X43809523Y41500000D01*
X43904761Y41547620D01*
X44142857Y41547620D01*
X44238095Y41500000D01*
X44285714Y41452381D01*
X44333333Y41357143D01*
X44333333Y41261905D01*
X44285714Y41119048D01*
X43714285Y40547620D01*
X44333333Y40547620D01*
%TO.C,C4*%
X14333333Y56642858D02*
X14285714Y56595239D01*
X14142857Y56547620D01*
X14047619Y56547620D01*
X13904761Y56595239D01*
X13809523Y56690477D01*
X13761904Y56785715D01*
X13714285Y56976191D01*
X13714285Y57119048D01*
X13761904Y57309524D01*
X13809523Y57404762D01*
X13904761Y57500000D01*
X14047619Y57547620D01*
X14142857Y57547620D01*
X14285714Y57500000D01*
X14333333Y57452381D01*
X15190476Y57214286D02*
X15190476Y56547620D01*
X14952380Y57595239D02*
X14714285Y56880953D01*
X15333333Y56880953D01*
%TO.C,C11*%
X35357142Y6992858D02*
X35309523Y6945239D01*
X35166666Y6897620D01*
X35071428Y6897620D01*
X34928571Y6945239D01*
X34833333Y7040477D01*
X34785714Y7135715D01*
X34738095Y7326191D01*
X34738095Y7469048D01*
X34785714Y7659524D01*
X34833333Y7754762D01*
X34928571Y7850000D01*
X35071428Y7897620D01*
X35166666Y7897620D01*
X35309523Y7850000D01*
X35357142Y7802381D01*
X36309523Y6897620D02*
X35738095Y6897620D01*
X36023809Y6897620D02*
X36023809Y7897620D01*
X35928571Y7754762D01*
X35833333Y7659524D01*
X35738095Y7611905D01*
X37261904Y6897620D02*
X36690476Y6897620D01*
X36976190Y6897620D02*
X36976190Y7897620D01*
X36880952Y7754762D01*
X36785714Y7659524D01*
X36690476Y7611905D01*
D12*
%TO.C,U11*%
X16399333Y46986834D02*
X16399333Y46267167D01*
X16441666Y46182500D01*
X16484000Y46140167D01*
X16568666Y46097834D01*
X16738000Y46097834D01*
X16822666Y46140167D01*
X16865000Y46182500D01*
X16907333Y46267167D01*
X16907333Y46986834D01*
X17796333Y46097834D02*
X17288333Y46097834D01*
X17542333Y46097834D02*
X17542333Y46986834D01*
X17457666Y46859834D01*
X17373000Y46775167D01*
X17288333Y46732834D01*
X18643000Y46097834D02*
X18135000Y46097834D01*
X18389000Y46097834D02*
X18389000Y46986834D01*
X18304333Y46859834D01*
X18219666Y46775167D01*
X18135000Y46732834D01*
D10*
%TO.C,R10*%
X21357142Y56547620D02*
X21023809Y57023810D01*
X20785714Y56547620D02*
X20785714Y57547620D01*
X21166666Y57547620D01*
X21261904Y57500000D01*
X21309523Y57452381D01*
X21357142Y57357143D01*
X21357142Y57214286D01*
X21309523Y57119048D01*
X21261904Y57071429D01*
X21166666Y57023810D01*
X20785714Y57023810D01*
X22309523Y56547620D02*
X21738095Y56547620D01*
X22023809Y56547620D02*
X22023809Y57547620D01*
X21928571Y57404762D01*
X21833333Y57309524D01*
X21738095Y57261905D01*
X22928571Y57547620D02*
X23023809Y57547620D01*
X23119047Y57500000D01*
X23166666Y57452381D01*
X23214285Y57357143D01*
X23261904Y57166667D01*
X23261904Y56928572D01*
X23214285Y56738096D01*
X23166666Y56642858D01*
X23119047Y56595239D01*
X23023809Y56547620D01*
X22928571Y56547620D01*
X22833333Y56595239D01*
X22785714Y56642858D01*
X22738095Y56738096D01*
X22690476Y56928572D01*
X22690476Y57166667D01*
X22738095Y57357143D01*
X22785714Y57452381D01*
X22833333Y57500000D01*
X22928571Y57547620D01*
%TO.C,U7*%
X738095Y66797620D02*
X738095Y65988096D01*
X785714Y65892858D01*
X833333Y65845239D01*
X928571Y65797620D01*
X1119047Y65797620D01*
X1214285Y65845239D01*
X1261904Y65892858D01*
X1309523Y65988096D01*
X1309523Y66797620D01*
X1690476Y66797620D02*
X2357142Y66797620D01*
X1928571Y65797620D01*
%TO.C,J4*%
X60102380Y22716667D02*
X60816666Y22716667D01*
X60959523Y22669048D01*
X61054761Y22573810D01*
X61102380Y22430953D01*
X61102380Y22335715D01*
X60435714Y23621429D02*
X61102380Y23621429D01*
X60054761Y23383334D02*
X60769047Y23145239D01*
X60769047Y23764286D01*
%TO.C,J2*%
X62166666Y47047620D02*
X62166666Y46333334D01*
X62119047Y46190477D01*
X62023809Y46095239D01*
X61880952Y46047620D01*
X61785714Y46047620D01*
X62595238Y46952381D02*
X62642857Y47000000D01*
X62738095Y47047620D01*
X62976190Y47047620D01*
X63071428Y47000000D01*
X63119047Y46952381D01*
X63166666Y46857143D01*
X63166666Y46761905D01*
X63119047Y46619048D01*
X62547619Y46047620D01*
X63166666Y46047620D01*
%TO.C,C10*%
X10357142Y49142858D02*
X10309523Y49095239D01*
X10166666Y49047620D01*
X10071428Y49047620D01*
X9928571Y49095239D01*
X9833333Y49190477D01*
X9785714Y49285715D01*
X9738095Y49476191D01*
X9738095Y49619048D01*
X9785714Y49809524D01*
X9833333Y49904762D01*
X9928571Y50000000D01*
X10071428Y50047620D01*
X10166666Y50047620D01*
X10309523Y50000000D01*
X10357142Y49952381D01*
X11309523Y49047620D02*
X10738095Y49047620D01*
X11023809Y49047620D02*
X11023809Y50047620D01*
X10928571Y49904762D01*
X10833333Y49809524D01*
X10738095Y49761905D01*
X11928571Y50047620D02*
X12023809Y50047620D01*
X12119047Y50000000D01*
X12166666Y49952381D01*
X12214285Y49857143D01*
X12261904Y49666667D01*
X12261904Y49428572D01*
X12214285Y49238096D01*
X12166666Y49142858D01*
X12119047Y49095239D01*
X12023809Y49047620D01*
X11928571Y49047620D01*
X11833333Y49095239D01*
X11785714Y49142858D01*
X11738095Y49238096D01*
X11690476Y49428572D01*
X11690476Y49666667D01*
X11738095Y49857143D01*
X11785714Y49952381D01*
X11833333Y50000000D01*
X11928571Y50047620D01*
%TO.C,C7*%
X42833333Y33492858D02*
X42785714Y33445239D01*
X42642857Y33397620D01*
X42547619Y33397620D01*
X42404761Y33445239D01*
X42309523Y33540477D01*
X42261904Y33635715D01*
X42214285Y33826191D01*
X42214285Y33969048D01*
X42261904Y34159524D01*
X42309523Y34254762D01*
X42404761Y34350000D01*
X42547619Y34397620D01*
X42642857Y34397620D01*
X42785714Y34350000D01*
X42833333Y34302381D01*
X43166666Y34397620D02*
X43833333Y34397620D01*
X43404761Y33397620D01*
%TO.C,U10*%
X33761904Y-152380D02*
X33761904Y-961904D01*
X33809523Y-1057142D01*
X33857142Y-1104761D01*
X33952380Y-1152380D01*
X34142857Y-1152380D01*
X34238095Y-1104761D01*
X34285714Y-1057142D01*
X34333333Y-961904D01*
X34333333Y-152380D01*
X35333333Y-1152380D02*
X34761904Y-1152380D01*
X35047619Y-1152380D02*
X35047619Y-152380D01*
X34952380Y-295238D01*
X34857142Y-390476D01*
X34761904Y-438095D01*
X35952380Y-152380D02*
X36047619Y-152380D01*
X36142857Y-200000D01*
X36190476Y-247619D01*
X36238095Y-342857D01*
X36285714Y-533333D01*
X36285714Y-771428D01*
X36238095Y-961904D01*
X36190476Y-1057142D01*
X36142857Y-1104761D01*
X36047619Y-1152380D01*
X35952380Y-1152380D01*
X35857142Y-1104761D01*
X35809523Y-1057142D01*
X35761904Y-961904D01*
X35714285Y-771428D01*
X35714285Y-533333D01*
X35761904Y-342857D01*
X35809523Y-247619D01*
X35857142Y-200000D01*
X35952380Y-152380D01*
%TO.C,U9*%
X10738095Y53047620D02*
X10738095Y52238096D01*
X10785714Y52142858D01*
X10833333Y52095239D01*
X10928571Y52047620D01*
X11119047Y52047620D01*
X11214285Y52095239D01*
X11261904Y52142858D01*
X11309523Y52238096D01*
X11309523Y53047620D01*
X11833333Y52047620D02*
X12023809Y52047620D01*
X12119047Y52095239D01*
X12166666Y52142858D01*
X12261904Y52285715D01*
X12309523Y52476191D01*
X12309523Y52857143D01*
X12261904Y52952381D01*
X12214285Y53000000D01*
X12119047Y53047620D01*
X11928571Y53047620D01*
X11833333Y53000000D01*
X11785714Y52952381D01*
X11738095Y52857143D01*
X11738095Y52619048D01*
X11785714Y52523810D01*
X11833333Y52476191D01*
X11928571Y52428572D01*
X12119047Y52428572D01*
X12214285Y52476191D01*
X12261904Y52523810D01*
X12309523Y52619048D01*
%TO.C,U2*%
X8738095Y61047620D02*
X8738095Y60238096D01*
X8785714Y60142858D01*
X8833333Y60095239D01*
X8928571Y60047620D01*
X9119047Y60047620D01*
X9214285Y60095239D01*
X9261904Y60142858D01*
X9309523Y60238096D01*
X9309523Y61047620D01*
X9738095Y60952381D02*
X9785714Y61000000D01*
X9880952Y61047620D01*
X10119047Y61047620D01*
X10214285Y61000000D01*
X10261904Y60952381D01*
X10309523Y60857143D01*
X10309523Y60761905D01*
X10261904Y60619048D01*
X9690476Y60047620D01*
X10309523Y60047620D01*
%TO.C,J1*%
X60416666Y67547620D02*
X60416666Y66833334D01*
X60369047Y66690477D01*
X60273809Y66595239D01*
X60130952Y66547620D01*
X60035714Y66547620D01*
X61416666Y66547620D02*
X60845238Y66547620D01*
X61130952Y66547620D02*
X61130952Y67547620D01*
X61035714Y67404762D01*
X60940476Y67309524D01*
X60845238Y67261905D01*
%TO.C,C6*%
X14333333Y51642858D02*
X14285714Y51595239D01*
X14142857Y51547620D01*
X14047619Y51547620D01*
X13904761Y51595239D01*
X13809523Y51690477D01*
X13761904Y51785715D01*
X13714285Y51976191D01*
X13714285Y52119048D01*
X13761904Y52309524D01*
X13809523Y52404762D01*
X13904761Y52500000D01*
X14047619Y52547620D01*
X14142857Y52547620D01*
X14285714Y52500000D01*
X14333333Y52452381D01*
X15190476Y52547620D02*
X15000000Y52547620D01*
X14904761Y52500000D01*
X14857142Y52452381D01*
X14761904Y52309524D01*
X14714285Y52119048D01*
X14714285Y51738096D01*
X14761904Y51642858D01*
X14809523Y51595239D01*
X14904761Y51547620D01*
X15095238Y51547620D01*
X15190476Y51595239D01*
X15238095Y51642858D01*
X15285714Y51738096D01*
X15285714Y51976191D01*
X15238095Y52071429D01*
X15190476Y52119048D01*
X15095238Y52166667D01*
X14904761Y52166667D01*
X14809523Y52119048D01*
X14761904Y52071429D01*
X14714285Y51976191D01*
%TO.C,C13*%
X21857142Y20642858D02*
X21809523Y20595239D01*
X21666666Y20547620D01*
X21571428Y20547620D01*
X21428571Y20595239D01*
X21333333Y20690477D01*
X21285714Y20785715D01*
X21238095Y20976191D01*
X21238095Y21119048D01*
X21285714Y21309524D01*
X21333333Y21404762D01*
X21428571Y21500000D01*
X21571428Y21547620D01*
X21666666Y21547620D01*
X21809523Y21500000D01*
X21857142Y21452381D01*
X22809523Y20547620D02*
X22238095Y20547620D01*
X22523809Y20547620D02*
X22523809Y21547620D01*
X22428571Y21404762D01*
X22333333Y21309524D01*
X22238095Y21261905D01*
X23142857Y21547620D02*
X23761904Y21547620D01*
X23428571Y21166667D01*
X23571428Y21166667D01*
X23666666Y21119048D01*
X23714285Y21071429D01*
X23761904Y20976191D01*
X23761904Y20738096D01*
X23714285Y20642858D01*
X23666666Y20595239D01*
X23571428Y20547620D01*
X23285714Y20547620D01*
X23190476Y20595239D01*
X23142857Y20642858D01*
%TO.C,R11*%
X20357142Y46547620D02*
X20023809Y47023810D01*
X19785714Y46547620D02*
X19785714Y47547620D01*
X20166666Y47547620D01*
X20261904Y47500000D01*
X20309523Y47452381D01*
X20357142Y47357143D01*
X20357142Y47214286D01*
X20309523Y47119048D01*
X20261904Y47071429D01*
X20166666Y47023810D01*
X19785714Y47023810D01*
X21309523Y46547620D02*
X20738095Y46547620D01*
X21023809Y46547620D02*
X21023809Y47547620D01*
X20928571Y47404762D01*
X20833333Y47309524D01*
X20738095Y47261905D01*
X22261904Y46547620D02*
X21690476Y46547620D01*
X21976190Y46547620D02*
X21976190Y47547620D01*
X21880952Y47404762D01*
X21785714Y47309524D01*
X21690476Y47261905D01*
%TO.C,D2*%
X61761904Y29547620D02*
X61761904Y30547620D01*
X62000000Y30547620D01*
X62142857Y30500000D01*
X62238095Y30404762D01*
X62285714Y30309524D01*
X62333333Y30119048D01*
X62333333Y29976191D01*
X62285714Y29785715D01*
X62238095Y29690477D01*
X62142857Y29595239D01*
X62000000Y29547620D01*
X61761904Y29547620D01*
X62714285Y30452381D02*
X62761904Y30500000D01*
X62857142Y30547620D01*
X63095238Y30547620D01*
X63190476Y30500000D01*
X63238095Y30452381D01*
X63285714Y30357143D01*
X63285714Y30261905D01*
X63238095Y30119048D01*
X62666666Y29547620D01*
X63285714Y29547620D01*
%TO.C,R3*%
X58833333Y33727620D02*
X58500000Y34203810D01*
X58261904Y33727620D02*
X58261904Y34727620D01*
X58642857Y34727620D01*
X58738095Y34680000D01*
X58785714Y34632381D01*
X58833333Y34537143D01*
X58833333Y34394286D01*
X58785714Y34299048D01*
X58738095Y34251429D01*
X58642857Y34203810D01*
X58261904Y34203810D01*
X59166666Y34727620D02*
X59785714Y34727620D01*
X59452380Y34346667D01*
X59595238Y34346667D01*
X59690476Y34299048D01*
X59738095Y34251429D01*
X59785714Y34156191D01*
X59785714Y33918096D01*
X59738095Y33822858D01*
X59690476Y33775239D01*
X59595238Y33727620D01*
X59309523Y33727620D01*
X59214285Y33775239D01*
X59166666Y33822858D01*
%TO.C,R7*%
X53833333Y33727620D02*
X53500000Y34203810D01*
X53261904Y33727620D02*
X53261904Y34727620D01*
X53642857Y34727620D01*
X53738095Y34680000D01*
X53785714Y34632381D01*
X53833333Y34537143D01*
X53833333Y34394286D01*
X53785714Y34299048D01*
X53738095Y34251429D01*
X53642857Y34203810D01*
X53261904Y34203810D01*
X54166666Y34727620D02*
X54833333Y34727620D01*
X54404761Y33727620D01*
%TO.C,R9*%
X53833333Y11547620D02*
X53500000Y12023810D01*
X53261904Y11547620D02*
X53261904Y12547620D01*
X53642857Y12547620D01*
X53738095Y12500000D01*
X53785714Y12452381D01*
X53833333Y12357143D01*
X53833333Y12214286D01*
X53785714Y12119048D01*
X53738095Y12071429D01*
X53642857Y12023810D01*
X53261904Y12023810D01*
X54309523Y11547620D02*
X54500000Y11547620D01*
X54595238Y11595239D01*
X54642857Y11642858D01*
X54738095Y11785715D01*
X54785714Y11976191D01*
X54785714Y12357143D01*
X54738095Y12452381D01*
X54690476Y12500000D01*
X54595238Y12547620D01*
X54404761Y12547620D01*
X54309523Y12500000D01*
X54261904Y12452381D01*
X54214285Y12357143D01*
X54214285Y12119048D01*
X54261904Y12023810D01*
X54309523Y11976191D01*
X54404761Y11928572D01*
X54595238Y11928572D01*
X54690476Y11976191D01*
X54738095Y12023810D01*
X54785714Y12119048D01*
%TO.C,U4*%
X40402380Y22544096D02*
X41211904Y22544096D01*
X41307142Y22591715D01*
X41354761Y22639334D01*
X41402380Y22734572D01*
X41402380Y22925048D01*
X41354761Y23020286D01*
X41307142Y23067905D01*
X41211904Y23115524D01*
X40402380Y23115524D01*
X40735714Y24020286D02*
X41402380Y24020286D01*
X40354761Y23782191D02*
X41069047Y23544096D01*
X41069047Y24163143D01*
%TO.C,R4*%
X58833333Y22727620D02*
X58500000Y23203810D01*
X58261904Y22727620D02*
X58261904Y23727620D01*
X58642857Y23727620D01*
X58738095Y23680000D01*
X58785714Y23632381D01*
X58833333Y23537143D01*
X58833333Y23394286D01*
X58785714Y23299048D01*
X58738095Y23251429D01*
X58642857Y23203810D01*
X58261904Y23203810D01*
X59690476Y23394286D02*
X59690476Y22727620D01*
X59452380Y23775239D02*
X59214285Y23060953D01*
X59833333Y23060953D01*
%TO.C,J5*%
X47666666Y63047620D02*
X47666666Y62333334D01*
X47619047Y62190477D01*
X47523809Y62095239D01*
X47380952Y62047620D01*
X47285714Y62047620D01*
X48619047Y63047620D02*
X48142857Y63047620D01*
X48095238Y62571429D01*
X48142857Y62619048D01*
X48238095Y62666667D01*
X48476190Y62666667D01*
X48571428Y62619048D01*
X48619047Y62571429D01*
X48666666Y62476191D01*
X48666666Y62238096D01*
X48619047Y62142858D01*
X48571428Y62095239D01*
X48476190Y62047620D01*
X48238095Y62047620D01*
X48142857Y62095239D01*
X48095238Y62142858D01*
D13*
%TO.C,R2*%
X59727064Y47910000D02*
X58272936Y47910000D01*
X59727064Y46090000D02*
X58272936Y46090000D01*
%TO.C,C14*%
X7711252Y64910000D02*
X6288748Y64910000D01*
X7711252Y63090000D02*
X6288748Y63090000D01*
D14*
%TO.C,J6*%
X49420000Y69270000D02*
X59580000Y69270000D01*
X59580000Y69270000D02*
X59580000Y66730000D01*
X59580000Y66730000D02*
X49420000Y66730000D01*
X49420000Y66730000D02*
X49420000Y69270000D01*
D13*
%TO.C,R8*%
X54727064Y25910000D02*
X53272936Y25910000D01*
X54727064Y24090000D02*
X53272936Y24090000D01*
%TO.C,BZ1*%
X69600000Y6500000D02*
G75*
G03*
X69600000Y6500000I-6100000J0D01*
G01*
%TO.C,R13*%
X20410000Y51272936D02*
X20410000Y52727064D01*
X18590000Y51272936D02*
X18590000Y52727064D01*
D14*
%TO.C,U1*%
X56810000Y58730000D02*
X49190000Y58730000D01*
X49190000Y58730000D02*
X49190000Y61270000D01*
X49190000Y61270000D02*
X56810000Y61270000D01*
X56810000Y61270000D02*
X56810000Y58730000D01*
D13*
%TO.C,D3*%
X63750000Y16500000D02*
X63750000Y14500000D01*
X63750000Y14500000D02*
X67650000Y14500000D01*
X63750000Y16500000D02*
X67650000Y16500000D01*
%TO.C,D1*%
X63750000Y47000000D02*
X67650000Y47000000D01*
X63750000Y47000000D02*
X63750000Y45000000D01*
X63750000Y45000000D02*
X67650000Y45000000D01*
%TO.C,SW1*%
X25630000Y44270000D02*
X25630000Y37730000D01*
X28370000Y44270000D02*
X25630000Y44270000D01*
X25630000Y37730000D02*
X28370000Y37730000D01*
X27000000Y36960000D02*
X27000000Y37730000D01*
X27000000Y45040000D02*
X27000000Y44270000D01*
X28370000Y37730000D02*
X28370000Y44270000D01*
%TO.C,C1*%
X48410000Y64788748D02*
X48410000Y66211252D01*
X46590000Y64788748D02*
X46590000Y66211252D01*
%TO.C,C12*%
X38211252Y38090000D02*
X36788748Y38090000D01*
X38211252Y39910000D02*
X36788748Y39910000D01*
%TO.C,C9*%
X18910000Y3288748D02*
X18910000Y4711252D01*
X17090000Y3288748D02*
X17090000Y4711252D01*
D14*
%TO.C,J3*%
X61900000Y43600000D02*
X70100000Y43600000D01*
X70100000Y33000000D02*
X61900000Y33000000D01*
X61900000Y33000000D02*
X61900000Y43600000D01*
X70100000Y43600000D02*
X70100000Y33000000D01*
X61900000Y43000000D02*
X70100000Y43000000D01*
D13*
%TO.C,C2*%
X17425000Y61288748D02*
X17425000Y62711252D01*
X15605000Y61288748D02*
X15605000Y62711252D01*
%TO.C,C3*%
X20410000Y61288748D02*
X20410000Y62711252D01*
X18590000Y61288748D02*
X18590000Y62711252D01*
D14*
%TO.C,U6*%
X16620000Y28810000D02*
X16620000Y18650000D01*
X16620000Y18650000D02*
X14080000Y18650000D01*
X14080000Y18650000D02*
X14080000Y28810000D01*
X14080000Y28810000D02*
X16620000Y28810000D01*
D13*
%TO.C,R12*%
X60910000Y59727064D02*
X60910000Y58272936D01*
X59090000Y59727064D02*
X59090000Y58272936D01*
D14*
%TO.C,U5*%
X29907500Y34760000D02*
X40067500Y34760000D01*
X40067500Y32220000D02*
X29907500Y32220000D01*
X40067500Y34760000D02*
X40067500Y32220000D01*
X29907500Y32220000D02*
X29907500Y34760000D01*
D13*
%TO.C,Q2*%
X56970000Y44450000D02*
X58470000Y44450000D01*
X58470000Y44180000D02*
X59570000Y44180000D01*
X58470000Y44450000D02*
X58470000Y44180000D01*
X58470000Y37550000D02*
X58470000Y37820000D01*
X56970000Y37550000D02*
X58470000Y37550000D01*
X58470000Y37820000D02*
X61300000Y37820000D01*
%TO.C,R6*%
X54727064Y46090000D02*
X53272936Y46090000D01*
X54727064Y47910000D02*
X53272936Y47910000D01*
D14*
%TO.C,U8*%
X14985000Y14350000D02*
X14985000Y1650000D01*
X14985000Y1650000D02*
X12445000Y1650000D01*
X12445000Y1650000D02*
X12445000Y14350000D01*
X12445000Y14350000D02*
X14985000Y14350000D01*
D13*
%TO.C,R1*%
X54090000Y6772936D02*
X54090000Y8227064D01*
X55910000Y6772936D02*
X55910000Y8227064D01*
%TO.C,C8*%
X22288748Y36910000D02*
X23711252Y36910000D01*
X22288748Y35090000D02*
X23711252Y35090000D01*
%TO.C,Q4*%
X58470000Y15550000D02*
X58470000Y15820000D01*
X58470000Y22180000D02*
X59570000Y22180000D01*
X56970000Y22450000D02*
X58470000Y22450000D01*
X58470000Y15820000D02*
X61300000Y15820000D01*
X56970000Y15550000D02*
X58470000Y15550000D01*
X58470000Y22450000D02*
X58470000Y22180000D01*
%TO.C,Q3*%
X56970000Y26550000D02*
X58470000Y26550000D01*
X56970000Y33450000D02*
X58470000Y33450000D01*
X58470000Y33180000D02*
X59570000Y33180000D01*
X58470000Y33450000D02*
X58470000Y33180000D01*
X58470000Y26820000D02*
X61300000Y26820000D01*
X58470000Y26550000D02*
X58470000Y26820000D01*
%TO.C,C5*%
X23090000Y42211252D02*
X23090000Y40788748D01*
X24910000Y42211252D02*
X24910000Y40788748D01*
%TO.C,R5*%
X59727064Y13090000D02*
X58272936Y13090000D01*
X59727064Y14910000D02*
X58272936Y14910000D01*
%TO.C,U3*%
X25880000Y49870000D02*
X26880000Y49870000D01*
X25880000Y69195000D02*
X25500000Y69195000D01*
X25880000Y50650000D02*
X25880000Y49870000D01*
X44120000Y49870000D02*
X43120000Y49870000D01*
X25880000Y75615000D02*
X25880000Y69195000D01*
X44120000Y50650000D02*
X44120000Y49870000D01*
X44120000Y75615000D02*
X44120000Y69195000D01*
X25880000Y75615000D02*
X44120000Y75615000D01*
%TO.C,Q1*%
X58570000Y55560000D02*
X59670000Y55560000D01*
X57070000Y55830000D02*
X58570000Y55830000D01*
X58570000Y55830000D02*
X58570000Y55560000D01*
X58570000Y48930000D02*
X58570000Y49200000D01*
X58570000Y49200000D02*
X61400000Y49200000D01*
X57070000Y48930000D02*
X58570000Y48930000D01*
%TO.C,SW2*%
X44370000Y44270000D02*
X41630000Y44270000D01*
X43000000Y36960000D02*
X43000000Y37730000D01*
X43000000Y45040000D02*
X43000000Y44270000D01*
X44370000Y37730000D02*
X44370000Y44270000D01*
X41630000Y37730000D02*
X44370000Y37730000D01*
X41630000Y44270000D02*
X41630000Y37730000D01*
%TO.C,C4*%
X17410000Y56288748D02*
X17410000Y57711252D01*
X15590000Y56288748D02*
X15590000Y57711252D01*
%TO.C,C11*%
X35288748Y4590000D02*
X36711252Y4590000D01*
X35288748Y6410000D02*
X36711252Y6410000D01*
D15*
%TO.C,U11*%
X15367020Y45969000D02*
X15367020Y34031000D01*
D14*
X15369560Y45999480D02*
X15369560Y34000520D01*
D13*
X15367020Y46350000D02*
X15367020Y45969000D01*
D16*
X18117840Y38730000D02*
X15367020Y38730000D01*
X18117840Y36190000D02*
X15367020Y36190000D01*
X18117840Y41270000D02*
X15367020Y41270000D01*
X18117840Y43810000D02*
X15367020Y43810000D01*
D13*
%TO.C,R10*%
X18590000Y57727064D02*
X18590000Y56272936D01*
X20410000Y57727064D02*
X20410000Y56272936D01*
D14*
%TO.C,U7*%
X15350000Y66570000D02*
X2650000Y66570000D01*
X2650000Y69110000D02*
X15350000Y69110000D01*
X15350000Y69110000D02*
X15350000Y66570000D01*
X2650000Y66570000D02*
X2650000Y69110000D01*
%TO.C,J2*%
X70100000Y58600000D02*
X70100000Y48000000D01*
X61900000Y48000000D02*
X61900000Y58600000D01*
X70100000Y48000000D02*
X61900000Y48000000D01*
X61900000Y58600000D02*
X70100000Y58600000D01*
X61900000Y58000000D02*
X70100000Y58000000D01*
D13*
%TO.C,C10*%
X6288748Y48590000D02*
X7711252Y48590000D01*
X6288748Y50410000D02*
X7711252Y50410000D01*
%TO.C,C7*%
X42288748Y32910000D02*
X43711252Y32910000D01*
X42288748Y31090000D02*
X43711252Y31090000D01*
D14*
%TO.C,U10*%
X38810000Y3270000D02*
X38810000Y730000D01*
X31190000Y3270000D02*
X38810000Y3270000D01*
X38810000Y730000D02*
X31190000Y730000D01*
X31190000Y730000D02*
X31190000Y3270000D01*
%TO.C,U9*%
X3770000Y63620000D02*
X3770000Y48380000D01*
X3770000Y48380000D02*
X1230000Y48380000D01*
X1230000Y48380000D02*
X1230000Y63620000D01*
X1230000Y63620000D02*
X3770000Y63620000D01*
D13*
%TO.C,U2*%
X7940000Y57500000D02*
X7940000Y55700000D01*
X7940000Y57500000D02*
X7940000Y58300000D01*
X11060000Y57500000D02*
X11060000Y58300000D01*
X11060000Y57500000D02*
X11060000Y56700000D01*
D14*
%TO.C,J1*%
X70100000Y70100000D02*
X70100000Y59500000D01*
X61900000Y70100000D02*
X70100000Y70100000D01*
X70100000Y59500000D02*
X61900000Y59500000D01*
X61900000Y69500000D02*
X70100000Y69500000D01*
X61900000Y59500000D02*
X61900000Y70100000D01*
D13*
%TO.C,C6*%
X15590000Y51288748D02*
X15590000Y52711252D01*
X17410000Y51288748D02*
X17410000Y52711252D01*
%TO.C,C13*%
X18590000Y20288748D02*
X18590000Y21711252D01*
X20410000Y20288748D02*
X20410000Y21711252D01*
%TO.C,R11*%
X23090000Y47727064D02*
X23090000Y46272936D01*
X24910000Y47727064D02*
X24910000Y46272936D01*
%TO.C,D2*%
X63750000Y32000000D02*
X63750000Y30000000D01*
X63750000Y32000000D02*
X67650000Y32000000D01*
X63750000Y30000000D02*
X67650000Y30000000D01*
%TO.C,R3*%
X59727064Y36910000D02*
X58272936Y36910000D01*
X59727064Y35090000D02*
X58272936Y35090000D01*
%TO.C,R7*%
X54727064Y35090000D02*
X53272936Y35090000D01*
X54727064Y36910000D02*
X53272936Y36910000D01*
%TO.C,R9*%
X54727064Y14910000D02*
X53272936Y14910000D01*
X54727064Y13090000D02*
X53272936Y13090000D01*
%TO.C,U4*%
X44290000Y28116000D02*
X27290000Y28116000D01*
X44290000Y11616000D02*
X27290000Y11616000D01*
X27290000Y28116000D02*
X27290000Y11616000D01*
X44290000Y28116000D02*
X44290000Y11616000D01*
X43236000Y29529000D02*
X43490000Y29021000D01*
X43490000Y29021000D02*
X43744000Y29529000D01*
X43744000Y29529000D02*
X43236000Y29529000D01*
%TO.C,R4*%
X59727064Y24090000D02*
X58272936Y24090000D01*
X59727064Y25910000D02*
X58272936Y25910000D01*
D10*
%TO.C,J5*%
X49460000Y63230000D02*
X49460000Y65770000D01*
X54540000Y63230000D02*
X49460000Y63230000D01*
X49460000Y65770000D02*
X54540000Y65770000D01*
X54540000Y65770000D02*
X54540000Y63230000D01*
%TD*%
%LPC*%
D17*
%TO.C,R2*%
X60462500Y47000000D03*
X57537500Y47000000D03*
%TD*%
D18*
%TO.C,C14*%
X8475000Y64000000D03*
X5525000Y64000000D03*
%TD*%
D19*
%TO.C,J6*%
X50690000Y68000000D03*
D20*
X53230000Y68000000D03*
X55770000Y68000000D03*
X58310000Y68000000D03*
%TD*%
D17*
%TO.C,R8*%
X55462500Y25000000D03*
X52537500Y25000000D03*
%TD*%
D21*
%TO.C,BZ1*%
X63500000Y10300000D03*
D22*
X63500000Y2700000D03*
%TD*%
D23*
%TO.C,R13*%
X19500000Y50537500D03*
X19500000Y53462500D03*
%TD*%
D19*
%TO.C,U1*%
X50460000Y60000000D03*
D20*
X53000000Y60000000D03*
X55540000Y60000000D03*
%TD*%
D24*
%TO.C,D3*%
X64350000Y15500000D03*
X67650000Y15500000D03*
%TD*%
%TO.C,D1*%
X64350000Y46000000D03*
X67650000Y46000000D03*
%TD*%
D25*
%TO.C,SW1*%
X27000000Y35920000D03*
D26*
X27000000Y46080000D03*
%TD*%
D27*
%TO.C,C1*%
X47500000Y64025000D03*
X47500000Y66975000D03*
%TD*%
D18*
%TO.C,C12*%
X38975000Y39000000D03*
X36025000Y39000000D03*
%TD*%
D27*
%TO.C,C9*%
X18000000Y2525000D03*
X18000000Y5475000D03*
%TD*%
D28*
%TO.C,J3*%
X65950000Y35500000D03*
D29*
X65950000Y40500000D03*
%TD*%
D27*
%TO.C,C2*%
X16515000Y60525000D03*
X16515000Y63475000D03*
%TD*%
%TO.C,C3*%
X19500000Y60525000D03*
X19500000Y63475000D03*
%TD*%
D19*
%TO.C,U6*%
X15350000Y19920000D03*
D20*
X15350000Y22460000D03*
X15350000Y25000000D03*
X15350000Y27540000D03*
%TD*%
D30*
%TO.C,R12*%
X60000000Y60462500D03*
X60000000Y57537500D03*
%TD*%
D19*
%TO.C,U5*%
X38797500Y33490000D03*
D20*
X36257500Y33490000D03*
X33717500Y33490000D03*
X31177500Y33490000D03*
%TD*%
D31*
%TO.C,Q2*%
X60200000Y38720000D03*
D32*
X53900000Y41000000D03*
D31*
X60200000Y43280000D03*
%TD*%
D17*
%TO.C,R6*%
X55462500Y47000000D03*
X52537500Y47000000D03*
%TD*%
D19*
%TO.C,U8*%
X13715000Y2920000D03*
D20*
X13715000Y5460000D03*
X13715000Y8000000D03*
X13715000Y10540000D03*
D33*
X13715000Y13080000D03*
%TD*%
D23*
%TO.C,R1*%
X55000000Y6037500D03*
X55000000Y8962500D03*
%TD*%
D34*
%TO.C,C8*%
X21525000Y36000000D03*
X24475000Y36000000D03*
%TD*%
D31*
%TO.C,Q4*%
X60200000Y16720000D03*
D32*
X53900000Y19000000D03*
D31*
X60200000Y21280000D03*
%TD*%
D35*
%TO.C,REF\u002A\u002A*%
X5000000Y5000000D03*
%TD*%
D31*
%TO.C,Q3*%
X60200000Y27720000D03*
D32*
X53900000Y30000000D03*
D31*
X60200000Y32280000D03*
%TD*%
D36*
%TO.C,C5*%
X24000000Y42975000D03*
X24000000Y40025000D03*
%TD*%
D35*
%TO.C,REF\u002A\u002A*%
X5000000Y35000000D03*
%TD*%
D17*
%TO.C,R5*%
X60462500Y14000000D03*
X57537500Y14000000D03*
%TD*%
D37*
%TO.C,U3*%
X26500000Y68005000D03*
X26500000Y66735000D03*
X26500000Y65465000D03*
X26500000Y64195000D03*
X26500000Y62925000D03*
X26500000Y61655000D03*
X26500000Y60385000D03*
X26500000Y59115000D03*
X26500000Y57845000D03*
X26500000Y56575000D03*
X26500000Y55305000D03*
X26500000Y54035000D03*
X26500000Y52765000D03*
X26500000Y51495000D03*
D38*
X29285000Y50495000D03*
X30555000Y50495000D03*
X31825000Y50495000D03*
X33095000Y50495000D03*
X34365000Y50495000D03*
X35635000Y50495000D03*
X36905000Y50495000D03*
X38175000Y50495000D03*
X39445000Y50495000D03*
X40715000Y50495000D03*
D37*
X43500000Y51495000D03*
X43500000Y52765000D03*
X43500000Y54035000D03*
X43500000Y55305000D03*
X43500000Y56575000D03*
X43500000Y57845000D03*
X43500000Y59115000D03*
X43500000Y60385000D03*
X43500000Y61655000D03*
X43500000Y62925000D03*
X43500000Y64195000D03*
X43500000Y65465000D03*
X43500000Y66735000D03*
X43500000Y68005000D03*
D39*
X34000000Y60505000D03*
%TD*%
D31*
%TO.C,Q1*%
X60300000Y50100000D03*
D32*
X54000000Y52380000D03*
D31*
X60300000Y54660000D03*
%TD*%
D25*
%TO.C,SW2*%
X43000000Y35920000D03*
D26*
X43000000Y46080000D03*
%TD*%
D27*
%TO.C,C4*%
X16500000Y55525000D03*
X16500000Y58475000D03*
%TD*%
D34*
%TO.C,C11*%
X34525000Y5500000D03*
X37475000Y5500000D03*
%TD*%
D19*
%TO.C,U11*%
X19367520Y36190000D03*
D20*
X19367520Y38730000D03*
X19367520Y41270000D03*
X19367520Y43810000D03*
%TD*%
D30*
%TO.C,R10*%
X19500000Y58462500D03*
X19500000Y55537500D03*
%TD*%
D19*
%TO.C,U7*%
X14080000Y67840000D03*
D20*
X11540000Y67840000D03*
X9000000Y67840000D03*
X6460000Y67840000D03*
X3920000Y67840000D03*
%TD*%
D28*
%TO.C,J4*%
X65950000Y20500000D03*
D29*
X65950000Y25500000D03*
%TD*%
D28*
%TO.C,J2*%
X65950000Y50500000D03*
D29*
X65950000Y55500000D03*
%TD*%
D34*
%TO.C,C10*%
X5525000Y49500000D03*
X8475000Y49500000D03*
%TD*%
%TO.C,C7*%
X41525000Y32000000D03*
X44475000Y32000000D03*
%TD*%
D19*
%TO.C,U10*%
X32460000Y2000000D03*
D20*
X35000000Y2000000D03*
X37540000Y2000000D03*
%TD*%
D19*
%TO.C,U9*%
X2500000Y49650000D03*
D20*
X2500000Y52190000D03*
X2500000Y54730000D03*
X2500000Y57270000D03*
X2500000Y59810000D03*
X2500000Y62350000D03*
%TD*%
D35*
%TO.C,REF\u002A\u002A*%
X45000000Y5000000D03*
%TD*%
D40*
%TO.C,U2*%
X8550000Y56362500D03*
X9500000Y56362500D03*
X10450000Y56362500D03*
X10450000Y58637500D03*
X8550000Y58637500D03*
%TD*%
D28*
%TO.C,J1*%
X65950000Y62000000D03*
D29*
X65950000Y67000000D03*
%TD*%
D27*
%TO.C,C6*%
X16500000Y50525000D03*
X16500000Y53475000D03*
%TD*%
%TO.C,C13*%
X19500000Y19525000D03*
X19500000Y22475000D03*
%TD*%
D30*
%TO.C,R11*%
X24000000Y48462500D03*
X24000000Y45537500D03*
%TD*%
D24*
%TO.C,D2*%
X64350000Y31000000D03*
X67650000Y31000000D03*
%TD*%
D17*
%TO.C,R3*%
X60462500Y36000000D03*
X57537500Y36000000D03*
%TD*%
%TO.C,R7*%
X55462500Y36000000D03*
X52537500Y36000000D03*
%TD*%
%TO.C,R9*%
X55462500Y14000000D03*
X52537500Y14000000D03*
%TD*%
D41*
%TO.C,U4*%
X43490000Y27651000D03*
D42*
X43490000Y26851000D03*
D41*
X42220000Y27651000D03*
D42*
X42220000Y26851000D03*
X40950000Y26851000D03*
D41*
X40950000Y27651000D03*
X39680000Y27651000D03*
D42*
X39680000Y26851000D03*
D41*
X38410000Y27651000D03*
D42*
X38410000Y26851000D03*
D41*
X37140000Y27651000D03*
D42*
X37140000Y26851000D03*
D41*
X35870000Y27651000D03*
D42*
X35870000Y26851000D03*
X34600000Y26851000D03*
D41*
X34600000Y27651000D03*
D42*
X33330000Y26851000D03*
D41*
X33330000Y27651000D03*
D42*
X32060000Y26851000D03*
D41*
X32060000Y27651000D03*
D42*
X30790000Y26851000D03*
D41*
X30790000Y27651000D03*
X29520000Y27651000D03*
D42*
X29520000Y26851000D03*
X28261000Y26481000D03*
D43*
X27461000Y26481000D03*
D42*
X28261000Y25211000D03*
D43*
X27461000Y25211000D03*
D42*
X42220000Y12881000D03*
D44*
X42220000Y12103000D03*
D42*
X43490000Y12881000D03*
D44*
X43490000Y12103000D03*
%TD*%
D17*
%TO.C,R4*%
X60462500Y25000000D03*
X57537500Y25000000D03*
%TD*%
D19*
%TO.C,J5*%
X50730000Y64500000D03*
D20*
X53270000Y64500000D03*
%TD*%
M02*
